<svg id="Group_188" data-name="Group 188" xmlns="http://www.w3.org/2000/svg" xmlns:xlink="http://www.w3.org/1999/xlink" width="37.164" height="37.236" viewBox="0 0 37.164 37.236">
  <defs>
    <clipPath id="clip-path">
      <rect id="Rectangle_88" data-name="Rectangle 88" width="37.164" height="37.236" fill="none"/>
    </clipPath>
  </defs>
  <g id="Group_187" data-name="Group 187" transform="translate(0 0)" clip-path="url(#clip-path)">
    <path id="Path_1421" data-name="Path 1421" d="M17.909,36.282a12.77,12.77,0,0,1-3.554-1.334,9.587,9.587,0,0,1-2.741-2.266c-18.541-6.105-7.458-37.6,11.131-28.81,2.634-.2,4.651,1.459,6.571,2.9,2.779,1.431,3.779,4.541,3.733,7.5,3.72,9.13-2.779,22.193-13,22.194a12.49,12.49,0,0,1-2.138-.187" transform="translate(0.376 0.424)" fill="#006796"/>
    <path id="Path_1422" data-name="Path 1422" d="M13.416,21.865c-.037-2.5-.051-5-.2-7.49a2.827,2.827,0,0,1,.2-2.261,2.377,2.377,0,0,1,4.314.564c.5,3.017.268,6.132.351,9.187a2.333,2.333,0,0,1-4.665,0" transform="translate(2.37 1.989)"/>
    <path id="Path_1423" data-name="Path 1423" d="M7.144,33.3A18.653,18.653,0,0,1,2.38,9.5,18.359,18.359,0,0,1,8.98,2.69,19.171,19.171,0,0,1,18.546,0a2.178,2.178,0,0,1,.794.133,18.564,18.564,0,0,1,.784,37.052c-.48.032-.964.051-1.445.051A18.683,18.683,0,0,1,7.144,33.3m11.4-28.578c-.254,0-.513.019-.77.027a20.861,20.861,0,0,0-2.137.3c-.559.138-1.112.291-1.666.467a17.722,17.722,0,0,0-1.656.71c-.494.263-.979.545-1.45.845-.5.351-.983.716-1.45,1.113A18.457,18.457,0,0,0,8.108,9.5c-.369.438-.715.886-1.043,1.353A16.738,16.738,0,0,0,6.11,12.5c-.245.517-.467,1.038-.665,1.578-.189.572-.351,1.149-.484,1.74A18.435,18.435,0,0,0,4.7,17.7c-.032.6-.032,1.2,0,1.791a17.126,17.126,0,0,0,.254,1.939,17.282,17.282,0,0,0,.494,1.785c.217.586.457,1.154.729,1.713q.4.741.845,1.439c.351.508.725.992,1.121,1.459.411.448.84.872,1.288,1.278q.672.567,1.385,1.066c.467.3.942.581,1.435.845a18.247,18.247,0,0,0,1.864.784,17.138,17.138,0,0,0,1.8.484c.572.106,1.148.18,1.734.23.6.033,1.214.033,1.823.009a17.741,17.741,0,0,0,1.966-.267,17.257,17.257,0,0,0,1.731-.476c.549-.2,1.08-.424,1.607-.673a17.459,17.459,0,0,0,1.624-.946,17.04,17.04,0,0,0,1.375-1.056c.456-.411.886-.845,1.3-1.3.37-.434.721-.881,1.048-1.348a16.875,16.875,0,0,0,.969-1.656,17.54,17.54,0,0,0,.688-1.643,17.059,17.059,0,0,0,.508-1.836c.111-.6.189-1.191.245-1.8.027-.6.032-1.2,0-1.748a18.352,18.352,0,0,0-.286-2.067c-.135-.6-.286-1.181-.48-1.767-.176-.489-.379-.975-.6-1.445a16.6,16.6,0,0,0-1-1.74,17.548,17.548,0,0,0-1.2-1.545c-.37-.406-.753-.794-1.159-1.164s-.859-.7-1.315-1.015q-.831-.54-1.7-1a16.416,16.416,0,0,0-1.55-.651A16.035,16.035,0,0,0,21.449,4.9a17.493,17.493,0,0,0-2.026-.273c-.065,0-.129-.009-.194-.009a2.564,2.564,0,0,1-.683.111" transform="translate(0 0)"/>
  </g>
</svg>
