<svg xmlns="http://www.w3.org/2000/svg" width="37.04" height="37.016" viewBox="0 0 37.04 37.016">
  <g id="Group_99" data-name="Group 99" transform="translate(-51.461 -278.492)">
    <path id="Path_132" data-name="Path 132" d="M7.462,30.214C1.012,22.52,2.313,7.633,12,3.156,18.871.352,28.323,3,31.872,9.763,42.442,26.132,21.006,43.222,7.462,30.214" transform="translate(52.082 278.857)" fill="#4ab070"/>
    <g id="Group_98" data-name="Group 98">
      <path id="Path_133" data-name="Path 133" d="M12.113,21.668c.06-3.361.184-6.73.456-10.086a2.355,2.355,0,0,1,4.7.19c-.249,3.291-.41,6.591-.461,9.9a2.347,2.347,0,0,1-4.695,0" transform="translate(53.622 280.178)"/>
      <path id="Path_134" data-name="Path 134" d="M17.16,36.965A18.447,18.447,0,0,1,4.842,30.986a19.2,19.2,0,0,1-3.8-6.375A18.5,18.5,0,0,1,4.354,6.562,18.866,18.866,0,0,1,14.32.431,2.791,2.791,0,0,1,14.9.357c.258-.051.521-.1.779-.138A17.9,17.9,0,0,1,19.656.04a18.939,18.939,0,0,1,7.392,2.039,18.462,18.462,0,0,1,6.887,6.155A18.716,18.716,0,0,1,36.954,20.4,18.273,18.273,0,0,1,34.882,27.2a19.12,19.12,0,0,1-4.695,5.7,18.386,18.386,0,0,1-11.664,4.12c-.456,0-.912-.018-1.363-.051m.557-32.332c-.6.051-1.206.124-1.8.23a1.9,1.9,0,0,1-.336.111c-.557.133-1.1.3-1.644.478q-.836.318-1.643.7c-.451.239-.889.493-1.322.764A18.773,18.773,0,0,0,9.321,8.183c-.41.382-.8.778-1.178,1.188-.4.474-.76.957-1.114,1.464-.328.515-.63,1.041-.917,1.583-.22.484-.418.967-.607,1.455-.185.561-.35,1.132-.488,1.708a20.067,20.067,0,0,0-.282,2.035c-.027.612-.022,1.224,0,1.841.051.557.125,1.114.217,1.671.138.63.3,1.248.5,1.86q.3.843.691,1.657c.262.507.543.995.851,1.478.345.5.709.98,1.1,1.446q.608.67,1.27,1.284c.5.414,1.012.8,1.546,1.178.438.276.88.529,1.33.773.548.263,1.105.5,1.671.722.584.189,1.17.35,1.763.493a19.779,19.779,0,0,0,1.962.267q.9.034,1.809,0c.607-.055,1.206-.138,1.8-.239A19.242,19.242,0,0,0,23.2,31.5c.534-.207,1.059-.428,1.574-.676.516-.277,1.022-.572,1.514-.889.447-.318.876-.654,1.3-1a19.365,19.365,0,0,0,1.4-1.413c.332-.4.645-.8.944-1.22.35-.539.676-1.086.971-1.653.249-.524.475-1.049.673-1.587q.3-.905.506-1.828a18.523,18.523,0,0,0,.253-1.947,16.584,16.584,0,0,0,0-1.745c-.051-.607-.133-1.21-.244-1.814-.143-.626-.312-1.248-.51-1.86a17.613,17.613,0,0,0-.719-1.671q-.414-.787-.9-1.533-.484-.677-1.023-1.312a17.069,17.069,0,0,0-1.293-1.3c-.447-.382-.907-.74-1.391-1.077a17.29,17.29,0,0,0-1.57-.92,16.187,16.187,0,0,0-1.51-.64,17.456,17.456,0,0,0-1.8-.51A16.7,16.7,0,0,0,19.4,4.633c-.269-.013-.535-.019-.8-.019-.292,0-.584.007-.878.019" transform="translate(51.46 278.492)"/>
    </g>
  </g>
</svg>
