<svg xmlns="http://www.w3.org/2000/svg" xmlns:xlink="http://www.w3.org/1999/xlink" width="39.815" height="39.835" viewBox="0 0 39.815 39.835">
  <defs>
    <clipPath id="clip-path">
      <rect id="Rectangle_89" data-name="Rectangle 89" width="39.815" height="39.835" fill="none"/>
    </clipPath>
  </defs>
  <g id="Group_190" data-name="Group 190" transform="translate(0)">
    <g id="Group_189" data-name="Group 189" transform="translate(0 0)" clip-path="url(#clip-path)">
      <path id="Path_1424" data-name="Path 1424" d="M16.1,35.9A14.006,14.006,0,0,1,2.778,18.974c.545-6.945,4.208-13.752,11.315-15.7,4.347-1.38,9.741-2.017,13.068,1.8,10.808.139,11.114,16.895,7.684,24.162-2.508,4.92-7.914,7.669-13.3,7.669a15.009,15.009,0,0,1-5.441-1" transform="translate(0.444 0.398)" fill="#006796"/>
      <path id="Path_1425" data-name="Path 1425" d="M20.211,28.21c-3.53-.124-8.92-1.116-9.529-5.307,0-1.477,1.283-2.367,2.256-3.282,1.555-1.712,4.268-3.7,3.885-6.253a3.278,3.278,0,0,0-1.527.324c-.849,3.069-5.275,1.753-4.762-1.246.434-2.339,3.152-3.414,5.256-3.756A4.955,4.955,0,0,1,21.513,12.6c.848,4.089-2.428,7.582-5.1,10.213,2.026,1.1,6-.236,6.151,3.046a2.385,2.385,0,0,1-2.242,2.358c-.038,0-.074,0-.111,0" transform="translate(1.903 1.56)"/>
      <path id="Path_1426" data-name="Path 1426" d="M10.05,37.232A19.993,19.993,0,0,1,1.227,26.826,20.26,20.26,0,0,1,1.393,12.5,19.987,19.987,0,0,1,10.826,2.142a2.5,2.5,0,0,1,.461-.189c.162-.078.324-.157.48-.23A15.571,15.571,0,0,1,14.5.735,19.922,19.922,0,0,1,36.811,9.406,19.98,19.98,0,0,1,38.5,27.076a20.42,20.42,0,0,1-3.963,6.364,19.772,19.772,0,0,1-14.569,6.4,20.345,20.345,0,0,1-9.918-2.6M18.878,4.671c-.678.06-1.353.148-2.026.272a17.3,17.3,0,0,0-2.017.564c-.443.157-.891.332-1.324.517a2.193,2.193,0,0,1-.3.2c-.586.3-1.145.633-1.7.984q-.879.615-1.694,1.305c-.457.416-.886.845-1.3,1.3q-.677.8-1.274,1.652c-.346.535-.659,1.08-.955,1.643-.278.581-.527,1.167-.753,1.772-.213.641-.392,1.288-.54,1.947a19.5,19.5,0,0,0-.286,2.058,20.992,20.992,0,0,0,0,2.164c.064.675.157,1.348.286,2.017a17.859,17.859,0,0,0,.53,1.907,18.62,18.62,0,0,0,.794,1.845c.3.559.618,1.1.964,1.629.351.5.725.988,1.127,1.463.443.489.908.96,1.4,1.408.5.424,1.007.821,1.542,1.194A19.276,19.276,0,0,0,13.1,33.532c.578.276,1.164.526,1.763.743a19.289,19.289,0,0,0,1.953.545,19.751,19.751,0,0,0,2.072.281c.654.032,1.31.032,1.971,0a18.861,18.861,0,0,0,2.034-.263,20.23,20.23,0,0,0,2-.54c.664-.245,1.31-.521,1.947-.83.526-.281,1.034-.577,1.532-.9.54-.373,1.061-.77,1.564-1.2q.741-.67,1.413-1.412a19.673,19.673,0,0,0,1.227-1.588c.346-.53.659-1.07.955-1.629q.422-.872.762-1.79a19.445,19.445,0,0,0,.567-2.053c.121-.641.208-1.292.268-1.948a20.146,20.146,0,0,0,.009-2.034c-.06-.692-.152-1.38-.278-2.067a19.739,19.739,0,0,0-.554-2.045,17.174,17.174,0,0,0-.734-1.753,19.644,19.644,0,0,0-1.005-1.7A19.487,19.487,0,0,0,31.357,9.77a18.463,18.463,0,0,0-1.418-1.4,17.485,17.485,0,0,0-1.431-1.108c-.545-.359-1.107-.688-1.683-.991A18.592,18.592,0,0,0,25,5.492a18.419,18.419,0,0,0-2.026-.553,19.347,19.347,0,0,0-2.067-.278c-.31-.014-.614-.022-.919-.022-.369,0-.743.013-1.112.032" transform="translate(0 0)"/>
    </g>
  </g>
</svg>
