<svg xmlns="http://www.w3.org/2000/svg" xmlns:xlink="http://www.w3.org/1999/xlink" width="37.236" height="37.21" viewBox="0 0 37.236 37.21">
  <defs>
    <clipPath id="clip-path">
      <rect id="Rectangle_57" data-name="Rectangle 57" width="37.236" height="37.21" fill="none"/>
    </clipPath>
  </defs>
  <g id="Group_108" data-name="Group 108" transform="translate(0 0)">
    <g id="Group_107" data-name="Group 107" transform="translate(0 0)" clip-path="url(#clip-path)">
      <path id="Path_162" data-name="Path 162" d="M10.468,32.751a7.106,7.106,0,0,1-2.519-2.965,9.373,9.373,0,0,1-.686-2.331C.034,23.306,4.933,10.886,9.757,6.488,12.043,4.7,15.3,2.846,18.246,3.1a6.128,6.128,0,0,1,5.527,1.28c6.973.5,9.1,9.047,8.933,14.785.027,8.823-14.5,18.709-22.239,13.583" transform="translate(0.466 0.379)" fill="#4ab070"/>
      <path id="Path_163" data-name="Path 163" d="M10.7,20.338c1.46-2.3,3.715-4.156,4.6-6.781a5.378,5.378,0,0,0-1.949.437,2.265,2.265,0,0,1-4.413-.657C8.877,9.463,15.089,8.162,17.89,9.72c4.473,3.176.181,8.651-2.342,11.664a12.771,12.771,0,0,0,4.959-.155,2.258,2.258,0,0,1,2.532,1.923c.22,3.145-3.927,2.819-6.084,2.89-.095,0-.193.006-.293.006-3.062,0-7.868-2.035-5.963-5.71" transform="translate(1.156 1.175)"/>
      <path id="Path_164" data-name="Path 164" d="M11.617,35.846a18.563,18.563,0,0,1-8.965-7.658,18.888,18.888,0,0,1-2.5-12.092A18.668,18.668,0,0,1,11.63,1.285a2.622,2.622,0,0,1,.44-.132A19.018,19.018,0,0,1,20.1.05a18.551,18.551,0,0,1,10.914,4.7A18.2,18.2,0,0,1,34.9,9.614a19.78,19.78,0,0,1,2.074,5.978,18.5,18.5,0,0,1-2.449,12.683A18.864,18.864,0,0,1,30.27,33.11a19.177,19.177,0,0,1-5.9,3.186,17.613,17.613,0,0,1-5.656.913,19.36,19.36,0,0,1-7.1-1.363m6.07-31.419a18.235,18.235,0,0,0-1.835.252,18.189,18.189,0,0,0-1.928.524c-.071.027-.146.058-.22.085a2.477,2.477,0,0,1-.318.163c-.357.15-.706.309-1.054.477q-.847.444-1.65.967c-.495.348-.967.718-1.425,1.111-.445.41-.873.838-1.28,1.289-.379.449-.732.913-1.072,1.394-.331.507-.63,1.028-.913,1.562-.279.577-.525,1.173-.747,1.773a18.945,18.945,0,0,0-.489,1.835c-.106.592-.185,1.187-.238,1.791-.027.587-.032,1.173-.009,1.761a18.707,18.707,0,0,0,.247,1.932c.132.609.291,1.2.481,1.795A18.612,18.612,0,0,0,6,24.945c.282.539.592,1.063.923,1.571.326.463.666.913,1.032,1.345A18.5,18.5,0,0,0,9.3,29.21c.463.393.94.759,1.434,1.108.521.335,1.054.648,1.606.935.551.264,1.116.5,1.69.706.6.194,1.19.352,1.8.489a17.962,17.962,0,0,0,1.822.247,19.465,19.465,0,0,0,1.972,0c.609-.058,1.2-.132,1.8-.243.63-.146,1.248-.308,1.861-.507.6-.22,1.182-.472,1.761-.745.547-.291,1.076-.6,1.592-.944.459-.331.9-.671,1.328-1.032.475-.442.931-.9,1.371-1.381.344-.419.671-.847.988-1.287a18.47,18.47,0,0,0,.953-1.615c.273-.56.512-1.129.733-1.712a19.064,19.064,0,0,0,.521-1.9c.11-.6.193-1.205.246-1.818.032-.626.04-1.257.009-1.883a18.426,18.426,0,0,0-.252-1.911q-.2-.886-.475-1.752c-.217-.6-.46-1.173-.728-1.743a18.4,18.4,0,0,0-.97-1.65c-.349-.5-.715-.975-1.112-1.438-.419-.454-.856-.891-1.195-1.2q-.662-.568-1.372-1.076c-.5-.326-1.011-.626-1.539-.908a19.95,19.95,0,0,0-1.871-.794c-.6-.19-1.2-.353-1.817-.49-.591-.106-1.182-.181-1.778-.234-.331-.02-.662-.028-.994-.028s-.663.008-1,.024" transform="translate(0 0)"/>
    </g>
  </g>
</svg>
