<svg xmlns="http://www.w3.org/2000/svg" xmlns:xlink="http://www.w3.org/1999/xlink" width="41.306" height="41.371" viewBox="0 0 41.306 41.371">
  <defs>
    <clipPath id="clip-path">
      <rect id="Rectangle_90" data-name="Rectangle 90" width="41.306" height="41.371" fill="none"/>
    </clipPath>
  </defs>
  <g id="Group_192" data-name="Group 192" transform="translate(0)">
    <g id="Group_191" data-name="Group 191" transform="translate(0 0)" clip-path="url(#clip-path)">
      <path id="Path_1427" data-name="Path 1427" d="M14.524,37.191c-5.561-1.855-9.47-7.12-11.186-12.552C1.132,12.987,13.19-.838,25.3,2.469c4.057.1,6.544,3.139,9.363,5.529,4,4.343,4.217,10.974,3.263,16.512-1.438,8.214-9.475,13.753-17.508,13.753a16.381,16.381,0,0,1-5.894-1.073" transform="translate(0.558 0.357)" fill="#006796"/>
      <path id="Path_1428" data-name="Path 1428" d="M13.34,28.645c-.91-2.515,1.518-3.207,3.327-3.973a8.478,8.478,0,0,0,2.668-1.989c-1.574-.5-3.608-1.167-3.585-3.166.319-2.612,3.655-3.746,4.014-6.423a7.528,7.528,0,0,0-3.581,1.643,3.029,3.029,0,0,1-2.053.923,2.368,2.368,0,0,1-1.048-4.471C20.475,4.8,28.768,10.375,22,18.719c4.665,2.792,1.232,7.96-2.45,9.759-1.145.6-2.769,1.556-4.139,1.556a2.157,2.157,0,0,1-2.072-1.389" transform="translate(2.139 1.526)"/>
      <path id="Path_1429" data-name="Path 1429" d="M17.183,41.081A20.893,20.893,0,0,1,6.108,35.395,20.452,20.452,0,0,1,.459,25.118a21.466,21.466,0,0,1,1.194-12.69A20.283,20.283,0,0,1,5.268,6.775q.5-.555,1.024-1.08c.167-.171.337-.337.5-.508A9.5,9.5,0,0,1,8.378,4.006a32.749,32.749,0,0,1,4.249-2.349A22.3,22.3,0,0,1,17.454.194c.125-.027.245-.054.37-.078A2.8,2.8,0,0,1,18.876.079,20.8,20.8,0,0,1,33.039,4.127a19.912,19.912,0,0,1,2.815,2.547c.092.1.189.208.276.31.217.221.406.47.6.7.221.268.434.549.641.83a21.482,21.482,0,0,1,1.25,1.943,20.463,20.463,0,0,1,2.156,5.515A21.091,21.091,0,0,1,39.6,29.008a20.488,20.488,0,0,1-8.994,9.811,21.238,21.238,0,0,1-10.018,2.552,20.225,20.225,0,0,1-3.411-.291m2.4-36.53-.171.014a2.212,2.212,0,0,1-.337.1,35.71,35.71,0,0,0-3.632.95c-.567.213-1.121.457-1.67.721-1.218.637-2.382,1.338-3.53,2.085l-.07.056c-.508.513-1.01,1.024-1.5,1.551-.452.535-.878,1.08-1.283,1.652-.36.559-.7,1.131-1.016,1.717-.313.651-.6,1.316-.858,2-.213.664-.406,1.329-.564,2.007a20.334,20.334,0,0,0-.318,2.317A20.741,20.741,0,0,0,4.649,21.8a19.2,19.2,0,0,0,.287,2.058,20.789,20.789,0,0,0,.558,2.03c.236.641.5,1.27.794,1.883a20.111,20.111,0,0,0,1.094,1.883c.383.549.789,1.075,1.223,1.583a19.947,19.947,0,0,0,1.532,1.532c.47.4.956.775,1.458,1.135q.886.581,1.818,1.075c.624.3,1.256.572,1.9.816a20.386,20.386,0,0,0,2.15.6,19.9,19.9,0,0,0,2.15.3c.711.037,1.418.041,2.128.009.721-.06,1.435-.152,2.147-.281a20.768,20.768,0,0,0,2.1-.578c.627-.23,1.237-.489,1.837-.77.613-.319,1.209-.665,1.794-1.038a21.741,21.741,0,0,0,1.735-1.343,20.578,20.578,0,0,0,1.458-1.467q.645-.762,1.218-1.578a19.921,19.921,0,0,0,1.071-1.818,21.341,21.341,0,0,0,.84-2c.221-.688.415-1.38.567-2.082.133-.734.23-1.467.3-2.206a19.2,19.2,0,0,0,0-1.934,18.637,18.637,0,0,0-.3-2.2A19.635,19.635,0,0,0,36,15.5a19.46,19.46,0,0,0-.859-2.059A19.522,19.522,0,0,0,34.1,11.653c-.392-.573-.812-1.118-1.14-1.515-.046-.051-.092-.1-.11-.124-.457-.508-.942-.992-1.445-1.453a18.716,18.716,0,0,0-1.6-1.242q-.858-.569-1.758-1.053a19.083,19.083,0,0,0-1.966-.84,20.716,20.716,0,0,0-2.164-.6,19.864,19.864,0,0,0-2.067-.291c-.346-.018-.692-.027-1.043-.027-.406,0-.812.013-1.223.037" transform="translate(0 0)"/>
    </g>
  </g>
</svg>
