<svg xmlns="http://www.w3.org/2000/svg" xmlns:xlink="http://www.w3.org/1999/xlink" width="38.188" height="39.97" viewBox="0 0 38.188 39.97">
  <defs>
    <clipPath id="clip-path">
      <rect id="Rectangle_58" data-name="Rectangle 58" width="38.188" height="39.97" fill="none"/>
    </clipPath>
  </defs>
  <g id="Group_110" data-name="Group 110" transform="translate(0 0)">
    <g id="Group_109" data-name="Group 109" transform="translate(0 0)" clip-path="url(#clip-path)">
      <path id="Path_165" data-name="Path 165" d="M11.362,32.1C1.043,27.847-.368,12.935,8.346,6.222A12.635,12.635,0,0,1,19.675,3.782a11.46,11.46,0,0,1,7.443.71C33.434,7.8,35.633,16.7,34.28,23.281,32,32.964,19.366,39.48,11.362,32.1" transform="translate(0.245 0.312)" fill="#4ab070"/>
      <path id="Path_166" data-name="Path 166" d="M18.428,36.745l-.013-.3V34.251c.043.841.085,1.678.12,2.519l-.107-.025" transform="translate(1.72 3.2)"/>
      <path id="Path_167" data-name="Path 167" d="M14.73,27.057c-.692-1.615.683-2.845,2.111-3.3a11.662,11.662,0,0,0,4.19-3.292c-.06-.017-.12-.031-.18-.047.055.009.106.021.163.034.008,0,.012,0,.021,0l0,0s0,0,.009,0a5.937,5.937,0,0,0-1.846-.047c-.321.026-.641.051-.957.051A2.267,2.267,0,0,1,16.285,17.1c1.1-1.662,2.725-3.226,3.068-5.263-2.106.188-3.59,2.072-5.621,2.281a2.185,2.185,0,0,1-.547-4.3,15.816,15.816,0,0,1,2.86-1.542c6.588-3.007,9.739,2.418,6.2,7.97,4.932,1.461,3.588,6.766.124,9.124-1.389.906-3.768,2.987-5.655,2.987a2.155,2.155,0,0,1-1.982-1.3" transform="translate(1.079 0.693)"/>
      <path id="Path_168" data-name="Path 168" d="M8.617,35.063a19.569,19.569,0,0,1-5-4.766A19.153,19.153,0,0,1,.668,24.158a19.543,19.543,0,0,1,.838-12.582,18.942,18.942,0,0,1,6.1-7.8,19.686,19.686,0,0,1,8.4-3.6,1.912,1.912,0,0,1,.641,0A17.573,17.573,0,0,1,19.214,0,19.113,19.113,0,0,1,34.582,7.9a19.089,19.089,0,0,1-6.928,28.279A20.039,20.039,0,0,1,21.58,38.04a17.553,17.553,0,0,1-2.507.175A18.938,18.938,0,0,1,8.617,35.063m9.593-30.8c-.4.03-.795.077-1.187.132a2.366,2.366,0,0,1-.428.116l-.157.025a21.662,21.662,0,0,0-2.106.56,19.386,19.386,0,0,0-1.934.82c-.551.294-1.086.61-1.606.952-.466.333-.914.675-1.35,1.042-.473.428-.922.871-1.358,1.337A19.91,19.91,0,0,0,6.81,10.9c-.312.488-.6.983-.876,1.495q-.448.93-.807,1.9c-.2.619-.367,1.239-.508,1.871-.115.645-.2,1.294-.26,1.947-.03.67-.03,1.346,0,2.021.065.653.154,1.3.273,1.952q.2.871.466,1.721c.235.649.5,1.281.789,1.9.273.517.569,1.021.88,1.521.376.538.769,1.06,1.008,1.358q.692.782,1.448,1.487c.47.406.957.789,1.465,1.157A20.886,20.886,0,0,0,12.512,32.3c.6.29,1.213.538,1.837.769.585.184,1.17.341,1.764.478.688.128,1.371.218,2.068.278.615.026,1.226.026,1.845,0a20.78,20.78,0,0,0,2.127-.286c.577-.132,1.154-.29,1.718-.469.641-.235,1.264-.5,1.88-.791.563-.294,1.1-.615,1.636-.957.478-.341.944-.692,1.4-1.067a20.709,20.709,0,0,0,1.482-1.474q.615-.736,1.167-1.525c.316-.5.61-1,.883-1.52a19.888,19.888,0,0,0,.8-1.893c.192-.606.367-1.217.508-1.84.115-.636.209-1.268.269-1.909.038-.692.038-1.38.009-2.072q-.084-.91-.244-1.815a18.882,18.882,0,0,0-.526-1.935,18.7,18.7,0,0,0-.807-1.918q-.417-.787-.9-1.537A20.284,20.284,0,0,0,30.165,9.2c-.4-.436-.812-.855-1.248-1.248a17.367,17.367,0,0,0-1.537-1.2c-.517-.332-1.046-.645-1.593-.926a17.812,17.812,0,0,0-1.854-.786,18.579,18.579,0,0,0-1.8-.491,19.332,19.332,0,0,0-2.041-.282q-.505-.025-1.008-.025-.436,0-.871.021" transform="translate(0 0)"/>
    </g>
  </g>
</svg>
