<svg id="Group_194" data-name="Group 194" xmlns="http://www.w3.org/2000/svg" xmlns:xlink="http://www.w3.org/1999/xlink" width="41.667" height="42.695" viewBox="0 0 41.667 42.695">
  <defs>
    <clipPath id="clip-path">
      <rect id="Rectangle_91" data-name="Rectangle 91" width="41.667" height="42.696" fill="none"/>
    </clipPath>
  </defs>
  <g id="Group_193" data-name="Group 193" transform="translate(0 0)" clip-path="url(#clip-path)">
    <path id="Path_1430" data-name="Path 1430" d="M13.267,37.649C-5.865,31.156,6.054-1.755,24.882,3.186a10.889,10.889,0,0,1,9.525,5.819c5.45,4.859,3.76,13.7.738,19.492-3.418,6.259-10.274,9.681-17.207,9.682a20.659,20.659,0,0,1-4.672-.532" transform="translate(0.644 0.487)" fill="#006796"/>
    <path id="Path_1431" data-name="Path 1431" d="M16.926,31.912c-3.134-.61-1.75-4.181-1.607-6.331C9.487,24.045,5.246,18.239,10.913,13.56c2.395-2.294,5.224-5.265,8.8-5.057,2.312.211,3.314,2.441,2.491,4.489-.692,2.857-1.2,5.7-1.62,8.6a11.478,11.478,0,0,0,1.888-.116c1.888-.213,3.9-.424,4.31,1.855.171,2.922-2.995,2.922-5.418,2.922-.5,0-.969,0-1.366.027-.378,2.064.1,5.649-2.75,5.649-.1,0-.208,0-.323-.014M12.916,18.424a4.825,4.825,0,0,0,2.995,2.382c.337-2.161.692-4.311,1.159-6.443a25.256,25.256,0,0,0-4.154,4.062" transform="translate(1.495 1.54)"/>
    <path id="Path_1432" data-name="Path 1432" d="M18.267,42.585C3.229,42.313-3.947,24.284,2.2,11.93c2.317-4.3,5.962-8.068,10.692-9.6C16.228,1.468,19.537.26,23,.015c7.277-.341,13.249,5.5,16.6,11.439,3.881,7.587,2.095,17.693-3.6,23.9C31.71,39.308,26.113,42.7,20.15,42.7a16.359,16.359,0,0,1-1.883-.111M8.683,10.776c-5.63,6.2-4.989,16.474.152,22.773,3,3.507,7.776,4.565,12.22,4.458A20.6,20.6,0,0,0,34.05,30.462c3.821-6.207,4.425-14.988-.983-20.434-2.7-3.368-6.785-6.248-11.307-5.372-.747,1.126-2.252.97-3.433,1.214a2.258,2.258,0,0,1-1.334.235,13.844,13.844,0,0,0-8.311,4.67" transform="translate(0 0)"/>
  </g>
</svg>
