<svg xmlns="http://www.w3.org/2000/svg" xmlns:xlink="http://www.w3.org/1999/xlink" width="1235.826" height="135.673" viewBox="0 0 1235.826 135.673">
  <defs>
    <clipPath id="clip-path">
      <rect id="Rectangle_101" data-name="Rectangle 101" width="829.071" height="64.977" fill="none"/>
    </clipPath>
    <clipPath id="clip-path-2">
      <rect id="Rectangle_105" data-name="Rectangle 105" width="1235.826" height="57.675" fill="none"/>
    </clipPath>
  </defs>
  <g id="Group_421" data-name="Group 421" transform="translate(-578 -185)">
    <g id="Group_419" data-name="Group 419">
      <g id="Group_413" data-name="Group 413">
        <g id="Group_410" data-name="Group 410">
          <g id="Group_407" data-name="Group 407" transform="translate(781 185)">
            <g id="Group_406" data-name="Group 406" transform="translate(0 0.001)" clip-path="url(#clip-path)">
              <path id="Path_1837" data-name="Path 1837" d="M23.753,7.167c3.327,3.525,6.58,13.558-.608,14.376A4.266,4.266,0,0,1,18.9,17.3c.576-3.6-3.475-7.509-6.171-3.7C9.72,17.085,8.581,21.72,8.3,26.223c-.586,4.916,1.73,11.563,7.542,11.507,3.515-.569,8.359-4.314,10.547.492,2.061,5.884-6.939,7.431-11.066,7.68C-12.23,44.875,1.581-11.038,23.753,7.167" transform="translate(0 1.46)"/>
              <path id="Path_1838" data-name="Path 1838" d="M30.1,43.67C13.626,35.726,24.979,3.847,37.746,9.759A10.114,10.114,0,0,1,40.4,12.306a12.534,12.534,0,0,1,4.614,4.221,18.886,18.886,0,0,1,2.16,6.646c2.023,8.557-3.6,21.394-12.782,21.4a11.234,11.234,0,0,1-4.3-.9m4.078-7.348c5.409-2.133,5.608-9.342,4.293-14.182-2.177.027-3.707-1.84-4.464-3.785-3.857,4.751-6.414,14.464.171,17.967" transform="translate(9.073 3.742)"/>
              <path id="Path_1839" data-name="Path 1839" d="M46.834,28.978c-5.448-.823-4.315-9.061,1.148-8.359,1.808.536,4.056.061,6.277-.414,3.707-.791,7.327-1.586,8.674,2.342a4.219,4.219,0,0,1-2.928,5.161,47.394,47.394,0,0,1-10.089,1.508,19.339,19.339,0,0,1-3.083-.238" transform="translate(17.931 8.103)"/>
              <path id="Path_1840" data-name="Path 1840" d="M71.463,43c-15.117-4.315-11.994-26.166-1.5-33.812,5.465-3.868,12.178-1.156,13.294,5.481,1.325,5.989-7.4,7.469-8.426,1.458-3.692,2.658-4.757,7.718-5.283,11.994-1.071,7.923,9.022,8.587,14.636,7.431A4.194,4.194,0,0,1,88.862,39.1c.348,4.083-3.754,5.264-8.2,5.264A33.226,33.226,0,0,1,71.463,43" transform="translate(25.319 3.068)"/>
              <path id="Path_1841" data-name="Path 1841" d="M83.875,41.731c-.757-10.338-1.624-20.708-.536-31.067,1.47-6.382,9.984-3.646,8.271,2.519-.791,9.537.093,19.029.591,28.548a4.164,4.164,0,0,1-8.327,0" transform="translate(34.322 2.908)"/>
              <path id="Path_1842" data-name="Path 1842" d="M103.638,40.806c-5.95-1.409-13.431-3.635-16.022-9.747-1.448-6.6,11.376-9.032,7.3-16.315a4.737,4.737,0,0,0-2.3,2.365,4.244,4.244,0,0,1-7.327-4.287c12.558-18.2,27.493,5.028,12.244,17.072,2.491,1.646,5.426,2.3,8.293,2.979,4.772,1.342,3.288,8.089-1.02,8.09a4.588,4.588,0,0,1-1.168-.157" transform="translate(35.107 2.528)"/>
              <path id="Path_1843" data-name="Path 1843" d="M115.371,42.149c-8.868-1.3-12.582-11.431-10.846-19.36,1.078-4.568,1.707-16.165,8.73-13.956,3.194,1.42,2.962,4.813,1.47,7.448a43.6,43.6,0,0,0-2.083,10.044c-.458,7.752,4.808,9.8,10.592,5.034a4.155,4.155,0,0,1,5.658,1.481c2.853,5.786-7.013,9.4-12.222,9.4a8.228,8.228,0,0,1-1.3-.092" transform="translate(43.142 3.545)"/>
              <path id="Path_1844" data-name="Path 1844" d="M104.377,22.457c-.536-5.359,5.983-5.939,9.872-6.564,4.288-.132,11.868-3.812,13.2,2.409.631,6.874-10.872,4.956-15.359,6.575a7.219,7.219,0,0,1-3.684,1.165c-1.863,0-3.465-1.047-4.028-3.585" transform="translate(43.24 6.088)"/>
              <path id="Path_1845" data-name="Path 1845" d="M106.686,17.123c-7.431-8.387,11.68-10.4,16.647-12.116,5.348-1.388,7.574,6.658,2.247,8.165-3.878.95-7.728,1.922-11.524,3.165-1.61.583-3.348,1.638-5.039,1.638a3.547,3.547,0,0,1-2.331-.853" transform="translate(43.507 2.008)"/>
              <path id="Path_1846" data-name="Path 1846" d="M131.038,44.54c-7.5-1.348-2.751-28.7,1.635-32.459,8.327-9.26,15.459.89,16.442,9.724.791,4.215,1.509,8.469,1.918,12.741.673,3.093-.205,7.171-4.055,7.177a4.277,4.277,0,0,1-4.233-4.232c-.586-6.674-1.281-13.6-3.673-19.891-3.315,5.834-3.271,13.332-3.288,19.917,1.672,3.02-.12,7.194-3.52,7.194a4.669,4.669,0,0,1-1.225-.171" transform="translate(52.669 3.486)"/>
              <path id="Path_1847" data-name="Path 1847" d="M128.794,29.863c-4.735-9.376,13.3-8.785,18.657-10.254,5.46-.7,6.608,7.547,1.144,8.376-4.5.789-9.094,1.2-13.5,2.447a4.518,4.518,0,0,1-2.918,1.061,4.22,4.22,0,0,1-3.38-1.629" transform="translate(53.046 8.107)"/>
              <path id="Path_1848" data-name="Path 1848" d="M155.77,45.69a4.224,4.224,0,0,1-3.5-5.095c.174-5.658-.953-11.281-.457-16.944.137-4.017.586-8.055.414-12.083a4.29,4.29,0,0,1,5.761-5.011c3.2,1.327,2.747,5.165,2.726,8.017-.15,5.608-.726,11.182-.464,16.79.027,4.6,2.731,14.326-4.355,14.328h-.12" transform="translate(62.855 2.568)"/>
              <path id="Path_1849" data-name="Path 1849" d="M147.21,17.187a4.3,4.3,0,0,1-1.519-5.8c4.873-6.348,18.663-5.4,26.111-7.734,5.32-1.42,7.53,6.69,2.238,8.133-7.017,1.829-14.431,2.006-21.288,4.375a4.577,4.577,0,0,1-3.452,1.584,4.073,4.073,0,0,1-2.089-.562" transform="translate(60.149 1.446)"/>
              <path id="Path_1850" data-name="Path 1850" d="M168.447,37.655c.139-8.017.519-16.028.833-24.033a4.127,4.127,0,1,1,8.254,0c-.308,8.005-.686,16.022-.747,24.033a4.171,4.171,0,0,1-8.341,0" transform="translate(69.802 3.934)"/>
              <path id="Path_1851" data-name="Path 1851" d="M185.238,40.054c-5.829-3.783-6.581-11.751-3.156-17.425,3.271-5.68,8.855-14.585,16.537-11.756,3.584,1.641,6.9,7.4,5.006,11.127,2.062,9.276-2.43,20.687-10.9,20.688a13.542,13.542,0,0,1-7.489-2.634m7.757-5.873c2.723-1.928,2.475-6.281,2.552-9.315.076-1.7-1.447-2.9-1.542-4.53-2.4,3-7.724,8.54-4.533,12.308a5.613,5.613,0,0,0,3.523,1.537" transform="translate(74.604 4.28)"/>
              <path id="Path_1852" data-name="Path 1852" d="M204.238,46.192a4.294,4.294,0,0,1-2.967-5.221c1.707-6.249,2.813-12.636,4.631-18.852.629-4.452,5.1-7.232,8.519-3.424,3.646,6.005,5.636,13.321,12.1,17.171.553-5.53,2.441-11.922.475-17.165-2.122-7.492,11.8-10.763,8.6,10.58-.431,8.437-2.6,21.647-13.647,13.437a33.2,33.2,0,0,1-9.855-10.459c-1.61,4.113-1.035,14.049-6.737,14.051a5.854,5.854,0,0,1-1.12-.116" transform="translate(83.343 5.386)"/>
              <path id="Path_1853" data-name="Path 1853" d="M260.248,49.314c-5.171-.917-8.945-5.994-9.276-11.093-.327-5.564,3.5-10.094,7.022-13.967-5.724-8.6-1.283-21.172,8.823-23.8,8.861-2.585,14.741,6.443,10.756,14.172-1.905,4.376-5.563,7.669-8.928,10.923a47.835,47.835,0,0,0,5.768,7.254,40.943,40.943,0,0,0,8.4-11.587A4.249,4.249,0,0,1,288.6,19.7c6.243,4-4.4,14.773-7.481,18.4.812.5,1.631.994,2.47,1.453,4.056-1.641,6.376,1.365,6.355,4.376-.034,4.177-4.593,8.353-15.305.076-3.55,2.716-7.742,5.5-12.309,5.5a11.012,11.012,0,0,1-2.078-.2m2.3-8.281c2.034-.293,3.8-1.53,5.454-2.663a53.7,53.7,0,0,1-5.376-6.559C260.951,34,258.122,36.9,260.148,39.7c-.024-.034-.045-.066-.071-.1l-.132-.264a3.952,3.952,0,0,0,.856,1.127c.072.061.144.122-.011.1a2.909,2.909,0,0,0,1.762.475M269.4,8.551c-3.956.834-6.707,5.542-5.044,9.338,2.38-2.581,6.182-5.443,5.878-9.3a.021.021,0,0,1-.017-.006c-.134-.044-.267-.089-.4-.137.322.132-.239.085-.416.1" transform="translate(103.992 -0.001)"/>
              <path id="Path_1854" data-name="Path 1854" d="M308.4,44.2c-7.918-1.89-10.237-10.929-8.988-18.05,1.082-4.977.221-19.889,8.375-17.3,3.658,1.658,2.515,5.078,1.515,7.988-.57,5.675-2.939,12.051-.84,17.537,2.679,4.315,8.64-1.857,11.84-3.139a4.231,4.231,0,0,1,4.271,7.3c-4.3,2.44-8.9,5.882-13.985,5.882A10.869,10.869,0,0,1,308.4,44.2" transform="translate(123.943 3.542)"/>
              <path id="Path_1855" data-name="Path 1855" d="M302.934,25.719a4.267,4.267,0,0,1-2.26-5.559c1.675-3.232,5.692-3.939,8.863-5,3.973-.829,10.353-4.907,12.3.834,1.194,6.658-8.568,6.1-12.718,8.194-1.6.564-3.048,1.891-4.716,1.891a3.226,3.226,0,0,1-1.467-.361" transform="translate(124.451 5.379)"/>
              <path id="Path_1856" data-name="Path 1856" d="M305.928,18.919a4.262,4.262,0,0,1-4.237-4.238c1.055-6.338,9.1-7.834,13.878-10.741A4.266,4.266,0,0,1,321.127,6.2c1.962,6.276-7.1,6.928-10.635,9.906-1.433,1.038-2.264,2.825-4.325,2.825-.078,0-.157,0-.239-.007" transform="translate(125.016 1.482)"/>
              <path id="Path_1857" data-name="Path 1857" d="M324.992,41.917c-1.447-7.994-2.812-24.233,2.817-30.569,4.707-5.288,11.127-1.177,13.879,3.905,5.829-11.939,19.712-9.7,22.448,3.139,1.757,6.536,1.453,13.442.84,20.122a4.26,4.26,0,0,1-4.779,3.624c-4.277-.58-3.752-5.249-3.344-8.447.171-3.52.542-19.465-5.221-17.421-4.237,2.929-3.469,9.227-3.785,13.8-.044,3.337.829,8.42-3.673,9.072-3.625.492-5.161-3.072-5.039-6.148a34.1,34.1,0,0,0-5.762-14.78c-1.614,6.741-1.083,13.923-.42,20.769a4.218,4.218,0,0,1-4.2,5.484,4.01,4.01,0,0,1-3.761-2.544" transform="translate(134.145 3.075)"/>
              <path id="Path_1858" data-name="Path 1858" d="M361.113,61.5c-2.713-.359-4.034-3.038-3.547-5.547.5-6.9-.1-13.779-.3-20.668-.2-7.542-.01-15.117.144-22.664a4.243,4.243,0,1,1,8.486,0c-.321,11.515-.3,23.039.315,34.548-.458,4.533,2,14.338-4.8,14.338-.095,0-.192,0-.291-.006" transform="translate(148.008 3.471)"/>
              <path id="Path_1859" data-name="Path 1859" d="M361.964,33.307c-1.325-7.083,8.984-4.188,10.055-11.232.426-3.271-.215-7.691-3.1-9.669-.989.238-1.536,1.3-2.211,1.989a4.3,4.3,0,0,1-5.95.768c-4.127-3.431.454-8.177,3.785-10.121a8.883,8.883,0,0,1,9.37.436c7.177,5.338,9.011,17.2,3.57,24.366-1.956,2.677-7.162,6.513-11.157,6.515a4.407,4.407,0,0,1-4.363-3.051" transform="translate(148.815 1.619)"/>
              <path id="Path_1860" data-name="Path 1860" d="M383.563,39.346c-15.005-5.171-3.055-35.995,11.072-31.951a7.67,7.67,0,0,1,3.525,2.724,4.072,4.072,0,0,1,2.161,2.629c3.43,10.489-.1,27.326-12.165,27.327a15.852,15.852,0,0,1-4.593-.73m4.42-7.674a3.9,3.9,0,0,0,2.124-.861c3.883-3.847,3.625-10.605,1.434-15.244-4.5,3.1-6.813,9.249-6.3,14.592a6.229,6.229,0,0,0,.43.933l.023-.133a3.46,3.46,0,0,0,2.293.713" transform="translate(156.068 2.913)"/>
              <path id="Path_1861" data-name="Path 1861" d="M406.508,42.941c-8.846-1.038-8.64-11.923-8.044-18.708.679-4.591-.349-10.249,2.817-14,3.933-3.851,10.209,2.034,6.386,6.127-.458,5.884-1.795,12.155-.293,17.94,3.735-2.956,4.718-8.045,5.9-12.415.646-3.177,1.454-7.933,5.741-7.342,5.568,1.232,3.426,8.591,4.791,12.724.049,3.023,4.673,8.669,6.143,3.547,1.3-4.874,1.487-10.3-.789-14.912-2.055-5,5.475-8.188,7.635-3.226,3.984,8.536,4.266,27.033-7.785,28.663A12.861,12.861,0,0,1,417.7,34.819c-2.174,3.943-5.819,8.138-10.65,8.138-.177,0-.356-.006-.537-.017" transform="translate(165.017 3.721)"/>
              <path id="Path_1862" data-name="Path 1862" d="M444.755,43.633c-12.094-.994-13.712-13.448-12.232-23.227.6-3.618.226-7.945,2.646-10.918,3.354-3.591,9.243,1.144,6.7,5.26-.586,5.121-3.321,16.216,1.127,19.729-.078-.05-.156-.1-.232-.16a1.057,1.057,0,0,0-.216-.143,6.008,6.008,0,0,0,1.847.967c-.091-.031-.181-.065-.272-.095,3.293,1.006,6.276-1.52,8.724-3.4,4.359-3.3,9.42,3.243,5.127,6.642-3.513,2.785-7.666,5.382-12.24,5.382q-.488,0-.982-.04" transform="translate(179.042 3.404)"/>
              <path id="Path_1863" data-name="Path 1863" d="M436.347,24.847a4.325,4.325,0,0,1-1.453-6.988c1.232-1.293,3.032-1.5,4.713-1.747,4.116-.557,8.287-1.055,12.188-1.977,5.359-1.371,7.591,6.69,2.255,8.177-4.587,1.1-9.277,1.629-13.946,2.293a4.278,4.278,0,0,1-2.15.593,3.814,3.814,0,0,1-1.607-.349" transform="translate(179.711 5.792)"/>
              <path id="Path_1864" data-name="Path 1864" d="M434.9,16.556C428.916,6.937,447.252,5.224,453.187,3.91a4.235,4.235,0,0,1,1.148,8.392c-4.259.774-8.591,1.481-12.608,3.15a4.367,4.367,0,0,1-3.908,2.324,3.951,3.951,0,0,1-2.915-1.219" transform="translate(179.727 1.597)"/>
              <path id="Path_1865" data-name="Path 1865" d="M459.423,42.938c-7.034-1.238-1.382-12.851-1.6-17.724.641-5.414,1.034-10.846,1.409-16.282a4.2,4.2,0,1,1,8.326,1.144c-.376,5.43-.762,10.867-1.4,16.275-.509,4.365-1.454,8.659-2.023,13.007a4.24,4.24,0,0,1-4.164,3.619,3.861,3.861,0,0,1-.554-.04" transform="translate(188.911 2.198)"/>
              <path id="Path_1866" data-name="Path 1866" d="M477.329,39.277c-5.73-3.365-24.934-9.851-14.138-17.99,2.7-1.713,6.785-2.249,8.31-5.3-.2-2.9-3.635-1.116-4.481.458a4.3,4.3,0,0,1-5.509,2.156c-4.751-2.216-1.922-7.747,1.332-9.967,14.657-10.283,25.062,11.42,8.6,18.117,3.3,1.888,6.768,3.479,10.116,5.287,3.994,2.362,1.6,7.827-2.11,7.827a4.292,4.292,0,0,1-2.116-.59" transform="translate(190.198 2.451)"/>
              <path id="Path_1867" data-name="Path 1867" d="M481.939,38.416c-.209-5.851,2.4-26.349,7.707-28.978,5.3-3.04,10.254,2.337,11.874,7.093,1.922-4.779,7.3-11.087,12.707-7.021,6.171,6.237,4.2,16.342,4.713,24.359-.055,5.46-8.31,5.475-8.37,0-.082-4.983.072-10.028-.757-14.967a58.567,58.567,0,0,0-4.945,16.63,4.362,4.362,0,0,1-4.254,4.861c-4.188-.021-4.441-4.424-4.348-7.6a50.906,50.906,0,0,0-2.857-13.568,89.007,89.007,0,0,0-3.122,19.741,4.294,4.294,0,0,1-8.348-.547" transform="translate(199.705 3.4)"/>
              <path id="Path_1868" data-name="Path 1868" d="M517.274,39.764C509.02,33.532,511.55,21.879,512.6,13c-.071-5.055,6.956-6.9,8.564-1.757.6,5.271-5.956,26.6,5.812,21.111,3.7-1.46,6.929-7.868,11.172-4a4.182,4.182,0,0,1,0,5.867c-3.779,3.7-9.3,7.457-14.724,7.457a10.617,10.617,0,0,1-6.15-1.915" transform="translate(211.917 3.39)"/>
              <path id="Path_1869" data-name="Path 1869" d="M513.548,22.085a4.306,4.306,0,0,1-.713-5.2c2.42-3.116,7.161-3.049,11.646-2.983a29.941,29.941,0,0,0,6.338-.315c5.475-.641,6.614,7.6,1.148,8.376-4.409.426-8.834.327-13.237.745a4.076,4.076,0,0,1-2.126.591,4.554,4.554,0,0,1-3.057-1.215" transform="translate(212.273 5.615)"/>
              <path id="Path_1870" data-name="Path 1870" d="M514.826,15.784c-5.188-7.823,8.437-9.945,13.613-11.266,5.353-1.392,7.58,6.669,2.255,8.177-3.071.839-6.312,1.307-9.208,2.649A6.111,6.111,0,0,1,517.608,17a3.745,3.745,0,0,1-2.782-1.216" transform="translate(212.858 1.805)"/>
              <path id="Path_1871" data-name="Path 1871" d="M534.932,38.162c.795-6.863,2.049-13.686,2.994-20.531.6-2.618.332-5.774,2.327-7.812s5.469-1.315,7.005.917c3.188,5.338,4.376,11.9,8.641,16.659.692-6.393.8-12.813,1.536-19.195a4.16,4.16,0,0,1,4.652-3.53c6.2,1.321,2.321,9.879,2.829,14.111-.612,5.724-.1,11.188-2.27,16.514-5.669,9.348-14.509-3.414-17.459-8.956-.53,3.972-1.238,7.928-1.768,11.9a4.244,4.244,0,0,1-8.486-.078" transform="translate(221.669 1.919)"/>
              <path id="Path_1872" data-name="Path 1872" d="M567.916,44.251c-6.382-2.42.7-29.172-.635-35.907-.194-3.646,4.79-5.663,7.237-2.994,2.7,4,.861,9.657.707,14.21a114.141,114.141,0,0,0-1.371,16.414c.4,3.581-.18,8.607-4.058,8.607a6.14,6.14,0,0,1-1.881-.33" transform="translate(234.215 1.709)"/>
              <path id="Path_1873" data-name="Path 1873" d="M562.214,8.306c.441-7.121,12.26-6.806,21.364-6.492a58.912,58.912,0,0,0,8.332-.033A4.216,4.216,0,0,1,596.1,5.964a4.234,4.234,0,0,1-4.188,4.188c-2.745.11-5.447.088-8.127.061a84.938,84.938,0,0,0-14.005.635,3.749,3.749,0,0,1-3.189,1.645,4.2,4.2,0,0,1-4.375-4.187" transform="translate(232.973 0.697)"/>
            </g>
          </g>
          <g id="Group_420" data-name="Group 420" transform="translate(578 262.998)">
            <g id="Group_420-2" data-name="Group 420" transform="translate(0 0)" clip-path="url(#clip-path-2)">
              <path id="Path_1976" data-name="Path 1976" d="M16.676,49.917C-9.169,41.146,6.933-3.313,32.366,3.363a14.71,14.71,0,0,1,12.867,7.861c7.362,6.564,5.08,18.513,1,26.331-4.617,8.455-13.879,13.078-23.243,13.08a27.907,27.907,0,0,1-6.312-.718" transform="translate(2.115 1.599)" fill="#006796"/>
              <path id="Path_1977" data-name="Path 1977" d="M19.974,40.129c-4.234-.823-2.363-5.648-2.17-8.552C9.925,29.5,4.2,21.659,11.851,15.338c3.235-3.1,7.057-7.113,11.887-6.832,3.123.286,4.476,3.3,3.366,6.064-.935,3.859-1.62,7.7-2.188,11.615a15.505,15.505,0,0,0,2.55-.156c2.55-.287,5.268-.573,5.822,2.505.231,3.947-4.045,3.947-7.319,3.947-.673,0-1.309,0-1.845.037-.511,2.788.137,7.631-3.715,7.631-.137,0-.281-.006-.436-.019M14.556,21.908c.654,1.684,2.443,2.6,4.045,3.217.455-2.919.935-5.823,1.566-8.7a34.117,34.117,0,0,0-5.611,5.487" transform="translate(4.91 5.06)"/>
              <path id="Path_1978" data-name="Path 1978" d="M24.676,57.526C4.361,57.158-5.332,32.8,2.971,16.116c3.129-5.81,8.054-10.9,14.444-12.961C21.922,1.983,26.392.351,31.066.02c9.83-.461,17.9,7.424,22.423,15.453,5.242,10.249,2.829,23.9-4.863,32.286C42.835,53.1,35.274,57.676,27.22,57.676a22.1,22.1,0,0,1-2.544-.15M11.729,14.557c-7.606,8.378-6.739,22.254.206,30.763,4.058,4.738,10.5,6.166,16.507,6.023C35.206,50.557,41.757,46.38,46,41.15c5.161-8.385,5.978-20.246-1.328-27.6C41.021,9,35.5,5.106,29.4,6.29c-1.009,1.521-3.042,1.31-4.638,1.641a3.05,3.05,0,0,1-1.8.318,18.7,18.7,0,0,0-11.227,6.308" transform="translate(0 0.001)"/>
              <path id="Path_1979" data-name="Path 1979" d="M48.6,22.55c.892-4.382,2.829-9.35,7.063-11.458,5.174-2.312,8.14,1.6,8.863,6.371a3.226,3.226,0,0,1-2.231,3.923c-2.829.7-4.052-1.765-4.425-4.14a14.058,14.058,0,0,0-3.086,11.52c.991,2.293,4.12,1.757,6.171,1.995,4.133.124,4.127,6.227,0,6.3-.337.013-.673.019-1,.019C51.1,37.075,46.558,31.62,48.6,22.55" transform="translate(28.668 6.201)"/>
              <path id="Path_1980" data-name="Path 1980" d="M67.738,36.856C51.074,32.729,68.6-2.216,78.9,16.179c3.147,1.222,1.864,5.262,1.826,7.874-.268,5.909-4.788,13.022-11.064,13.022a8.668,8.668,0,0,1-1.926-.219m1.377-6.165c.069.019.137.037,0,.075.187.013.367.024.124.062,4.2-.493,5.249-5.624,5.38-9.146-1.141-1.339-1.321-3.2-2.668-4.4-3.421,2.456-5.616,8.16-4.376,12.237a4.541,4.541,0,0,0,.437.492c-.113-.086-.182-.161-.281-.243a4.061,4.061,0,0,0,1.384.922" transform="translate(36.259 6.474)"/>
              <path id="Path_1981" data-name="Path 1981" d="M87.056,24.747c-2.75-.1-5.487-.262-8.235-.262-4.152-.094-4.152-6.233,0-6.34a21.713,21.713,0,0,0,3.353.069c3.6-.086,7.955-.18,8.041,3.374a3.179,3.179,0,0,1-3.042,3.16Z" transform="translate(45.11 10.812)"/>
              <path id="Path_1982" data-name="Path 1982" d="M93.745,35.694c-6.671-5.667-3.185-16.93,2.687-21.936,3.34-3.26,9.313-4.114,11.444.873,1.534,3.578-3.677,6.208-5.665,2.885-4.208,2.226-7.145,8.5-4.963,12.917,3.367,2.849,8.11.405,11.658-.76a3.159,3.159,0,0,1,4.077,1.658,3.126,3.126,0,0,1-1.658,4.069c-3.249,1.3-6.951,2.557-10.51,2.557a11.3,11.3,0,0,1-7.07-2.263" transform="translate(53.694 6.615)"/>
              <path id="Path_1983" data-name="Path 1983" d="M110.754,38.262c-2.188-.287-3.074-2.512-2.619-4.483.113-3.2.081-6.407.126-9.612.024-3.329.011-6.658.011-9.987a3.192,3.192,0,1,1,6.383,0c.006,5.324.006,10.641-.086,15.958-.088,2.887.6,8.136-3.41,8.136-.131,0-.262-.006-.405-.013" transform="translate(64.363 6.548)"/>
              <path id="Path_1984" data-name="Path 1984" d="M123.379,35.7c-9.787-3.554-16.033-7.162-7.025-16.769a5.256,5.256,0,0,0,1.122-3.048c-3.771.156-4.3,6.876-8.571,4.588-3.56-2.306-.156-6.315,2-8.329,3.029-2.606,8.383-4.12,11.377-.68,4.057,5-.4,11.066-3.747,15.081,2.225,1.5,4.85,2.269,7.306,3.329a3.176,3.176,0,0,1-1.184,6.077,3.528,3.528,0,0,1-1.278-.249" transform="translate(63.968 5.64)"/>
              <path id="Path_1985" data-name="Path 1985" d="M126.659,34.387c-6.353-1.8-6.179-9.232-5.15-14.53a26.711,26.711,0,0,1,1.379-5.761,3.216,3.216,0,0,1,5.878,0,3.608,3.608,0,0,1-.206,3.192c-.68,3.423-1.77,7.169-.873,10.622v-.142c.98,1.009,2.675,1.034,3.983.841,2.462-.673,5.405-3.217,7.307-.112,2.057,4.331-4.2,6.482-8.835,6.482a8.65,8.65,0,0,1-3.484-.592" transform="translate(72.078 7.261)"/>
              <path id="Path_1986" data-name="Path 1986" d="M123.162,21.677c-2.362-5.193,5.024-6.158,8.453-7.28a3.223,3.223,0,0,1,3.927,2.231c.948,4.239-4.414,4.283-7.132,5.423a3.214,3.214,0,0,1-5.249-.373" transform="translate(73.113 8.507)"/>
              <path id="Path_1987" data-name="Path 1987" d="M124.931,19.076a3.212,3.212,0,0,1-2.73-3.6c1.621-4.912,8.123-5.448,12.338-7.125,4.057-1.034,5.7,4.925,1.695,6.154-2.793.935-5.785,1.6-8.273,3.228a3.191,3.191,0,0,1-2.593,1.372,2.56,2.56,0,0,1-.436-.032" transform="translate(72.79 4.906)"/>
              <path id="Path_1988" data-name="Path 1988" d="M135.626,35.322c-2.325-3.385-.562-7.812.062-11.495.86-3.492,1.439-7.22,3.342-10.324,6.015-7.737,12.872.8,13.539,7.7.249,3.528,3.155,12.842-2.332,13.178a3.208,3.208,0,0,1-3.192-3.185c-.105-4.7-.105-10.055-2.761-14.095a55.724,55.724,0,0,0-3.41,14.257c2.031,2.568-.212,5.254-2.643,5.254a3.311,3.311,0,0,1-2.606-1.3" transform="translate(80.117 6.221)"/>
              <path id="Path_1989" data-name="Path 1989" d="M138.736,25.492a3.126,3.126,0,0,1-2.226-.91c-3.647-4.826,3.966-6.926,7.606-7.033,3.048-.093,8.29-2.362,9.17,2.039.38,5.236-7.655,3.5-11.027,4.669-1.253.1-2.132,1.24-3.372,1.24a1.167,1.167,0,0,1-.15-.006" transform="translate(80.764 10.06)"/>
              <path id="Path_1990" data-name="Path 1990" d="M151.1,34.963c-1.534-7.617-1.079-15.435-.174-23.041.148-2.381.586-5.759,3.653-5.734a3.222,3.222,0,0,1,3.192,3.192c-1.366,8.415-1.945,16.45-.431,24.729a3.149,3.149,0,0,1-6.24.854" transform="translate(89.431 3.687)"/>
              <path id="Path_1991" data-name="Path 1991" d="M148.769,20.386c-2.375-1.253-1.913-5.236.755-5.81,3.939-.809,7.935-1.2,11.907-1.789a3.172,3.172,0,0,1,.867,6.284c-3.659.549-7.357.9-10.791,1.577a5,5,0,0,1-1.173.15,2.981,2.981,0,0,1-1.564-.412" transform="translate(87.725 7.604)"/>
              <path id="Path_1992" data-name="Path 1992" d="M161.532,30.118c-.661-3.2-.3-6.5.032-9.719.4-2.549.23-5.324,1.234-7.7a3.218,3.218,0,0,1,5.965,1.6c-.622,4.837-1.626,9.736-1.028,14.549a3.089,3.089,0,0,1-3.26,3.541,2.9,2.9,0,0,1-2.943-2.269" transform="translate(96.027 6.638)"/>
              <path id="Path_1993" data-name="Path 1993" d="M174.06,33.659c-11.945-3.254-2.507-20.995,6.24-21.98,4.32-.188,6.62,4.294,7.244,7.984a27.6,27.6,0,0,1-.985,6.889,10.306,10.306,0,0,1-9.974,7.437,9.612,9.612,0,0,1-2.525-.33m.7-6.651c.431.611,1.433.618,2.126.624,4.189-.206,5.062-6.478,3.447-9.457a12.161,12.161,0,0,0-5.573,8.833" transform="translate(100.355 6.956)"/>
              <path id="Path_1994" data-name="Path 1994" d="M181.4,33.78a3.086,3.086,0,0,1,.854-2.151c.586-4.5,3.018-22.061,10.075-13.739,1.832,3.516,2.829,7.555,5.779,10.386a41,41,0,0,0,1.564-11.864c-.393-2.424-.922-5.367,2.282-5.953,5.7-.255,3.417,9.605,3.342,13.172-1.278,14.213-9.238,15.515-15.772,3.054-.867,3.01-.349,6.178-2.07,8.846a3.287,3.287,0,0,1-2.743,1.4,3.156,3.156,0,0,1-3.31-3.155" transform="translate(108.087 6.23)"/>
              <path id="Path_1995" data-name="Path 1995" d="M213.207,30.247a55.893,55.893,0,0,1-.787-16.325c.986-3.548,6.39-2.782,6.273.922a58.337,58.337,0,0,0,.635,13.713,3.144,3.144,0,0,1-3.157,3.983,3.028,3.028,0,0,1-2.965-2.293" transform="translate(126.421 6.928)"/>
              <path id="Path_1996" data-name="Path 1996" d="M220.569,33.279c-.367-4.519-1.87-22.548,6.845-16.638,2.8,3.248,4.039,7.649,7.312,10.536q.206-6.846.715-13.683c.576-3.985,6.61-3.211,6.123.841-.9,5.916.424,12.555-1.708,18.134-4.033,5.965-10.761-1.409-13.223-5.36-.354,3,1.819,8.085-2.474,8.9a2.7,2.7,0,0,1-.393.026,3.219,3.219,0,0,1-3.2-2.756" transform="translate(131.228 6.477)"/>
              <path id="Path_1997" data-name="Path 1997" d="M250.744,47.118a3.157,3.157,0,0,1-2.681-3.528,126.376,126.376,0,0,0,.761-15.379c-.006-3.659,0-7.312-.174-10.959a3.4,3.4,0,0,1,2.686-4.2c2.419-.354,4,2.063,3.685,4.264.18,4.245.174,8.5.148,12.754a134.6,134.6,0,0,1-.9,14.369,3.176,3.176,0,0,1-3.11,2.713,2.351,2.351,0,0,1-.418-.032" transform="translate(147.786 7.755)"/>
              <path id="Path_1998" data-name="Path 1998" d="M253.056,27.6c-1.514-4.824,5.467-4.738,7.612-7.829.56-.717.642-1.266-.3-1.652-.049-.006-.105-.019-.156-.026-.075-.032-.148-.056-.223-.081.069.026.144.049.124.062l.1.019.169.056a6.281,6.281,0,0,0-5.324,1.366c-1.036,1.589-2.924,2.643-4.725,1.558a3.212,3.212,0,0,1-1.147-4.357c3.666-5.935,15.148-7.563,17.923-.032,1.321,3.84-1.266,7.593-4.382,9.644-1.8,1.066-4.57,3.149-6.845,3.149a3.035,3.035,0,0,1-2.825-1.877" transform="translate(148.217 6.933)"/>
              <path id="Path_1999" data-name="Path 1999" d="M256.28,16.767c.043-.069.088-.131.131-.2a2.349,2.349,0,0,1-.168.268.651.651,0,0,1-.057.069.693.693,0,0,1,.094-.137" transform="translate(152.647 9.872)"/>
              <path id="Path_2000" data-name="Path 2000" d="M265.345,38.26c-3.024-.6-2.849-3.173-2.4-5.611.212-4.127.487-8.19.86-12.293.268-1.95-.15-4.014.375-5.909a3.246,3.246,0,0,1,3.372-1.92,3.192,3.192,0,0,1,2.724,2.724c.274,4.575-.568,9.245-.817,13.79-.436,3.091.611,9.226-3.84,9.226-.094,0-.18,0-.274-.006" transform="translate(156.525 7.448)"/>
              <path id="Path_2001" data-name="Path 2001" d="M277.273,35.947c-25.184-13.6,1.883-15.2-5.249-18.166-1.2-.1-1.939.886-2.619,1.7a3.242,3.242,0,0,1-4.475.573c-2.975-2.426.093-5.916,2.469-7.4a8.394,8.394,0,0,1,9.4.536c5.418,4.114,2.531,10.748-2.861,13.215a68.935,68.935,0,0,0,6.484,4.159,3.143,3.143,0,0,1-1.546,5.822,3.323,3.323,0,0,1-1.6-.442" transform="translate(157.126 6.833)"/>
              <path id="Path_2002" data-name="Path 2002" d="M279,33.481c.393-4.713.043-9.543,1.24-14.189.712-4.389,5.175-8.758,9.751-6.7,3.608,1.783,5.18,5.984,6.489,9.551.91,3.46,4.464,11.251-1.289,11.943a3.2,3.2,0,0,1-3.174-3.173,24.715,24.715,0,0,0-4.457-12.425c-2.437,3.6-1.727,8.665-2.008,12.855,0,1.309.169,2.992-.766,4.052a3.044,3.044,0,0,1-2.5,1.246A3.181,3.181,0,0,1,279,33.481" transform="translate(166.24 7.19)"/>
              <path id="Path_2003" data-name="Path 2003" d="M279.773,24.041a3.257,3.257,0,0,1,3.541-3.192c1.995-.236,3.421-.567,5.049-.9,1.695-.236,3.522-1.165,5.131-.23,2.368,1.259,1.907,5.242-.761,5.815-2.225.188-6.115,1.69-9.058,1.69-2.07,0-3.666-.742-3.9-3.185" transform="translate(166.701 11.507)"/>
              <path id="Path_2004" data-name="Path 2004" d="M285.361,19.682c-.062.013-.118.026-.174.032.056-.013.112-.019.174-.032" transform="translate(169.927 11.727)"/>
              <path id="Path_2005" data-name="Path 2005" d="M293.792,24.66c1.066-5.019,4.526-10.1,9.543-11.75,5.313-1.609,8.629,4.157,8.511,8.784-.069,4.183-6.248,4.189-6.385,0a5.96,5.96,0,0,0-.61-2.582,9.54,9.54,0,0,0-4.826,7.6c2.581,2.494,7.213,1.877,10.572,2.1a3.127,3.127,0,0,1,0,6.253c-.523.018-1.084.037-1.658.037-6.845,0-16.606-1.87-15.148-10.435" transform="translate(174.967 7.528)"/>
              <path id="Path_2006" data-name="Path 2006" d="M311.625,36.841a66.928,66.928,0,0,1-1.216-21.226,32.792,32.792,0,0,1,.487-4.326,3.192,3.192,0,1,1,6.141,1.746c-.736,7.368-1.017,14.873.654,22.136a3.124,3.124,0,0,1-3.136,3.947,2.973,2.973,0,0,1-2.93-2.276" transform="translate(184.763 5.327)"/>
              <path id="Path_2007" data-name="Path 2007" d="M308.071,23.224c-3.522-4.551,3.666-6.881,7.213-7.038,2.9-.15,7.78-2.02,8.552,2.138.249,4.987-6.24,3.415-9.419,4.419a6.371,6.371,0,0,0-2.089.693,3.266,3.266,0,0,1-2.027.7,3.13,3.13,0,0,1-2.231-.916" transform="translate(182.999 9.318)"/>
              <path id="Path_2008" data-name="Path 2008" d="M322.154,30.421a40.9,40.9,0,0,1-.026-16.183c1.222-4,7.175-2.355,6.134,1.69a39.748,39.748,0,0,0-.124,12.361,3.3,3.3,0,0,1-2.1,4.333,2.886,2.886,0,0,1-.8.105,3.155,3.155,0,0,1-3.086-2.306" transform="translate(191.464 7.115)"/>
              <path id="Path_2009" data-name="Path 2009" d="M340.97,35.807c-6.134-.262-13.471-3.348-12.492-10.667a14.344,14.344,0,0,1,7.861-11.1c3.453-2,10.442,1.39,7.673,5.71a3.284,3.284,0,0,1-5.024.12c-2.475.89-5.847,6-3.436,8.191,1.784,1.283,4.165,1.24,6.253,1.589a3.11,3.11,0,0,1-.4,6.184c-.137,0-.281-.013-.431-.026" transform="translate(195.669 8.013)"/>
              <path id="Path_2010" data-name="Path 2010" d="M350.839,36.862c-7.761-1.272-10.174-9.257-7.548-15.958,1.041-2.818,2.143-6.315,5.092-7.649,3.715-1.491,6.246,3.891,2.737,5.779-1.514,2.625-3.908,7.943-1.465,10.523a7.232,7.232,0,0,0,.8.642c1.963,1.111,4.232.549,6.265-.037a3.157,3.157,0,0,1,3.84,2.182c.736,3.809-3.616,4.682-7.106,4.682a20.543,20.543,0,0,1-2.612-.163" transform="translate(203.94 7.744)"/>
              <path id="Path_2011" data-name="Path 2011" d="M342.145,22.6c-1.066-4.794,6.04-4.744,11.24-4.689a30.6,30.6,0,0,0,4.146-.118c4.176.081,4.2,6.272,0,6.377a104.279,104.279,0,0,0-11.228.6,3.121,3.121,0,0,1-1.015.169,3.251,3.251,0,0,1-3.142-2.338" transform="translate(203.802 10.603)"/>
              <path id="Path_2012" data-name="Path 2012" d="M346.061,20.213a3.234,3.234,0,0,1-2.226-3.927c1.84-4.768,10.96-4.55,15.33-5.3,4.146-.444,4.981,5.654.86,6.3-3.591.442-7.319.611-10.71,1.952a3.332,3.332,0,0,1-2.45,1.084,3.2,3.2,0,0,1-.8-.105" transform="translate(204.815 6.533)"/>
              <path id="Path_2013" data-name="Path 2013" d="M365.749,16.135a3.161,3.161,0,1,1,3.16,3.16,3.192,3.192,0,0,1-3.16-3.16" transform="translate(217.93 7.731)"/>
              <path id="Path_2014" data-name="Path 2014" d="M365.585,23.552a3.054,3.054,0,1,1,3.054,3.054,3.084,3.084,0,0,1-3.054-3.054" transform="translate(217.832 12.214)"/>
              <path id="Path_2015" data-name="Path 2015" d="M389.29,42.125c-9.824-1.3-8.341-11.364-5.435-18.228,1.739-3.752,6.688-17.865,12.106-14.88a3.464,3.464,0,0,1,1.658,2.855c.206,1.827-1.589,2.43-2.443,3.666-3.38,5.629-6.709,11.806-7.263,18.451l-.045-.037a2.159,2.159,0,0,0,2.188,1.988l-.193-.019-.187-.037a9.6,9.6,0,0,0,3.417-.511c2.387-.643,4.775-1.285,5.753,1.669a3.161,3.161,0,0,1-2.182,3.848,26.108,26.108,0,0,1-6.4,1.289,8.8,8.8,0,0,1-.972-.056" transform="translate(227.421 5.128)"/>
              <path id="Path_2016" data-name="Path 2016" d="M402.532,39.718c-8.97-.468-8.989-9.438-6.39-15.965,1.416-3.49,3.5-9.133,7.749-9.618a3.2,3.2,0,0,1,3.16,2.754c.468,2.407-1.733,2.992-2.774,4.575-1.851,3.311-3.966,7.6-3.08,11.409l-.15-.056c2.469,1.682,5.448-.424,7.911-1.178a3.15,3.15,0,1,1,2.456,5.8c-2.711,1.079-5.523,2.282-8.471,2.282-.137,0-.274,0-.412-.006" transform="translate(235.148 8.419)"/>
              <path id="Path_2017" data-name="Path 2017" d="M396.951,24.731c-2.138-4.451,4.108-5.817,7.28-6.358,2.183-.2,4.508-1.54,6.6-.5,2.376,1.266,1.915,5.262-.766,5.834q-2.432.505-4.875.967c-1.87.112-3.951,1.57-5.753,1.57a2.788,2.788,0,0,1-2.482-1.514" transform="translate(236.261 10.416)"/>
              <path id="Path_2018" data-name="Path 2018" d="M398.3,21.069c-4.669-6.894,10.647-8.391,14.718-9.83,4.065-1,5.7,4.949,1.695,6.146-3.752,1.036-7.655,1.7-11.252,3.217a4.793,4.793,0,0,1-3.072,1.377,2.875,2.875,0,0,1-2.089-.91" transform="translate(236.804 6.629)"/>
              <path id="Path_2019" data-name="Path 2019" d="M409.8,38.567c-.942-3.7,1.246-7.9,2.312-11.439,2.5-5.742,5.337-13.889,12.393-14.918,6.171-.286,8.4,7,8.79,12.031.056,3.722,1.371,13.989-4.626,13-2.231-.6-2.743-3.048-1.963-4.987.566-4.438.953-9.95-1.827-13.7-5.167,3.777-7.081,11.482-8.8,17.417.318,2.6-1.484,4.556-3.391,4.556a3.348,3.348,0,0,1-2.887-1.969" transform="translate(244.04 7.27)"/>
              <path id="Path_2020" data-name="Path 2020" d="M413.439,24.842c-2.619-6.695,9.238-5.742,13.123-6.564,4.157-.444,4.993,5.672.867,6.315a69.89,69.89,0,0,0-9.476,1.321,3.269,3.269,0,0,1-4.513-1.072" transform="translate(246.123 10.877)"/>
              <path id="Path_2021" data-name="Path 2021" d="M428.809,40.478c-2.138-.523-2.687-2.956-2.038-4.738,1.128-6.115,2.911-12.074,4.507-18.071-1.366-4.084,4.569-6.072,6.233-2.226.972,3.723-1.465,7.644-2.113,11.321-1.04,3.8-1.864,7.649-2.687,11.5a3.14,3.14,0,0,1-3.1,2.319,3.2,3.2,0,0,1-.8-.105" transform="translate(254.136 7.972)"/>
              <path id="Path_2022" data-name="Path 2022" d="M441.669,38.84c-3.048-1.8-6.085-3.627-8.977-5.667-1.24-.879-2.668-2.1-2.887-3.7-.9-5.729,9.806-4.127,9.382-9.356-.985-2.076-3.01-.394-4.033.729-2.992,2.892-7.443-1.559-4.513-4.515,11.246-11.313,22.679,7.02,8.129,13.292,2,1.3,4.033,2.542,6.083,3.765a3.182,3.182,0,0,1-1.564,5.9,3.333,3.333,0,0,1-1.621-.448" transform="translate(256.025 7.583)"/>
              <path id="Path_2023" data-name="Path 2023" d="M444.5,37.375a3.3,3.3,0,0,1-1.409-4.831c.686-2.177,1.072-4.451,1.583-6.677,1.1-3.6,1.179-8.073,3.79-10.946,2.263-1.8,5.175.049,5.96,2.474,1.4,3.672,1.483,7.737,2.7,11.477,1.952-2.861,2.992-6.227,4.339-9.4.736-2.486,2.655-5.909,5.71-4.213a3.178,3.178,0,0,1,.978,4.55c-2.218,4.888-3.477,10.454-7.263,14.45-5.148,4.918-9.431.225-10.367-5.367-.766,2.861-1.09,8.709-4.7,8.709a4.342,4.342,0,0,1-1.328-.225" transform="translate(263.695 8.462)"/>
              <path id="Path_2024" data-name="Path 2024" d="M462.057,36.6c-4.788-1.615-.461-8.559.362-11.8,1.688-2.935,3.129-11.75,7.7-9.917a3.16,3.16,0,0,1,1.671,4.108,115.428,115.428,0,0,0-4.738,11.394c-.779,2.344-1.122,6.34-4.045,6.34a4.2,4.2,0,0,1-.954-.124" transform="translate(273.993 8.722)"/>
              <path id="Path_2025" data-name="Path 2025" d="M469.3,37.115a3.213,3.213,0,0,1-1.433-5.3c2.536-4,4.843-8.148,7.224-12.243,1.2-1.776,2-4.438,4.395-4.856a3.4,3.4,0,0,1,3.366,1.583c1.765,4.215.287,9.146,1.814,13.472,1.982-3.3,2.786-7.406,3.422-10.928.3-4.028,6.265-3.872,6.31.168a46.051,46.051,0,0,1-1.415,7.157c-1.21,3.934-2.756,8.921-7.014,10.422-5.249,1.54-7.96-4.539-8.209-8.846-1.085,1.883-2.22,3.741-3.335,5.6-.942,1.671-2.169,3.908-4.215,3.908a3.239,3.239,0,0,1-.91-.137" transform="translate(278.239 8.748)"/>
              <path id="Path_2026" data-name="Path 2026" d="M489.866,38.4c-10.879-6.782,5.8-33.893,16.164-26,4.258,3.217-.686,9.151-4.2,4.918-4.283.847-13.378,14.369-7.057,16.838,2.1,1.221,5.455.71,6.42-1.7-1.963-4.232,4.264-6.881,5.791-2.456,1.982,6.7-3.983,10.991-9.961,10.991a10.571,10.571,0,0,1-7.156-2.587" transform="translate(289.772 6.536)"/>
              <path id="Path_2027" data-name="Path 2027" d="M519.61,38.936a19.2,19.2,0,0,1-2.687-9.644c-.423-6.746.375-15.591,7.805-18.14,3.228-1.272,11.22-2.488,11.027,2.812-.7,3.31-3.391,2.7-5.94,2.456-5.317.373-6.209,3.591-6.54,8.265-.069,3.7-.249,7.812,1.845,11.034a3.187,3.187,0,0,1-2.849,4.788,3.09,3.09,0,0,1-2.662-1.57" transform="translate(307.952 5.992)"/>
              <path id="Path_2028" data-name="Path 2028" d="M520.284,27.706a3.262,3.262,0,0,1-2.325-3.541c.8-4.052,8.466-4.513,11.806-5.616,4.065-.991,5.705,4.961,1.7,6.146a54.86,54.86,0,0,0-8.286,2.363,3.213,3.213,0,0,1-2.051.772,2.74,2.74,0,0,1-.841-.124" transform="translate(308.606 10.987)"/>
              <path id="Path_2029" data-name="Path 2029" d="M534.213,40.045a3.171,3.171,0,0,1-2.7-3.548c.7-3.9,1.482-7.748,2.525-11.57,1.476-3.677,2.263-11.75,7.044-12.162a3.174,3.174,0,0,1,1.894,5.729A62.145,62.145,0,0,0,540.1,26.88c-.953,3.453-1.714,6.95-2.343,10.474a3.223,3.223,0,0,1-3.106,2.724,3.453,3.453,0,0,1-.442-.032" transform="translate(316.675 7.607)"/>
              <path id="Path_2030" data-name="Path 2030" d="M545.867,38.154c-3.646-1.92-10.671-4.669-9.594-9.775,1.428-4.2,8.74-2.917,9.47-7.548-1.422-5.225-5.137,1.333-6.034,3.49a3.217,3.217,0,0,1-4.371,1.147,3.255,3.255,0,0,1-1.146-4.371c1.894-3.84,4.543-8.16,9.232-8.6a8.2,8.2,0,0,1,8.459,6.521c1.253,5.08-2.812,9.562-7.3,11.283,2.245,1.6,6.87,2.462,5.431,6.165a3.244,3.244,0,0,1-2.949,1.939,2.9,2.9,0,0,1-1.2-.255" transform="translate(318.057 7.429)"/>
              <path id="Path_2031" data-name="Path 2031" d="M553.717,36c-6.029-1.259-5.219-7.58-2.8-11.776,2.4-4.792,5.847-11,11.862-11.257,3.086-.038,5.006,3.067,4.614,5.922a3.387,3.387,0,0,1,.53,2.2c-.255,6.963-5.094,15.034-12.548,15.034A10.822,10.822,0,0,1,553.717,36m1.832-6.227a6.7,6.7,0,0,0,5-4.513,3.093,3.093,0,0,1-.125-1.377c.155-1.1.3-2.194.417-3.292a25.648,25.648,0,0,0-5.292,9.182" transform="translate(327.181 7.727)"/>
              <path id="Path_2032" data-name="Path 2032" d="M564.8,37.174c-6.926-1.514,1.6-13.028,3.385-16.482,1.583-2.207,3.067-5.088,5.71-6.115,4.084-1.309,6.034,3.421,6.072,6.75,12.149-12.816,18.839-.742,13.277,11.851a3.113,3.113,0,0,1-5.735-2.419,14.433,14.433,0,0,0,1.2-8.278c-4.4,2.58-7.643,6.857-9.874,11.3a3.183,3.183,0,0,1-6.072-1.763,69.706,69.706,0,0,0,.854-7.973,54.991,54.991,0,0,0-5.017,9.674c-.244,1.8-1.435,3.5-3.3,3.5a3.476,3.476,0,0,1-.5-.037" transform="translate(334.944 8.552)"/>
              <path id="Path_2033" data-name="Path 2033" d="M605.533,38.246c-5.563-.389-8.776-5.349-7.532-10.639,1.17-6.426,6.481-18.842,14.632-16.814,4.057,1.8,4.355,6.934,4.6,10.8a2.743,2.743,0,0,1-2.732,2.732c-4.181-.271-2.071-5.807-3.838-8.354-3.594,1.213-9.567,13.292-6.626,16.18,1.752,1.159,3.945.742,5.893.432a2.717,2.717,0,0,1,3.038,2.306c.208,3.021-2.916,3.394-5.525,3.394-.7,0-1.356-.026-1.912-.037" transform="translate(356.157 6.299)"/>
              <path id="Path_2034" data-name="Path 2034" d="M615.424,38.67c-5.536-4.275-2.5-12.358-.822-17.9,1.323-3.15,2.861-10.3,6.886-10.533,2.893.054,3.9,4.111,1.211,5.338-1.559,2.659-7.671,17.617-3.64,18.86,2.317.187,5.195-.523,5.439,2.734-.085,2.092-1.874,2.8-3.911,2.8a11.254,11.254,0,0,1-5.163-1.3" transform="translate(364.805 6.098)"/>
              <path id="Path_2035" data-name="Path 2035" d="M629.635,37.39c-7.378-.844-7.244-8.37-5.727-13.981,1.013-3.315,2.477-10.916,7.116-10.062,2.486.624,2.748,4.446.346,5.343-1.751,3.69-3.144,8.056-2.711,12.156,1.291,2.941,5.52-.171,7.409-1.111a2.7,2.7,0,1,1,2.727,4.66c-2.488,1.436-5.263,3.054-8.2,3.054a8.505,8.505,0,0,1-.961-.059" transform="translate(371.258 7.913)"/>
              <path id="Path_2036" data-name="Path 2036" d="M624.107,23.813c-1.905-2.857,1.143-4.756,3.763-4.938a53.216,53.216,0,0,0,8.686-2.119,2.732,2.732,0,0,1,1.451,5.268,63.746,63.746,0,0,1-10.317,2.451,2.986,2.986,0,0,1-1.447.385,2.664,2.664,0,0,1-2.135-1.047" transform="translate(371.516 9.922)"/>
              <path id="Path_2037" data-name="Path 2037" d="M626.316,20.96a2.746,2.746,0,0,1-1.905-3.358c1.068-2.825,4.7-3.224,7.164-4.314,2.406-.843,4.867-1.537,7.3-2.29a2.728,2.728,0,0,1,1.452,5.258c-3.795,1.266-7.772,2.14-11.354,3.961a2.689,2.689,0,0,1-1.947.844,2.5,2.5,0,0,1-.705-.1" transform="translate(371.982 6.492)"/>
              <path id="Path_2038" data-name="Path 2038" d="M639.692,34.277c-2.727-5.072-1.313-11.3-1.238-16.825.378-2.494-.08-7.068,3.608-6.742,3.31.555,2.146,4.255,1.9,6.576a71.072,71.072,0,0,0-.262,11.626c2.973-4.414,4.682-8.887,6.956-13.531a2.724,2.724,0,0,1,5.017,2.119c-2.222,3.955-6.934,18.245-12.784,18.245a4.7,4.7,0,0,1-3.2-1.468" transform="translate(380.162 6.371)"/>
              <path id="Path_2039" data-name="Path 2039" d="M656.451,38.682c-8.621-.854-6.881-11.471-4.895-17.339,1.052-2.759,1.735-6.907,5.086-7.676,3.091-.426,4.564,3.945,1.661,5.281-1.34,3.219-4.377,11.134-2.215,14.114l-.086,0c2.659.742,5.119-1.612,7.41-2.691a2.717,2.717,0,0,1,2.743,4.692c-2.9,1.618-5.93,3.619-9.342,3.619-.116,0-.239,0-.362,0" transform="translate(387.259 8.126)"/>
              <path id="Path_2040" data-name="Path 2040" d="M651.661,24.615a2.747,2.747,0,0,1,0-3.865c3.128-2.691,7.762-1.671,11.514-2.829a2.73,2.73,0,0,1,.737,5.408c-2.754.683-5.638.726-8.393,1.3a3.035,3.035,0,0,1-1.98.769,2.638,2.638,0,0,1-1.878-.785" transform="translate(387.815 10.663)"/>
              <path id="Path_2041" data-name="Path 2041" d="M653.388,19.937a2.762,2.762,0,0,1-.981-3.742c1.776-2.92,5.561-3.694,8.716-4,2.668-.032,7.548-1.605,7.815,2.408-.337,4.255-6.283,2.285-9.139,3.289a6.1,6.1,0,0,0-2.668,1.068,2.8,2.8,0,0,1-2.386,1.35,2.666,2.666,0,0,1-1.356-.369" transform="translate(388.512 7.067)"/>
              <path id="Path_2042" data-name="Path 2042" d="M665.648,37.4c-6.075-.881,1.8-18.134,2.012-22.3a2.732,2.732,0,0,1,5.413.742,70.147,70.147,0,0,1-1.751,7.073,50.254,50.254,0,0,0-2.622,12.17,2.718,2.718,0,0,1-2.7,2.338,2.613,2.613,0,0,1-.353-.021" transform="translate(395.255 7.615)"/>
              <path id="Path_2043" data-name="Path 2043" d="M675.5,36.786a52.665,52.665,0,0,0-6.9-4.926c-1.6-.892-3.476-2.242-2.841-4.336.417-1.5,2-2,3.235-2.652,1.138-.6,2.253-1.222,3.332-1.917,1.254-.795,4.91-3.811,3.267-5.279a4.4,4.4,0,0,0-.646.021l.016.038c-1.965.6-3.351,2.268-4.847,3.587-2.547,2.477-6.353-1.325-3.854-3.849a34.767,34.767,0,0,1,4.436-3.737c5.407-3.822,12.352.139,10.4,6.849-1.095,3.683-4.4,6.139-7.569,7.99,2.161,1.848,8.061,4.2,5.743,7.725a2.789,2.789,0,0,1-2.189,1.052,2.4,2.4,0,0,1-1.585-.567" transform="translate(396.5 7.295)"/>
              <path id="Path_2044" data-name="Path 2044" d="M681.953,15.673a2.742,2.742,0,0,1,0-3.854c2.295-2.114,4.708-4.089,7.111-6.08a2.745,2.745,0,0,1,3.822.5c2.477,3.476-4.111,6.171-6.016,8.466a4.564,4.564,0,0,1-3.15,1.751,2.428,2.428,0,0,1-1.766-.779" transform="translate(405.867 3.083)"/>
              <path id="Path_2045" data-name="Path 2045" d="M689.714,38.1c-2.738-.721-8.7-3.235-6.347-6.843a2.729,2.729,0,0,1,3.795-.492c1.309.94,2.785,2.306,4.511,2.012-.737-6.326-5.932-13.046.089-18.625,2.893-2.786,8.809-2.973,10.174,1.436.669,2.515.806,7.43-2.919,7.1-2.77-.48-2.316-3.01-2.21-5.113a2.871,2.871,0,0,0-1.441.667c.042-.037.086-.075.123-.112a.548.548,0,0,0,.139-.123,3.488,3.488,0,0,0-.779.859c-1.848,4.35,2.263,8.67,2.242,13.1.506,3.587-2.595,6.315-5.909,6.315a5.816,5.816,0,0,1-1.468-.187" transform="translate(406.86 7.242)"/>
              <path id="Path_2046" data-name="Path 2046" d="M709.687,37.247c-8.263-5.21-1.275-19.709,5.568-23.21a4.9,4.9,0,0,1,6.565,1.98c1.213,2.178,2.4,6.4-1.083,7-2.456.319-3.053-1.987-3.474-3.876-4.026,2.429-10.309,15.432-1.111,13.917,2.295-.53,5.45-2.158,6.486,1.034.795,3.528-3.72,3.822-6.128,4.409a8.979,8.979,0,0,1-1.655.15,10.425,10.425,0,0,1-5.167-1.409" transform="translate(420.628 8.038)"/>
              <path id="Path_2047" data-name="Path 2047" d="M721.392,36.337a2.729,2.729,0,0,1-2.322-3.053c.833-4.757,2.247-9.4,3.24-14.12a3.067,3.067,0,0,1,1.116-2.882,2.783,2.783,0,0,1,2.734-.353c3.556,1.81.4,7.505.064,10.505-.544,2.21-1.136,4.42-1.607,6.651-.069,1.633-1.109,3.283-2.8,3.283a3.09,3.09,0,0,1-.428-.032" transform="translate(428.434 9.365)"/>
              <path id="Path_2048" data-name="Path 2048" d="M730.235,40.1c-3.16-.977-1.553-4.314-1.127-6.549.972-5.222,1.655-10.517,2.809-15.7.8-2.45.571-6,3.064-7.414a2.753,2.753,0,0,1,3.581,3.581c-1.671,5.06-2.295,10.426-3.235,15.657-.817,2.738-.6,10.521-4.334,10.521a3.328,3.328,0,0,1-.758-.1" transform="translate(433.966 6.081)"/>
              <path id="Path_2049" data-name="Path 2049" d="M727.345,21.674c-.726-4.393,5.343-3.79,8.163-4.548,2.268-.357,4.526-.774,6.784-1.206a2.736,2.736,0,0,1,3.069,2.328,2.766,2.766,0,0,1-2.332,3.074c-3.61.694-7.239,1.25-10.858,1.9a6.709,6.709,0,0,1-2.13.405,2.58,2.58,0,0,1-2.7-1.949" transform="translate(433.35 9.461)"/>
              <path id="Path_2050" data-name="Path 2050" d="M740.667,35.375c-4.505-1.072-1.218-7.446-.7-10.419.688-2.381,1.516-4.719,2.119-7.127a2.638,2.638,0,0,1,.6-2.4,2.778,2.778,0,0,1,4.093-.262c1.6,1.5.658,3.881.139,5.67-.319,1.109-.667,2.209-1.009,3.315a49.871,49.871,0,0,0-2.188,8.9,2.722,2.722,0,0,1-2.718,2.343c-.112,0-.223-.01-.341-.021" transform="translate(439.928 8.576)"/>
              <path id="Path_2051" data-name="Path 2051" d="M750.911,35.137c-5.775-.908-6.294-7.009-4.51-11.568,1.2-2.962,1.969-7.232,5.3-8.466a2.772,2.772,0,0,1,2,5.14c-1.372,2.766-3.144,6.139-2.622,9.257,2.344,1.19,5.158-.086,7.512-.726a2.7,2.7,0,0,1,1.436,5.2,24.405,24.405,0,0,1-6.961,1.377,10.57,10.57,0,0,1-2.162-.214" transform="translate(444.198 8.944)"/>
              <path id="Path_2052" data-name="Path 2052" d="M746.844,22.272c.357-4.036,5.675-3.94,9.971-3.849a27,27,0,0,0,3.9-.08,2.725,2.725,0,1,1,0,5.45c-3.058.182-6.144-.037-9.181.373a2.431,2.431,0,0,1-1.862.828,2.761,2.761,0,0,1-2.825-2.723" transform="translate(445.003 10.928)"/>
              <path id="Path_2053" data-name="Path 2053" d="M749.005,18.545l.027.118c-.507-5.226,8.461-5,12.006-5.5,3.56-.362,4.271,4.858.742,5.4-2.622.289-5.322.342-7.842,1.181a2.5,2.5,0,0,1-2.162,1.136,2.669,2.669,0,0,1-2.771-2.338" transform="translate(446.291 7.833)"/>
              <path id="Path_2054" data-name="Path 2054" d="M765.174,35.837c-3.512-.6-2.791-5.8.731-5.37a7,7,0,0,0,5.734-.838c-1.885-4.127-5.664-7.6-5.584-12.449-.192-4.264,3.875-7.18,7.895-6.87,6.305-.267,9.891,6.945,5.131,11.407-2.547,2.494-6.358-1.312-3.865-3.864,2.178-2.044-2.206-2.654-3.417-1.612-1.853,5.418,9.208,11.209,3.811,17.048a10.748,10.748,0,0,1-7.617,2.836,13.845,13.845,0,0,1-2.818-.289" transform="translate(454.555 6.129)"/>
            </g>
          </g>
        </g>
      </g>
    </g>
  </g>
</svg>
