<svg xmlns="http://www.w3.org/2000/svg" xmlns:xlink="http://www.w3.org/1999/xlink" width="829.071" height="140.014" viewBox="0 0 829.071 140.014">
  <defs>
    <clipPath id="clip-path">
      <rect id="Rectangle_101" data-name="Rectangle 101" width="829.071" height="64.977" fill="none"/>
    </clipPath>
    <clipPath id="clip-path-2">
      <rect id="Rectangle_102" data-name="Rectangle 102" width="533.526" height="58.014" fill="none"/>
    </clipPath>
  </defs>
  <g id="Group_410" data-name="Group 410" transform="translate(-769 -185)">
    <g id="Group_407" data-name="Group 407" transform="translate(769 185)">
      <g id="Group_406" data-name="Group 406" transform="translate(0 0.001)" clip-path="url(#clip-path)">
        <path id="Path_1837" data-name="Path 1837" d="M23.753,7.167c3.327,3.525,6.58,13.558-.608,14.376A4.266,4.266,0,0,1,18.9,17.3c.576-3.6-3.475-7.509-6.171-3.7C9.72,17.085,8.581,21.72,8.3,26.223c-.586,4.916,1.73,11.563,7.542,11.507,3.515-.569,8.359-4.314,10.547.492,2.061,5.884-6.939,7.431-11.066,7.68C-12.23,44.875,1.581-11.038,23.753,7.167" transform="translate(0 1.46)"/>
        <path id="Path_1838" data-name="Path 1838" d="M30.1,43.67C13.626,35.726,24.979,3.847,37.746,9.759A10.114,10.114,0,0,1,40.4,12.306a12.534,12.534,0,0,1,4.614,4.221,18.886,18.886,0,0,1,2.16,6.646c2.023,8.557-3.6,21.394-12.782,21.4a11.234,11.234,0,0,1-4.3-.9m4.078-7.348c5.409-2.133,5.608-9.342,4.293-14.182-2.177.027-3.707-1.84-4.464-3.785-3.857,4.751-6.414,14.464.171,17.967" transform="translate(9.073 3.742)"/>
        <path id="Path_1839" data-name="Path 1839" d="M46.834,28.978c-5.448-.823-4.315-9.061,1.148-8.359,1.808.536,4.056.061,6.277-.414,3.707-.791,7.327-1.586,8.674,2.342a4.219,4.219,0,0,1-2.928,5.161,47.394,47.394,0,0,1-10.089,1.508,19.339,19.339,0,0,1-3.083-.238" transform="translate(17.931 8.103)"/>
        <path id="Path_1840" data-name="Path 1840" d="M71.463,43c-15.117-4.315-11.994-26.166-1.5-33.812,5.465-3.868,12.178-1.156,13.294,5.481,1.325,5.989-7.4,7.469-8.426,1.458-3.692,2.658-4.757,7.718-5.283,11.994-1.071,7.923,9.022,8.587,14.636,7.431A4.194,4.194,0,0,1,88.862,39.1c.348,4.083-3.754,5.264-8.2,5.264A33.226,33.226,0,0,1,71.463,43" transform="translate(25.319 3.068)"/>
        <path id="Path_1841" data-name="Path 1841" d="M83.875,41.731c-.757-10.338-1.624-20.708-.536-31.067,1.47-6.382,9.984-3.646,8.271,2.519-.791,9.537.093,19.029.591,28.548a4.164,4.164,0,0,1-8.327,0" transform="translate(34.322 2.908)"/>
        <path id="Path_1842" data-name="Path 1842" d="M103.638,40.806c-5.95-1.409-13.431-3.635-16.022-9.747-1.448-6.6,11.376-9.032,7.3-16.315a4.737,4.737,0,0,0-2.3,2.365,4.244,4.244,0,0,1-7.327-4.287c12.558-18.2,27.493,5.028,12.244,17.072,2.491,1.646,5.426,2.3,8.293,2.979,4.772,1.342,3.288,8.089-1.02,8.09a4.588,4.588,0,0,1-1.168-.157" transform="translate(35.107 2.528)"/>
        <path id="Path_1843" data-name="Path 1843" d="M115.371,42.149c-8.868-1.3-12.582-11.431-10.846-19.36,1.078-4.568,1.707-16.165,8.73-13.956,3.194,1.42,2.962,4.813,1.47,7.448a43.6,43.6,0,0,0-2.083,10.044c-.458,7.752,4.808,9.8,10.592,5.034a4.155,4.155,0,0,1,5.658,1.481c2.853,5.786-7.013,9.4-12.222,9.4a8.228,8.228,0,0,1-1.3-.092" transform="translate(43.142 3.545)"/>
        <path id="Path_1844" data-name="Path 1844" d="M104.377,22.457c-.536-5.359,5.983-5.939,9.872-6.564,4.288-.132,11.868-3.812,13.2,2.409.631,6.874-10.872,4.956-15.359,6.575a7.219,7.219,0,0,1-3.684,1.165c-1.863,0-3.465-1.047-4.028-3.585" transform="translate(43.24 6.088)"/>
        <path id="Path_1845" data-name="Path 1845" d="M106.686,17.123c-7.431-8.387,11.68-10.4,16.647-12.116,5.348-1.388,7.574,6.658,2.247,8.165-3.878.95-7.728,1.922-11.524,3.165-1.61.583-3.348,1.638-5.039,1.638a3.547,3.547,0,0,1-2.331-.853" transform="translate(43.507 2.008)"/>
        <path id="Path_1846" data-name="Path 1846" d="M131.038,44.54c-7.5-1.348-2.751-28.7,1.635-32.459,8.327-9.26,15.459.89,16.442,9.724.791,4.215,1.509,8.469,1.918,12.741.673,3.093-.205,7.171-4.055,7.177a4.277,4.277,0,0,1-4.233-4.232c-.586-6.674-1.281-13.6-3.673-19.891-3.315,5.834-3.271,13.332-3.288,19.917,1.672,3.02-.12,7.194-3.52,7.194a4.669,4.669,0,0,1-1.225-.171" transform="translate(52.669 3.486)"/>
        <path id="Path_1847" data-name="Path 1847" d="M128.794,29.863c-4.735-9.376,13.3-8.785,18.657-10.254,5.46-.7,6.608,7.547,1.144,8.376-4.5.789-9.094,1.2-13.5,2.447a4.518,4.518,0,0,1-2.918,1.061,4.22,4.22,0,0,1-3.38-1.629" transform="translate(53.046 8.107)"/>
        <path id="Path_1848" data-name="Path 1848" d="M155.77,45.69a4.224,4.224,0,0,1-3.5-5.095c.174-5.658-.953-11.281-.457-16.944.137-4.017.586-8.055.414-12.083a4.29,4.29,0,0,1,5.761-5.011c3.2,1.327,2.747,5.165,2.726,8.017-.15,5.608-.726,11.182-.464,16.79.027,4.6,2.731,14.326-4.355,14.328h-.12" transform="translate(62.855 2.568)"/>
        <path id="Path_1849" data-name="Path 1849" d="M147.21,17.187a4.3,4.3,0,0,1-1.519-5.8c4.873-6.348,18.663-5.4,26.111-7.734,5.32-1.42,7.53,6.69,2.238,8.133-7.017,1.829-14.431,2.006-21.288,4.375a4.577,4.577,0,0,1-3.452,1.584,4.073,4.073,0,0,1-2.089-.562" transform="translate(60.149 1.446)"/>
        <path id="Path_1850" data-name="Path 1850" d="M168.447,37.655c.139-8.017.519-16.028.833-24.033a4.127,4.127,0,1,1,8.254,0c-.308,8.005-.686,16.022-.747,24.033a4.171,4.171,0,0,1-8.341,0" transform="translate(69.802 3.934)"/>
        <path id="Path_1851" data-name="Path 1851" d="M185.238,40.054c-5.829-3.783-6.581-11.751-3.156-17.425,3.271-5.68,8.855-14.585,16.537-11.756,3.584,1.641,6.9,7.4,5.006,11.127,2.062,9.276-2.43,20.687-10.9,20.688a13.542,13.542,0,0,1-7.489-2.634m7.757-5.873c2.723-1.928,2.475-6.281,2.552-9.315.076-1.7-1.447-2.9-1.542-4.53-2.4,3-7.724,8.54-4.533,12.308a5.613,5.613,0,0,0,3.523,1.537" transform="translate(74.604 4.28)"/>
        <path id="Path_1852" data-name="Path 1852" d="M204.238,46.192a4.294,4.294,0,0,1-2.967-5.221c1.707-6.249,2.813-12.636,4.631-18.852.629-4.452,5.1-7.232,8.519-3.424,3.646,6.005,5.636,13.321,12.1,17.171.553-5.53,2.441-11.922.475-17.165-2.122-7.492,11.8-10.763,8.6,10.58-.431,8.437-2.6,21.647-13.647,13.437a33.2,33.2,0,0,1-9.855-10.459c-1.61,4.113-1.035,14.049-6.737,14.051a5.854,5.854,0,0,1-1.12-.116" transform="translate(83.343 5.386)"/>
        <path id="Path_1853" data-name="Path 1853" d="M260.248,49.314c-5.171-.917-8.945-5.994-9.276-11.093-.327-5.564,3.5-10.094,7.022-13.967-5.724-8.6-1.283-21.172,8.823-23.8,8.861-2.585,14.741,6.443,10.756,14.172-1.905,4.376-5.563,7.669-8.928,10.923a47.835,47.835,0,0,0,5.768,7.254,40.943,40.943,0,0,0,8.4-11.587A4.249,4.249,0,0,1,288.6,19.7c6.243,4-4.4,14.773-7.481,18.4.812.5,1.631.994,2.47,1.453,4.056-1.641,6.376,1.365,6.355,4.376-.034,4.177-4.593,8.353-15.305.076-3.55,2.716-7.742,5.5-12.309,5.5a11.012,11.012,0,0,1-2.078-.2m2.3-8.281c2.034-.293,3.8-1.53,5.454-2.663a53.7,53.7,0,0,1-5.376-6.559C260.951,34,258.122,36.9,260.148,39.7c-.024-.034-.045-.066-.071-.1l-.132-.264a3.952,3.952,0,0,0,.856,1.127c.072.061.144.122-.011.1a2.909,2.909,0,0,0,1.762.475M269.4,8.551c-3.956.834-6.707,5.542-5.044,9.338,2.38-2.581,6.182-5.443,5.878-9.3a.021.021,0,0,1-.017-.006c-.134-.044-.267-.089-.4-.137.322.132-.239.085-.416.1" transform="translate(103.992 -0.001)"/>
        <path id="Path_1854" data-name="Path 1854" d="M308.4,44.2c-7.918-1.89-10.237-10.929-8.988-18.05,1.082-4.977.221-19.889,8.375-17.3,3.658,1.658,2.515,5.078,1.515,7.988-.57,5.675-2.939,12.051-.84,17.537,2.679,4.315,8.64-1.857,11.84-3.139a4.231,4.231,0,0,1,4.271,7.3c-4.3,2.44-8.9,5.882-13.985,5.882A10.869,10.869,0,0,1,308.4,44.2" transform="translate(123.943 3.542)"/>
        <path id="Path_1855" data-name="Path 1855" d="M302.934,25.719a4.267,4.267,0,0,1-2.26-5.559c1.675-3.232,5.692-3.939,8.863-5,3.973-.829,10.353-4.907,12.3.834,1.194,6.658-8.568,6.1-12.718,8.194-1.6.564-3.048,1.891-4.716,1.891a3.226,3.226,0,0,1-1.467-.361" transform="translate(124.451 5.379)"/>
        <path id="Path_1856" data-name="Path 1856" d="M305.928,18.919a4.262,4.262,0,0,1-4.237-4.238c1.055-6.338,9.1-7.834,13.878-10.741A4.266,4.266,0,0,1,321.127,6.2c1.962,6.276-7.1,6.928-10.635,9.906-1.433,1.038-2.264,2.825-4.325,2.825-.078,0-.157,0-.239-.007" transform="translate(125.016 1.482)"/>
        <path id="Path_1857" data-name="Path 1857" d="M324.992,41.917c-1.447-7.994-2.812-24.233,2.817-30.569,4.707-5.288,11.127-1.177,13.879,3.905,5.829-11.939,19.712-9.7,22.448,3.139,1.757,6.536,1.453,13.442.84,20.122a4.26,4.26,0,0,1-4.779,3.624c-4.277-.58-3.752-5.249-3.344-8.447.171-3.52.542-19.465-5.221-17.421-4.237,2.929-3.469,9.227-3.785,13.8-.044,3.337.829,8.42-3.673,9.072-3.625.492-5.161-3.072-5.039-6.148a34.1,34.1,0,0,0-5.762-14.78c-1.614,6.741-1.083,13.923-.42,20.769a4.218,4.218,0,0,1-4.2,5.484,4.01,4.01,0,0,1-3.761-2.544" transform="translate(134.145 3.075)"/>
        <path id="Path_1858" data-name="Path 1858" d="M361.113,61.5c-2.713-.359-4.034-3.038-3.547-5.547.5-6.9-.1-13.779-.3-20.668-.2-7.542-.01-15.117.144-22.664a4.243,4.243,0,1,1,8.486,0c-.321,11.515-.3,23.039.315,34.548-.458,4.533,2,14.338-4.8,14.338-.095,0-.192,0-.291-.006" transform="translate(148.008 3.471)"/>
        <path id="Path_1859" data-name="Path 1859" d="M361.964,33.307c-1.325-7.083,8.984-4.188,10.055-11.232.426-3.271-.215-7.691-3.1-9.669-.989.238-1.536,1.3-2.211,1.989a4.3,4.3,0,0,1-5.95.768c-4.127-3.431.454-8.177,3.785-10.121a8.883,8.883,0,0,1,9.37.436c7.177,5.338,9.011,17.2,3.57,24.366-1.956,2.677-7.162,6.513-11.157,6.515a4.407,4.407,0,0,1-4.363-3.051" transform="translate(148.815 1.619)"/>
        <path id="Path_1860" data-name="Path 1860" d="M383.563,39.346c-15.005-5.171-3.055-35.995,11.072-31.951a7.67,7.67,0,0,1,3.525,2.724,4.072,4.072,0,0,1,2.161,2.629c3.43,10.489-.1,27.326-12.165,27.327a15.852,15.852,0,0,1-4.593-.73m4.42-7.674a3.9,3.9,0,0,0,2.124-.861c3.883-3.847,3.625-10.605,1.434-15.244-4.5,3.1-6.813,9.249-6.3,14.592a6.229,6.229,0,0,0,.43.933l.023-.133a3.46,3.46,0,0,0,2.293.713" transform="translate(156.068 2.913)"/>
        <path id="Path_1861" data-name="Path 1861" d="M406.508,42.941c-8.846-1.038-8.64-11.923-8.044-18.708.679-4.591-.349-10.249,2.817-14,3.933-3.851,10.209,2.034,6.386,6.127-.458,5.884-1.795,12.155-.293,17.94,3.735-2.956,4.718-8.045,5.9-12.415.646-3.177,1.454-7.933,5.741-7.342,5.568,1.232,3.426,8.591,4.791,12.724.049,3.023,4.673,8.669,6.143,3.547,1.3-4.874,1.487-10.3-.789-14.912-2.055-5,5.475-8.188,7.635-3.226,3.984,8.536,4.266,27.033-7.785,28.663A12.861,12.861,0,0,1,417.7,34.819c-2.174,3.943-5.819,8.138-10.65,8.138-.177,0-.356-.006-.537-.017" transform="translate(165.017 3.721)"/>
        <path id="Path_1862" data-name="Path 1862" d="M444.755,43.633c-12.094-.994-13.712-13.448-12.232-23.227.6-3.618.226-7.945,2.646-10.918,3.354-3.591,9.243,1.144,6.7,5.26-.586,5.121-3.321,16.216,1.127,19.729-.078-.05-.156-.1-.232-.16a1.057,1.057,0,0,0-.216-.143,6.008,6.008,0,0,0,1.847.967c-.091-.031-.181-.065-.272-.095,3.293,1.006,6.276-1.52,8.724-3.4,4.359-3.3,9.42,3.243,5.127,6.642-3.513,2.785-7.666,5.382-12.24,5.382q-.488,0-.982-.04" transform="translate(179.042 3.404)"/>
        <path id="Path_1863" data-name="Path 1863" d="M436.347,24.847a4.325,4.325,0,0,1-1.453-6.988c1.232-1.293,3.032-1.5,4.713-1.747,4.116-.557,8.287-1.055,12.188-1.977,5.359-1.371,7.591,6.69,2.255,8.177-4.587,1.1-9.277,1.629-13.946,2.293a4.278,4.278,0,0,1-2.15.593,3.814,3.814,0,0,1-1.607-.349" transform="translate(179.711 5.792)"/>
        <path id="Path_1864" data-name="Path 1864" d="M434.9,16.556C428.916,6.937,447.252,5.224,453.187,3.91a4.235,4.235,0,0,1,1.148,8.392c-4.259.774-8.591,1.481-12.608,3.15a4.367,4.367,0,0,1-3.908,2.324,3.951,3.951,0,0,1-2.915-1.219" transform="translate(179.727 1.597)"/>
        <path id="Path_1865" data-name="Path 1865" d="M459.423,42.938c-7.034-1.238-1.382-12.851-1.6-17.724.641-5.414,1.034-10.846,1.409-16.282a4.2,4.2,0,1,1,8.326,1.144c-.376,5.43-.762,10.867-1.4,16.275-.509,4.365-1.454,8.659-2.023,13.007a4.24,4.24,0,0,1-4.164,3.619,3.861,3.861,0,0,1-.554-.04" transform="translate(188.911 2.198)"/>
        <path id="Path_1866" data-name="Path 1866" d="M477.329,39.277c-5.73-3.365-24.934-9.851-14.138-17.99,2.7-1.713,6.785-2.249,8.31-5.3-.2-2.9-3.635-1.116-4.481.458a4.3,4.3,0,0,1-5.509,2.156c-4.751-2.216-1.922-7.747,1.332-9.967,14.657-10.283,25.062,11.42,8.6,18.117,3.3,1.888,6.768,3.479,10.116,5.287,3.994,2.362,1.6,7.827-2.11,7.827a4.292,4.292,0,0,1-2.116-.59" transform="translate(190.198 2.451)"/>
        <path id="Path_1867" data-name="Path 1867" d="M481.939,38.416c-.209-5.851,2.4-26.349,7.707-28.978,5.3-3.04,10.254,2.337,11.874,7.093,1.922-4.779,7.3-11.087,12.707-7.021,6.171,6.237,4.2,16.342,4.713,24.359-.055,5.46-8.31,5.475-8.37,0-.082-4.983.072-10.028-.757-14.967a58.567,58.567,0,0,0-4.945,16.63,4.362,4.362,0,0,1-4.254,4.861c-4.188-.021-4.441-4.424-4.348-7.6a50.906,50.906,0,0,0-2.857-13.568,89.007,89.007,0,0,0-3.122,19.741,4.294,4.294,0,0,1-8.348-.547" transform="translate(199.705 3.4)"/>
        <path id="Path_1868" data-name="Path 1868" d="M517.274,39.764C509.02,33.532,511.55,21.879,512.6,13c-.071-5.055,6.956-6.9,8.564-1.757.6,5.271-5.956,26.6,5.812,21.111,3.7-1.46,6.929-7.868,11.172-4a4.182,4.182,0,0,1,0,5.867c-3.779,3.7-9.3,7.457-14.724,7.457a10.617,10.617,0,0,1-6.15-1.915" transform="translate(211.917 3.39)"/>
        <path id="Path_1869" data-name="Path 1869" d="M513.548,22.085a4.306,4.306,0,0,1-.713-5.2c2.42-3.116,7.161-3.049,11.646-2.983a29.941,29.941,0,0,0,6.338-.315c5.475-.641,6.614,7.6,1.148,8.376-4.409.426-8.834.327-13.237.745a4.076,4.076,0,0,1-2.126.591,4.554,4.554,0,0,1-3.057-1.215" transform="translate(212.273 5.615)"/>
        <path id="Path_1870" data-name="Path 1870" d="M514.826,15.784c-5.188-7.823,8.437-9.945,13.613-11.266,5.353-1.392,7.58,6.669,2.255,8.177-3.071.839-6.312,1.307-9.208,2.649A6.111,6.111,0,0,1,517.608,17a3.745,3.745,0,0,1-2.782-1.216" transform="translate(212.858 1.805)"/>
        <path id="Path_1871" data-name="Path 1871" d="M534.932,38.162c.795-6.863,2.049-13.686,2.994-20.531.6-2.618.332-5.774,2.327-7.812s5.469-1.315,7.005.917c3.188,5.338,4.376,11.9,8.641,16.659.692-6.393.8-12.813,1.536-19.195a4.16,4.16,0,0,1,4.652-3.53c6.2,1.321,2.321,9.879,2.829,14.111-.612,5.724-.1,11.188-2.27,16.514-5.669,9.348-14.509-3.414-17.459-8.956-.53,3.972-1.238,7.928-1.768,11.9a4.244,4.244,0,0,1-8.486-.078" transform="translate(221.669 1.919)"/>
        <path id="Path_1872" data-name="Path 1872" d="M567.916,44.251c-6.382-2.42.7-29.172-.635-35.907-.194-3.646,4.79-5.663,7.237-2.994,2.7,4,.861,9.657.707,14.21a114.141,114.141,0,0,0-1.371,16.414c.4,3.581-.18,8.607-4.058,8.607a6.14,6.14,0,0,1-1.881-.33" transform="translate(234.215 1.709)"/>
        <path id="Path_1873" data-name="Path 1873" d="M562.214,8.306c.441-7.121,12.26-6.806,21.364-6.492a58.912,58.912,0,0,0,8.332-.033A4.216,4.216,0,0,1,596.1,5.964a4.234,4.234,0,0,1-4.188,4.188c-2.745.11-5.447.088-8.127.061a84.938,84.938,0,0,0-14.005.635,3.749,3.749,0,0,1-3.189,1.645,4.2,4.2,0,0,1-4.375-4.187" transform="translate(232.973 0.697)"/>
      </g>
    </g>
    <g id="Group_409" data-name="Group 409" transform="translate(917 267)">
      <g id="Group_408" data-name="Group 408" transform="translate(0 0)" clip-path="url(#clip-path-2)">
        <path id="Path_1874" data-name="Path 1874" d="M25.452,52.454a18.853,18.853,0,0,1-5.246-1.969,14.154,14.154,0,0,1-4.046-3.345C-11.216,38.126,5.148-8.366,32.592,4.6c3.889-.293,6.867,2.154,9.7,4.285,4.1,2.112,5.58,6.7,5.512,11.072,5.492,13.479-4.1,32.766-19.2,32.768a18.44,18.44,0,0,1-3.157-.276" transform="translate(1.545 1.739)" fill="#006796"/>
        <path id="Path_1875" data-name="Path 1875" d="M13.582,27.057c-.054-3.685-.075-7.378-.293-11.058a4.174,4.174,0,0,1,.293-3.338c1.39-2.623,5.723-2.084,6.37.832.736,4.455.4,9.054.518,13.564a3.444,3.444,0,0,1-6.888,0" transform="translate(9.725 8.161)"/>
        <path id="Path_1876" data-name="Path 1876" d="M10.547,49.17A27.539,27.539,0,0,1,3.515,14.022a27.105,27.105,0,0,1,9.743-10.05A28.3,28.3,0,0,1,27.382,0a3.216,3.216,0,0,1,1.172.2,27.408,27.408,0,0,1,1.158,54.7c-.708.047-1.423.075-2.133.075A27.583,27.583,0,0,1,10.547,49.17M27.382,6.977c-.375.007-.757.028-1.137.04a30.8,30.8,0,0,0-3.155.45c-.825.2-1.641.429-2.459.689A26.165,26.165,0,0,0,18.185,9.2c-.729.389-1.446.8-2.14,1.247-.736.518-1.451,1.057-2.14,1.643a27.25,27.25,0,0,0-1.934,1.927c-.544.647-1.055,1.308-1.54,2A24.713,24.713,0,0,0,9.021,18.45c-.361.764-.689,1.533-.982,2.33-.279.844-.518,1.7-.715,2.569a27.218,27.218,0,0,0-.389,2.785c-.047.886-.047,1.765-.007,2.644A25.285,25.285,0,0,0,7.3,31.641a25.515,25.515,0,0,0,.729,2.635c.321.865.675,1.7,1.076,2.529q.583,1.094,1.247,2.124c.518.75,1.071,1.465,1.655,2.154.607.661,1.24,1.287,1.9,1.887q.992.837,2.044,1.573c.689.45,1.39.858,2.119,1.247a26.94,26.94,0,0,0,2.752,1.158,25.3,25.3,0,0,0,2.658.715c.844.157,1.7.265,2.56.34.893.049,1.793.049,2.691.014a26.19,26.19,0,0,0,2.9-.394,25.478,25.478,0,0,0,2.555-.7c.811-.293,1.594-.626,2.372-.994a25.778,25.778,0,0,0,2.4-1.4,25.158,25.158,0,0,0,2.03-1.559c.673-.607,1.308-1.247,1.92-1.915.546-.64,1.064-1.3,1.547-1.99a24.912,24.912,0,0,0,1.43-2.445,25.9,25.9,0,0,0,1.015-2.426,25.185,25.185,0,0,0,.75-2.71c.164-.879.279-1.758.361-2.651.04-.891.047-1.77.007-2.581A27.1,27.1,0,0,0,47.6,23.2c-.2-.879-.422-1.744-.708-2.609-.26-.722-.56-1.439-.886-2.133a24.508,24.508,0,0,0-1.479-2.569,25.908,25.908,0,0,0-1.777-2.281c-.546-.6-1.111-1.172-1.711-1.718-.619-.53-1.268-1.027-1.941-1.5q-1.227-.8-2.515-1.472A24.235,24.235,0,0,0,34.3,7.957a23.674,23.674,0,0,0-2.63-.727,25.827,25.827,0,0,0-2.991-.4c-.1-.007-.19-.014-.286-.014a3.785,3.785,0,0,1-1.008.164" transform="translate(0 0)"/>
        <path id="Path_1877" data-name="Path 1877" d="M44.26,37.473c-7.952-1.983-5.73-13.557-5.7-19.751-.79-1.411-.047-3.033.239-4.5a3.519,3.519,0,0,1,3.359-2.562c3.631.122,3.746,3.692,3.378,6.487-.169,4.3-.729,8.707.192,12.957,2.044-2.117,2.656-5.13,3.706-7.767a3.5,3.5,0,0,1,6.555.429c.633,2.705.4,6.337,3.351,7.687,4.273,1.151,3.2-8.435,3.209-10.676-.15-2.822-2.623-6.637,1.015-8.238,7.441-2.309,6.207,13.986,5.335,18.178-1.512,8.543-11.848,10.376-16.767,3.514-1.6,2.311-4.1,4.306-6.964,4.313a7,7,0,0,1-.912-.068" transform="translate(28.435 7.93)"/>
        <path id="Path_1878" data-name="Path 1878" d="M62.758,39.568c-2.656-9.232-2.541-19-2.234-28.54a3.489,3.489,0,1,1,6.97.232c-.3,8.972-.361,17.128,1.622,25.623a3.445,3.445,0,0,1-3.3,4.769,3.286,3.286,0,0,1-3.059-2.084" transform="translate(44.923 5.611)"/>
        <path id="Path_1879" data-name="Path 1879" d="M77.523,33.1a3.566,3.566,0,0,1-1.294-2.227c-.328-1.636-.621-3.263-.832-4.906-4.121,4.264-15.043,7.331-14.518-1.758.258-3.188,5.021-4.1,6.438-1.28,4.939-2.009,7.788-6.806,8.749-11.848,2.29-4.428,8.217-1.205,6.35,3.263a45.513,45.513,0,0,0,.544,15.608,3.427,3.427,0,0,1-3.474,3.863,2.987,2.987,0,0,1-1.962-.715" transform="translate(45.29 6.673)"/>
        <path id="Path_1880" data-name="Path 1880" d="M89.488,50.3a5.34,5.34,0,0,1-1.58-.239c-6.8-1.13-4.62-9.607,1.608-6.52h.007c3.876-2.937,1.538-11.515,1.723-15.95-7.835,10.31-16.072,4.055-14.4-7.357.408-3.366.11-8.96,4.306-9.839a3.508,3.508,0,0,1,3.31,5.471,28.753,28.753,0,0,0-.586,9.579c2.794-2.14,3.966-5.962,7-7.767,7.434-2.194,7.017,8.5,7.385,13.238.035,4.789.9,10.029-1.47,14.415-1.472,2.6-4.191,4.967-7.23,4.967Z" transform="translate(57.021 7.713)"/>
        <path id="Path_1881" data-name="Path 1881" d="M103.019,27.993c-.232-6.057,1.711-13.046,6.813-16.733,4.864-3.392,10.165.136,11.6,5.294a3.525,3.525,0,0,1-1.854,4.571c-3.434,1.235-4.481-1.688-5.676-4.169a1.251,1.251,0,0,0-.406.239,13.36,13.36,0,0,0-3.314,11.574c1.071,1.629,3.462,1.254,5.164,1.526,4.51.15,4.491,6.8,0,6.862-.181.007-.361.014-.542.014-5.588,0-11.721-2.869-11.789-9.178" transform="translate(76.649 7.382)"/>
        <path id="Path_1882" data-name="Path 1882" d="M118.971,37.653c-8.763-5.356-1.057-26.326,8.96-25.3,3.855.443,5.587,4.428,6.635,7.685,2.841,7.446-3.134,18.8-11.119,18.8a9.357,9.357,0,0,1-4.476-1.191m4.271-5.7c3.392-.457,4.817-4.557,5.1-7.549.183-1.805-.914-3.38-1.554-5.014-2.5,1.24-6.977,11.3-3.549,12.563" transform="translate(85.688 9.167)"/>
        <path id="Path_1883" data-name="Path 1883" d="M129.32,21.2c.258-3.746,3.434-3.549,6.323-3.481.422,0,.893-.021,1.383-.035,2.881-.1,6.473-.2,6.588,3.441-.094,3.57-3.631,3.535-6.466,3.5-.45-.007-.879-.014-1.266,0-.614.033-1.254.068-1.88.068-2.33,0-4.5-.478-4.681-3.5" transform="translate(96.235 13.134)"/>
        <path id="Path_1884" data-name="Path 1884" d="M149.574,38.137c-11.241-4.156-6.37-20.2.633-26.244,4.353-3.4,8.838-.776,10.936,3.678a3.52,3.52,0,0,1-1.247,4.777c-2.445,1.444-4.681-.546-5.689-2.733-2.874,3.2-4.81,8.095-4.162,12.408,1.4,2.459,4.516,2.316,7.275,2.166.792-.042,1.554-.082,2.243-.061a3.438,3.438,0,0,1,3.413,3.42c.012,2.834-2.937,3.658-6.167,3.658a27.348,27.348,0,0,1-7.235-1.069" transform="translate(106.34 7.696)"/>
        <path id="Path_1885" data-name="Path 1885" d="M161.339,37.48a3.457,3.457,0,0,1-2.916-3.87c.265-4.251.565-8.489.914-12.739a31.208,31.208,0,0,0-.075-6.521,3.518,3.518,0,0,1,3.917-2.97c5.369,1.212,2.7,9.007,2.813,12.931-.286,3.413-.532,6.827-.8,10.247a3.425,3.425,0,0,1-3.434,2.958,2.8,2.8,0,0,1-.422-.035" transform="translate(117.869 8.447)"/>
        <path id="Path_1886" data-name="Path 1886" d="M174.162,35.511c-4.114-2.4-13.053-3.739-11.349-10.2a3.5,3.5,0,0,1-3.844-4.36c1.228-3.76,2.679-7.924,6.473-9.79,5.37-3.115,12.427,1.13,11.468,7.46-.5,3.467-2.883,6.2-5.7,8.114,2.841,1.622,8.993,2.419,7.406,6.963a3.531,3.531,0,0,1-3.181,2.1,2.867,2.867,0,0,1-1.275-.288M165.9,22.1c1.423-.987,3.031-1.915,3.945-3.448-.068.15-.129.26-.2.4a2.879,2.879,0,0,0,.478-1.512l.129.157c-.218-1.008-1.226-.661-1.859-.253.087-.061.183-.129.272-.19l.176-.061h-.08c-1.737,1.015-2.194,3.16-2.862,4.912" transform="translate(118.182 7.528)"/>
        <path id="Path_1887" data-name="Path 1887" d="M180.061,36.571c-11.705-1.526-8.224-16.515-5.587-24.322a3.5,3.5,0,0,1,5.962-.771c1.833,2.555-.593,5.506-.825,8.245-.2,2.4-2.03,8.5.4,9.879-.143-.054-.274-.1-.424-.15,2.5,1.05,5.042-.64,7.23-1.737,3.945-2.159,7.291,3.584,3.453,5.907-2.745,1.463-5.791,3.038-8.965,3.038a8.569,8.569,0,0,1-1.247-.089" transform="translate(127.891 7.545)"/>
        <path id="Path_1888" data-name="Path 1888" d="M175.718,23.811a3.552,3.552,0,0,1-2.576-5.239c1.146-1.92,3.666-2.2,5.676-2.63,2.991-.469,7.774-2.731,9.049,1.432a3.5,3.5,0,0,1-2.433,4.285c-2.431.5-4.912.926-7.31,1.594a3.4,3.4,0,0,1-1.9.6,3.009,3.009,0,0,1-.5-.04" transform="translate(128.495 11.093)"/>
        <path id="Path_1889" data-name="Path 1889" d="M173.346,18.09c-2.52-3.584,1.737-5.941,4.632-7.066,3.066-1.116,7.863-4.748,9.968-.436,1.765,4.517-4.735,5.478-7.291,6.855-1.5.79-3.228,1.962-4.837,1.962a3.008,3.008,0,0,1-2.473-1.315" transform="translate(128.427 6.349)"/>
        <path id="Path_1890" data-name="Path 1890" d="M186.268,34.014c-.089-7.938-.5-16.958,5-23.063,10.779-6.745,16.461,11.6,15.65,19.685-.232,2.963-4.482,4.039-6.173,1.641-1-1.205-.6-2.752-.682-4.184-.476-4.073-1.287-8.789-4.483-11.642-2.651,5.375-2.52,11.7-2.337,17.564a3.34,3.34,0,0,1-3.46,3.434,3.4,3.4,0,0,1-3.516-3.434" transform="translate(138.582 7.062)"/>
        <path id="Path_1891" data-name="Path 1891" d="M187.421,20.5c.975-2.3,3.767-2.719,5.927-3.181,2.726-.593,5.5-1.008,8.245-1.493a3.448,3.448,0,0,1,3.856,2.93c.232,5.232-6.827,4.006-10.261,5.164-1.709.061-2.855,1.315-4.531,1.43a3.537,3.537,0,0,1-3.235-4.851" transform="translate(139.274 11.743)"/>
        <path id="Path_1892" data-name="Path 1892" d="M207.629,39.565c-5.852-4.912-4.17-22.13-4.81-29.222.054-1.437-.994-2.562-.511-4.06a3.506,3.506,0,0,1,4.278-2.433c2.841.853,3.113,4.2,3.2,6.7.286,6.309-.054,13.341.961,19.472.3,1.458.64,2.9,1.069,4.313a3.384,3.384,0,0,1,.464,4.013,3.575,3.575,0,0,1-3.019,1.7,2.9,2.9,0,0,1-1.634-.483" transform="translate(150.454 2.766)"/>
        <path id="Path_1893" data-name="Path 1893" d="M200.9,20.156c-3.535-5.546,3.877-7.216,7.945-7.692,3.617-.1,10.315-3.706,11.487,1.608a3.444,3.444,0,0,1-2.9,3.828c-3.626.7-7.3,1.193-10.915,2.009a3.457,3.457,0,0,1-5.614.246" transform="translate(148.814 8.318)"/>
        <path id="Path_1894" data-name="Path 1894" d="M222.652,35.15c-10.662-2.874-7.537-17.224-3.535-24.4a3.465,3.465,0,0,1,5.756,3.352c-1.423,4.244-3.644,9.244-2.016,13.693l.059-.04c.058.054.112.108.173.164s.129.115.2.169c2.569,1.519,5.873,1,8.463-.251,4.114-1.643,6.677,4.414,2.63,6.227a18.152,18.152,0,0,1-7.489,1.7,14.776,14.776,0,0,1-4.237-.614" transform="translate(160.28 7.256)"/>
        <path id="Path_1895" data-name="Path 1895" d="M216.621,16.9c.893-3.045,4.578-2.937,7.167-3.024a16.9,16.9,0,0,0,3.713-.185c3.188-.368,6.555-.736,7.366,2.787a3.479,3.479,0,0,1-2.963,3.9c-4.292.171-8.639.614-12.856.783a3.5,3.5,0,0,1-2.426-4.264" transform="translate(161.104 10.017)"/>
        <path id="Path_1896" data-name="Path 1896" d="M216.934,14.609c-1.648-5.546,6.33-5.927,10.022-6.513,2.684-.3,5.389-.471,8.088-.668a3.634,3.634,0,0,1,2.6.694c2.412,1.7,1.329,5.948-1.655,6.194-3.748.293-7.5.546-11.222,1.13-1.669.342-3.385,1.247-4.9,1.247a3.146,3.146,0,0,1-2.93-2.084" transform="translate(161.269 5.517)"/>
        <path id="Path_1897" data-name="Path 1897" d="M247.542,39.507c-4.925-1.88-1.819-8.414-1.791-12.3.537-4.257,1.034-8.517,1.362-12.8.258-2.037-.347-4.5,1.355-6.03a3.5,3.5,0,0,1,4.559-.293c2.091,1.6,2.785,4.341,3.835,6.65a41.331,41.331,0,0,0,5.552,10.247,79.049,79.049,0,0,0,.6-13.374,3.461,3.461,0,0,1,2.916-3.842c6.268-.593,3.542,10.716,3.706,14.586-.45,4.6-.661,14.424-7.645,12.216-3.9-2.656-6.391-7.223-8.789-11.222-.394,3.8-.968,7.563-1.383,11.358a3.731,3.731,0,0,1-3.331,4.96,2.96,2.96,0,0,1-.947-.157" transform="translate(182.14 5.487)"/>
        <path id="Path_1898" data-name="Path 1898" d="M270.079,43.9c-8.749-3.617-8.3-17.3-7.148-25.187.886-3.3.408-8.4,4.081-9.933-.1-6.4,12.727-4.449,15.683-1.233,4.926,4.032,5.219,11.574-.893,14.627,7.469,7.795,1.043,22.027-9.143,22.034a11.328,11.328,0,0,1-2.581-.307m2.452-6.466c4.783-.79,7.46-6.956,4.142-10.648l.04.04c-1.969-2.234-4.926-1.266-7.467-1.205-.1,2.473.443,11.855,3.734,11.719-.15.033-.3.061-.45.094m-1.022-25.7c-.1,2.248-1.336,4.381-1.465,6.7a18.622,18.622,0,0,0,7.849-1.99c.553-.422,1.8-.694,1.655-1.547-.661-2.581-3.181-3.406-5.641-3.406a12.262,12.262,0,0,0-2.4.246" transform="translate(195.204 3.389)"/>
        <path id="Path_1899" data-name="Path 1899" d="M286.874,40.392c-3.3-.361-9.239-2.581-7.066-6.834a3.465,3.465,0,0,1,4.7-1.233,6.06,6.06,0,0,0,4.121,1.179c-.1,0-.192.007-.293.014l-.178.012c.143-.026.279-.047.422-.068a6.939,6.939,0,0,0,.914-.286c-.15.049-.279.1-.422.143,3.577-2.3-12.476-15.615-3.748-23.818,4.559-4.182,14.825-2.445,14.663,4.789a3.492,3.492,0,0,1-6.977.157c-10.193-2.091,6.642,14.647,3.365,20.372-1.015,3.589-4.789,5.641-8.393,5.641a8.637,8.637,0,0,1-1.111-.068" transform="translate(207.875 5.407)"/>
        <path id="Path_1900" data-name="Path 1900" d="M303,25.765c-2.719-2.241-.743-4.932,1.015-7a9.747,9.747,0,0,0,1.036-9.136,2.6,2.6,0,0,0-.832.307c1.568,6.295-7.324,6.091-7.474.319-.136-6.042,8.543-10.048,12.945-5.791,4.306,4.66,3.57,12.338.5,17.482-1.151,1.9-2.963,4.566-5.178,4.566a3.31,3.31,0,0,1-2.009-.75" transform="translate(220.823 2.006)"/>
        <path id="Path_1901" data-name="Path 1901" d="M297.5,26.094a3.454,3.454,0,1,1,3.453,3.453,3.489,3.489,0,0,1-3.453-3.453" transform="translate(221.388 16.849)"/>
      </g>
    </g>
  </g>
</svg>
