<svg xmlns="http://www.w3.org/2000/svg" xmlns:xlink="http://www.w3.org/1999/xlink" width="829.071" height="138.72" viewBox="0 0 829.071 138.72">
  <defs>
    <clipPath id="clip-path">
      <rect id="Rectangle_101" data-name="Rectangle 101" width="829.071" height="64.977" fill="none"/>
    </clipPath>
    <clipPath id="clip-path-2">
      <rect id="Rectangle_103" data-name="Rectangle 103" width="652.671" height="56.681" fill="none"/>
    </clipPath>
  </defs>
  <g id="Group_413" data-name="Group 413" transform="translate(-769 -185)">
    <g id="Group_410" data-name="Group 410">
      <g id="Group_407" data-name="Group 407" transform="translate(769 185)">
        <g id="Group_406" data-name="Group 406" transform="translate(0 0.001)" clip-path="url(#clip-path)">
          <path id="Path_1837" data-name="Path 1837" d="M23.753,7.167c3.327,3.525,6.58,13.558-.608,14.376A4.266,4.266,0,0,1,18.9,17.3c.576-3.6-3.475-7.509-6.171-3.7C9.72,17.085,8.581,21.72,8.3,26.223c-.586,4.916,1.73,11.563,7.542,11.507,3.515-.569,8.359-4.314,10.547.492,2.061,5.884-6.939,7.431-11.066,7.68C-12.23,44.875,1.581-11.038,23.753,7.167" transform="translate(0 1.46)"/>
          <path id="Path_1838" data-name="Path 1838" d="M30.1,43.67C13.626,35.726,24.979,3.847,37.746,9.759A10.114,10.114,0,0,1,40.4,12.306a12.534,12.534,0,0,1,4.614,4.221,18.886,18.886,0,0,1,2.16,6.646c2.023,8.557-3.6,21.394-12.782,21.4a11.234,11.234,0,0,1-4.3-.9m4.078-7.348c5.409-2.133,5.608-9.342,4.293-14.182-2.177.027-3.707-1.84-4.464-3.785-3.857,4.751-6.414,14.464.171,17.967" transform="translate(9.073 3.742)"/>
          <path id="Path_1839" data-name="Path 1839" d="M46.834,28.978c-5.448-.823-4.315-9.061,1.148-8.359,1.808.536,4.056.061,6.277-.414,3.707-.791,7.327-1.586,8.674,2.342a4.219,4.219,0,0,1-2.928,5.161,47.394,47.394,0,0,1-10.089,1.508,19.339,19.339,0,0,1-3.083-.238" transform="translate(17.931 8.103)"/>
          <path id="Path_1840" data-name="Path 1840" d="M71.463,43c-15.117-4.315-11.994-26.166-1.5-33.812,5.465-3.868,12.178-1.156,13.294,5.481,1.325,5.989-7.4,7.469-8.426,1.458-3.692,2.658-4.757,7.718-5.283,11.994-1.071,7.923,9.022,8.587,14.636,7.431A4.194,4.194,0,0,1,88.862,39.1c.348,4.083-3.754,5.264-8.2,5.264A33.226,33.226,0,0,1,71.463,43" transform="translate(25.319 3.068)"/>
          <path id="Path_1841" data-name="Path 1841" d="M83.875,41.731c-.757-10.338-1.624-20.708-.536-31.067,1.47-6.382,9.984-3.646,8.271,2.519-.791,9.537.093,19.029.591,28.548a4.164,4.164,0,0,1-8.327,0" transform="translate(34.322 2.908)"/>
          <path id="Path_1842" data-name="Path 1842" d="M103.638,40.806c-5.95-1.409-13.431-3.635-16.022-9.747-1.448-6.6,11.376-9.032,7.3-16.315a4.737,4.737,0,0,0-2.3,2.365,4.244,4.244,0,0,1-7.327-4.287c12.558-18.2,27.493,5.028,12.244,17.072,2.491,1.646,5.426,2.3,8.293,2.979,4.772,1.342,3.288,8.089-1.02,8.09a4.588,4.588,0,0,1-1.168-.157" transform="translate(35.107 2.528)"/>
          <path id="Path_1843" data-name="Path 1843" d="M115.371,42.149c-8.868-1.3-12.582-11.431-10.846-19.36,1.078-4.568,1.707-16.165,8.73-13.956,3.194,1.42,2.962,4.813,1.47,7.448a43.6,43.6,0,0,0-2.083,10.044c-.458,7.752,4.808,9.8,10.592,5.034a4.155,4.155,0,0,1,5.658,1.481c2.853,5.786-7.013,9.4-12.222,9.4a8.228,8.228,0,0,1-1.3-.092" transform="translate(43.142 3.545)"/>
          <path id="Path_1844" data-name="Path 1844" d="M104.377,22.457c-.536-5.359,5.983-5.939,9.872-6.564,4.288-.132,11.868-3.812,13.2,2.409.631,6.874-10.872,4.956-15.359,6.575a7.219,7.219,0,0,1-3.684,1.165c-1.863,0-3.465-1.047-4.028-3.585" transform="translate(43.24 6.088)"/>
          <path id="Path_1845" data-name="Path 1845" d="M106.686,17.123c-7.431-8.387,11.68-10.4,16.647-12.116,5.348-1.388,7.574,6.658,2.247,8.165-3.878.95-7.728,1.922-11.524,3.165-1.61.583-3.348,1.638-5.039,1.638a3.547,3.547,0,0,1-2.331-.853" transform="translate(43.507 2.008)"/>
          <path id="Path_1846" data-name="Path 1846" d="M131.038,44.54c-7.5-1.348-2.751-28.7,1.635-32.459,8.327-9.26,15.459.89,16.442,9.724.791,4.215,1.509,8.469,1.918,12.741.673,3.093-.205,7.171-4.055,7.177a4.277,4.277,0,0,1-4.233-4.232c-.586-6.674-1.281-13.6-3.673-19.891-3.315,5.834-3.271,13.332-3.288,19.917,1.672,3.02-.12,7.194-3.52,7.194a4.669,4.669,0,0,1-1.225-.171" transform="translate(52.669 3.486)"/>
          <path id="Path_1847" data-name="Path 1847" d="M128.794,29.863c-4.735-9.376,13.3-8.785,18.657-10.254,5.46-.7,6.608,7.547,1.144,8.376-4.5.789-9.094,1.2-13.5,2.447a4.518,4.518,0,0,1-2.918,1.061,4.22,4.22,0,0,1-3.38-1.629" transform="translate(53.046 8.107)"/>
          <path id="Path_1848" data-name="Path 1848" d="M155.77,45.69a4.224,4.224,0,0,1-3.5-5.095c.174-5.658-.953-11.281-.457-16.944.137-4.017.586-8.055.414-12.083a4.29,4.29,0,0,1,5.761-5.011c3.2,1.327,2.747,5.165,2.726,8.017-.15,5.608-.726,11.182-.464,16.79.027,4.6,2.731,14.326-4.355,14.328h-.12" transform="translate(62.855 2.568)"/>
          <path id="Path_1849" data-name="Path 1849" d="M147.21,17.187a4.3,4.3,0,0,1-1.519-5.8c4.873-6.348,18.663-5.4,26.111-7.734,5.32-1.42,7.53,6.69,2.238,8.133-7.017,1.829-14.431,2.006-21.288,4.375a4.577,4.577,0,0,1-3.452,1.584,4.073,4.073,0,0,1-2.089-.562" transform="translate(60.149 1.446)"/>
          <path id="Path_1850" data-name="Path 1850" d="M168.447,37.655c.139-8.017.519-16.028.833-24.033a4.127,4.127,0,1,1,8.254,0c-.308,8.005-.686,16.022-.747,24.033a4.171,4.171,0,0,1-8.341,0" transform="translate(69.802 3.934)"/>
          <path id="Path_1851" data-name="Path 1851" d="M185.238,40.054c-5.829-3.783-6.581-11.751-3.156-17.425,3.271-5.68,8.855-14.585,16.537-11.756,3.584,1.641,6.9,7.4,5.006,11.127,2.062,9.276-2.43,20.687-10.9,20.688a13.542,13.542,0,0,1-7.489-2.634m7.757-5.873c2.723-1.928,2.475-6.281,2.552-9.315.076-1.7-1.447-2.9-1.542-4.53-2.4,3-7.724,8.54-4.533,12.308a5.613,5.613,0,0,0,3.523,1.537" transform="translate(74.604 4.28)"/>
          <path id="Path_1852" data-name="Path 1852" d="M204.238,46.192a4.294,4.294,0,0,1-2.967-5.221c1.707-6.249,2.813-12.636,4.631-18.852.629-4.452,5.1-7.232,8.519-3.424,3.646,6.005,5.636,13.321,12.1,17.171.553-5.53,2.441-11.922.475-17.165-2.122-7.492,11.8-10.763,8.6,10.58-.431,8.437-2.6,21.647-13.647,13.437a33.2,33.2,0,0,1-9.855-10.459c-1.61,4.113-1.035,14.049-6.737,14.051a5.854,5.854,0,0,1-1.12-.116" transform="translate(83.343 5.386)"/>
          <path id="Path_1853" data-name="Path 1853" d="M260.248,49.314c-5.171-.917-8.945-5.994-9.276-11.093-.327-5.564,3.5-10.094,7.022-13.967-5.724-8.6-1.283-21.172,8.823-23.8,8.861-2.585,14.741,6.443,10.756,14.172-1.905,4.376-5.563,7.669-8.928,10.923a47.835,47.835,0,0,0,5.768,7.254,40.943,40.943,0,0,0,8.4-11.587A4.249,4.249,0,0,1,288.6,19.7c6.243,4-4.4,14.773-7.481,18.4.812.5,1.631.994,2.47,1.453,4.056-1.641,6.376,1.365,6.355,4.376-.034,4.177-4.593,8.353-15.305.076-3.55,2.716-7.742,5.5-12.309,5.5a11.012,11.012,0,0,1-2.078-.2m2.3-8.281c2.034-.293,3.8-1.53,5.454-2.663a53.7,53.7,0,0,1-5.376-6.559C260.951,34,258.122,36.9,260.148,39.7c-.024-.034-.045-.066-.071-.1l-.132-.264a3.952,3.952,0,0,0,.856,1.127c.072.061.144.122-.011.1a2.909,2.909,0,0,0,1.762.475M269.4,8.551c-3.956.834-6.707,5.542-5.044,9.338,2.38-2.581,6.182-5.443,5.878-9.3a.021.021,0,0,1-.017-.006c-.134-.044-.267-.089-.4-.137.322.132-.239.085-.416.1" transform="translate(103.992 -0.001)"/>
          <path id="Path_1854" data-name="Path 1854" d="M308.4,44.2c-7.918-1.89-10.237-10.929-8.988-18.05,1.082-4.977.221-19.889,8.375-17.3,3.658,1.658,2.515,5.078,1.515,7.988-.57,5.675-2.939,12.051-.84,17.537,2.679,4.315,8.64-1.857,11.84-3.139a4.231,4.231,0,0,1,4.271,7.3c-4.3,2.44-8.9,5.882-13.985,5.882A10.869,10.869,0,0,1,308.4,44.2" transform="translate(123.943 3.542)"/>
          <path id="Path_1855" data-name="Path 1855" d="M302.934,25.719a4.267,4.267,0,0,1-2.26-5.559c1.675-3.232,5.692-3.939,8.863-5,3.973-.829,10.353-4.907,12.3.834,1.194,6.658-8.568,6.1-12.718,8.194-1.6.564-3.048,1.891-4.716,1.891a3.226,3.226,0,0,1-1.467-.361" transform="translate(124.451 5.379)"/>
          <path id="Path_1856" data-name="Path 1856" d="M305.928,18.919a4.262,4.262,0,0,1-4.237-4.238c1.055-6.338,9.1-7.834,13.878-10.741A4.266,4.266,0,0,1,321.127,6.2c1.962,6.276-7.1,6.928-10.635,9.906-1.433,1.038-2.264,2.825-4.325,2.825-.078,0-.157,0-.239-.007" transform="translate(125.016 1.482)"/>
          <path id="Path_1857" data-name="Path 1857" d="M324.992,41.917c-1.447-7.994-2.812-24.233,2.817-30.569,4.707-5.288,11.127-1.177,13.879,3.905,5.829-11.939,19.712-9.7,22.448,3.139,1.757,6.536,1.453,13.442.84,20.122a4.26,4.26,0,0,1-4.779,3.624c-4.277-.58-3.752-5.249-3.344-8.447.171-3.52.542-19.465-5.221-17.421-4.237,2.929-3.469,9.227-3.785,13.8-.044,3.337.829,8.42-3.673,9.072-3.625.492-5.161-3.072-5.039-6.148a34.1,34.1,0,0,0-5.762-14.78c-1.614,6.741-1.083,13.923-.42,20.769a4.218,4.218,0,0,1-4.2,5.484,4.01,4.01,0,0,1-3.761-2.544" transform="translate(134.145 3.075)"/>
          <path id="Path_1858" data-name="Path 1858" d="M361.113,61.5c-2.713-.359-4.034-3.038-3.547-5.547.5-6.9-.1-13.779-.3-20.668-.2-7.542-.01-15.117.144-22.664a4.243,4.243,0,1,1,8.486,0c-.321,11.515-.3,23.039.315,34.548-.458,4.533,2,14.338-4.8,14.338-.095,0-.192,0-.291-.006" transform="translate(148.008 3.471)"/>
          <path id="Path_1859" data-name="Path 1859" d="M361.964,33.307c-1.325-7.083,8.984-4.188,10.055-11.232.426-3.271-.215-7.691-3.1-9.669-.989.238-1.536,1.3-2.211,1.989a4.3,4.3,0,0,1-5.95.768c-4.127-3.431.454-8.177,3.785-10.121a8.883,8.883,0,0,1,9.37.436c7.177,5.338,9.011,17.2,3.57,24.366-1.956,2.677-7.162,6.513-11.157,6.515a4.407,4.407,0,0,1-4.363-3.051" transform="translate(148.815 1.619)"/>
          <path id="Path_1860" data-name="Path 1860" d="M383.563,39.346c-15.005-5.171-3.055-35.995,11.072-31.951a7.67,7.67,0,0,1,3.525,2.724,4.072,4.072,0,0,1,2.161,2.629c3.43,10.489-.1,27.326-12.165,27.327a15.852,15.852,0,0,1-4.593-.73m4.42-7.674a3.9,3.9,0,0,0,2.124-.861c3.883-3.847,3.625-10.605,1.434-15.244-4.5,3.1-6.813,9.249-6.3,14.592a6.229,6.229,0,0,0,.43.933l.023-.133a3.46,3.46,0,0,0,2.293.713" transform="translate(156.068 2.913)"/>
          <path id="Path_1861" data-name="Path 1861" d="M406.508,42.941c-8.846-1.038-8.64-11.923-8.044-18.708.679-4.591-.349-10.249,2.817-14,3.933-3.851,10.209,2.034,6.386,6.127-.458,5.884-1.795,12.155-.293,17.94,3.735-2.956,4.718-8.045,5.9-12.415.646-3.177,1.454-7.933,5.741-7.342,5.568,1.232,3.426,8.591,4.791,12.724.049,3.023,4.673,8.669,6.143,3.547,1.3-4.874,1.487-10.3-.789-14.912-2.055-5,5.475-8.188,7.635-3.226,3.984,8.536,4.266,27.033-7.785,28.663A12.861,12.861,0,0,1,417.7,34.819c-2.174,3.943-5.819,8.138-10.65,8.138-.177,0-.356-.006-.537-.017" transform="translate(165.017 3.721)"/>
          <path id="Path_1862" data-name="Path 1862" d="M444.755,43.633c-12.094-.994-13.712-13.448-12.232-23.227.6-3.618.226-7.945,2.646-10.918,3.354-3.591,9.243,1.144,6.7,5.26-.586,5.121-3.321,16.216,1.127,19.729-.078-.05-.156-.1-.232-.16a1.057,1.057,0,0,0-.216-.143,6.008,6.008,0,0,0,1.847.967c-.091-.031-.181-.065-.272-.095,3.293,1.006,6.276-1.52,8.724-3.4,4.359-3.3,9.42,3.243,5.127,6.642-3.513,2.785-7.666,5.382-12.24,5.382q-.488,0-.982-.04" transform="translate(179.042 3.404)"/>
          <path id="Path_1863" data-name="Path 1863" d="M436.347,24.847a4.325,4.325,0,0,1-1.453-6.988c1.232-1.293,3.032-1.5,4.713-1.747,4.116-.557,8.287-1.055,12.188-1.977,5.359-1.371,7.591,6.69,2.255,8.177-4.587,1.1-9.277,1.629-13.946,2.293a4.278,4.278,0,0,1-2.15.593,3.814,3.814,0,0,1-1.607-.349" transform="translate(179.711 5.792)"/>
          <path id="Path_1864" data-name="Path 1864" d="M434.9,16.556C428.916,6.937,447.252,5.224,453.187,3.91a4.235,4.235,0,0,1,1.148,8.392c-4.259.774-8.591,1.481-12.608,3.15a4.367,4.367,0,0,1-3.908,2.324,3.951,3.951,0,0,1-2.915-1.219" transform="translate(179.727 1.597)"/>
          <path id="Path_1865" data-name="Path 1865" d="M459.423,42.938c-7.034-1.238-1.382-12.851-1.6-17.724.641-5.414,1.034-10.846,1.409-16.282a4.2,4.2,0,1,1,8.326,1.144c-.376,5.43-.762,10.867-1.4,16.275-.509,4.365-1.454,8.659-2.023,13.007a4.24,4.24,0,0,1-4.164,3.619,3.861,3.861,0,0,1-.554-.04" transform="translate(188.911 2.198)"/>
          <path id="Path_1866" data-name="Path 1866" d="M477.329,39.277c-5.73-3.365-24.934-9.851-14.138-17.99,2.7-1.713,6.785-2.249,8.31-5.3-.2-2.9-3.635-1.116-4.481.458a4.3,4.3,0,0,1-5.509,2.156c-4.751-2.216-1.922-7.747,1.332-9.967,14.657-10.283,25.062,11.42,8.6,18.117,3.3,1.888,6.768,3.479,10.116,5.287,3.994,2.362,1.6,7.827-2.11,7.827a4.292,4.292,0,0,1-2.116-.59" transform="translate(190.198 2.451)"/>
          <path id="Path_1867" data-name="Path 1867" d="M481.939,38.416c-.209-5.851,2.4-26.349,7.707-28.978,5.3-3.04,10.254,2.337,11.874,7.093,1.922-4.779,7.3-11.087,12.707-7.021,6.171,6.237,4.2,16.342,4.713,24.359-.055,5.46-8.31,5.475-8.37,0-.082-4.983.072-10.028-.757-14.967a58.567,58.567,0,0,0-4.945,16.63,4.362,4.362,0,0,1-4.254,4.861c-4.188-.021-4.441-4.424-4.348-7.6a50.906,50.906,0,0,0-2.857-13.568,89.007,89.007,0,0,0-3.122,19.741,4.294,4.294,0,0,1-8.348-.547" transform="translate(199.705 3.4)"/>
          <path id="Path_1868" data-name="Path 1868" d="M517.274,39.764C509.02,33.532,511.55,21.879,512.6,13c-.071-5.055,6.956-6.9,8.564-1.757.6,5.271-5.956,26.6,5.812,21.111,3.7-1.46,6.929-7.868,11.172-4a4.182,4.182,0,0,1,0,5.867c-3.779,3.7-9.3,7.457-14.724,7.457a10.617,10.617,0,0,1-6.15-1.915" transform="translate(211.917 3.39)"/>
          <path id="Path_1869" data-name="Path 1869" d="M513.548,22.085a4.306,4.306,0,0,1-.713-5.2c2.42-3.116,7.161-3.049,11.646-2.983a29.941,29.941,0,0,0,6.338-.315c5.475-.641,6.614,7.6,1.148,8.376-4.409.426-8.834.327-13.237.745a4.076,4.076,0,0,1-2.126.591,4.554,4.554,0,0,1-3.057-1.215" transform="translate(212.273 5.615)"/>
          <path id="Path_1870" data-name="Path 1870" d="M514.826,15.784c-5.188-7.823,8.437-9.945,13.613-11.266,5.353-1.392,7.58,6.669,2.255,8.177-3.071.839-6.312,1.307-9.208,2.649A6.111,6.111,0,0,1,517.608,17a3.745,3.745,0,0,1-2.782-1.216" transform="translate(212.858 1.805)"/>
          <path id="Path_1871" data-name="Path 1871" d="M534.932,38.162c.795-6.863,2.049-13.686,2.994-20.531.6-2.618.332-5.774,2.327-7.812s5.469-1.315,7.005.917c3.188,5.338,4.376,11.9,8.641,16.659.692-6.393.8-12.813,1.536-19.195a4.16,4.16,0,0,1,4.652-3.53c6.2,1.321,2.321,9.879,2.829,14.111-.612,5.724-.1,11.188-2.27,16.514-5.669,9.348-14.509-3.414-17.459-8.956-.53,3.972-1.238,7.928-1.768,11.9a4.244,4.244,0,0,1-8.486-.078" transform="translate(221.669 1.919)"/>
          <path id="Path_1872" data-name="Path 1872" d="M567.916,44.251c-6.382-2.42.7-29.172-.635-35.907-.194-3.646,4.79-5.663,7.237-2.994,2.7,4,.861,9.657.707,14.21a114.141,114.141,0,0,0-1.371,16.414c.4,3.581-.18,8.607-4.058,8.607a6.14,6.14,0,0,1-1.881-.33" transform="translate(234.215 1.709)"/>
          <path id="Path_1873" data-name="Path 1873" d="M562.214,8.306c.441-7.121,12.26-6.806,21.364-6.492a58.912,58.912,0,0,0,8.332-.033A4.216,4.216,0,0,1,596.1,5.964a4.234,4.234,0,0,1-4.188,4.188c-2.745.11-5.447.088-8.127.061a84.938,84.938,0,0,0-14.005.635,3.749,3.749,0,0,1-3.189,1.645,4.2,4.2,0,0,1-4.375-4.187" transform="translate(232.973 0.697)"/>
        </g>
      </g>
      <g id="Group_412" data-name="Group 412" transform="translate(857 267.039)">
        <g id="Group_411" data-name="Group 411" transform="translate(0 0)" clip-path="url(#clip-path-2)">
          <path id="Path_1902" data-name="Path 1902" d="M21.873,50.159A19.928,19.928,0,0,1,2.917,26.068C3.692,16.186,8.9,6.5,19.017,3.724,25.2,1.76,32.878.854,37.612,6.29c15.379.2,15.814,24.039,10.933,34.38-3.569,7-11.261,10.913-18.929,10.913a21.357,21.357,0,0,1-7.742-1.424" transform="translate(1.668 1.496)" fill="#006796"/>
          <path id="Path_1903" data-name="Path 1903" d="M24.32,36.5c-5.023-.177-12.693-1.588-13.558-7.551,0-2.1,1.825-3.369,3.211-4.67,2.212-2.436,6.073-5.265,5.529-8.9a4.665,4.665,0,0,0-2.173.461c-1.209,4.367-7.505,2.494-6.776-1.773.617-3.328,4.485-4.858,7.478-5.344a7.05,7.05,0,0,1,8.142,5.56c1.207,5.818-3.454,10.788-7.257,14.532,2.883,1.562,8.536-.336,8.753,4.333a3.393,3.393,0,0,1-3.19,3.355c-.054,0-.106-.007-.158-.007" transform="translate(7.145 5.857)"/>
          <path id="Path_1904" data-name="Path 1904" d="M14.3,52.976A28.448,28.448,0,0,1,1.747,38.171a28.828,28.828,0,0,1,.235-20.381A28.44,28.44,0,0,1,15.4,3.048a3.563,3.563,0,0,1,.656-.269c.23-.111.461-.224.682-.328a22.155,22.155,0,0,1,3.895-1.405A28.346,28.346,0,0,1,52.378,13.384a28.43,28.43,0,0,1,2.4,25.142,29.055,29.055,0,0,1-5.64,9.055,28.133,28.133,0,0,1-20.729,9.1,28.948,28.948,0,0,1-14.111-3.7M26.861,6.646c-.965.086-1.925.21-2.883.387a24.617,24.617,0,0,0-2.869.8c-.63.224-1.267.472-1.884.736a3.12,3.12,0,0,1-.427.281c-.834.427-1.629.9-2.415,1.4q-1.251.875-2.41,1.857c-.651.592-1.261,1.2-1.852,1.846q-.963,1.132-1.812,2.35c-.493.761-.938,1.536-1.358,2.338-.4.827-.75,1.661-1.071,2.521-.3.913-.558,1.832-.768,2.77A27.745,27.745,0,0,0,6.7,26.863a29.869,29.869,0,0,0,.007,3.079c.091.96.224,1.918.407,2.869a25.41,25.41,0,0,0,.755,2.713A26.494,26.494,0,0,0,9,38.15c.42.8.879,1.563,1.372,2.318.5.716,1.032,1.405,1.6,2.081.63.7,1.293,1.367,1.989,2,.709.6,1.432,1.168,2.194,1.7a27.428,27.428,0,0,0,2.488,1.459c.822.393,1.656.748,2.508,1.057a27.444,27.444,0,0,0,2.779.775,28.1,28.1,0,0,0,2.948.4c.931.045,1.864.045,2.8.007a26.838,26.838,0,0,0,2.895-.375,28.786,28.786,0,0,0,2.851-.768c.945-.348,1.864-.741,2.77-1.182.748-.4,1.471-.82,2.18-1.281.768-.531,1.509-1.1,2.226-1.7q1.054-.953,2.01-2.009a27.994,27.994,0,0,0,1.746-2.259c.493-.755.938-1.523,1.358-2.318q.6-1.241,1.084-2.547a27.668,27.668,0,0,0,.807-2.921c.171-.913.3-1.839.382-2.772a28.666,28.666,0,0,0,.013-2.895c-.086-.985-.217-1.963-.4-2.942a28.087,28.087,0,0,0-.788-2.91,24.438,24.438,0,0,0-1.044-2.494,27.952,27.952,0,0,0-1.43-2.424A27.728,27.728,0,0,0,44.617,13.9a26.27,26.27,0,0,0-2.017-2,24.88,24.88,0,0,0-2.036-1.577c-.775-.511-1.575-.978-2.4-1.41a26.453,26.453,0,0,0-2.594-1.1,26.207,26.207,0,0,0-2.883-.787,27.528,27.528,0,0,0-2.942-.4c-.44-.02-.874-.032-1.308-.032-.524,0-1.057.018-1.582.045" transform="translate(0 0)"/>
          <path id="Path_1905" data-name="Path 1905" d="M41.575,39.016c-.086-7.932-.1-15.87-.309-23.8.217-3.041-1.089-7.23,1.839-9.252,2.731-1.746,6.409,1.647,4.846,4.491.066,9.514.321,19.042.334,28.556a3.356,3.356,0,0,1-6.71,0" transform="translate(28.025 3.739)"/>
          <path id="Path_1906" data-name="Path 1906" d="M54.9,30.143a34.873,34.873,0,0,1-.716-6.54c-8.1,4.846-11.936,2-12.193-.847-.183-2.022,1.446-4.044,4.649-3.295A10.681,10.681,0,0,0,54.682,13.1c.3-1.891.368-4.044,1.787-5.476,3.263-2.881,6.9.908,5.481,4.55a40.8,40.8,0,0,0-.649,16.2,3.312,3.312,0,0,1-3.316,4.17,3.131,3.131,0,0,1-3.086-2.4" transform="translate(28.582 4.501)"/>
          <path id="Path_1907" data-name="Path 1907" d="M62.507,33.665c-16.068-4.118,5.987-37.283,11.34-18.327,3.184,1.439,1.884,5.628,1.516,8.353-.919,5.14-5.181,10.3-10.513,10.3a8.74,8.74,0,0,1-2.343-.328m1.247-6.619a4.921,4.921,0,0,0,1.1.314c-.145-.032-.282-.059-.434-.091,3.671.111,4.611-4.9,4.787-7.788A3.059,3.059,0,0,1,67.6,17.773l-.118-.335c-1.983,2.318-5.122,6.776-3.723,9.606" transform="translate(38.637 6.49)"/>
          <path id="Path_1908" data-name="Path 1908" d="M70.116,17.273c.926-2.693.755-6.613,3.585-8.084a3.408,3.408,0,0,1,4.406,1.787,3.477,3.477,0,0,1-.131,2.908c-1.037,4.322-3.041,9.259-1.787,13.646a2.434,2.434,0,0,0,1.025-.375c-.04.02-.066.032-.066.02a.343.343,0,0,0-.066.045c-.067.032-.133.066-.2.092,2.765-1.715,3.782-5.076,4.932-7.946C82.2,17.4,83.55,15.54,85.8,15.861a3.376,3.376,0,0,1,2.849,3.757c-.624,3.92-.15,7.235,4.629,7.045,3.369-.237,3.264-5.443,3.021-7.939-.6-2.836-3.952-5.574-.427-7.951,3.592-1.918,5.45,2.626,6.409,5.325A16.874,16.874,0,0,1,100.6,29.322c-3.685,5.384-12.358,4.918-16.4.19-1.839,2.515-4.715,4.715-7.958,4.715-8.648-.375-7.684-10.913-6.127-16.954" transform="translate(47.042 6.092)"/>
          <path id="Path_1909" data-name="Path 1909" d="M105.065,34.794c-.434-9.448-2.153-18.831-1.432-28.332.067-4.419,6.692-4.394,6.724,0-.15,2.323-.111,4.661-.1,6.986a117.033,117.033,0,0,0,1.03,13.972c.02,3.493,2.37,10.23-2.876,10.716a3.372,3.372,0,0,1-3.342-3.342" transform="translate(70.447 2.15)"/>
          <path id="Path_1910" data-name="Path 1910" d="M102.973,21.029a3.438,3.438,0,0,1-2.442-5.1,6.5,6.5,0,0,1,3.2-2.4c3.967-1.568,8.273-2.015,12.462-2.659A3.346,3.346,0,0,1,117.1,17.5c-3.735.572-7.583.953-11.116,2.379a3.4,3.4,0,0,1-2.553,1.193,2.586,2.586,0,0,1-.454-.039" transform="translate(68.14 7.379)"/>
          <path id="Path_1911" data-name="Path 1911" d="M115.656,29.2c-3.066-6.231,3.086-16.226,8.233-19.823,3.165-2.286,8.228-.047,8.8,3.735,1.634.756,1.74,2.686,2.054,4.249a13.268,13.268,0,0,1-4.32,12.259,11.876,11.876,0,0,1-7.939,3.152,7.672,7.672,0,0,1-6.828-3.572m5.8-3.31a2.134,2.134,0,0,0,1.288.282c4.713-.538,6.487-5.818,5.081-9.862a3.614,3.614,0,0,1-1.024-.775c-2.679,2.763-4.971,6.473-5.345,10.355" transform="translate(78.195 5.756)"/>
          <path id="Path_1912" data-name="Path 1912" d="M154.3,35.383c-15.338-8.247.664-36.461,14.187-22.239,3.076,3.138-1.609,7.82-4.745,4.754-4.044-5.4-9.64,2.363-9.05,6.868.193,5.423,5.162,6.166,9.4,4.557a3.386,3.386,0,0,1,4.123,2.336c.812,3.7-3.434,5.076-7.576,5.076a12.973,12.973,0,0,1-6.344-1.353" transform="translate(100.805 6.267)"/>
          <path id="Path_1913" data-name="Path 1913" d="M169.955,34.908c-15.391-4.675,2.621-34.577,12.035-20.657a3.444,3.444,0,0,1,2.562,2.811c1.866,7.847-3.35,18.25-11.7,18.251a10.892,10.892,0,0,1-2.9-.405m3.079-6.231c-.2-.02-.3-.02-.454-.034,3.572-.21,5.483-4.313,5.535-7.517-.99-1.03-1.261-2.562-2.074-3.723a11.74,11.74,0,0,0-5.456,9.566,4.641,4.641,0,0,0,.284.731c-.013-.029-.029-.057-.04-.087a2.336,2.336,0,0,0,1.74,1.057c.052,0,.111-.007.163-.007.1.007.2.013.3.013" transform="translate(111.645 7.21)"/>
          <path id="Path_1914" data-name="Path 1914" d="M192.589,23.875c-3.552-.217-7.189-.02-10.7-.572-4.433-1.155-2.745-7.722,1.681-6.534,2.994.264,6,.323,9.015.415a3.347,3.347,0,0,1,.1,6.692c-.032,0-.064,0-.1,0" transform="translate(122.086 11.322)"/>
          <path id="Path_1915" data-name="Path 1915" d="M208.864,34.853c-.867-.027-1.667-.052-2.325-.027-6.625-.373-13.316-6.132-11.464-13.2.913-4.532,4.11-9.134,8.85-10.106,3.4-.637,10.684,1.209,9.042,5.863a3.393,3.393,0,0,1-4.412,1.794c-1.024-.4-2.239-1.288-3.348-1.064-2.4.854-3.6,3.73-3.71,6.114,1.222,5.115,8.156,4,12.135,3.638a3.386,3.386,0,0,1,3.775,2.869c.187,3.639-3.244,4.159-6.572,4.159-.671,0-1.338-.022-1.97-.042" transform="translate(132.619 7.764)"/>
          <path id="Path_1916" data-name="Path 1916" d="M211.369,34.35c.592-7.537.21-15.562,3.041-22.679,2.547-4.754,9.5-.42,5.712,3.717a74.64,74.64,0,0,0-1.76,12.483c-.6,3.283,1.175,9.46-3.651,9.822a3.36,3.36,0,0,1-3.342-3.342" transform="translate(143.923 6.532)"/>
          <path id="Path_1917" data-name="Path 1917" d="M228.457,36.124c-4.9-1.57-16.592-4.333-12.686-11.543,2.621-2.693,6.9-3.342,9.141-6.52.662-.847.827-2.266-.408-2.634-2.33-.583-4.3,1.636-4.957,3.671-1.8,4.012-7.788,1.491-6.179-2.607,9.168-18.9,30.546.461,10.2,11.005,2.994,1.871,9.921,1.235,8.969,6.3a3.405,3.405,0,0,1-3.221,2.452,2.989,2.989,0,0,1-.864-.128" transform="translate(145.102 5.815)"/>
          <path id="Path_1918" data-name="Path 1918" d="M232.655,34.073c-5.707-2.869-5.942-10.158-4.038-15.5,1.024-2.921,2.691-7.675,6.6-6.756,2.863.709,3.355,5.056.782,6.408-3.427,7.808-2.521,12.562,6.993,9.344a3.355,3.355,0,1,1,1.787,6.468,28.855,28.855,0,0,1-7.142,1.209,10.246,10.246,0,0,1-4.986-1.17" transform="translate(154.943 7.966)"/>
          <path id="Path_1919" data-name="Path 1919" d="M228.606,20.625a3.416,3.416,0,0,1,2.442-3.7c3.834-.953,7.7-1.688,11.577-2.424a3.382,3.382,0,0,1,3.789,2.876c.348,4.67-5.655,3.96-8.739,4.9-1.721.257-3.955,1.156-5.8,1.156-1.546,0-2.817-.635-3.273-2.817" transform="translate(155.63 9.843)"/>
          <path id="Path_1920" data-name="Path 1920" d="M230.3,17.567c-4.347-6.48,7.964-8.732,12.225-9.541a3.375,3.375,0,0,1,3.789,2.876c.361,4.629-5.535,3.848-8.5,5.135a6.449,6.449,0,0,0-2.758,1.53,3.1,3.1,0,0,1-2.323.983,3.44,3.44,0,0,1-2.431-.983" transform="translate(156.192 5.43)"/>
          <path id="Path_1921" data-name="Path 1921" d="M245.613,32.892c-4.32-25.864,23.782-36.521,21.59-3.73-.723,4.333-7.171,3.468-6.645-.906.294-4.275.045-9.448-2.575-12.975-5.456,1.911-6.914,10.77-5.883,15.819a3.351,3.351,0,0,1-3.365,4.221,3.165,3.165,0,0,1-3.121-2.429" transform="translate(166.936 5.929)"/>
          <path id="Path_1922" data-name="Path 1922" d="M248.356,16.813c1.116-.847,2.673-.807,4.012-.84,3.755-.079,7.5-.151,11.247-.355,4.4.066,4.426,6.586,0,6.724-4.4.276-8.811.183-13.2.493-.035,0-.071,0-.106,0a3.387,3.387,0,0,1-1.95-6.023" transform="translate(168.237 10.635)"/>
          <path id="Path_1923" data-name="Path 1923" d="M264.738,36.457c.1-8.371.466-16.73,1.365-25.076.651-2.711-1.62-5.555.467-7.709a3.39,3.39,0,0,1,4.754,0c1.983,2.219,1.55,5.508,1.464,8.267-.8,8.156-1.4,16.317-1.392,24.518a3.242,3.242,0,0,1-3.359,3.279,3.173,3.173,0,0,1-3.3-3.279" transform="translate(180.267 1.838)"/>
          <path id="Path_1924" data-name="Path 1924" d="M264.751,19.366a3.37,3.37,0,0,1-3.343-2.9c-.36-4.9,5.824-4.5,9.2-4.6a19.481,19.481,0,0,0,3.658-.086c3.538-.276,7.512-.551,7.754,3.3a3.387,3.387,0,0,1-3.348,3.348c-3.755.092-7.525.047-11.281.264a3.053,3.053,0,0,0-1.254.335,3.174,3.174,0,0,1-1.247.34c-.047,0-.091,0-.138-.005" transform="translate(177.989 7.93)"/>
          <path id="Path_1925" data-name="Path 1925" d="M277.9,34.53c-6.376-4.471-2.646-13.264-1.254-19.389-.388-4.123,5.456-6.008,6.835-1.715,1.109,3.513-6.394,16.364-.012,16.113a18.822,18.822,0,0,0,6.7-1.214c1.844-.881,4.209-.513,5.063,1.548,1.272,3.632-2.173,4.722-4.977,5.431a23.218,23.218,0,0,1-5.962.877,11.981,11.981,0,0,1-6.4-1.652" transform="translate(186.774 7.482)"/>
          <path id="Path_1926" data-name="Path 1926" d="M278.983,21.744a3.361,3.361,0,0,1,.913-6.658c4.675.045,9.349-.131,14.019-.393a3.555,3.555,0,0,1,2.646.656c2.318,1.629,1.281,5.745-1.589,5.969-4.243.21-8.505.486-12.757.486-1.078,0-2.155-.017-3.232-.059" transform="translate(188.025 9.985)"/>
          <path id="Path_1927" data-name="Path 1927" d="M277.57,16.29c-1.53-4.216,3.816-5.3,6.841-5.791,3.258-.257,8.951-2.785,9.916,1.957.341,4.865-5.845,3.814-9.022,4.7-1.61.3-3.347,1.123-4.858,1.123a3,3,0,0,1-2.878-1.99" transform="translate(188.821 6.535)"/>
          <path id="Path_1928" data-name="Path 1928" d="M312.457,37.259c1.478-8.9,2.068-18,3.644-26.881.847-3.138,5.318-3.211,6.651-.382,2.639,6.356,4.019,13.56,9.363,18.4.5-5.574.3-11.188.408-16.776.005-3.263-.6-9.527,4.418-8.556a3.336,3.336,0,0,1,2.273,4.2c-.171,3.224-.034,6.475-.045,9.706-.3,5.522.748,11.55-1.741,16.678-5.915,7.919-13.782-4.263-16.461-9.443q-.61,4.917-1.266,9.823c-.3,2.614-.375,6.566-3.881,6.593a3.394,3.394,0,0,1-3.362-3.362" transform="translate(212.76 2.021)"/>
          <path id="Path_1929" data-name="Path 1929" d="M341.3,38.253a3.338,3.338,0,0,1-2.311-2.3c-1.451-1.372-1.32-3.611-1.412-5.456-1.365-8.732-2.219-17.957-.709-26.678a3.435,3.435,0,0,1,5.831-.7,3.225,3.225,0,0,1,.427,3.337c-.262,3.873-.3,7.754-.2,11.635,3.71-3.014,9.4-4.611,13.637-1.819,5.147,3.538,5.614,11.588,1.378,16.014-3.431,3.562-8.559,6.314-13.624,6.314a13.048,13.048,0,0,1-3.014-.345m3-8.359c.079.669.19,1.365.262,2.068,3.895-.735,10.007-3,9.514-7.847.013.092.034.178.047.264s.013.2.039.17c-.124-1.279-1.017-3.369-2.673-3.066.072-.007.151-.013.224-.013s.113.007.171.007h-.032c-4.429,0-7.611,4.2-7.552,8.418" transform="translate(228.834 1.226)"/>
          <path id="Path_1930" data-name="Path 1930" d="M363.426,39.67c-3.4-.131-8.359-4.3-5.3-7.663,1.735-1.746,4.315-.938,5.614.894a7.953,7.953,0,0,0,6.014-1.767c.434-.382-.039-.94-.183-1.367a63.048,63.048,0,0,0-4.281-5.87c-2.632-3.394-5.463-7.282-4.892-11.825.841-5.666,7.268-9.206,12.646-8.818a7.976,7.976,0,0,1,6.093,3.755c1.4,2.311,2.135,6.409-1.214,7.347-2.614.7-4.249-1.523-4.525-3.841-1.444-1.627-5.285.427-6.179,1.99-.682,1.713.709,3.427,1.543,4.846,2.634,3.965,6.6,7.327,7.756,12.088,1.227,6.547-6.263,10.275-12.012,10.275-.368,0-.729-.015-1.081-.045" transform="translate(243.205 2.197)"/>
          <path id="Path_1931" data-name="Path 1931" d="M383.528,21.56c-2.416-2.449.158-5.108,2.009-6.9,1.565-1.809,3.553-4.061,3.2-6.6-.6-1.538-3.037-.585-4.192-.158-.375,3.913-5.982,3.947-6.771.151C376.712.476,390.376-1.986,394,3.766c2.605,3.644,1.444,8.642-.908,12.1-1.765,2.088-4.31,6.651-7.273,6.653a3.474,3.474,0,0,1-2.286-.96" transform="translate(257.193 0.407)"/>
          <path id="Path_1932" data-name="Path 1932" d="M379.137,20.812a3.362,3.362,0,1,1,3.362,3.362,3.394,3.394,0,0,1-3.362-3.362" transform="translate(258.164 11.882)"/>
        </g>
      </g>
    </g>
  </g>
</svg>
