<svg xmlns="http://www.w3.org/2000/svg" xmlns:xlink="http://www.w3.org/1999/xlink" width="829.071" height="138.439" viewBox="0 0 829.071 138.439">
  <defs>
    <clipPath id="clip-path">
      <rect id="Rectangle_101" data-name="Rectangle 101" width="829.071" height="64.977" fill="none"/>
    </clipPath>
    <clipPath id="clip-path-2">
      <rect id="Rectangle_104" data-name="Rectangle 104" width="768.867" height="56.439" fill="none"/>
    </clipPath>
  </defs>
  <g id="Group_419" data-name="Group 419" transform="translate(-769 -185)">
    <g id="Group_413" data-name="Group 413">
      <g id="Group_410" data-name="Group 410">
        <g id="Group_407" data-name="Group 407" transform="translate(769 185)">
          <g id="Group_406" data-name="Group 406" transform="translate(0 0.001)" clip-path="url(#clip-path)">
            <path id="Path_1837" data-name="Path 1837" d="M23.753,7.167c3.327,3.525,6.58,13.558-.608,14.376A4.266,4.266,0,0,1,18.9,17.3c.576-3.6-3.475-7.509-6.171-3.7C9.72,17.085,8.581,21.72,8.3,26.223c-.586,4.916,1.73,11.563,7.542,11.507,3.515-.569,8.359-4.314,10.547.492,2.061,5.884-6.939,7.431-11.066,7.68C-12.23,44.875,1.581-11.038,23.753,7.167" transform="translate(0 1.46)"/>
            <path id="Path_1838" data-name="Path 1838" d="M30.1,43.67C13.626,35.726,24.979,3.847,37.746,9.759A10.114,10.114,0,0,1,40.4,12.306a12.534,12.534,0,0,1,4.614,4.221,18.886,18.886,0,0,1,2.16,6.646c2.023,8.557-3.6,21.394-12.782,21.4a11.234,11.234,0,0,1-4.3-.9m4.078-7.348c5.409-2.133,5.608-9.342,4.293-14.182-2.177.027-3.707-1.84-4.464-3.785-3.857,4.751-6.414,14.464.171,17.967" transform="translate(9.073 3.742)"/>
            <path id="Path_1839" data-name="Path 1839" d="M46.834,28.978c-5.448-.823-4.315-9.061,1.148-8.359,1.808.536,4.056.061,6.277-.414,3.707-.791,7.327-1.586,8.674,2.342a4.219,4.219,0,0,1-2.928,5.161,47.394,47.394,0,0,1-10.089,1.508,19.339,19.339,0,0,1-3.083-.238" transform="translate(17.931 8.103)"/>
            <path id="Path_1840" data-name="Path 1840" d="M71.463,43c-15.117-4.315-11.994-26.166-1.5-33.812,5.465-3.868,12.178-1.156,13.294,5.481,1.325,5.989-7.4,7.469-8.426,1.458-3.692,2.658-4.757,7.718-5.283,11.994-1.071,7.923,9.022,8.587,14.636,7.431A4.194,4.194,0,0,1,88.862,39.1c.348,4.083-3.754,5.264-8.2,5.264A33.226,33.226,0,0,1,71.463,43" transform="translate(25.319 3.068)"/>
            <path id="Path_1841" data-name="Path 1841" d="M83.875,41.731c-.757-10.338-1.624-20.708-.536-31.067,1.47-6.382,9.984-3.646,8.271,2.519-.791,9.537.093,19.029.591,28.548a4.164,4.164,0,0,1-8.327,0" transform="translate(34.322 2.908)"/>
            <path id="Path_1842" data-name="Path 1842" d="M103.638,40.806c-5.95-1.409-13.431-3.635-16.022-9.747-1.448-6.6,11.376-9.032,7.3-16.315a4.737,4.737,0,0,0-2.3,2.365,4.244,4.244,0,0,1-7.327-4.287c12.558-18.2,27.493,5.028,12.244,17.072,2.491,1.646,5.426,2.3,8.293,2.979,4.772,1.342,3.288,8.089-1.02,8.09a4.588,4.588,0,0,1-1.168-.157" transform="translate(35.107 2.528)"/>
            <path id="Path_1843" data-name="Path 1843" d="M115.371,42.149c-8.868-1.3-12.582-11.431-10.846-19.36,1.078-4.568,1.707-16.165,8.73-13.956,3.194,1.42,2.962,4.813,1.47,7.448a43.6,43.6,0,0,0-2.083,10.044c-.458,7.752,4.808,9.8,10.592,5.034a4.155,4.155,0,0,1,5.658,1.481c2.853,5.786-7.013,9.4-12.222,9.4a8.228,8.228,0,0,1-1.3-.092" transform="translate(43.142 3.545)"/>
            <path id="Path_1844" data-name="Path 1844" d="M104.377,22.457c-.536-5.359,5.983-5.939,9.872-6.564,4.288-.132,11.868-3.812,13.2,2.409.631,6.874-10.872,4.956-15.359,6.575a7.219,7.219,0,0,1-3.684,1.165c-1.863,0-3.465-1.047-4.028-3.585" transform="translate(43.24 6.088)"/>
            <path id="Path_1845" data-name="Path 1845" d="M106.686,17.123c-7.431-8.387,11.68-10.4,16.647-12.116,5.348-1.388,7.574,6.658,2.247,8.165-3.878.95-7.728,1.922-11.524,3.165-1.61.583-3.348,1.638-5.039,1.638a3.547,3.547,0,0,1-2.331-.853" transform="translate(43.507 2.008)"/>
            <path id="Path_1846" data-name="Path 1846" d="M131.038,44.54c-7.5-1.348-2.751-28.7,1.635-32.459,8.327-9.26,15.459.89,16.442,9.724.791,4.215,1.509,8.469,1.918,12.741.673,3.093-.205,7.171-4.055,7.177a4.277,4.277,0,0,1-4.233-4.232c-.586-6.674-1.281-13.6-3.673-19.891-3.315,5.834-3.271,13.332-3.288,19.917,1.672,3.02-.12,7.194-3.52,7.194a4.669,4.669,0,0,1-1.225-.171" transform="translate(52.669 3.486)"/>
            <path id="Path_1847" data-name="Path 1847" d="M128.794,29.863c-4.735-9.376,13.3-8.785,18.657-10.254,5.46-.7,6.608,7.547,1.144,8.376-4.5.789-9.094,1.2-13.5,2.447a4.518,4.518,0,0,1-2.918,1.061,4.22,4.22,0,0,1-3.38-1.629" transform="translate(53.046 8.107)"/>
            <path id="Path_1848" data-name="Path 1848" d="M155.77,45.69a4.224,4.224,0,0,1-3.5-5.095c.174-5.658-.953-11.281-.457-16.944.137-4.017.586-8.055.414-12.083a4.29,4.29,0,0,1,5.761-5.011c3.2,1.327,2.747,5.165,2.726,8.017-.15,5.608-.726,11.182-.464,16.79.027,4.6,2.731,14.326-4.355,14.328h-.12" transform="translate(62.855 2.568)"/>
            <path id="Path_1849" data-name="Path 1849" d="M147.21,17.187a4.3,4.3,0,0,1-1.519-5.8c4.873-6.348,18.663-5.4,26.111-7.734,5.32-1.42,7.53,6.69,2.238,8.133-7.017,1.829-14.431,2.006-21.288,4.375a4.577,4.577,0,0,1-3.452,1.584,4.073,4.073,0,0,1-2.089-.562" transform="translate(60.149 1.446)"/>
            <path id="Path_1850" data-name="Path 1850" d="M168.447,37.655c.139-8.017.519-16.028.833-24.033a4.127,4.127,0,1,1,8.254,0c-.308,8.005-.686,16.022-.747,24.033a4.171,4.171,0,0,1-8.341,0" transform="translate(69.802 3.934)"/>
            <path id="Path_1851" data-name="Path 1851" d="M185.238,40.054c-5.829-3.783-6.581-11.751-3.156-17.425,3.271-5.68,8.855-14.585,16.537-11.756,3.584,1.641,6.9,7.4,5.006,11.127,2.062,9.276-2.43,20.687-10.9,20.688a13.542,13.542,0,0,1-7.489-2.634m7.757-5.873c2.723-1.928,2.475-6.281,2.552-9.315.076-1.7-1.447-2.9-1.542-4.53-2.4,3-7.724,8.54-4.533,12.308a5.613,5.613,0,0,0,3.523,1.537" transform="translate(74.604 4.28)"/>
            <path id="Path_1852" data-name="Path 1852" d="M204.238,46.192a4.294,4.294,0,0,1-2.967-5.221c1.707-6.249,2.813-12.636,4.631-18.852.629-4.452,5.1-7.232,8.519-3.424,3.646,6.005,5.636,13.321,12.1,17.171.553-5.53,2.441-11.922.475-17.165-2.122-7.492,11.8-10.763,8.6,10.58-.431,8.437-2.6,21.647-13.647,13.437a33.2,33.2,0,0,1-9.855-10.459c-1.61,4.113-1.035,14.049-6.737,14.051a5.854,5.854,0,0,1-1.12-.116" transform="translate(83.343 5.386)"/>
            <path id="Path_1853" data-name="Path 1853" d="M260.248,49.314c-5.171-.917-8.945-5.994-9.276-11.093-.327-5.564,3.5-10.094,7.022-13.967-5.724-8.6-1.283-21.172,8.823-23.8,8.861-2.585,14.741,6.443,10.756,14.172-1.905,4.376-5.563,7.669-8.928,10.923a47.835,47.835,0,0,0,5.768,7.254,40.943,40.943,0,0,0,8.4-11.587A4.249,4.249,0,0,1,288.6,19.7c6.243,4-4.4,14.773-7.481,18.4.812.5,1.631.994,2.47,1.453,4.056-1.641,6.376,1.365,6.355,4.376-.034,4.177-4.593,8.353-15.305.076-3.55,2.716-7.742,5.5-12.309,5.5a11.012,11.012,0,0,1-2.078-.2m2.3-8.281c2.034-.293,3.8-1.53,5.454-2.663a53.7,53.7,0,0,1-5.376-6.559C260.951,34,258.122,36.9,260.148,39.7c-.024-.034-.045-.066-.071-.1l-.132-.264a3.952,3.952,0,0,0,.856,1.127c.072.061.144.122-.011.1a2.909,2.909,0,0,0,1.762.475M269.4,8.551c-3.956.834-6.707,5.542-5.044,9.338,2.38-2.581,6.182-5.443,5.878-9.3a.021.021,0,0,1-.017-.006c-.134-.044-.267-.089-.4-.137.322.132-.239.085-.416.1" transform="translate(103.992 -0.001)"/>
            <path id="Path_1854" data-name="Path 1854" d="M308.4,44.2c-7.918-1.89-10.237-10.929-8.988-18.05,1.082-4.977.221-19.889,8.375-17.3,3.658,1.658,2.515,5.078,1.515,7.988-.57,5.675-2.939,12.051-.84,17.537,2.679,4.315,8.64-1.857,11.84-3.139a4.231,4.231,0,0,1,4.271,7.3c-4.3,2.44-8.9,5.882-13.985,5.882A10.869,10.869,0,0,1,308.4,44.2" transform="translate(123.943 3.542)"/>
            <path id="Path_1855" data-name="Path 1855" d="M302.934,25.719a4.267,4.267,0,0,1-2.26-5.559c1.675-3.232,5.692-3.939,8.863-5,3.973-.829,10.353-4.907,12.3.834,1.194,6.658-8.568,6.1-12.718,8.194-1.6.564-3.048,1.891-4.716,1.891a3.226,3.226,0,0,1-1.467-.361" transform="translate(124.451 5.379)"/>
            <path id="Path_1856" data-name="Path 1856" d="M305.928,18.919a4.262,4.262,0,0,1-4.237-4.238c1.055-6.338,9.1-7.834,13.878-10.741A4.266,4.266,0,0,1,321.127,6.2c1.962,6.276-7.1,6.928-10.635,9.906-1.433,1.038-2.264,2.825-4.325,2.825-.078,0-.157,0-.239-.007" transform="translate(125.016 1.482)"/>
            <path id="Path_1857" data-name="Path 1857" d="M324.992,41.917c-1.447-7.994-2.812-24.233,2.817-30.569,4.707-5.288,11.127-1.177,13.879,3.905,5.829-11.939,19.712-9.7,22.448,3.139,1.757,6.536,1.453,13.442.84,20.122a4.26,4.26,0,0,1-4.779,3.624c-4.277-.58-3.752-5.249-3.344-8.447.171-3.52.542-19.465-5.221-17.421-4.237,2.929-3.469,9.227-3.785,13.8-.044,3.337.829,8.42-3.673,9.072-3.625.492-5.161-3.072-5.039-6.148a34.1,34.1,0,0,0-5.762-14.78c-1.614,6.741-1.083,13.923-.42,20.769a4.218,4.218,0,0,1-4.2,5.484,4.01,4.01,0,0,1-3.761-2.544" transform="translate(134.145 3.075)"/>
            <path id="Path_1858" data-name="Path 1858" d="M361.113,61.5c-2.713-.359-4.034-3.038-3.547-5.547.5-6.9-.1-13.779-.3-20.668-.2-7.542-.01-15.117.144-22.664a4.243,4.243,0,1,1,8.486,0c-.321,11.515-.3,23.039.315,34.548-.458,4.533,2,14.338-4.8,14.338-.095,0-.192,0-.291-.006" transform="translate(148.008 3.471)"/>
            <path id="Path_1859" data-name="Path 1859" d="M361.964,33.307c-1.325-7.083,8.984-4.188,10.055-11.232.426-3.271-.215-7.691-3.1-9.669-.989.238-1.536,1.3-2.211,1.989a4.3,4.3,0,0,1-5.95.768c-4.127-3.431.454-8.177,3.785-10.121a8.883,8.883,0,0,1,9.37.436c7.177,5.338,9.011,17.2,3.57,24.366-1.956,2.677-7.162,6.513-11.157,6.515a4.407,4.407,0,0,1-4.363-3.051" transform="translate(148.815 1.619)"/>
            <path id="Path_1860" data-name="Path 1860" d="M383.563,39.346c-15.005-5.171-3.055-35.995,11.072-31.951a7.67,7.67,0,0,1,3.525,2.724,4.072,4.072,0,0,1,2.161,2.629c3.43,10.489-.1,27.326-12.165,27.327a15.852,15.852,0,0,1-4.593-.73m4.42-7.674a3.9,3.9,0,0,0,2.124-.861c3.883-3.847,3.625-10.605,1.434-15.244-4.5,3.1-6.813,9.249-6.3,14.592a6.229,6.229,0,0,0,.43.933l.023-.133a3.46,3.46,0,0,0,2.293.713" transform="translate(156.068 2.913)"/>
            <path id="Path_1861" data-name="Path 1861" d="M406.508,42.941c-8.846-1.038-8.64-11.923-8.044-18.708.679-4.591-.349-10.249,2.817-14,3.933-3.851,10.209,2.034,6.386,6.127-.458,5.884-1.795,12.155-.293,17.94,3.735-2.956,4.718-8.045,5.9-12.415.646-3.177,1.454-7.933,5.741-7.342,5.568,1.232,3.426,8.591,4.791,12.724.049,3.023,4.673,8.669,6.143,3.547,1.3-4.874,1.487-10.3-.789-14.912-2.055-5,5.475-8.188,7.635-3.226,3.984,8.536,4.266,27.033-7.785,28.663A12.861,12.861,0,0,1,417.7,34.819c-2.174,3.943-5.819,8.138-10.65,8.138-.177,0-.356-.006-.537-.017" transform="translate(165.017 3.721)"/>
            <path id="Path_1862" data-name="Path 1862" d="M444.755,43.633c-12.094-.994-13.712-13.448-12.232-23.227.6-3.618.226-7.945,2.646-10.918,3.354-3.591,9.243,1.144,6.7,5.26-.586,5.121-3.321,16.216,1.127,19.729-.078-.05-.156-.1-.232-.16a1.057,1.057,0,0,0-.216-.143,6.008,6.008,0,0,0,1.847.967c-.091-.031-.181-.065-.272-.095,3.293,1.006,6.276-1.52,8.724-3.4,4.359-3.3,9.42,3.243,5.127,6.642-3.513,2.785-7.666,5.382-12.24,5.382q-.488,0-.982-.04" transform="translate(179.042 3.404)"/>
            <path id="Path_1863" data-name="Path 1863" d="M436.347,24.847a4.325,4.325,0,0,1-1.453-6.988c1.232-1.293,3.032-1.5,4.713-1.747,4.116-.557,8.287-1.055,12.188-1.977,5.359-1.371,7.591,6.69,2.255,8.177-4.587,1.1-9.277,1.629-13.946,2.293a4.278,4.278,0,0,1-2.15.593,3.814,3.814,0,0,1-1.607-.349" transform="translate(179.711 5.792)"/>
            <path id="Path_1864" data-name="Path 1864" d="M434.9,16.556C428.916,6.937,447.252,5.224,453.187,3.91a4.235,4.235,0,0,1,1.148,8.392c-4.259.774-8.591,1.481-12.608,3.15a4.367,4.367,0,0,1-3.908,2.324,3.951,3.951,0,0,1-2.915-1.219" transform="translate(179.727 1.597)"/>
            <path id="Path_1865" data-name="Path 1865" d="M459.423,42.938c-7.034-1.238-1.382-12.851-1.6-17.724.641-5.414,1.034-10.846,1.409-16.282a4.2,4.2,0,1,1,8.326,1.144c-.376,5.43-.762,10.867-1.4,16.275-.509,4.365-1.454,8.659-2.023,13.007a4.24,4.24,0,0,1-4.164,3.619,3.861,3.861,0,0,1-.554-.04" transform="translate(188.911 2.198)"/>
            <path id="Path_1866" data-name="Path 1866" d="M477.329,39.277c-5.73-3.365-24.934-9.851-14.138-17.99,2.7-1.713,6.785-2.249,8.31-5.3-.2-2.9-3.635-1.116-4.481.458a4.3,4.3,0,0,1-5.509,2.156c-4.751-2.216-1.922-7.747,1.332-9.967,14.657-10.283,25.062,11.42,8.6,18.117,3.3,1.888,6.768,3.479,10.116,5.287,3.994,2.362,1.6,7.827-2.11,7.827a4.292,4.292,0,0,1-2.116-.59" transform="translate(190.198 2.451)"/>
            <path id="Path_1867" data-name="Path 1867" d="M481.939,38.416c-.209-5.851,2.4-26.349,7.707-28.978,5.3-3.04,10.254,2.337,11.874,7.093,1.922-4.779,7.3-11.087,12.707-7.021,6.171,6.237,4.2,16.342,4.713,24.359-.055,5.46-8.31,5.475-8.37,0-.082-4.983.072-10.028-.757-14.967a58.567,58.567,0,0,0-4.945,16.63,4.362,4.362,0,0,1-4.254,4.861c-4.188-.021-4.441-4.424-4.348-7.6a50.906,50.906,0,0,0-2.857-13.568,89.007,89.007,0,0,0-3.122,19.741,4.294,4.294,0,0,1-8.348-.547" transform="translate(199.705 3.4)"/>
            <path id="Path_1868" data-name="Path 1868" d="M517.274,39.764C509.02,33.532,511.55,21.879,512.6,13c-.071-5.055,6.956-6.9,8.564-1.757.6,5.271-5.956,26.6,5.812,21.111,3.7-1.46,6.929-7.868,11.172-4a4.182,4.182,0,0,1,0,5.867c-3.779,3.7-9.3,7.457-14.724,7.457a10.617,10.617,0,0,1-6.15-1.915" transform="translate(211.917 3.39)"/>
            <path id="Path_1869" data-name="Path 1869" d="M513.548,22.085a4.306,4.306,0,0,1-.713-5.2c2.42-3.116,7.161-3.049,11.646-2.983a29.941,29.941,0,0,0,6.338-.315c5.475-.641,6.614,7.6,1.148,8.376-4.409.426-8.834.327-13.237.745a4.076,4.076,0,0,1-2.126.591,4.554,4.554,0,0,1-3.057-1.215" transform="translate(212.273 5.615)"/>
            <path id="Path_1870" data-name="Path 1870" d="M514.826,15.784c-5.188-7.823,8.437-9.945,13.613-11.266,5.353-1.392,7.58,6.669,2.255,8.177-3.071.839-6.312,1.307-9.208,2.649A6.111,6.111,0,0,1,517.608,17a3.745,3.745,0,0,1-2.782-1.216" transform="translate(212.858 1.805)"/>
            <path id="Path_1871" data-name="Path 1871" d="M534.932,38.162c.795-6.863,2.049-13.686,2.994-20.531.6-2.618.332-5.774,2.327-7.812s5.469-1.315,7.005.917c3.188,5.338,4.376,11.9,8.641,16.659.692-6.393.8-12.813,1.536-19.195a4.16,4.16,0,0,1,4.652-3.53c6.2,1.321,2.321,9.879,2.829,14.111-.612,5.724-.1,11.188-2.27,16.514-5.669,9.348-14.509-3.414-17.459-8.956-.53,3.972-1.238,7.928-1.768,11.9a4.244,4.244,0,0,1-8.486-.078" transform="translate(221.669 1.919)"/>
            <path id="Path_1872" data-name="Path 1872" d="M567.916,44.251c-6.382-2.42.7-29.172-.635-35.907-.194-3.646,4.79-5.663,7.237-2.994,2.7,4,.861,9.657.707,14.21a114.141,114.141,0,0,0-1.371,16.414c.4,3.581-.18,8.607-4.058,8.607a6.14,6.14,0,0,1-1.881-.33" transform="translate(234.215 1.709)"/>
            <path id="Path_1873" data-name="Path 1873" d="M562.214,8.306c.441-7.121,12.26-6.806,21.364-6.492a58.912,58.912,0,0,0,8.332-.033A4.216,4.216,0,0,1,596.1,5.964a4.234,4.234,0,0,1-4.188,4.188c-2.745.11-5.447.088-8.127.061a84.938,84.938,0,0,0-14.005.635,3.749,3.749,0,0,1-3.189,1.645,4.2,4.2,0,0,1-4.375-4.187" transform="translate(232.973 0.697)"/>
          </g>
        </g>
        <g id="Group_418" data-name="Group 418" transform="translate(799 267)">
          <g id="Group_417" data-name="Group 417" transform="translate(0 0)" clip-path="url(#clip-path-2)">
            <path id="Path_1933" data-name="Path 1933" d="M46.165,10.193c5.465,5.924,5.753,14.97,4.458,22.526C48.658,43.924,37.7,51.478,26.737,51.484a22.436,22.436,0,0,1-8.045-1.467C11.112,47.488,5.774,40.3,3.431,32.894.422,17,16.878-1.862,33.4,2.651c5.528.139,8.927,4.282,12.767,7.542" transform="translate(1.879 1.205)" fill="#006796"/>
            <path id="Path_1934" data-name="Path 1934" d="M13.9,36.011c-1.241-3.431,2.071-4.376,4.538-5.42a11.565,11.565,0,0,0,3.639-2.714c-2.147-.68-4.922-1.592-4.891-4.319.435-3.563,4.986-5.11,5.476-8.762a10.27,10.27,0,0,0-4.885,2.242,4.132,4.132,0,0,1-2.8,1.259,3.231,3.231,0,0,1-1.43-6.1c10.086-8.719,21.4-1.109,12.169,10.274,6.364,3.808,1.681,10.859-3.342,13.314-1.562.819-3.778,2.122-5.647,2.122a2.942,2.942,0,0,1-2.827-1.9" transform="translate(7.213 5.149)"/>
            <path id="Path_1935" data-name="Path 1935" d="M23.441,56.042A28.5,28.5,0,0,1,8.332,48.286,27.9,27.9,0,0,1,.627,34.266,29.284,29.284,0,0,1,2.256,16.954a27.671,27.671,0,0,1,4.93-7.712q.679-.757,1.4-1.473c.227-.234.459-.459.687-.693a12.961,12.961,0,0,1,2.16-1.612,44.676,44.676,0,0,1,5.8-3.2,30.428,30.428,0,0,1,6.585-2c.171-.037.334-.074.5-.106A3.816,3.816,0,0,1,25.75.108,28.381,28.381,0,0,1,45.072,5.629,27.163,27.163,0,0,1,48.912,9.1c.126.139.258.284.377.422.3.3.554.641.812.956.3.366.591.749.875,1.133a29.3,29.3,0,0,1,1.705,2.651,27.915,27.915,0,0,1,2.941,7.523,28.772,28.772,0,0,1-1.594,17.784A27.95,27.95,0,0,1,41.76,52.958a28.973,28.973,0,0,1-13.667,3.481,27.592,27.592,0,0,1-4.653-.4M26.72,6.208l-.234.019a3.017,3.017,0,0,1-.459.139,48.716,48.716,0,0,0-4.954,1.3c-.774.29-1.529.624-2.279.983-1.662.869-3.249,1.826-4.816,2.845l-.1.076c-.693.7-1.378,1.4-2.045,2.116-.617.73-1.2,1.473-1.75,2.253C9.6,16.7,9.131,17.476,8.7,18.276c-.427.888-.824,1.8-1.17,2.727-.29.906-.554,1.813-.769,2.738A27.74,27.74,0,0,0,6.33,26.9a28.294,28.294,0,0,0,.011,2.84,26.191,26.191,0,0,0,.392,2.807,28.36,28.36,0,0,0,.761,2.769c.322.875.68,1.732,1.083,2.569a27.435,27.435,0,0,0,1.492,2.569c.522.749,1.077,1.467,1.668,2.16a27.211,27.211,0,0,0,2.09,2.09c.641.548,1.3,1.057,1.989,1.549q1.209.793,2.48,1.467c.851.416,1.713.78,2.595,1.114a27.81,27.81,0,0,0,2.933.812,27.14,27.14,0,0,0,2.933.409c.97.05,1.934.056,2.9.013.983-.082,1.958-.208,2.928-.384a28.331,28.331,0,0,0,2.87-.788c.856-.314,1.687-.667,2.506-1.051.836-.435,1.649-.907,2.448-1.417A29.656,29.656,0,0,0,42.78,44.6a28.071,28.071,0,0,0,1.989-2q.88-1.039,1.662-2.153a27.176,27.176,0,0,0,1.462-2.48,29.112,29.112,0,0,0,1.146-2.732c.3-.938.566-1.882.774-2.84.182-1,.314-2,.4-3.009a26.19,26.19,0,0,0-.006-2.638,25.424,25.424,0,0,0-.4-3,26.787,26.787,0,0,0-.7-2.606,26.549,26.549,0,0,0-1.172-2.809A26.631,26.631,0,0,0,46.519,15.9c-.535-.782-1.107-1.525-1.555-2.066-.063-.069-.126-.137-.15-.169-.624-.693-1.284-1.354-1.971-1.982a25.532,25.532,0,0,0-2.179-1.694q-1.17-.776-2.4-1.436A26.034,26.034,0,0,0,35.584,7.4a28.261,28.261,0,0,0-2.952-.812,27.1,27.1,0,0,0-2.82-.4c-.472-.024-.944-.037-1.423-.037-.554,0-1.107.018-1.668.05" transform="translate(0 -0.001)"/>
            <path id="Path_1936" data-name="Path 1936" d="M306.514,38.922c-8.94-5.08-3.916-22.116,3.7-26.334,4.066-2.316,8.26.466,10.311,4.092a3.269,3.269,0,0,1-.585,4.527c-3.173,2.121-4.646-.97-6.446-3.015-4.187,2.606-5.565,8.732-5.118,13.389.359,1.826,2.513,2.575,4.181,2.538,2.84-.076,7.252-2.413,8.48,1.478a3.2,3.2,0,0,1-2.222,3.923,27.781,27.781,0,0,1-6.334.912,11.469,11.469,0,0,1-5.961-1.51" transform="translate(184.554 7.18)"/>
            <path id="Path_1937" data-name="Path 1937" d="M320.214,37.255c-8.883-5.3-1.75-23.609,7.618-24.087,3.442-.018,5.892,3,7.133,5.911,1.019,1.971,2.593,5.075.767,7-.119,6.076-5.181,12.395-11.1,12.395a8.868,8.868,0,0,1-4.419-1.22m4.848-5.131a.383.383,0,0,1-.189-.026.441.441,0,0,1-.089.006,1.225,1.225,0,0,1-.151-.013,2.312,2.312,0,0,0,.782-.1c4.313-1.744,5.546-9.185,2.3-12.358-3.708,2.172-5.957,7.976-4.741,11.8a3.777,3.777,0,0,0,1.65.68c.05,0,.106-.006.156-.006.1.006.189.013.284.013" transform="translate(193.365 8.053)"/>
            <path id="Path_1938" data-name="Path 1938" d="M334.318,25.785c-4.23-.119-4.224-6.358,0-6.446,2.946.069,5.9-.2,8.845-.366,4.193.069,4.213,6.258,0,6.409-2.643.164-5.294.416-7.944.416-.3,0-.6,0-.9-.013" transform="translate(202.536 11.604)"/>
            <path id="Path_1939" data-name="Path 1939" d="M351.417,38.832c-11.7-3.663-6.251-27.378,5.156-27.17,4.1.093,8.814,9.072,3.6,10.688-2.833.749-3.966-1.869-4.622-4.085-3.587,2.959-5.01,8.619-3.745,12.982,1.813,3.342,6.8,1.555,9.871,1.354a3.18,3.18,0,1,1,.862,6.3,45.267,45.267,0,0,1-6.477.674,13.448,13.448,0,0,1-4.646-.743" transform="translate(210.939 7.131)"/>
            <path id="Path_1940" data-name="Path 1940" d="M360.771,39.153c-.327-5.729-.013-11.452.189-17.167.227-2.424-.245-5.062.78-7.322,1.945-3.388,7.183-.775,5.842,2.82-.269,7.214-.767,14.447-.421,21.668a3.067,3.067,0,0,1-3.18,3.135,3.1,3.1,0,0,1-3.21-3.135m1.2-20.888a.049.049,0,0,0,.026-.006,3.588,3.588,0,0,1-.6-1.371,3.149,3.149,0,0,0,.579,1.378" transform="translate(220.567 8.006)"/>
            <path id="Path_1941" data-name="Path 1941" d="M374.138,39.581c-3.368-2.348-10.614-4.193-10.142-9.2.862-4.488,9.65-4.878,7.46-10.532-2.084-3.626-3.67,1.82-4.376,3.745a3.225,3.225,0,0,1-5.942-2.511c1.283-3.747,3.217-8.285,7.666-8.82,11.276-.492,12.239,14.132,3.344,18.874,1.705,1.031,3.449,2,5.193,2.965,3.022,1.837,1.247,5.923-1.579,5.923a3.348,3.348,0,0,1-1.625-.44" transform="translate(220.74 7.49)"/>
            <path id="Path_1942" data-name="Path 1942" d="M383.693,38.776c-11.238-1.057-9.575-14.637-6.4-22.25,1.254-3.857,6.774-4.108,7,.374a3.457,3.457,0,0,1-1.228,2.511,19.9,19.9,0,0,0-1.057,3.583c-.251,2.662-1.4,5.816-.031,8.285,2.3,2.372,6.031.743,8.587-.385a3.223,3.223,0,0,1,4.179,1.7c1.676,4.677-6.245,6.208-10.16,6.208-.327,0-.624-.006-.888-.026" transform="translate(229.316 8.309)"/>
            <path id="Path_1943" data-name="Path 1943" d="M376.814,22.364c-1.517-4.432,4.1-5.106,7.215-5.011.546.006,1.177-.026,1.837-.058,2.833-.143,6.214-.288,6.377,3.206-.258,3.481-3.518,3.38-6.5,3.286a16.252,16.252,0,0,0-2.985.069,26.365,26.365,0,0,0-2.94.485,3.335,3.335,0,0,1-3.009-1.977" transform="translate(230.31 10.543)"/>
            <path id="Path_1944" data-name="Path 1944" d="M377.2,17.453a3.256,3.256,0,0,1,1.712-4.23c3.79-1.259,7.789-1.7,11.7-2.45,4.193-.5,5.049,5.679.875,6.384-3.392.649-6.912,1.089-10.218,2.066a3.745,3.745,0,0,1-1.083.163,3.165,3.165,0,0,1-2.99-1.932" transform="translate(230.554 6.571)"/>
            <path id="Path_1945" data-name="Path 1945" d="M392.606,37.977c-2.417-1.542-1.707-4.778-1.447-7.183.49-3.444.969-6.886,1.573-10.306.687-5.779,3.078-12.25,10-8.374,5.357,4.314,7.46,11.636,8.827,18.139.542,2.745.182,6.843-3.544,6.466-2.185-.284-3.061-2.456-2.695-4.432a31.129,31.129,0,0,0-5.509-14.24,147.642,147.642,0,0,0-2.462,15.467c.6,2.463-.78,4.917-3.015,4.917a3.8,3.8,0,0,1-1.731-.453" transform="translate(239.056 6.69)"/>
            <path id="Path_1946" data-name="Path 1946" d="M393.289,26.723a3.284,3.284,0,0,1-.793-4.237c1.127-1.863,3.587-1.857,5.5-2.285,3.128-.3,8.537-3.065,9.488,1.631.384,4.98-7.252,3.921-10.514,5.125a4.854,4.854,0,0,1-1.831.414,2.874,2.874,0,0,1-1.845-.648" transform="translate(239.776 11.693)"/>
            <path id="Path_1947" data-name="Path 1947" d="M408.649,37.279c-1.473-7.428-1.291-14.983-.648-22.5.585-2.877-.593-7.447,2.914-8.643a3.251,3.251,0,0,1,3.966,2.253c.221,2.348-.485,4.936-.479,7.127-.535,6.969-.767,14,.567,20.895a3.108,3.108,0,0,1-3.2,3.576,3.066,3.066,0,0,1-3.117-2.708" transform="translate(249.247 3.673)"/>
            <path id="Path_1948" data-name="Path 1948" d="M404.867,20.908a3.238,3.238,0,0,1-.579-4.514c.982-1.309,2.688-1.549,4.2-1.718,2.9-.251,5.816-.435,8.706-.769,4.187-.44,5.019,5.7.869,6.353-3.241.4-6.516.5-9.757.925a3.325,3.325,0,0,1-1.531.384,3.111,3.111,0,0,1-1.913-.661" transform="translate(246.858 8.492)"/>
            <path id="Path_1949" data-name="Path 1949" d="M418.218,30.378c-.214-5.753.245-11.526.459-17.275.126-4.218,6.364-4.218,6.434,0-.208,5.749-.667,11.521-.479,17.275a3.086,3.086,0,0,1-3.191,3.16,3.125,3.125,0,0,1-3.223-3.16" transform="translate(255.755 6.079)"/>
            <path id="Path_1950" data-name="Path 1950" d="M431.068,33.719c-11.112-2.077-5.855-14.712.3-19.505,2.272-1.931,5.583-3.486,8.542-2.232,1.668,1.044,4.061,2.21,4.042,4.445a5.05,5.05,0,0,1-.069,2.015c.208,7.365-2.474,15.536-10.287,15.536a13.112,13.112,0,0,1-2.524-.258m-.139-6.849a4.358,4.358,0,0,0,2.348.7,3.168,3.168,0,0,0,2.909-1.5c-.039.05-.069.1-.1.145,1.323-2.437,1.2-5.357,1.391-8.058-.031-.045-.056-.089-.081-.132a11.94,11.94,0,0,0-6.466,8.845" transform="translate(259.682 7.051)"/>
            <path id="Path_1951" data-name="Path 1951" d="M442.723,36.78c-4.948-.862-1.85-8.8-1.7-12.219.875-3.267,1.505-10.179,6.227-9.323,1.926.529,2.662,2.272,3.342,3.984,1.636,4.226,3.852,8.9,8.14,10.954,2.259-3.908,2.827-8.68,3.178-13.125-.069-1.417-.767-2.9.052-4.224a3.116,3.116,0,0,1,4.23-1.109c3.3,2.859,1.56,8.493,1.075,12.276-2.359,16.387-12.395,15.745-20.107,2.922-1.02,3.223.68,9.871-4.148,9.871-.1,0-.19,0-.29-.006" transform="translate(269.068 6.91)"/>
            <path id="Path_1952" data-name="Path 1952" d="M58.725,42.133C58.543,31.707,57.536,21.3,58,10.87c-.712-1.99.453-4.754,2.719-5.019a3.281,3.281,0,0,1,3.407,1.939c.836,3.054.05,6.4.239,9.55-.2,8.279.793,16.513.812,24.792a3.224,3.224,0,0,1-6.446,0" transform="translate(35.343 3.559)"/>
            <path id="Path_1953" data-name="Path 1953" d="M74.631,37a37.337,37.337,0,0,1-1.447-10.64c-3.368,3.268-12.592,7.189-14.461.656a3.241,3.241,0,0,1,5.206-2.946c4.351-.832,7.744-4.7,9.28-8.714.786-1.939.624-4.129,1.284-6.081,1.4-3.418,6.654-1.965,6.163,1.694a99.01,99.01,0,0,0-.925,18.211A27.98,27.98,0,0,0,80.813,35.3a3.155,3.155,0,0,1-3.173,4.018A3.07,3.07,0,0,1,74.631,37" transform="translate(35.894 4.491)"/>
            <path id="Path_1954" data-name="Path 1954" d="M83.05,36.387c-13.081-3.518-3-30.3,8.965-24.64,9.523,5.629,3.9,24.88-6.854,24.882a9.5,9.5,0,0,1-2.111-.242m1.291-6.295a2.409,2.409,0,0,0,1.38.032c4.106-1.591,4.67-6.73,4.67-10.608-.567-.693-.912-1.9-1.776-2.211-3.405,1.323-7.157,10.211-4.274,12.787" transform="translate(47.034 6.705)"/>
            <path id="Path_1955" data-name="Path 1955" d="M96.734,37.433c-5.294-2.593-3.923-9.739-3.607-14.567.585-3.821,1.51-14.4,7.547-10.274a3.417,3.417,0,0,1,.208,4.432,38.586,38.586,0,0,0-1.562,13.623c2.229-2.461,3.533-5.571,5.094-8.461.661-1.265,1.341-2.688,2.738-3.28,2.442-1.057,4.941.73,5.591,3.115,1.41,3.734,2.757,14.613,6.131,4.886a18.338,18.338,0,0,0-1.183-10.521,3.17,3.17,0,1,1,5.981-2.077c2.4,6.492,3.1,15.015-2.04,20.385-5.665,5.591-12.193.938-13.472-5.792-1.96,3.583-5.015,8.861-9.468,8.861a6.148,6.148,0,0,1-1.958-.33" transform="translate(56.718 7.126)"/>
            <path id="Path_1956" data-name="Path 1956" d="M129.416,37.357c-.73-9.135.34-18.25.762-27.36a3.224,3.224,0,0,1,6.446,0c-.429,9.11-1.467,18.226-.769,27.354a3.084,3.084,0,0,1-3.2,3.172,3.135,3.135,0,0,1-3.239-3.165" transform="translate(79.001 4.173)"/>
            <path id="Path_1957" data-name="Path 1957" d="M125.9,22.743c-4.055-6.975,12.4-7.712,16.463-9.009,4.187-.509,5.056,5.673.875,6.384a98.907,98.907,0,0,0-11.8,2.732,6.852,6.852,0,0,1-3.206,1.1,2.834,2.834,0,0,1-2.335-1.21" transform="translate(76.615 8.381)"/>
            <path id="Path_1958" data-name="Path 1958" d="M148.112,37.231c-10.292-1.889-7.818-15.588-3.462-22.039,1.945-3.173,6.145-4.848,9.31-2.4,1.065.737,2.493,1.317,2.883,2.658a3.219,3.219,0,0,1,3.06,2.769c1.7,7.762-2.276,19.019-11.407,19.019-.127,0-.255,0-.385-.006m.032-6.691a1.444,1.444,0,0,0,.819.346c4.469-1.41,5.376-7.077,4.658-11.136a3.6,3.6,0,0,1-1.731-.617c-.466-.321-.944-.624-1.43-.919-2,2.417-4.575,9.72-2.316,12.326" transform="translate(86.166 7.107)"/>
            <path id="Path_1959" data-name="Path 1959" d="M171.183,36.293c-6.308-4.237-3.929-12.9-2.827-19.151.542-2.355,1.133-5.9,4.181-5.931a3.225,3.225,0,0,1,3.1,2.367A4.321,4.321,0,0,1,175,17.161c-1.215,5.942-4.861,17.507,5.742,13.8,3.135-.83,6.949-5.71,9.67-1.692,1.787,3.2-1.977,5.023-4.3,6.295a18.658,18.658,0,0,1-8.778,2.458,11.128,11.128,0,0,1-6.155-1.728" transform="translate(102.133 6.856)"/>
            <path id="Path_1960" data-name="Path 1960" d="M169.03,21.064c.346-4.917,9.481-5.056,13.2-6.446,4.11-1,5.76,5.011,1.712,6.213a77.378,77.378,0,0,0-9.525,2.608,2.894,2.894,0,0,1-2.066.838,3.253,3.253,0,0,1-3.317-3.212" transform="translate(103.381 8.871)"/>
            <path id="Path_1961" data-name="Path 1961" d="M169.537,15.856c.938-5.5,8.983-6.006,13.391-7.265a3.283,3.283,0,0,1,3.966,2.255,3.245,3.245,0,0,1-2.255,3.966c-3.1.748-6.414,1.164-9.2,2.807a2.937,2.937,0,0,1-2.579,1.421,3.2,3.2,0,0,1-3.326-3.185" transform="translate(103.691 5.203)"/>
            <path id="Path_1962" data-name="Path 1962" d="M190.446,34.791c-3.109-5.056-2.04-11.615-3.1-17.288-4.822-2.814,1.165-9.971,4.816-5.539,2.45,3.916,1.681,8.99,2.425,13.4,1.956-4.853,3.022-10.116,5.842-14.585,2.221-3.57,7.6-.435,5.539,3.241-3.41,4.168-5.647,21.905-12.4,21.907a5.548,5.548,0,0,1-3.128-1.138" transform="translate(113.484 5.633)"/>
            <path id="Path_1963" data-name="Path 1963" d="M199.521,35.8a49.057,49.057,0,0,1,4.488-20.422c2.11-5.552,8-9.745,11.987-3.243,2.946,6.409,3.1,13.794,4.343,20.663a3.209,3.209,0,0,1-6.358.875c-.907-5.824-1.479-11.816-3.147-17.439A41.022,41.022,0,0,0,205.967,35.8a3.152,3.152,0,0,1-3.257,3.168,3.075,3.075,0,0,1-3.189-3.168" transform="translate(122.031 5.403)"/>
            <path id="Path_1964" data-name="Path 1964" d="M203.509,19.947a7.849,7.849,0,0,1,3.576-1.051c2.524-.511,6.119-1.1,6.661,2.322a3.246,3.246,0,0,1-2.751,3.626c-1.852.208-3.691.561-5.521.862-.034,0-.068,0-.1,0a3.238,3.238,0,0,1-1.863-5.762" transform="translate(123.716 11.316)"/>
            <path id="Path_1965" data-name="Path 1965" d="M216.791,36.251A121.1,121.1,0,0,1,218.3,11.958c.509-2.3.509-5.006,2.121-6.856a3.271,3.271,0,0,1,4.98,4.192,107.608,107.608,0,0,0-2.179,26.958,3.214,3.214,0,0,1-6.427,0" transform="translate(132.548 2.541)"/>
            <path id="Path_1966" data-name="Path 1966" d="M237.8,33.731c-.145-.97-.271-1.945-.327-2.915a32.014,32.014,0,0,1,.158-4.343c-2.562,4.01-10.326,11.4-13.146,3.8-.548-5.351.951-10.746,1.4-16.071a3.254,3.254,0,0,1,5.164-2.11c1.649,1.133,1.289,3.255,1.044,4.936-.353,2.43-.749,4.872-1,7.322,2.959-3.11,4.571-7.731,8.266-10.01,8.065-1.674,4.514,10.034,4.508,14.492-.214,2.8,1.566,6.893-2.469,7.629a2.987,2.987,0,0,1-.43.031,3.239,3.239,0,0,1-3.17-2.762" transform="translate(137.228 6.994)"/>
            <path id="Path_1967" data-name="Path 1967" d="M242.772,34.939c-1.965-8.619,2.524-18.094,8.758-23.916,10.506-5.911,11.42,15.462,12.2,21.707a3.228,3.228,0,0,1-3.217,3.223,3.346,3.346,0,0,1-3.243-3.55c-.566-5.162-1.139-10.4-2.909-15.286-3.55,4.8-6.861,10.861-5.2,16.948a3.225,3.225,0,0,1-6.39.875" transform="translate(148.198 6.115)"/>
            <path id="Path_1968" data-name="Path 1968" d="M244.372,23.637c-1.536-4.735,4.848-5.27,8.084-5.3,2.907-.034,7.662-1.209,7.863,3.048-.247,3.418-3.476,3.386-6.429,3.355a16.537,16.537,0,0,0-2.946.139c-1.252-.026-2.367.635-3.563.737a3.31,3.31,0,0,1-3.009-1.977" transform="translate(149.319 11.108)"/>
            <path id="Path_1969" data-name="Path 1969" d="M262.22,38.757c.234-10.538,2.625-20.888,4.948-31.124a3.226,3.226,0,1,1,6.221,1.712c-.661,2.632-1.2,5.294-1.757,7.952-1.43,7.088-2.87,14.208-3,21.46a3.113,3.113,0,0,1-3.223,3.147,3.069,3.069,0,0,1-3.186-3.147" transform="translate(160.378 3.222)"/>
            <path id="Path_1970" data-name="Path 1970" d="M260.551,21.855c-3.966-5.66,5.483-7.077,9.323-6.944a20.014,20.014,0,0,0,2.72.026c3.109-.1,6.679-.189,6.956,3.368a3.238,3.238,0,0,1-3.223,3.223,71.277,71.277,0,0,0-8.045-.082,7.154,7.154,0,0,0-3.048.643,7.925,7.925,0,0,1-2.611.656,2.829,2.829,0,0,1-2.073-.89" transform="translate(158.774 9.114)"/>
            <path id="Path_1971" data-name="Path 1971" d="M281.617,39.012c-10-.208-9.241-9.6-6.44-16.595.591-1.876,1.36-3.7,1.989-5.571a3.258,3.258,0,0,1,2.777-3.015c4.243-.158,4.155,4.035,2.682,6.919-1.139,3.683-3.312,7.549-2.814,11.457,2.965,1.254,6.472-.163,9.31-1.259,3.929-1.542,6.359,4.2,2.506,5.924a24.352,24.352,0,0,1-9.405,2.15q-.3,0-.6-.01" transform="translate(167.183 8.456)"/>
            <path id="Path_1972" data-name="Path 1972" d="M287.618,24.793c-1.2-.1-2.417-.069-3.646-.05a20.254,20.254,0,0,1-6.711-.611c-3.328-2.015-.906-6.77,2.417-5.887a19.815,19.815,0,0,0,3.652.032c3.462-.164,7.272-.321,7.5,3.3a3.24,3.24,0,0,1-3.173,3.217h-.043" transform="translate(168.605 11.092)"/>
            <path id="Path_1973" data-name="Path 1973" d="M277.34,19.91c-3.3-6.685,8.31-6.9,12.384-7.549,4.2-.459,5.054,5.716.875,6.384-2.82.4-5.742.517-8.43,1.542a3.532,3.532,0,0,1-2.293.853,3.15,3.15,0,0,1-2.535-1.23" transform="translate(169.27 7.545)"/>
            <path id="Path_1974" data-name="Path 1974" d="M476.28,22.214a3.221,3.221,0,0,1-1.152-4.369,38.292,38.292,0,0,0,1.9-3.525c.163-.593.711-1.612.106-2.053a9.359,9.359,0,0,0-4.878.919c-1.1,2.651-5.4,2.324-6.024-.516-1.209-6.069,10.16-8.316,14.145-5.942a7.222,7.222,0,0,1,3.135,8.164c-.977,2.609-2.427,7.736-5.592,7.736a3.738,3.738,0,0,1-1.634-.414" transform="translate(285.098 3.547)"/>
            <path id="Path_1975" data-name="Path 1975" d="M468.463,25.651a3.2,3.2,0,1,1,3.2,3.2,3.226,3.226,0,0,1-3.2-3.2" transform="translate(286.52 13.733)"/>
          </g>
        </g>
      </g>
    </g>
  </g>
</svg>
