<svg xmlns="http://www.w3.org/2000/svg" xmlns:xlink="http://www.w3.org/1999/xlink" width="525.176" height="41.16" viewBox="0 0 525.176 41.16">
  <defs>
    <clipPath id="clip-path">
      <rect id="Rectangle_101" data-name="Rectangle 101" width="525.176" height="41.16" fill="none"/>
    </clipPath>
  </defs>
  <g id="Group_407" data-name="Group 407" transform="translate(0 0)">
    <g id="Group_406" data-name="Group 406" transform="translate(0 0.001)" clip-path="url(#clip-path)">
      <path id="Path_1837" data-name="Path 1837" d="M15.046,5.832c2.107,2.233,4.168,8.589-.385,9.106a2.7,2.7,0,0,1-2.688-2.688c.365-2.278-2.2-4.757-3.909-2.345a13.325,13.325,0,0,0-2.807,8c-.371,3.114,1.1,7.324,4.777,7.289,2.226-.36,5.3-2.733,6.681.312,1.305,3.727-4.4,4.707-7.01,4.865C-7.747,29.718,1-5.7,15.046,5.832" transform="translate(0 -0.367)"/>
      <path id="Path_1838" data-name="Path 1838" d="M27.092,30.974C16.656,25.941,23.848,5.748,31.936,9.493a6.407,6.407,0,0,1,1.683,1.614,7.94,7.94,0,0,1,2.923,2.673,11.963,11.963,0,0,1,1.368,4.21c1.281,5.42-2.281,13.552-8.1,13.553a7.116,7.116,0,0,1-2.721-.569m2.583-4.654c3.426-1.351,3.552-5.918,2.719-8.984a3.272,3.272,0,0,1-2.828-2.4c-2.443,3.009-4.063,9.162.108,11.381" transform="translate(-2.278 -0.94)"/>
      <path id="Path_1839" data-name="Path 1839" d="M45.528,25.524c-3.451-.521-2.734-5.739.728-5.3a8.6,8.6,0,0,0,3.976-.263c2.348-.5,4.641-1,5.495,1.484a2.672,2.672,0,0,1-1.855,3.269,30.022,30.022,0,0,1-6.391.955,12.25,12.25,0,0,1-1.953-.151" transform="translate(-4.503 -2.035)"/>
      <path id="Path_1840" data-name="Path 1840" d="M67.665,29.951c-9.576-2.734-7.6-16.575-.949-21.418A5.19,5.19,0,0,1,75.137,12c.84,3.793-4.687,4.731-5.337.924-2.338,1.683-3.013,4.889-3.346,7.6-.678,5.019,5.715,5.439,9.271,4.707a2.657,2.657,0,0,1,2.961,2.251c.22,2.587-2.378,3.335-5.2,3.335a21.047,21.047,0,0,1-5.825-.867" transform="translate(-6.358 -0.771)"/>
      <path id="Path_1841" data-name="Path 1841" d="M83.491,29.007c-.479-6.548-1.029-13.118-.34-19.679.931-4.043,6.324-2.31,5.239,1.6-.5,6.041.059,12.054.374,18.084a2.638,2.638,0,0,1-5.274,0" transform="translate(-8.619 -0.731)"/>
      <path id="Path_1842" data-name="Path 1842" d="M96.7,28.086c-3.769-.892-8.508-2.3-10.149-6.174-.917-4.182,7.206-5.722,4.627-10.335a3,3,0,0,0-1.459,1.5A2.689,2.689,0,0,1,85.08,10.36c7.955-11.528,17.415,3.185,7.756,10.814a15.942,15.942,0,0,0,5.253,1.887c3.023.85,2.083,5.124-.646,5.125a2.906,2.906,0,0,1-.74-.1" transform="translate(-8.815 -0.635)"/>
      <path id="Path_1843" data-name="Path 1843" d="M111.243,29.836c-5.618-.822-7.97-7.241-6.87-12.264.683-2.894,1.081-10.24,5.53-8.84,2.023.9,1.876,3.049.931,4.718a27.616,27.616,0,0,0-1.32,6.362c-.29,4.911,3.045,6.205,6.71,3.189a2.632,2.632,0,0,1,3.584.938c1.807,3.665-4.442,5.955-7.742,5.955a5.212,5.212,0,0,1-.822-.058" transform="translate(-10.833 -0.891)"/>
      <path id="Path_1844" data-name="Path 1844" d="M104.366,19.611c-.34-3.395,3.79-3.762,6.254-4.158,2.716-.083,7.518-2.415,8.361,1.526.4,4.354-6.887,3.139-9.729,4.165a4.573,4.573,0,0,1-2.334.738,2.536,2.536,0,0,1-2.552-2.271" transform="translate(-10.858 -1.529)"/>
      <path id="Path_1845" data-name="Path 1845" d="M106.064,12.623c-4.707-5.313,7.4-6.59,10.545-7.675,3.388-.879,4.8,4.217,1.424,5.172-2.457.6-4.9,1.218-7.3,2.005a10.3,10.3,0,0,1-3.192,1.038,2.247,2.247,0,0,1-1.477-.54" transform="translate(-10.925 -0.505)"/>
      <path id="Path_1846" data-name="Path 1846" d="M129.594,31.3c-4.753-.854-1.743-18.181,1.036-20.561,5.274-5.866,9.793.564,10.415,6.16.5,2.67.956,5.365,1.215,8.071.426,1.959-.13,4.542-2.569,4.546a2.709,2.709,0,0,1-2.682-2.681c-.371-4.228-.812-8.614-2.327-12.6-2.1,3.7-2.072,8.445-2.083,12.617,1.059,1.913-.076,4.557-2.23,4.557a2.958,2.958,0,0,1-.776-.108" transform="translate(-13.225 -0.876)"/>
      <path id="Path_1847" data-name="Path 1847" d="M128.506,26.088c-3-5.939,8.427-5.565,11.818-6.5,3.458-.444,4.186,4.781.725,5.306a85.24,85.24,0,0,0-8.554,1.55,2.862,2.862,0,0,1-1.848.672,2.673,2.673,0,0,1-2.141-1.032" transform="translate(-13.32 -2.036)"/>
      <path id="Path_1848" data-name="Path 1848" d="M154.271,31.215a2.676,2.676,0,0,1-2.22-3.227c.11-3.584-.6-7.146-.289-10.733.087-2.544.371-5.1.263-7.654a2.718,2.718,0,0,1,3.649-3.174c2.028.84,1.74,3.272,1.726,5.078-.095,3.552-.46,7.083-.294,10.636.017,2.913,1.73,9.075-2.759,9.076h-.076" transform="translate(-15.783 -0.646)"/>
      <path id="Path_1849" data-name="Path 1849" d="M146.456,12.166a2.726,2.726,0,0,1-.962-3.672c3.087-4.021,11.822-3.419,16.54-4.9,3.37-.9,4.77,4.238,1.417,5.152-4.445,1.158-9.141,1.27-13.485,2.771a2.9,2.9,0,0,1-2.187,1,2.58,2.58,0,0,1-1.323-.356" transform="translate(-15.104 -0.364)"/>
      <path id="Path_1850" data-name="Path 1850" d="M168.447,27.333c.088-5.078.329-10.153.528-15.224a2.614,2.614,0,0,1,5.229,0c-.2,5.071-.435,10.149-.473,15.224a2.642,2.642,0,0,1-5.283,0" transform="translate(-17.528 -0.988)"/>
      <path id="Path_1851" data-name="Path 1851" d="M183.33,29.159c-3.692-2.4-4.169-7.444-2-11.038,2.072-3.6,5.609-9.239,10.475-7.447,2.27,1.039,4.368,4.689,3.171,7.048,1.306,5.876-1.539,13.1-6.9,13.1a8.578,8.578,0,0,1-4.744-1.668m4.913-3.72c1.725-1.221,1.568-3.979,1.616-5.9.048-1.078-.917-1.834-.977-2.87-1.522,1.9-4.893,5.41-2.872,7.8a3.555,3.555,0,0,0,2.232.974" transform="translate(-18.733 -1.075)"/>
      <path id="Path_1852" data-name="Path 1852" d="M203.1,34.025a2.72,2.72,0,0,1-1.88-3.307c1.081-3.958,1.782-8,2.933-11.942.4-2.82,3.233-4.581,5.4-2.169,2.31,3.8,3.57,8.438,7.665,10.877.35-3.5,1.546-7.552.3-10.873-1.344-4.746,7.476-6.818,5.449,6.7-.273,5.344-1.645,13.712-8.645,8.511a21.03,21.03,0,0,1-6.243-6.626c-1.02,2.605-.656,8.9-4.267,8.9a3.708,3.708,0,0,1-.71-.073" transform="translate(-20.928 -1.353)"/>
      <path id="Path_1853" data-name="Path 1853" d="M256.841,31.238c-3.276-.581-5.666-3.8-5.876-7.027-.207-3.525,2.218-6.394,4.448-8.847C251.788,9.915,254.6,1.952,261,.286c5.613-1.638,9.338,4.081,6.814,8.977-1.207,2.772-3.524,4.858-5.655,6.919a30.3,30.3,0,0,0,3.654,4.6,25.935,25.935,0,0,0,5.323-7.34,2.692,2.692,0,0,1,3.661-.959c3.955,2.534-2.789,9.358-4.739,11.658.514.318,1.033.63,1.564.92,2.57-1.039,4.039.865,4.025,2.772-.021,2.646-2.909,5.291-9.7.048-2.249,1.72-4.9,3.484-7.8,3.485a6.975,6.975,0,0,1-1.316-.125m1.459-5.246a8.564,8.564,0,0,0,3.455-1.687,34.012,34.012,0,0,1-3.405-4.154c-1.064,1.388-2.855,3.223-1.572,4.995-.015-.022-.029-.042-.045-.064l-.083-.168a2.5,2.5,0,0,0,.542.714c.046.039.091.077-.007.063a1.843,1.843,0,0,0,1.116.3m4.34-20.575a4.5,4.5,0,0,0-3.195,5.915c1.508-1.635,3.916-3.448,3.724-5.891a.013.013,0,0,1-.011,0c-.085-.028-.169-.056-.254-.087.2.083-.151.054-.263.066" transform="translate(-26.113 0)"/>
      <path id="Path_1854" data-name="Path 1854" d="M304.993,31.134c-5.016-1.2-6.485-6.923-5.694-11.434.685-3.153.14-12.6,5.3-10.961,2.317,1.05,1.593,3.216.96,5.06-.361,3.595-1.862,7.633-.532,11.109,1.7,2.734,5.473-1.176,7.5-1.988a2.68,2.68,0,0,1,2.706,4.627c-2.723,1.546-5.641,3.726-8.859,3.726a6.884,6.884,0,0,1-1.385-.139" transform="translate(-31.123 -0.89)"/>
      <path id="Path_1855" data-name="Path 1855" d="M301.978,21.05a2.7,2.7,0,0,1-1.432-3.521c1.061-2.047,3.605-2.5,5.614-3.167,2.517-.525,6.558-3.108,7.79.529.756,4.217-5.428,3.863-8.056,5.19-1.013.357-1.931,1.2-2.987,1.2a2.043,2.043,0,0,1-.929-.228" transform="translate(-31.25 -1.351)"/>
      <path id="Path_1856" data-name="Path 1856" d="M304.374,13.3a2.7,2.7,0,0,1-2.684-2.684c.668-4.015,5.767-4.963,8.791-6.8A2.7,2.7,0,0,1,314,5.237c1.243,3.975-4.5,4.388-6.737,6.275-.908.658-1.434,1.789-2.74,1.789-.049,0-.1,0-.151,0" transform="translate(-31.392 -0.373)"/>
      <path id="Path_1857" data-name="Path 1857" d="M324.525,29.273c-.917-5.064-1.781-15.35,1.785-19.364,2.982-3.35,7.048-.745,8.792,2.474,3.692-7.563,12.487-6.142,14.22,1.988,1.113,4.14.92,8.515.532,12.747a2.7,2.7,0,0,1-3.027,2.3c-2.709-.367-2.377-3.325-2.118-5.351.108-2.23.343-12.33-3.307-11.035-2.684,1.856-2.2,5.845-2.4,8.739-.028,2.114.525,5.334-2.327,5.747-2.3.312-3.269-1.946-3.192-3.895a21.6,21.6,0,0,0-3.65-9.363c-1.022,4.27-.686,8.82-.266,13.156a2.672,2.672,0,0,1-2.661,3.474,2.54,2.54,0,0,1-2.382-1.612" transform="translate(-33.685 -0.773)"/>
      <path id="Path_1858" data-name="Path 1858" d="M359.669,42.028a2.833,2.833,0,0,1-2.247-3.514,129.464,129.464,0,0,0-.193-13.092c-.129-4.777-.006-9.576.091-14.357a2.688,2.688,0,1,1,5.376,0c-.2,7.294-.193,14.594.2,21.884-.29,2.872,1.264,9.082-3.043,9.082-.06,0-.122,0-.185,0" transform="translate(-37.166 -0.872)"/>
      <path id="Path_1859" data-name="Path 1859" d="M360.922,22.531c-.84-4.487,5.691-2.653,6.369-7.115.27-2.072-.136-4.872-1.963-6.125-.626.151-.973.822-1.4,1.26a2.724,2.724,0,0,1-3.769.486c-2.614-2.174.288-5.179,2.4-6.411a5.627,5.627,0,0,1,5.936.276c4.546,3.381,5.708,10.9,2.261,15.434-1.239,1.7-4.537,4.126-7.067,4.127a2.791,2.791,0,0,1-2.764-1.933" transform="translate(-37.368 -0.407)"/>
      <path id="Path_1860" data-name="Path 1860" d="M381.019,27.5c-9.505-3.276-1.935-22.8,7.013-20.239a4.858,4.858,0,0,1,2.233,1.726,2.579,2.579,0,0,1,1.369,1.666c2.173,6.644-.064,17.31-7.706,17.311a10.041,10.041,0,0,1-2.909-.462m2.8-4.861a2.47,2.47,0,0,0,1.346-.546c2.459-2.437,2.3-6.718.909-9.656a10.377,10.377,0,0,0-3.993,9.243,3.947,3.947,0,0,0,.272.591l.014-.084a2.192,2.192,0,0,0,1.452.452" transform="translate(-39.19 -0.732)"/>
      <path id="Path_1861" data-name="Path 1861" d="M403.47,30.493c-5.6-.658-5.473-7.553-5.1-11.851.43-2.908-.221-6.492,1.785-8.868,2.492-2.44,6.467,1.288,4.045,3.881-.29,3.727-1.137,7.7-.185,11.364,2.366-1.873,2.989-5.1,3.734-7.865.409-2.012.921-5.025,3.637-4.651,3.527.78,2.17,5.442,3.035,8.06.031,1.915,2.96,5.491,3.891,2.247a13.547,13.547,0,0,0-.5-9.446c-1.3-3.167,3.468-5.187,4.836-2.044,2.524,5.407,2.7,17.124-4.931,18.156a8.147,8.147,0,0,1-7.164-4.129c-1.377,2.5-3.686,5.155-6.746,5.155-.112,0-.226,0-.34-.011" transform="translate(-41.437 -0.935)"/>
      <path id="Path_1862" data-name="Path 1862" d="M440.1,30.651c-7.661-.63-8.686-8.519-7.748-14.713.381-2.292.143-5.033,1.676-6.916,2.124-2.275,5.855.725,4.245,3.332-.371,3.244-2.1,10.272.714,12.5-.049-.031-.1-.066-.147-.1a.671.671,0,0,0-.137-.09,3.8,3.8,0,0,0,1.17.613c-.057-.02-.115-.041-.172-.06,2.086.637,3.975-.963,5.526-2.153,2.761-2.093,5.967,2.054,3.248,4.207-2.225,1.764-4.856,3.409-7.754,3.409q-.309,0-.622-.025" transform="translate(-44.959 -0.855)"/>
      <path id="Path_1863" data-name="Path 1863" d="M435.369,20.863a2.74,2.74,0,0,1-.92-4.427,4.814,4.814,0,0,1,2.985-1.106c2.607-.353,5.249-.668,7.72-1.253,3.395-.868,4.809,4.238,1.428,5.179-2.906.7-5.876,1.032-8.834,1.452a2.71,2.71,0,0,1-1.362.375,2.416,2.416,0,0,1-1.018-.221" transform="translate(-45.126 -1.455)"/>
      <path id="Path_1864" data-name="Path 1864" d="M434.47,11.9c-3.793-6.093,7.822-7.178,11.581-8.011a2.683,2.683,0,0,1,.728,5.316,38.567,38.567,0,0,0-7.986,2,2.766,2.766,0,0,1-2.476,1.472,2.5,2.5,0,0,1-1.847-.772" transform="translate(-45.131 -0.402)"/>
      <path id="Path_1865" data-name="Path 1865" d="M458.124,29.144c-4.456-.784-.875-8.141-1.012-11.227.406-3.43.655-6.87.892-10.314a2.662,2.662,0,0,1,5.274.725c-.238,3.44-.483,6.884-.885,10.31-.323,2.765-.921,5.485-1.281,8.239a2.686,2.686,0,0,1-2.638,2.293,2.446,2.446,0,0,1-.351-.025" transform="translate(-47.437 -0.553)"/>
      <path id="Path_1866" data-name="Path 1866" d="M470.605,27.049c-3.629-2.131-15.795-6.24-8.956-11.4,1.708-1.085,4.3-1.425,5.264-3.356-.126-1.834-2.3-.707-2.838.29a2.723,2.723,0,0,1-3.49,1.365c-3.009-1.4-1.218-4.907.844-6.314,9.285-6.514,15.875,7.234,5.446,11.476,2.089,1.2,4.287,2.2,6.408,3.349,2.53,1.5,1.012,4.958-1.337,4.958a2.719,2.719,0,0,1-1.34-.374" transform="translate(-47.76 -0.616)"/>
      <path id="Path_1867" data-name="Path 1867" d="M481.935,27.342c-.133-3.707,1.522-16.691,4.882-18.356,3.356-1.925,6.5,1.48,7.521,4.493,1.218-3.027,4.627-7.023,8.049-4.447,3.909,3.951,2.664,10.352,2.985,15.43-.035,3.458-5.264,3.468-5.3,0a63.486,63.486,0,0,0-.479-9.481,37.1,37.1,0,0,0-3.132,10.535,2.763,2.763,0,0,1-2.7,3.079c-2.653-.013-2.813-2.8-2.754-4.816a32.245,32.245,0,0,0-1.81-8.595,56.385,56.385,0,0,0-1.977,12.5,2.72,2.72,0,0,1-5.288-.347" transform="translate(-50.147 -0.854)"/>
      <path id="Path_1868" data-name="Path 1868" d="M515.121,28.187c-5.229-3.948-3.626-11.329-2.961-16.953-.045-3.2,4.406-4.371,5.425-1.113.378,3.339-3.773,16.852,3.681,13.373,2.342-.925,4.389-4.984,7.077-2.534a2.649,2.649,0,0,1,0,3.716c-2.394,2.341-5.892,4.723-9.327,4.723a6.725,6.725,0,0,1-3.9-1.213" transform="translate(-53.214 -0.852)"/>
      <path id="Path_1869" data-name="Path 1869" d="M513.075,18.957a2.728,2.728,0,0,1-.452-3.293c1.533-1.974,4.536-1.932,7.377-1.89a18.967,18.967,0,0,0,4.015-.2c3.468-.406,4.189,4.816.727,5.306-2.793.27-5.6.207-8.385.472a2.582,2.582,0,0,1-1.347.375,2.885,2.885,0,0,1-1.936-.77" transform="translate(-53.303 -1.411)"/>
      <path id="Path_1870" data-name="Path 1870" d="M514.4,11.6c-3.286-4.955,5.344-6.3,8.623-7.136,3.391-.882,4.8,4.224,1.428,5.179a36.474,36.474,0,0,0-5.833,1.678,3.871,3.871,0,0,1-2.457,1.049A2.372,2.372,0,0,1,514.4,11.6" transform="translate(-53.45 -0.454)"/>
      <path id="Path_1871" data-name="Path 1871" d="M534.932,25.872c.5-4.347,1.3-8.669,1.9-13.006.378-1.658.211-3.657,1.474-4.948a2.959,2.959,0,0,1,4.438.581c2.02,3.381,2.772,7.536,5.473,10.552.438-4.05.508-8.116.973-12.159a2.635,2.635,0,0,1,2.947-2.236c3.931.837,1.47,6.258,1.792,8.939-.388,3.626-.066,7.087-1.438,10.461-3.591,5.921-9.191-2.163-11.06-5.673-.336,2.516-.784,5.022-1.12,7.538a2.688,2.688,0,0,1-5.376-.049" transform="translate(-55.662 -0.483)"/>
      <path id="Path_1872" data-name="Path 1872" d="M566.924,29.543c-4.042-1.533.444-18.479-.4-22.745a2.705,2.705,0,0,1,4.585-1.9c1.708,2.534.546,6.118.448,9a72.309,72.309,0,0,0-.868,10.4c.251,2.269-.114,5.452-2.57,5.452a3.889,3.889,0,0,1-1.192-.209" transform="translate(-58.813 -0.43)"/>
      <path id="Path_1873" data-name="Path 1873" d="M562.213,5.879c.28-4.511,7.766-4.311,13.533-4.112a37.318,37.318,0,0,0,5.278-.021A2.67,2.67,0,0,1,583.677,4.4a2.682,2.682,0,0,1-2.653,2.653c-1.739.07-3.45.056-5.148.039a53.8,53.8,0,0,0-8.872.4,2.375,2.375,0,0,1-2.02,1.042,2.664,2.664,0,0,1-2.771-2.652" transform="translate(-58.501 -0.176)"/>
    </g>
  </g>
</svg>
