<svg xmlns="http://www.w3.org/2000/svg" width="31.5" height="31.5" viewBox="0 0 31.5 31.5">
  <path id="Icon_awesome-flickr" data-name="Icon awesome-flickr" d="M28.125,2.25H3.375A3.376,3.376,0,0,0,0,5.625v24.75A3.376,3.376,0,0,0,3.375,33.75h24.75A3.376,3.376,0,0,0,31.5,30.375V5.625A3.376,3.376,0,0,0,28.125,2.25ZM10.16,22.43a4.465,4.465,0,1,1,4.465-4.465A4.462,4.462,0,0,1,10.16,22.43Zm11.18,0A4.465,4.465,0,1,1,25.8,17.965,4.462,4.462,0,0,1,21.34,22.43Z" transform="translate(0 -2.25)" fill="#fff"/>
</svg>
