<svg id="Group_160" data-name="Group 160" xmlns="http://www.w3.org/2000/svg" xmlns:xlink="http://www.w3.org/1999/xlink" width="73.183" height="70.668" viewBox="0 0 73.183 70.668">
  <defs>
    <linearGradient id="linear-gradient" x1="0.5" x2="3.29" y2="4.191" gradientUnits="objectBoundingBox">
      <stop offset="0" stop-color="#006796"/>
      <stop offset="1" stop-color="#49b170"/>
    </linearGradient>
    <clipPath id="clip-path">
      <rect id="Rectangle_70" data-name="Rectangle 70" width="73.183" height="70.668" stroke="#006796" stroke-width="1" fill="url(#linear-gradient)"/>
    </clipPath>
  </defs>
  <g id="Group_159" data-name="Group 159" transform="translate(0 0)" clip-path="url(#clip-path)">
    <path id="Path_318" data-name="Path 318" d="M4.8,10.122A1.11,1.11,0,0,0,5.91,9.011V4.705A2.486,2.486,0,0,1,8.393,2.22h9.4a1.11,1.11,0,1,0,0-2.22h-9.4a4.707,4.707,0,0,0-4.7,4.7V9.009A1.107,1.107,0,0,0,4.8,10.122" transform="translate(1.937 0)" stroke="#006796" stroke-width="1" fill="url(#linear-gradient)"/>
    <path id="Path_319" data-name="Path 319" d="M73.18,52.565a1.135,1.135,0,0,0-.072-.358c-.012-.03-.021-.058-.035-.088s-.015-.049-.027-.072l-5.49-9.9V20.777a1.109,1.109,0,0,0-2.218,0V41.326H7.847v-7.1a1.109,1.109,0,0,0-2.218,0v7.924l-5.49,9.9c-.012.023-.017.047-.029.072s-.023.058-.034.088A1.137,1.137,0,0,0,0,52.565l0,.021v3.328a4.44,4.44,0,0,0,4.435,4.435H68.747a4.441,4.441,0,0,0,4.435-4.435V52.586l0-.021M7.391,43.545h58.4l4.4,7.933H2.991ZM70.966,55.914a2.22,2.22,0,0,1-2.218,2.217H4.435a2.22,2.22,0,0,1-2.217-2.217V53.7H70.966Z" transform="translate(0 10.319)" stroke="#006796" stroke-width="1" fill="url(#linear-gradient)"/>
    <path id="Path_320" data-name="Path 320" d="M4.819,13.449a1.108,1.108,0,0,0-1.108,1.108V39a1.109,1.109,0,0,0,1.108,1.108H29.258l8.972,7.058a1.108,1.108,0,0,0,.686.236,1.09,1.09,0,0,0,.485-.111,1.108,1.108,0,0,0,.625-1V40.109H46A1.108,1.108,0,0,0,47.1,39V26.661H64.5a1.109,1.109,0,0,0,1.11-1.108V1.111A1.11,1.11,0,0,0,64.5,0H23.327a1.11,1.11,0,0,0-1.11,1.111V13.449ZM44.884,37.892H38.915A1.109,1.109,0,0,0,37.806,39v5.011l-7.48-5.884a1.113,1.113,0,0,0-.685-.236H5.928V15.669H22.216v9.887a1.11,1.11,0,0,0,1.11,1.108h5.967v6.187a1.111,1.111,0,0,0,1.8.872l8.972-7.059h4.825V37.892ZM24.434,2.22H63.39V24.443H39.676a1.114,1.114,0,0,0-.686.239l-7.48,5.882V25.553A1.109,1.109,0,0,0,30.4,24.441H24.432V2.22Z" transform="translate(1.947 0)" stroke="#006796" stroke-width="1" fill="url(#linear-gradient)"/>
    <path id="Path_321" data-name="Path 321" d="M9.02,16.373h5.67a1.109,1.109,0,0,0,0-2.218H9.02a1.109,1.109,0,0,0,0,2.218" transform="translate(4.151 7.426)" stroke="#006796" stroke-width="1" fill="url(#linear-gradient)"/>
    <path id="Path_322" data-name="Path 322" d="M21.121,19.311H9.02a1.11,1.11,0,0,0,0,2.22h12.1a1.11,1.11,0,0,0,0-2.22" transform="translate(4.151 10.131)" stroke="#006796" stroke-width="1" fill="url(#linear-gradient)"/>
    <path id="Path_323" data-name="Path 323" d="M21.159,7.555H49.522a1.109,1.109,0,1,0,0-2.218H21.159a1.109,1.109,0,1,0,0,2.218" transform="translate(10.518 2.8)" stroke="#006796" stroke-width="1" fill="url(#linear-gradient)"/>
    <path id="Path_324" data-name="Path 324" d="M44.013,11.6a1.11,1.11,0,0,0-1.11-1.108H21.159a1.11,1.11,0,1,0,0,2.22H42.9a1.112,1.112,0,0,0,1.11-1.111" transform="translate(10.518 5.504)" stroke="#006796" stroke-width="1" fill="url(#linear-gradient)"/>
  </g>
</svg>
