<svg id="Group_166" data-name="Group 166" xmlns="http://www.w3.org/2000/svg" xmlns:xlink="http://www.w3.org/1999/xlink" width="68.978" height="61.229" viewBox="0 0 68.978 61.229">
  <defs>
    <linearGradient id="linear-gradient" x1="0.331" y1="0.067" x2="0.871" y2="1" gradientUnits="objectBoundingBox">
      <stop offset="0" stop-color="#006796"/>
      <stop offset="1" stop-color="#49b170"/>
    </linearGradient>
    <clipPath id="clip-path">
      <rect id="Rectangle_73" data-name="Rectangle 73" width="68.978" height="61.229" stroke="#006796" stroke-width="1" fill="url(#linear-gradient)"/>
    </clipPath>
  </defs>
  <g id="Group_165" data-name="Group 165" transform="translate(0 0)" clip-path="url(#clip-path)">
    <path id="Path_335" data-name="Path 335" d="M63.412,25.048a5.526,5.526,0,0,0-1.815.329L52.575,9.752A5.551,5.551,0,1,0,43.492,4.52H25.485A5.558,5.558,0,1,0,16.4,9.752L7.379,25.379a5.471,5.471,0,0,0-1.816-.329,5.565,5.565,0,0,0,0,11.13,5.485,5.485,0,0,0,1.816-.331L16.4,51.477a5.551,5.551,0,1,0,9.082,5.231H43.492a5.558,5.558,0,1,0,9.084-5.231L61.6,35.849a5.44,5.44,0,0,0,1.815.331,5.566,5.566,0,1,0,0-11.132M59.79,26.425a5.536,5.536,0,0,0-1.834,3.144H47.5a13.064,13.064,0,0,0-5.6-9.7L47.139,10.8a5.17,5.17,0,0,0,3.63,0Zm-25.3,15.163A10.975,10.975,0,1,1,45.462,30.613,10.987,10.987,0,0,1,34.488,41.588M48.951,2.09a3.474,3.474,0,1,1-3.473,3.475A3.477,3.477,0,0,1,48.951,2.09M25.485,6.608H43.492a5.557,5.557,0,0,0,1.834,3.144l-5.24,9.074a12.9,12.9,0,0,0-11.2,0L23.65,9.752a5.543,5.543,0,0,0,1.835-3.144M20.026,2.09a3.474,3.474,0,1,1-3.475,3.475A3.477,3.477,0,0,1,20.026,2.09M18.209,10.8a5.178,5.178,0,0,0,3.633,0l5.235,9.069a13.049,13.049,0,0,0-5.6,9.7H11.024a5.547,5.547,0,0,0-1.832-3.144ZM2.088,30.613a3.474,3.474,0,1,1,3.473,3.475,3.478,3.478,0,0,1-3.473-3.475m7.1,4.188a5.53,5.53,0,0,0,1.832-3.143H21.476a13.055,13.055,0,0,0,5.6,9.7l-5.235,9.069a5.477,5.477,0,0,0-1.816-.329,5.535,5.535,0,0,0-1.816.329ZM20.026,59.139A3.475,3.475,0,1,1,23.5,55.664a3.479,3.479,0,0,1-3.475,3.475m23.466-4.521H25.485a5.534,5.534,0,0,0-1.835-3.143L28.891,42.4a12.891,12.891,0,0,0,11.2,0l5.24,9.077a5.542,5.542,0,0,0-1.835,3.143m5.459,4.521a3.475,3.475,0,1,1,3.473-3.475,3.478,3.478,0,0,1-3.473,3.475m1.814-8.712a5.17,5.17,0,0,0-3.63,0L41.9,41.358a13.052,13.052,0,0,0,5.6-9.7H57.952A5.545,5.545,0,0,0,59.785,34.8Zm12.648-16.34a3.474,3.474,0,1,1,3.475-3.475,3.479,3.479,0,0,1-3.475,3.475" transform="translate(0 0)" stroke="#006796" stroke-width="1" fill="url(#linear-gradient)"/>
    <path id="Path_336" data-name="Path 336" d="M19.938,20.879a1.048,1.048,0,0,0,0,1.474,1.062,1.062,0,0,0,1.486,0,1.048,1.048,0,0,0,0-1.474,1.094,1.094,0,0,0-1.486,0" transform="translate(8.582 8.998)" stroke="#006796" stroke-width="1" fill="url(#linear-gradient)"/>
    <path id="Path_337" data-name="Path 337" d="M24.317,20.572a1.051,1.051,0,0,0-1.046,1.055,1.046,1.046,0,1,0,1.046-1.055" transform="translate(10.171 8.992)" stroke="#006796" stroke-width="1" fill="url(#linear-gradient)"/>
    <path id="Path_338" data-name="Path 338" d="M27.211,20.879a1.051,1.051,0,0,0-.3.733,1.072,1.072,0,0,0,.3.742A1.046,1.046,0,0,0,28.7,20.879a1.092,1.092,0,0,0-1.485,0" transform="translate(11.761 8.998)" stroke="#006796" stroke-width="1" fill="url(#linear-gradient)"/>
  </g>
</svg>
