<svg xmlns="http://www.w3.org/2000/svg" xmlns:xlink="http://www.w3.org/1999/xlink" width="121.004" height="102.85" viewBox="0 0 121.004 102.85">
  <defs>
    <linearGradient id="linear-gradient" x1="-0.623" y1="-0.169" x2="0.5" y2="1" gradientUnits="objectBoundingBox">
      <stop offset="0" stop-color="#006796"/>
      <stop offset="1" stop-color="#49b170"/>
    </linearGradient>
    <clipPath id="clip-path">
      <rect id="Rectangle_71" data-name="Rectangle 71" width="121.004" height="102.85" transform="translate(-11 -13)" stroke="#006796" stroke-width="1.5" fill="url(#linear-gradient)"/>
    </clipPath>
  </defs>
  <g id="Group_162" data-name="Group 162" transform="translate(11 13)">
    <g id="Group_161" data-name="Group 161" transform="translate(0 0)" clip-path="url(#clip-path)">
      <path id="Path_325" data-name="Path 325" d="M69.893,30.026C69.807,12.211,51.915,11.7,49.876,11.7c-.089,0-.21,0-.358-.006-.254-.008-.579-.015-.955-.015-4.089,0-17.58,1.3-19.541,18-.01.079-.293,1.985-4.618,8.744a2.872,2.872,0,0,0-.452,2.135A2.789,2.789,0,0,0,25.4,42.365a33.476,33.476,0,0,0,3.688,1.794,36.107,36.107,0,0,0,0,8.012c.527,2.757,5.169,3.171,7.887,3.171.437,0,.706-.013.732-.015s.06,0,.133,0a1.326,1.326,0,0,1,.868.194V61.77a3.256,3.256,0,0,0,1.569,2.8,13.228,13.228,0,0,0,3.6,1.371.833.833,0,0,0,.391-1.619,11.6,11.6,0,0,1-3.142-1.186,1.586,1.586,0,0,1-.751-1.369V55.517c0-.9-.664-1.86-2.533-1.86-.139,0-.233.008-.239.008-.035,0-.266.012-.624.012-3.531,0-6.043-.732-6.251-1.817-.5-2.649.077-8.093.081-8.149a.832.832,0,0,0-.526-.864,33.408,33.408,0,0,1-4.045-1.923,1.22,1.22,0,0,1-.649-.714,1.255,1.255,0,0,1,.2-.859c4.564-7.123,4.884-9.206,4.9-9.5,1.8-15.323,14.145-16.517,17.886-16.517.36,0,.672.01.914.015.166,0,.3.008.4.008,3.049,0,18.274.8,18.351,16.667l0,.119c0,10.037-2.8,13.468-5.059,16.226A15.713,15.713,0,0,0,60.843,49.8,22.257,22.257,0,0,0,59.4,61.872a1.3,1.3,0,0,1-.6,1.305,12.241,12.241,0,0,1-3.425,1.23.833.833,0,0,0,.179,1.646.748.748,0,0,0,.181-.021,13.73,13.73,0,0,0,3.894-1.415,2.96,2.96,0,0,0,1.417-2.984A20.579,20.579,0,0,1,62.36,50.487a14.3,14.3,0,0,1,2.1-3.061c2.422-2.963,5.434-6.649,5.434-17.279Z" transform="translate(22.105 10.799)" stroke="#006796" stroke-width="1.5" fill="url(#linear-gradient)"/>
      <path id="Path_326" data-name="Path 326" d="M0,18.473C0,29.1,3.015,32.789,5.434,35.752a14.256,14.256,0,0,1,2.1,3.061A20.584,20.584,0,0,1,8.851,49.959a2.957,2.957,0,0,0,1.417,2.984,13.708,13.708,0,0,0,3.894,1.415.723.723,0,0,0,.181.019.832.832,0,0,0,.177-1.644A12.241,12.241,0,0,1,11.1,51.5a1.3,1.3,0,0,1-.6-1.305A22.257,22.257,0,0,0,9.054,38.124,15.7,15.7,0,0,0,6.724,34.7C4.468,31.94,1.663,28.51,1.663,18.473l0-.119c.075-15.862,15.3-16.667,18.35-16.667.1,0,.235,0,.4-.008.243-.006.556-.015.914-.015,3.742,0,16.088,1.194,17.886,16.517.013.291.331,2.374,4.9,9.5a1.232,1.232,0,0,1,.2.859,1.214,1.214,0,0,1-.649.714,33.6,33.6,0,0,1-4.043,1.923.83.83,0,0,0-.527.864c.006.056.587,5.5.081,8.149C38.969,41.271,36.459,42,32.926,42c-.358,0-.587-.01-.624-.013,0,0-.1-.006-.239-.006-1.869,0-2.533.961-2.533,1.86V50.1a1.581,1.581,0,0,1-.751,1.369,11.575,11.575,0,0,1-3.142,1.186.833.833,0,0,0,.393,1.619,13.277,13.277,0,0,0,3.6-1.371A3.256,3.256,0,0,0,31.2,50.1V43.843a1.318,1.318,0,0,1,.866-.194c.073,0,.123,0,.133,0,.027,0,.295.015.732.015,2.718,0,7.359-.414,7.887-3.171a36,36,0,0,0,0-8.012A33.814,33.814,0,0,0,44.5,30.691a2.785,2.785,0,0,0,1.442-1.808,2.884,2.884,0,0,0-.45-2.135c-4.328-6.759-4.609-8.665-4.62-8.744C38.913,1.3,25.422,0,21.335,0c-.377,0-.7.008-.957.015-.148,0-.27.006-.358.006C17.982.021.092.537,0,18.352Z" transform="translate(0 0)" stroke="#006796" stroke-width="1.5" fill="url(#linear-gradient)"/>
    </g>
  </g>
</svg>
