<svg xmlns="http://www.w3.org/2000/svg" xmlns:xlink="http://www.w3.org/1999/xlink" width="66.913" height="73.389" viewBox="0 0 66.913 73.389">
  <defs>
    <linearGradient id="linear-gradient" x1="0.5" y1="-1.645" x2="3.916" y2="2.397" gradientUnits="objectBoundingBox">
      <stop offset="0" stop-color="#006796"/>
      <stop offset="1" stop-color="#49b170"/>
    </linearGradient>
    <clipPath id="clip-path">
      <rect id="Rectangle_75" data-name="Rectangle 75" width="66.913" height="73.389" stroke="#006796" stroke-width="1" fill="url(#linear-gradient)"/>
    </clipPath>
  </defs>
  <g id="Group_170" data-name="Group 170" transform="translate(0 0)">
    <g id="Group_169" data-name="Group 169" transform="translate(0 0)" clip-path="url(#clip-path)">
      <path id="Path_346" data-name="Path 346" d="M12.432,22.121a1.189,1.189,0,0,0-.169,1.675,3.676,3.676,0,0,1,.837,2.352v4.913H2.381V26.148A3.683,3.683,0,0,1,3.218,23.8a1.191,1.191,0,0,0-1.844-1.507A6.112,6.112,0,0,0,0,26.148v6.1a1.192,1.192,0,0,0,1.192,1.192h13.1a1.191,1.191,0,0,0,1.191-1.192v-6.1a6.121,6.121,0,0,0-1.374-3.859,1.2,1.2,0,0,0-1.679-.169" transform="translate(0 13.937)" stroke="#006796" stroke-width="1" fill="url(#linear-gradient)"/>
      <path id="Path_347" data-name="Path 347" d="M6.464,25.5A4.468,4.468,0,1,0,2,21.033,4.473,4.473,0,0,0,6.464,25.5m0-6.551a2.084,2.084,0,1,1-2.083,2.083A2.087,2.087,0,0,1,6.464,18.95" transform="translate(1.274 10.565)" stroke="#006796" stroke-width="1" fill="url(#linear-gradient)"/>
      <path id="Path_348" data-name="Path 348" d="M28.133,22.121a1.189,1.189,0,0,0-.169,1.675,3.676,3.676,0,0,1,.837,2.352v4.913H18.082V26.148a3.683,3.683,0,0,1,.837-2.352,1.191,1.191,0,0,0-1.844-1.507A6.112,6.112,0,0,0,15.7,26.148v6.1a1.192,1.192,0,0,0,1.192,1.192H30a1.191,1.191,0,0,0,1.191-1.192v-6.1a6.121,6.121,0,0,0-1.374-3.859,1.2,1.2,0,0,0-1.679-.169" transform="translate(10.014 13.937)" stroke="#006796" stroke-width="1" fill="url(#linear-gradient)"/>
      <path id="Path_349" data-name="Path 349" d="M22.165,25.5A4.468,4.468,0,1,0,17.7,21.033,4.473,4.473,0,0,0,22.165,25.5m0-6.551a2.084,2.084,0,1,1-2.083,2.083,2.087,2.087,0,0,1,2.083-2.083" transform="translate(11.288 10.565)" stroke="#006796" stroke-width="1" fill="url(#linear-gradient)"/>
      <path id="Path_350" data-name="Path 350" d="M43.833,22.121a1.189,1.189,0,0,0-.169,1.675,3.676,3.676,0,0,1,.837,2.352v4.913H33.782V26.148a3.683,3.683,0,0,1,.837-2.352,1.191,1.191,0,0,0-1.844-1.507A6.112,6.112,0,0,0,31.4,26.148v6.1a1.192,1.192,0,0,0,1.192,1.192H45.7a1.191,1.191,0,0,0,1.191-1.192v-6.1a6.121,6.121,0,0,0-1.374-3.859,1.2,1.2,0,0,0-1.679-.169" transform="translate(20.027 13.937)" stroke="#006796" stroke-width="1" fill="url(#linear-gradient)"/>
      <path id="Path_351" data-name="Path 351" d="M37.865,25.5A4.468,4.468,0,1,0,33.4,21.033,4.473,4.473,0,0,0,37.865,25.5m0-6.551a2.084,2.084,0,1,1-2.083,2.083,2.087,2.087,0,0,1,2.083-2.083" transform="translate(21.301 10.565)" stroke="#006796" stroke-width="1" fill="url(#linear-gradient)"/>
      <path id="Path_352" data-name="Path 352" d="M19.885,5.556a1.189,1.189,0,0,0-.169,1.675,3.676,3.676,0,0,1,.837,2.352V14.5H9.834V9.583a3.683,3.683,0,0,1,.837-2.352A1.191,1.191,0,0,0,8.827,5.724,6.112,6.112,0,0,0,7.453,9.583v6.1a1.192,1.192,0,0,0,1.192,1.192h13.1a1.191,1.191,0,0,0,1.191-1.192v-6.1a6.121,6.121,0,0,0-1.374-3.859,1.2,1.2,0,0,0-1.679-.169" transform="translate(4.753 3.373)" stroke="#006796" stroke-width="1" fill="url(#linear-gradient)"/>
      <path id="Path_353" data-name="Path 353" d="M13.917,8.936A4.468,4.468,0,1,0,9.451,4.468a4.473,4.473,0,0,0,4.466,4.468m0-6.551a2.084,2.084,0,1,1-2.083,2.083,2.087,2.087,0,0,1,2.083-2.083" transform="translate(6.028 0.001)" stroke="#006796" stroke-width="1" fill="url(#linear-gradient)"/>
      <path id="Path_354" data-name="Path 354" d="M37.588,5.556a1.189,1.189,0,0,0-.169,1.675,3.676,3.676,0,0,1,.837,2.352V14.5H27.537V9.583a3.683,3.683,0,0,1,.837-2.352A1.191,1.191,0,0,0,26.53,5.724a6.112,6.112,0,0,0-1.374,3.859v6.1a1.192,1.192,0,0,0,1.192,1.192h13.1a1.191,1.191,0,0,0,1.191-1.192v-6.1a6.121,6.121,0,0,0-1.374-3.859,1.2,1.2,0,0,0-1.679-.169" transform="translate(16.044 3.373)" stroke="#006796" stroke-width="1" fill="url(#linear-gradient)"/>
      <path id="Path_355" data-name="Path 355" d="M31.62,8.936a4.468,4.468,0,1,0-4.466-4.468A4.473,4.473,0,0,0,31.62,8.936m0-6.551a2.084,2.084,0,1,1-2.083,2.083A2.087,2.087,0,0,1,31.62,2.385" transform="translate(17.318 0.001)" stroke="#006796" stroke-width="1" fill="url(#linear-gradient)"/>
      <path id="Path_356" data-name="Path 356" d="M19.885,38a1.189,1.189,0,0,0-.169,1.675,3.676,3.676,0,0,1,.837,2.352v4.913H9.834V42.028a3.683,3.683,0,0,1,.837-2.352,1.191,1.191,0,0,0-1.844-1.507,6.112,6.112,0,0,0-1.374,3.859v6.1a1.192,1.192,0,0,0,1.192,1.192h13.1a1.191,1.191,0,0,0,1.191-1.192v-6.1a6.121,6.121,0,0,0-1.374-3.859A1.2,1.2,0,0,0,19.885,38" transform="translate(4.753 24.065)" stroke="#006796" stroke-width="1" fill="url(#linear-gradient)"/>
      <path id="Path_357" data-name="Path 357" d="M13.917,41.381a4.468,4.468,0,1,0-4.466-4.468,4.473,4.473,0,0,0,4.466,4.468m0-6.551a2.084,2.084,0,1,1-2.083,2.083,2.087,2.087,0,0,1,2.083-2.083" transform="translate(6.028 20.693)" stroke="#006796" stroke-width="1" fill="url(#linear-gradient)"/>
      <path id="Path_358" data-name="Path 358" d="M37.588,38a1.189,1.189,0,0,0-.169,1.675,3.676,3.676,0,0,1,.837,2.352v4.913H27.537V42.028a3.683,3.683,0,0,1,.837-2.352,1.191,1.191,0,0,0-1.844-1.507,6.112,6.112,0,0,0-1.374,3.859v6.1a1.192,1.192,0,0,0,1.192,1.192h13.1a1.191,1.191,0,0,0,1.191-1.192v-6.1a6.121,6.121,0,0,0-1.374-3.859A1.2,1.2,0,0,0,37.588,38" transform="translate(16.044 24.065)" stroke="#006796" stroke-width="1" fill="url(#linear-gradient)"/>
      <path id="Path_359" data-name="Path 359" d="M31.62,41.381a4.468,4.468,0,1,0-4.466-4.468,4.473,4.473,0,0,0,4.466,4.468m0-6.551a2.084,2.084,0,1,1-2.083,2.083A2.087,2.087,0,0,1,31.62,34.83" transform="translate(17.318 20.693)" stroke="#006796" stroke-width="1" fill="url(#linear-gradient)"/>
    </g>
  </g>
</svg>
