<?xml version="1.0" encoding="UTF-8" standalone="no"?>
<svg
   xmlns:dc="http://purl.org/dc/elements/1.1/"
   xmlns:cc="http://creativecommons.org/ns#"
   xmlns:rdf="http://www.w3.org/1999/02/22-rdf-syntax-ns#"
   xmlns:svg="http://www.w3.org/2000/svg"
   xmlns="http://www.w3.org/2000/svg"
   xmlns:xlink="http://www.w3.org/1999/xlink"
   xmlns:sodipodi="http://sodipodi.sourceforge.net/DTD/sodipodi-0.dtd"
   xmlns:inkscape="http://www.inkscape.org/namespaces/inkscape"
   viewBox="0 0 439.28922 184.22563"
   version="1.1"
   id="svg38"
   sodipodi:docname="logo_white.svg"
   width="439.28922"
   height="184.22563"
   inkscape:version="0.92.3 (2405546, 2018-03-11)">
  <metadata
     id="metadata44">
    <rdf:RDF>
      <cc:Work
         rdf:about="">
        <dc:format>image/svg+xml</dc:format>
        <dc:type
           rdf:resource="http://purl.org/dc/dcmitype/StillImage" />
        <dc:title></dc:title>
      </cc:Work>
    </rdf:RDF>
  </metadata>
  <defs
     id="defs42" />
  <sodipodi:namedview
     pagecolor="#ffffff"
     bordercolor="#666666"
     borderopacity="1"
     objecttolerance="10"
     gridtolerance="10"
     guidetolerance="10"
     inkscape:pageopacity="0"
     inkscape:pageshadow="2"
     inkscape:window-width="1920"
     inkscape:window-height="1028"
     id="namedview40"
     showgrid="false"
     fit-margin-top="0"
     fit-margin-left="0"
     fit-margin-right="0"
     fit-margin-bottom="0"
     inkscape:zoom="1.4168827"
     inkscape:cx="224.05393"
     inkscape:cy="22.78932"
     inkscape:window-x="-8"
     inkscape:window-y="-8"
     inkscape:window-maximized="1"
     inkscape:current-layer="svg38" />
  <linearGradient
     id="a"
     gradientUnits="userSpaceOnUse"
     x1="142.73"
     x2="142.73"
     y1="141.92"
     y2="284.75">
    <stop
       offset="0"
       stop-color="#49b170"
       id="stop2" />
    <stop
       offset="1"
       stop-color="#006796"
       id="stop4" />
  </linearGradient>
  <linearGradient
     id="b"
     x1="155.35001"
     x2="155.35001"
     xlink:href="#a"
     y1="141.92"
     y2="284.75" />
  <g
     id="g866"
     transform="translate(-63.477723,-120.74)"
     style="fill:#ffffff">
    <g
       id="g32"
       style="fill:#ffffff">
      <path
         id="path8"
         d="m 254.48,178.41 c 0,-14.23 10.57,-25.15 25.15,-25.15 a 24.3,24.3 0 0 1 19.5,9.4 2,2 0 0 1 -0.59,2.85 l -6.17,3.57 a 2,2 0 0 1 -2.52,-0.51 12.84,12.84 0 0 0 -10.22,-4.57 c -8.57,0 -14.1,5.73 -14.1,14.37 0,8.64 5.53,14.37 14.1,14.37 a 12.87,12.87 0 0 0 10.23,-4.5 2,2 0 0 1 2.53,-0.53 l 6.16,3.57 a 1.94,1.94 0 0 1 0.59,2.84 24.15,24.15 0 0 1 -19.51,9.4 c -14.58,0.04 -25.15,-10.88 -25.15,-25.11 z"
         inkscape:connector-curvature="0"
         style="fill:#ffffff" />
      <path
         id="path10"
         d="m 335.72,193.89 v 6.76 a 1.94,1.94 0 0 1 -1.94,1.94 h -24.45 a 1.94,1.94 0 0 1 -1.94,-1.94 v -44.48 a 1.94,1.94 0 0 1 1.94,-1.94 h 7.17 a 1.94,1.94 0 0 1 1.95,1.94 V 192 h 15.33 a 1.94,1.94 0 0 1 1.94,1.89 z"
         inkscape:connector-curvature="0"
         style="fill:#ffffff" />
      <path
         id="path12"
         d="m 372.85,193.89 v 6.76 a 1.94,1.94 0 0 1 -1.94,1.94 H 344.4 a 1.94,1.94 0 0 1 -1.95,-1.94 v -44.48 a 1.94,1.94 0 0 1 1.95,-1.94 h 26.17 a 1.94,1.94 0 0 1 1.94,1.94 v 6.76 a 1.94,1.94 0 0 1 -1.94,1.94 h -17.06 v 8 h 15.33 a 1.94,1.94 0 0 1 1.94,1.94 v 6.62 a 1.94,1.94 0 0 1 -1.94,1.95 H 353.51 V 192 h 17.4 a 1.94,1.94 0 0 1 1.94,1.89 z"
         inkscape:connector-curvature="0"
         style="fill:#ffffff" />
      <path
         id="path14"
         d="m 380.37,154.23 h 8 a 1.94,1.94 0 0 1 1.86,1.38 l 10.29,34.2 10.3,-34.2 a 1.93,1.93 0 0 1 1.85,-1.38 h 8 a 1.94,1.94 0 0 1 1.84,2.54 L 408,201.25 a 2,2 0 0 1 -1.85,1.34 h -11.3 a 1.93,1.93 0 0 1 -1.84,-1.34 l -14.49,-44.48 a 1.94,1.94 0 0 1 1.85,-2.54 z"
         inkscape:connector-curvature="0"
         style="fill:#ffffff" />
      <path
         id="path16"
         d="m 459.22,193.89 v 6.76 a 1.94,1.94 0 0 1 -1.94,1.94 h -26.52 a 1.94,1.94 0 0 1 -1.94,-1.94 v -44.48 a 1.94,1.94 0 0 1 1.94,-1.94 h 26.17 a 1.94,1.94 0 0 1 1.95,1.94 v 6.76 a 1.94,1.94 0 0 1 -1.95,1.94 h -17.05 v 8 h 15.33 a 1.94,1.94 0 0 1 1.94,1.94 v 6.62 a 1.94,1.94 0 0 1 -1.94,1.95 H 439.88 V 192 h 17.4 a 1.94,1.94 0 0 1 1.94,1.89 z"
         inkscape:connector-curvature="0"
         style="fill:#ffffff" />
      <path
         id="path18"
         d="m 483.13,186.7 h -5.25 v 14 a 1.94,1.94 0 0 1 -1.94,1.94 h -7.17 a 1.94,1.94 0 0 1 -1.95,-1.94 v -44.53 a 1.94,1.94 0 0 1 1.95,-1.94 H 485 a 17.89,17.89 0 0 1 15.85,9.19 c 4.56,8.49 0.49,17.62 -7,21.42 l 8.6,14.84 a 1.94,1.94 0 0 1 -1.68,2.91 h -7.39 a 1.94,1.94 0 0 1 -1.68,-1 z m -5.25,-9.7 h 8.29 c 3,0 5.53,-2.7 5.53,-6.22 0,-3.52 -2.49,-6.22 -5.53,-6.22 h -8.29 z"
         inkscape:connector-curvature="0"
         style="fill:#ffffff" />
      <path
         id="path20"
         d="m 254.48,247.27 c 0,-14.24 10.57,-25.15 25.15,-25.15 a 24.3,24.3 0 0 1 19.5,9.4 1.94,1.94 0 0 1 -0.59,2.84 l -6.17,3.58 a 2,2 0 0 1 -2.52,-0.52 12.83,12.83 0 0 0 -10.22,-4.52 c -8.57,0 -14.1,5.73 -14.1,14.37 0,8.64 5.53,14.37 14.1,14.37 a 12.85,12.85 0 0 0 10.23,-4.51 2,2 0 0 1 2.53,-0.53 l 6.16,3.58 a 1.93,1.93 0 0 1 0.59,2.83 24.15,24.15 0 0 1 -19.51,9.4 c -14.58,0 -25.15,-10.91 -25.15,-25.14 z"
         inkscape:connector-curvature="0"
         style="fill:#ffffff" />
      <path
         id="path22"
         d="m 305,227.65 a 6.22,6.22 0 1 1 6.22,6.21 6.28,6.28 0 0 1 -6.22,-6.21 z m 3,9.25 h 6.49 a 1.94,1.94 0 0 1 1.94,1.94 v 30.67 a 1.94,1.94 0 0 1 -1.94,1.94 H 308 a 1.94,1.94 0 0 1 -1.94,-1.94 V 238.84 A 1.94,1.94 0 0 1 308,236.9 Z"
         inkscape:connector-curvature="0"
         style="fill:#ffffff" />
      <path
         id="path24"
         d="m 339.49,246.85 v 12.23 c 0,2.52 1.84,3.1 5.17,3.05 a 1.94,1.94 0 0 1 1.95,1.94 v 5.59 a 2,2 0 0 1 -1.83,1.94 c -12.07,0.84 -15.65,-3.3 -15.65,-12.52 v -12.23 h -3.59 a 1.94,1.94 0 0 1 -1.94,-1.94 v -6.07 a 1.94,1.94 0 0 1 1.94,-1.94 h 3.59 v -5.12 a 2,2 0 0 1 1.38,-1.86 L 337,228 a 1.94,1.94 0 0 1 2.5,1.86 v 7.06 h 5.18 a 1.94,1.94 0 0 1 1.94,1.94 v 6.07 a 1.94,1.94 0 0 1 -1.94,1.94 z"
         inkscape:connector-curvature="0"
         style="fill:#ffffff" />
      <path
         id="path26"
         d="m 353.21,227.65 a 6.22,6.22 0 1 1 6.22,6.21 6.28,6.28 0 0 1 -6.22,-6.21 z m 3,9.25 h 6.48 a 1.94,1.94 0 0 1 1.94,1.94 v 30.67 a 1.94,1.94 0 0 1 -1.94,1.94 h -6.48 a 1.94,1.94 0 0 1 -1.94,-1.94 v -30.67 a 1.94,1.94 0 0 1 1.92,-1.94 z"
         inkscape:connector-curvature="0"
         style="fill:#ffffff" />
      <path
         id="path28"
         d="m 391,263.16 a 9.56,9.56 0 0 0 5.69,-1.77 1.93,1.93 0 0 1 2.13,-0.18 l 5.11,2.94 a 1.94,1.94 0 0 1 0.42,3 c -3.32,3.45 -7.87,5.22 -13.49,5.22 -11.81,0 -19.13,-7.94 -19.13,-18.24 0,-10.3 7.46,-18.23 18.37,-18.23 10.09,0 17.55,7.8 17.55,18.23 a 22,22 0 0 1 -0.14,2.47 1.93,1.93 0 0 1 -1.92,1.68 h -22.92 c 1.33,3.63 4.49,4.88 8.33,4.88 z m 6.36,-12.58 a 7.13,7.13 0 0 0 -7.33,-5.46 c -3.93,0 -6.56,1.94 -7.53,5.46 z"
         inkscape:connector-curvature="0"
         style="fill:#ffffff" />
      <path
         id="path30"
         d="m 441.11,261.08 c 0,7.95 -6.91,11.33 -14.37,11.33 -6.14,0 -11,-2.07 -13.86,-6.45 a 1.94,1.94 0 0 1 0.69,-2.73 l 5.52,-3.14 a 1.91,1.91 0 0 1 2.54,0.58 5.7,5.7 0 0 0 5.11,2.49 c 2.49,0 3.73,-0.76 3.73,-2.15 0,-3.8 -17,-1.79 -17,-13.74 0,-7.53 6.36,-11.33 13.55,-11.33 a 15.27,15.27 0 0 1 12.18,5.53 1.93,1.93 0 0 1 -0.63,2.89 l -5.38,2.9 a 2,2 0 0 1 -2.43,-0.48 4.63,4.63 0 0 0 -3.74,-1.72 c -1.8,0 -2.91,0.69 -2.91,1.93 0,3.94 17,1.31 17,14.09 z"
         inkscape:connector-curvature="0"
         style="fill:#ffffff" />
    </g>
    <path
       id="path34"
       d="m 221.64,274.4 -0.71,-0.85 -4.33,-5.06 c -0.18,-0.21 -0.6,-0.64 -1,-1.09 a 1.92,1.92 0 0 0 -2.74,0 l -0.85,0.86 a 78.84,78.84 0 0 1 -66.46,23.1 c -40,-5.05 -70.36,-40.58 -69.13,-80.87 a 79,79 0 0 1 78.17,-76.85 c 2.35,0 4.74,0.06 7.09,0.24 a 79.11,79.11 0 0 1 49.47,22.63 c 0.19,0.18 0.44,0.44 0.7,0.71 a 1.93,1.93 0 0 0 2.6,0.19 c 0.37,-0.29 0.71,-0.57 0.91,-0.74 l 5.13,-4.39 1,-0.84 a 1.92,1.92 0 0 0 0.11,-2.79 c -0.35,-0.36 -0.68,-0.71 -0.89,-0.91 a 91.68,91.68 0 0 0 -63.4,-27 c -1,0 -1.92,0 -2.88,0 a 92.39,92.39 0 0 0 -90.23,80.49 92.23,92.23 0 0 0 84.2,103.46 c 2.73,0.21 5.5,0.3 8.23,0.27 a 91.55,91.55 0 0 0 64.15,-27.2 c 0.2,-0.19 0.48,-0.49 0.78,-0.8 a 1.93,1.93 0 0 0 0.08,-2.56 z"
       inkscape:connector-curvature="0"
       style="fill:#ffffff" />
    <path
       id="path36"
       d="m 139.28,202 0.11,-0.12 c 5.72,-7.07 8.15,-14.69 7.24,-22.65 -1.66,-14.51 -14.22,-24.45 -14.75,-24.86 l -2.21,-1.73 a 1.94,1.94 0 0 0 -2.08,-0.19 l -2.49,1.28 a 66.4,66.4 0 1 0 96.65,59.11 v -16.6 a 1.94,1.94 0 0 0 -1.94,-1.94 H 211 a 1.94,1.94 0 0 0 -1.94,1.94 v 16.61 a 53.5,53.5 0 0 1 -13.29,35.31 v -71.31 a 1.94,1.94 0 0 0 -1.94,-1.95 h -9.06 a 1.94,1.94 0 0 0 -1.94,1.95 V 259 a 53.69,53.69 0 0 1 -12.95,5.58 V 154.77 a 1.91,1.91 0 0 0 -0.57,-1.37 l -4.53,-4.53 a 1.93,1.93 0 0 0 -2.74,0 l -4.53,4.53 a 1.91,1.91 0 0 0 -0.57,1.37 v 111.76 c -0.54,0 -1.07,0 -1.61,0 A 53.67,53.67 0 0 1 144,265.36 v -44.05 a 1.93,1.93 0 0 0 -1.94,-1.94 H 133 a 1.94,1.94 0 0 0 -1.94,1.94 v 39.44 A 53.79,53.79 0 0 1 101.64,214 c 12.92,4.15 27.58,-0.19 37.64,-12 z M 103,201 a 53.47,53.47 0 0 1 24,-33.82 c 2.71,2.92 6.39,7.84 7,13.56 0.5,4.48 -1,8.77 -4.46,13.11 C 122.31,202.34 111.61,205 103,201 Z"
       inkscape:connector-curvature="0"
       style="fill:#ffffff" />
  </g>
</svg>
