<?xml version="1.0" encoding="utf-8"?>
<!-- Generator: Adobe Illustrator 27.8.1, SVG Export Plug-In . SVG Version: 6.00 Build 0)  -->
<svg version="1.1" id="Layer_1" xmlns="http://www.w3.org/2000/svg" xmlns:xlink="http://www.w3.org/1999/xlink" x="0px" y="0px"
	 viewBox="0 0 36 36" style="enable-background:new 0 0 36 36;" xml:space="preserve">
<style type="text/css">
	.st0{fill:#777878;}
	.st1{fill:url(#SVGID_1_);}
	.st2{clip-path:url(#SVGID_00000128476171827442573740000014472552007408861324_);}
	.st3{fill:#006897;}
	.st4{clip-path:url(#SVGID_00000000906308778106573100000015245610244105580934_);}
	.st5{fill:#E61F65;}
	.st6{clip-path:url(#SVGID_00000065787521080354968620000008065940175225612940_);}
	.st7{fill:#4BB072;}
	.st8{clip-path:url(#SVGID_00000034797193064711553190000003897874966696275354_);}
</style>
<g>
	<path class="st0" d="M3.9,29.6c4.2-0.1,8.4-0.1,12.6-0.2c2.8,0,2.8-4.4,0-4.3c-2.4,0-4.9,0.1-7.3,0.1c1.2-1.3,2.3-2.5,3.4-3.9
		c1.8-2.2,3.4-4.7,3.7-7.5c0.3-3.3-2.1-6.5-5.2-7.4c-1.8-0.6-3.8,0-5.3,1.2c-1.5,1.2-2.3,2.8-3,4.5c-0.4,1.1,0.5,2.4,1.5,2.7
		c1.2,0.3,2.2-0.4,2.7-1.5c0.4-1,1-2.2,2-2.6c1-0.4,2.1,0.5,2.7,1.4c1.3,1.8-0.9,4.8-2,6.2c0.2-0.2-0.3,0.4-0.4,0.5
		C9.1,18.8,9,19,8.8,19.2c-0.4,0.5-0.9,1-1.3,1.5c-0.8,0.8-1.5,1.7-2.3,2.5c-0.9,0.9-1.8,1.9-2.8,2.8C1,27.2,2.1,29.6,3.9,29.6z"/>
	<path class="st0" d="M32.1,17.9c-0.5,0-1,0-1.5,0c1.1-2.6,2.2-5.3,3.3-7.9c0.6-1.4-0.8-2.7-2.1-2.7C28.2,7.1,24.7,7,21.2,6.9
		c-2.8-0.1-2.8,4.3,0,4.3c2.5,0.1,4.9,0.1,7.4,0.2c-0.9,2.1-1.8,4.3-2.7,6.4c-1.3,0-2.7,0.1-4,0.2c-1.1,0.1-2.2,0.9-2.2,2.2
		c0,1.1,1,2.3,2.2,2.2c0.7-0.1,1.4-0.1,2.1-0.1c-0.6,1.5-1.3,2.9-1.9,4.4c-0.5,1.1-0.3,2.3,0.8,3c0.9,0.5,2.5,0.3,3-0.8
		c1-2.2,1.9-4.4,2.9-6.7c1.1,0,2.3,0,3.4,0.1c1.1,0,2.2-1,2.2-2.2C34.2,18.9,33.3,17.9,32.1,17.9z"/>
</g>
</svg>
