<?xml version="1.0" encoding="utf-8"?>
<!-- Generator: Adobe Illustrator 27.8.1, SVG Export Plug-In . SVG Version: 6.00 Build 0)  -->
<svg version="1.1" id="Layer_1" xmlns="http://www.w3.org/2000/svg" xmlns:xlink="http://www.w3.org/1999/xlink" x="0px" y="0px"
	 viewBox="0 0 36 36" style="enable-background:new 0 0 36 36;" xml:space="preserve">
<style type="text/css">
	.st0{fill:#777878;}
	.st1{fill:url(#SVGID_1_);}
	.st2{clip-path:url(#SVGID_00000152229224017581112740000014088783739003848587_);}
	.st3{fill:#006897;}
	.st4{clip-path:url(#SVGID_00000181046498546966163320000008107636658436562586_);}
	.st5{fill:#E61F65;}
	.st6{clip-path:url(#SVGID_00000070109545852567582690000010814038426471225244_);}
	.st7{fill:#4BB072;}
	.st8{clip-path:url(#SVGID_00000012470305738015562220000011598360358321481631_);}
</style>
<g>
	<path class="st0" d="M15.9,25.2c-2.4,0-4.9,0.1-7.3,0.1c1.2-1.3,2.3-2.5,3.4-3.9c1.8-2.2,3.4-4.7,3.7-7.5c0.3-3.3-2.1-6.5-5.2-7.4
		c-1.8-0.6-3.8,0-5.3,1.2c-1.5,1.2-2.3,2.8-3,4.5c-0.4,1.1,0.5,2.4,1.5,2.7c1.2,0.3,2.2-0.4,2.7-1.5c0.4-1,1-2.2,2-2.6
		c1-0.4,2.1,0.5,2.7,1.4c1.3,1.8-0.9,4.8-2,6.2c0.2-0.2-0.3,0.4-0.4,0.5c-0.2,0.2-0.3,0.4-0.5,0.6c-0.4,0.5-0.9,1-1.3,1.5
		c-0.8,0.8-1.5,1.7-2.3,2.5c-0.9,0.9-1.8,1.9-2.8,2.8c-1.4,1.3-0.3,3.7,1.5,3.7c4.2-0.1,8.4-0.1,12.6-0.2
		C18.7,29.5,18.7,25.2,15.9,25.2z"/>
	<path class="st0" d="M29.5,6.9c-1.7-1.1-3.8-1.3-5.6-0.4c-1.8,0.9-3.1,2.8-3.9,4.6c-1.6,3.6-1.8,7.8-0.8,11.6
		c0.5,1.9,1.3,4,2.8,5.3c1.5,1.4,3.5,2.2,5.6,1.9c5.5-0.6,7.4-6.5,7.3-11.4C34.6,14.5,33.1,9.4,29.5,6.9z M26.5,10.2
		C26.4,10.2,26.5,10.2,26.5,10.2L26.5,10.2z M26.4,10.2C26.4,10.2,26.5,10.2,26.4,10.2L26.4,10.2z M30.4,21.2
		c-0.1,0.4-0.2,0.8-0.3,1.2C30,22.6,30,22.8,29.9,23c0,0-0.2,0.5-0.2,0.6c-0.1,0.3-0.3,0.5-0.4,0.8c-0.1,0.2-0.1,0.2-0.4,0.5
		c-0.1,0.1-0.2,0.2-0.3,0.3c0,0-0.1,0-0.1,0.1c0,0-0.1,0-0.1,0.1c-0.1,0.1-0.2,0.1-0.4,0.2c-0.1,0-0.1,0.1-0.1,0.1c0,0,0,0-0.1,0
		c-0.2,0.1-0.3,0.1-0.5,0.2c0,0-0.1,0-0.1,0c-0.2,0-0.5,0-0.7,0c-0.1,0-0.1,0-0.1,0c-0.2-0.1-0.4-0.1-0.5-0.2c0,0-0.4-0.2-0.7-0.4
		c-0.9-0.7-1.4-1.9-1.7-3.1c-0.7-2.5-0.7-5.3,0-7.8c0.3-1.2,0.7-2.2,1.7-3.2c0.2-0.2,0.5-0.5,0.6-0.6c0,0,0.2-0.1,0.2-0.1
		c0.1,0,0.2-0.1,0.2-0.1c0.1,0,0.1,0,0.2,0c0.1,0,0.1,0,0.2,0c0,0,0,0,0,0c0.1,0,0.2,0.1,0.2,0.1c0,0,0,0,0,0
		c0.1,0.1,0.2,0.1,0.3,0.2c0.1,0,0.1,0,0.1,0.1c0,0,0.1,0.1,0.1,0.1c0.3,0.3,0.5,0.5,0.8,0.8c-0.1-0.1-0.2-0.3,0.1,0.1
		c0.1,0.2,0.3,0.4,0.4,0.6c0.2,0.4,0.4,0.7,0.6,1.1c0.8,1.7,1.3,3.5,1.3,5.4C30.5,19.5,30.5,20.3,30.4,21.2z"/>
</g>
</svg>
