<?xml version="1.0" encoding="utf-8"?>
<!-- Generator: Adobe Illustrator 27.8.1, SVG Export Plug-In . SVG Version: 6.00 Build 0)  -->
<svg version="1.1" id="Layer_1" xmlns="http://www.w3.org/2000/svg" xmlns:xlink="http://www.w3.org/1999/xlink" x="0px" y="0px"
	 viewBox="0 0 36 36" style="enable-background:new 0 0 36 36;" xml:space="preserve">
<style type="text/css">
	.st0{fill:#777878;}
	.st1{fill:url(#SVGID_1_);}
	.st2{clip-path:url(#SVGID_00000056420675363751620630000016334497409518350237_);}
	.st3{fill:#006897;}
	.st4{clip-path:url(#SVGID_00000091695423084711419940000007473256896292286352_);}
	.st5{fill:#E61F65;}
	.st6{clip-path:url(#SVGID_00000115490561046216727450000001917514758123224462_);}
	.st7{fill:#4BB072;}
	.st8{clip-path:url(#SVGID_00000103244977849605313990000001791259459211797136_);}
</style>
<g>
	<path class="st0" d="M13.7,15.1c0.3-0.5,0.5-1.1,0.7-1.7c0.5-2.4-0.2-4.7-2.3-6.1c-1.8-1.2-4.2-1.2-6.1-0.1C4,8.2,2.2,10.7,3,13
		c0.4,1.1,1.5,1.8,2.7,1.5c1.1-0.3,1.9-1.6,1.5-2.7c0,0,0-0.1,0-0.1c0-0.1,0.1-0.1,0.2-0.3c0.3-0.3,0.7-0.6,0.9-0.7
		c0.7-0.2,1.2-0.1,1.6,0.3c0,0,0.2,0.3,0.2,0.4c0,0,0,0.2,0,0.3c0,0.4-0.1,0.8-0.2,1.1c-0.5,1.1-1.5,1.9-2.4,2.7
		c-0.7,0.6-0.8,1.8-0.3,2.6c0.4,0.8,1.6,1.3,2.4,1c1.5-0.6,3-0.3,3.7,1.2c0,0,0.2,0.7,0.2,0.7c0,0.2,0,0.5,0,0.7c0,0.1,0,0.2,0,0.3
		c0,0,0,0.2-0.1,0.2c-0.1,0.5-0.2,0.6-0.4,1.1c-0.1,0.2-0.2,0.4-0.3,0.5c0,0.1-0.1,0.1-0.1,0.2c0,0,0,0-0.1,0.1
		c-0.1,0.1-0.3,0.3-0.4,0.4c-0.1,0.1-0.2,0.2-0.2,0.2c-0.3,0.2-0.5,0.3-0.8,0.5c-0.1,0-0.1,0.1-0.2,0.1c-0.2,0-0.3,0.1-0.5,0.1
		c-0.2,0-0.3,0.1-0.5,0.1c0.4-0.1,0.1,0-0.1,0c-0.3,0-0.6,0-0.9,0c0,0-0.1,0-0.1,0c-0.1,0-0.3-0.1-0.4-0.1c-0.3-0.1-0.6-0.2-1-0.3
		C7.3,25.1,7.1,25,7,25c-0.1,0-0.1-0.1-0.2-0.1c-0.5-0.3-1-0.5-1.5-0.8c0,0,0,0,0,0c-0.1-0.1-0.2-0.1-0.2-0.2c0,0-0.1-0.1-0.1-0.1
		c-1.5-2.2-5.1-0.1-3.7,2.3c0.7,1.2,2.1,2.1,3.3,2.6c1.8,0.8,3.7,1.3,5.6,1.2c2.3-0.2,4.4-1.2,5.8-3.1c1.9-2.4,2.5-5.5,1.2-8.3
		C16.6,16.9,15.2,15.7,13.7,15.1z M6.8,24.9C6.7,24.9,6.7,24.8,6.8,24.9L6.8,24.9z"/>
	<path class="st0" d="M32,17.6c-1.8-1.4-4.2-1.9-6.5-1.7c-0.5,0.1-1,0.1-1.5,0.2c1.1-2.8,3.4-5,5.9-6.6c2.3-1.5,0.2-5.3-2.2-3.7
		c-3.6,2.4-6.7,5.6-8.1,9.7c-1.4,4.1-0.8,8.9,2.1,12.2c2.9,3.1,8.2,3.9,11.3,0.6C36.2,25.2,35.5,20.2,32,17.6z M29.8,25.5
		c-1.7,1.5-4.3,0.3-5.4-1.4c-0.6-0.9-1-2-1.1-3c0.1,0,0.1-0.1,0.1-0.1c0.1,0,0.2-0.1,0.3-0.1c-0.1,0.1,0.4-0.1,0.6-0.2
		c0.5-0.1,0.9-0.3,1.4-0.3c1.2-0.2,2.5,0,3.5,0.7C30.9,22,31.4,24.2,29.8,25.5z"/>
</g>
</svg>
