<?xml version="1.0" encoding="utf-8"?>
<!-- Generator: Adobe Illustrator 27.8.1, SVG Export Plug-In . SVG Version: 6.00 Build 0)  -->
<svg version="1.1" id="Layer_1" xmlns="http://www.w3.org/2000/svg" xmlns:xlink="http://www.w3.org/1999/xlink" x="0px" y="0px"
	 viewBox="0 0 36 36" style="enable-background:new 0 0 36 36;" xml:space="preserve">
<style type="text/css">
	.st0{fill:#777878;}
	.st1{fill:url(#SVGID_1_);}
	.st2{clip-path:url(#SVGID_00000086676314539992834470000001426922830086990478_);}
	.st3{fill:#006897;}
	.st4{clip-path:url(#SVGID_00000098901930571786700590000007803894807912989623_);}
	.st5{fill:#E61F65;}
	.st6{clip-path:url(#SVGID_00000080918255060165507830000007339844213868243891_);}
	.st7{fill:#4BB072;}
	.st8{clip-path:url(#SVGID_00000121251000627606395220000012981650043807658909_);}
</style>
<path class="st0" d="M12,22.9c0.1,0,0.2,0,0.3,0c2.3,0,4.6,0,6.9,0c-0.1,1.7-0.1,3.3-0.1,5c0,1.2,1,2.2,2.2,2.2c1.2,0,2.2-1,2.2-2.2
	c0-1.7,0-3.3,0.1-5c0,0,0,0,0,0c1.1,0,2.2-1,2.2-2.2c0-1.1-0.8-2-1.9-2.1c0.1-1.9,0.3-3.8,0.5-5.6c0.1-1.2-1.1-2.2-2.2-2.2
	c-1.2,0-2.1,1-2.2,2.2c-0.2,1.9-0.3,3.7-0.5,5.6c-1.7,0-3.4,0-5,0c0.9-3.4,1.9-6.7,3-10c0.4-1.1-0.4-2.4-1.5-2.7
	c-1.2-0.3-2.3,0.4-2.7,1.5c-1.4,4.2-2.7,8.5-3.7,12.8c-0.3,1.1,0.3,2.4,1.5,2.7C11.4,23,11.7,23,12,22.9z"/>
</svg>
