<?xml version="1.0" encoding="utf-8"?>
<!-- Generator: Adobe Illustrator 27.8.1, SVG Export Plug-In . SVG Version: 6.00 Build 0)  -->
<svg version="1.1" id="Layer_1" xmlns="http://www.w3.org/2000/svg" xmlns:xlink="http://www.w3.org/1999/xlink" x="0px" y="0px"
	 viewBox="0 0 36 36" style="enable-background:new 0 0 36 36;" xml:space="preserve">
<style type="text/css">
	.st0{fill:#777878;}
	.st1{fill:url(#SVGID_1_);}
	.st2{clip-path:url(#SVGID_00000022532806996295794510000002226041390898272160_);}
	.st3{fill:#006897;}
	.st4{clip-path:url(#SVGID_00000000903210538735401540000018238505479448122781_);}
	.st5{fill:#E61F65;}
	.st6{clip-path:url(#SVGID_00000081636838938948723450000014388850890887216826_);}
	.st7{fill:#4BB072;}
	.st8{clip-path:url(#SVGID_00000106831773019277861820000008871286465803148434_);}
</style>
<g>
	<path class="st0" d="M16.2,25.3c-2.4,0-4.9,0.1-7.3,0.1c1.2-1.3,2.3-2.5,3.4-3.9c1.8-2.2,3.4-4.7,3.7-7.5c0.3-3.3-2.1-6.5-5.2-7.4
		C8.9,6,6.9,6.5,5.4,7.7c-1.5,1.2-2.3,2.8-3,4.5c-0.4,1.1,0.5,2.4,1.5,2.7c1.2,0.3,2.2-0.4,2.7-1.5c0.4-1,1-2.2,2-2.6
		c1-0.4,2.1,0.5,2.7,1.4c1.3,1.8-0.9,4.8-2,6.2c0.2-0.2-0.3,0.4-0.4,0.5c-0.2,0.2-0.3,0.4-0.5,0.6c-0.4,0.5-0.9,1-1.3,1.5
		c-0.8,0.8-1.5,1.7-2.3,2.5c-0.9,0.9-1.8,1.9-2.8,2.8c-1.4,1.3-0.3,3.7,1.5,3.7c4.2-0.1,8.4-0.1,12.6-0.2
		C18.9,29.5,18.9,25.2,16.2,25.3z"/>
	<path class="st0" d="M31.6,17.6c-1.8-1.4-4.2-1.9-6.5-1.7c-0.5,0.1-1,0.1-1.5,0.2c1.1-2.8,3.4-5,5.9-6.6c2.3-1.5,0.2-5.3-2.2-3.7
		c-3.6,2.4-6.7,5.6-8.1,9.7c-1.4,4.1-0.8,8.9,2.1,12.2c2.9,3.1,8.2,3.9,11.3,0.6C35.7,25.2,35.1,20.2,31.6,17.6z M29.4,25.5
		c-1.7,1.5-4.3,0.3-5.4-1.4c-0.6-0.9-1-2-1.1-3c0.1,0,0.1-0.1,0.1-0.1c0.1,0,0.2-0.1,0.3-0.1c-0.1,0.1,0.4-0.1,0.6-0.2
		c0.5-0.1,0.9-0.3,1.4-0.3c1.2-0.2,2.5,0,3.5,0.7C30.5,22,30.9,24.2,29.4,25.5z"/>
</g>
</svg>
