<?xml version="1.0" encoding="utf-8"?>
<!-- Generator: Adobe Illustrator 27.8.1, SVG Export Plug-In . SVG Version: 6.00 Build 0)  -->
<svg version="1.1" id="Layer_1" xmlns="http://www.w3.org/2000/svg" xmlns:xlink="http://www.w3.org/1999/xlink" x="0px" y="0px"
	 viewBox="0 0 36 36" style="enable-background:new 0 0 36 36;" xml:space="preserve">
<style type="text/css">
	.st0{fill:#777878;}
	.st1{fill:url(#SVGID_1_);}
	.st2{clip-path:url(#SVGID_00000042700191850296170880000007426744858198731455_);}
	.st3{fill:#006897;}
	.st4{clip-path:url(#SVGID_00000080925912910293156460000014539021707860360629_);}
	.st5{fill:#E61F65;}
	.st6{clip-path:url(#SVGID_00000042697469708835639410000004920854825327069369_);}
	.st7{fill:#4BB072;}
	.st8{clip-path:url(#SVGID_00000027581108932195584890000017673779738004436927_);}
</style>
<g>
	<path class="st0" d="M11.7,28.7c0.2,1.2,1.6,1.8,2.7,1.5c1.2-0.3,1.7-1.5,1.5-2.7c-0.9-6.3-0.9-12.8,0.1-19.1
		C16.2,6.2,14,5,12.3,6.3C8.8,9,5.5,11.9,2.4,15c-2,2,1.1,5,3.1,3.1c1.8-1.8,3.7-3.5,5.7-5.2C10.7,18.1,10.9,23.4,11.7,28.7z"/>
	<path class="st0" d="M19.6,22.9c0.3,0.1,0.6,0.1,0.9,0c0.1,0,0.2,0,0.3,0c2.3,0,4.6,0,6.9,0c-0.1,1.7-0.1,3.3-0.1,5
		c0,1.2,1,2.2,2.2,2.2c1.2,0,2.2-1,2.2-2.2c0-1.7,0-3.3,0.1-5c0,0,0,0,0,0c1.1,0,2.2-1,2.2-2.2c0-1.1-0.8-2-1.9-2.1
		c0.1-1.9,0.3-3.8,0.5-5.6c0.1-1.2-1.1-2.2-2.2-2.2c-1.2,0-2.1,1-2.2,2.2c-0.2,1.9-0.3,3.7-0.5,5.6c-1.7,0-3.4,0-5,0
		c0.9-3.4,1.9-6.7,3-10c0.4-1.1-0.4-2.4-1.5-2.7c-1.2-0.3-2.3,0.4-2.7,1.5c-1.4,4.2-2.7,8.5-3.7,12.8C17.8,21.3,18.4,22.6,19.6,22.9
		z"/>
</g>
</svg>
