<?xml version="1.0" encoding="utf-8"?>
<!-- Generator: Adobe Illustrator 27.8.1, SVG Export Plug-In . SVG Version: 6.00 Build 0)  -->
<svg version="1.1" id="Layer_1" xmlns="http://www.w3.org/2000/svg" xmlns:xlink="http://www.w3.org/1999/xlink" x="0px" y="0px"
	 viewBox="0 0 36 36" style="enable-background:new 0 0 36 36;" xml:space="preserve">
<style type="text/css">
	.st0{fill:#777878;}
	.st1{fill:url(#SVGID_1_);}
	.st2{clip-path:url(#SVGID_00000042735945520686896980000017837776039398032306_);}
	.st3{fill:#006897;}
	.st4{clip-path:url(#SVGID_00000183961654050902317610000010581019478411427491_);}
	.st5{fill:#E61F65;}
	.st6{clip-path:url(#SVGID_00000098181679871952592930000006769586253477609652_);}
	.st7{fill:#4BB072;}
	.st8{clip-path:url(#SVGID_00000131355910004053978450000014095954282668097676_);}
</style>
<g>
	<path class="st0" d="M14.6,15c0.3-0.5,0.5-1.1,0.7-1.7C15.8,11,15,8.6,13,7.2C11.1,6,8.8,6.1,6.9,7.1c-2,1.1-3.7,3.5-2.9,5.8
		c0.4,1.1,1.5,1.8,2.7,1.5c1.1-0.3,1.9-1.6,1.5-2.7c0,0,0-0.1,0-0.1c0-0.1,0.1-0.1,0.2-0.3c0.3-0.3,0.7-0.6,0.9-0.7
		c0.7-0.2,1.2-0.1,1.6,0.3c0,0,0.2,0.3,0.2,0.4c0,0,0,0.2,0,0.3c0,0.4-0.1,0.8-0.2,1.1c-0.5,1.1-1.5,1.9-2.4,2.7
		c-0.7,0.6-0.8,1.8-0.3,2.6c0.4,0.8,1.6,1.3,2.4,1c1.5-0.6,3-0.3,3.7,1.2c0,0,0.2,0.7,0.2,0.7c0,0.2,0,0.5,0,0.7c0,0.1,0,0.2,0,0.3
		c0,0,0,0.2-0.1,0.2c-0.1,0.5-0.2,0.6-0.4,1.1c-0.1,0.2-0.2,0.4-0.3,0.5c0,0.1-0.1,0.1-0.1,0.2c0,0,0,0-0.1,0.1
		c-0.1,0.1-0.3,0.3-0.4,0.4c-0.1,0.1-0.2,0.2-0.2,0.2c-0.3,0.2-0.5,0.3-0.8,0.5c-0.1,0-0.1,0.1-0.2,0.1c-0.2,0-0.3,0.1-0.5,0.1
		c-0.2,0-0.3,0.1-0.5,0.1c0.4-0.1,0.1,0-0.1,0c-0.3,0-0.6,0-0.9,0c0,0-0.1,0-0.1,0c-0.1,0-0.3-0.1-0.4-0.1c-0.3-0.1-0.6-0.2-1-0.3
		c-0.1,0-0.3-0.1-0.4-0.1c-0.1,0-0.1-0.1-0.2-0.1c-0.5-0.3-1-0.5-1.5-0.8c0,0,0,0,0,0C6.1,24,6.1,23.9,6,23.8c0,0-0.1-0.1-0.1-0.1
		c-1.5-2.2-5.1-0.1-3.7,2.3c0.7,1.2,2.1,2.1,3.3,2.6c1.8,0.8,3.7,1.3,5.6,1.2c2.3-0.2,4.4-1.2,5.8-3.1c1.9-2.4,2.5-5.5,1.2-8.3
		C17.5,16.8,16.2,15.7,14.6,15z M7.7,24.9C7.6,24.8,7.6,24.8,7.7,24.9L7.7,24.9z"/>
	<path class="st0" d="M30.8,16.2c0.4-0.3,0.7-0.7,1.1-1c0.1-0.1,0.2-0.3,0.3-0.5c1.2-1.8,1.4-4,0.1-5.9c-1.1-1.8-3.2-3.2-5.3-3.1
		c-4.5,0-8.2,4.8-5.5,9c0.5,0.7,1.1,1.3,1.7,1.9c-1.5,1.3-2.8,2.9-3.3,4.9c-1.2,4.5,2.4,9.2,7.2,8.8c4.8-0.4,7.9-5.1,6.7-9.6
		C33.4,18.8,32.3,17.4,30.8,16.2z M25.3,10.8c0.4-0.4,1.2-0.8,1.6-0.8c0.2,0,0.3,0,0.7,0.2c0.4,0.2,0.7,0.4,0.9,0.8
		c0.2,0.3,0.3,0.5,0.4,0.8c0,0,0,0.1,0,0.2c0,0-0.1,0.2-0.1,0.2c-0.6,0.7-1.3,1.3-2,1.8c-0.7-0.4-1.4-1-1.7-1.7
		c-0.1-0.3-0.2-0.7-0.2-0.8C24.9,11.3,25.1,11,25.3,10.8z M27.7,25.8c-1.3,0.5-3-0.1-3.5-1.5c-0.6-1.5,0.5-3.4,1.8-4.4
		c0.4-0.3,0.8-0.6,1.2-0.8c1.3,0.8,2.4,1.7,2.6,3.4C30,23.9,29.1,25.3,27.7,25.8z"/>
</g>
</svg>
