<?xml version="1.0" encoding="utf-8"?>
<!-- Generator: Adobe Illustrator 27.8.1, SVG Export Plug-In . SVG Version: 6.00 Build 0)  -->
<svg version="1.1" id="Layer_1" xmlns="http://www.w3.org/2000/svg" xmlns:xlink="http://www.w3.org/1999/xlink" x="0px" y="0px"
	 viewBox="0 0 36 36" style="enable-background:new 0 0 36 36;" xml:space="preserve">
<style type="text/css">
	.st0{fill:#777878;}
	.st1{fill:url(#SVGID_1_);}
	.st2{clip-path:url(#SVGID_00000028300615216595913000000002131723834432090002_);}
	.st3{fill:#006897;}
	.st4{clip-path:url(#SVGID_00000016756539786378686400000004414978773358779061_);}
	.st5{fill:#E61F65;}
	.st6{clip-path:url(#SVGID_00000057115186420700335720000002283292758775030950_);}
	.st7{fill:#4BB072;}
	.st8{clip-path:url(#SVGID_00000121979857139000166330000010995120705249450431_);}
</style>
<path class="st0" d="M19.5,23.3c-0.5,1-1.3,1.9-2.3,2.3c-0.8,0.3-2.1,0.3-2.6-0.4c-0.7-0.9-1.9-1.4-3-0.8c-0.9,0.5-1.5,2-0.8,3
	c2.8,3.6,7.8,3.4,10.8,0.2c1.5-1.6,2.4-3.6,2.9-5.6c0.5-2.2,0.9-4.5,0.9-6.7c-0.1-4-2.1-8.5-6.4-9.3c-3.5-0.7-7.2,1.2-8.1,4.8
	c-0.6,2.2-0.2,4.8,1.4,6.5c1.8,2,4.5,2.3,7.1,2.5c0.5,0,1-0.2,1.3-0.5c0,0,0,0,0,0C20.5,20.7,20.2,22.1,19.5,23.3z M19.4,15.4
	c-1.2-0.1-2.6-0.1-3.6-0.8c-0.8-0.6-1-1.5-0.8-2.4c0.1-0.6,0.2-0.7,0.4-1.1c0.2-0.3,0,0,0.2-0.2c0.1-0.1,0.2-0.2,0.2-0.2
	c0,0,0,0,0,0c0,0,0.1,0,0.1-0.1c0.7-0.4,1.3-0.5,1.9-0.4c0.2,0,0.8,0.2,0.9,0.3c0.4,0.2,0.7,0.5,1,0.9c0.8,1,1.1,2.3,1.2,3.5
	c0,0.5,0,0.9,0,1.4C20.7,15.7,20.1,15.4,19.4,15.4z"/>
</svg>
