<?xml version="1.0" encoding="utf-8"?>
<!-- Generator: Adobe Illustrator 27.8.1, SVG Export Plug-In . SVG Version: 6.00 Build 0)  -->
<svg version="1.1" id="Layer_1" xmlns="http://www.w3.org/2000/svg" xmlns:xlink="http://www.w3.org/1999/xlink" x="0px" y="0px"
	 viewBox="0 0 36 36" style="enable-background:new 0 0 36 36;" xml:space="preserve">
<style type="text/css">
	.st0{fill:#777878;}
	.st1{fill:url(#SVGID_1_);}
	.st2{clip-path:url(#SVGID_00000023975322393584454010000004169064092459413388_);}
	.st3{fill:#006897;}
	.st4{clip-path:url(#SVGID_00000180351765939301854020000004835769687295808166_);}
	.st5{fill:#E61F65;}
	.st6{clip-path:url(#SVGID_00000059305069258108582010000003063352084921737104_);}
	.st7{fill:#4BB072;}
	.st8{clip-path:url(#SVGID_00000048497405599827482330000017698318176935539365_);}
</style>
<g>
	<path class="st0" d="M12.2,6.3C8.8,9,5.5,11.9,2.3,15c-2,2,1.1,5,3.1,3.1c1.8-1.8,3.7-3.5,5.7-5.2c-0.4,5.3-0.2,10.5,0.6,15.8
		c0.2,1.2,1.6,1.8,2.7,1.5c1.2-0.3,1.7-1.5,1.5-2.7c-0.9-6.3-0.9-12.8,0.1-19.1C16.2,6.2,14,4.9,12.2,6.3z"/>
	<path class="st0" d="M29.1,23.3c-0.4,1-1.2,2-2.2,2.5c-0.9,0.4-1.9,0.3-2.6-0.4c-2-2-5,1.1-3.1,3.1c3.1,3.1,8,1.9,10.5-1.3
		c1.3-1.8,1.9-3.9,2.2-6c0.3-2.3,0.3-4.6,0-6.9c-0.6-3.9-3.2-7.8-7.4-8.3c-3.4-0.4-6.9,2-7.5,5.5c-0.4,2.2,0.2,4.7,1.9,6.3
		c2,1.9,4.8,2,7.4,1.8c0.6,0,1.1-0.3,1.5-0.7c0,0.1,0,0.1,0,0.2C29.9,20.4,29.7,21.9,29.1,23.3z M24.4,14.8c-0.8-0.5-1-1.4-1-2.3
		c0-0.7,0.4-1.3,0.9-1.7c0.6-0.5,1.2-0.6,2-0.6c0.1,0,0.2,0,0.2,0c0,0,0,0,0.2,0c0.1,0,0.4,0.1,0.4,0.1c0.5,0.2,0.9,0.5,1.3,0.9
		c0.8,0.9,1.3,2.1,1.5,3.2c0.1,0.4,0.1,0.8,0.2,1.3c-0.4-0.4-0.9-0.7-1.5-0.6C27.2,15.2,25.5,15.5,24.4,14.8z"/>
</g>
</svg>
