<?xml version="1.0" encoding="utf-8"?>
<!-- Generator: Adobe Illustrator 27.8.1, SVG Export Plug-In . SVG Version: 6.00 Build 0)  -->
<svg version="1.1" id="Layer_1" xmlns="http://www.w3.org/2000/svg" xmlns:xlink="http://www.w3.org/1999/xlink" x="0px" y="0px"
	 viewBox="0 0 36 36" style="enable-background:new 0 0 36 36;" xml:space="preserve">
<style type="text/css">
	.st0{fill:#777878;}
	.st1{fill:url(#SVGID_1_);}
	.st2{clip-path:url(#SVGID_00000054253486205065156680000012016592730151763876_);}
	.st3{fill:#006897;}
	.st4{clip-path:url(#SVGID_00000149369954482378912210000007518883238337210246_);}
	.st5{fill:#E61F65;}
	.st6{clip-path:url(#SVGID_00000000202762924395325100000009939463205022982325_);}
	.st7{fill:#4BB072;}
	.st8{clip-path:url(#SVGID_00000182507767054114281600000014349369833812907959_);}
</style>
<g>
	<path class="st0" d="M12.8,6.4C9.4,9.1,6.1,12,3,15.1c-2,2,1.1,5,3.1,3.1c1.8-1.8,3.7-3.5,5.7-5.2c-0.4,5.3-0.2,10.5,0.6,15.8
		c0.2,1.2,1.6,1.8,2.7,1.5c1.2-0.3,1.7-1.5,1.5-2.7c-0.9-6.3-0.9-12.8,0.1-19.1C16.8,6.2,14.6,5,12.8,6.4z"/>
	<path class="st0" d="M26.7,30.3c4.8-0.4,7.9-5.1,6.7-9.6c-0.5-1.8-1.6-3.3-3-4.4c0.4-0.3,0.7-0.7,1.1-1c0.1-0.1,0.2-0.3,0.3-0.5
		c1.2-1.8,1.4-4,0.1-5.9c-1.1-1.8-3.2-3.2-5.3-3.1c-4.5,0-8.2,4.8-5.5,9c0.5,0.7,1.1,1.3,1.7,1.9c-1.5,1.3-2.8,2.9-3.3,4.9
		C18.3,26,21.9,30.6,26.7,30.3z M24.8,10.8c0.4-0.4,1.2-0.8,1.6-0.8c0.2,0,0.3,0,0.7,0.2c0.4,0.2,0.7,0.4,0.9,0.8
		c0.2,0.3,0.3,0.5,0.4,0.8c0,0,0,0.1,0,0.2c0,0-0.1,0.2-0.1,0.2c-0.6,0.7-1.3,1.3-2,1.8c-0.7-0.4-1.4-1-1.7-1.7
		c-0.1-0.3-0.2-0.7-0.2-0.8C24.5,11.3,24.6,11,24.8,10.8z M23.7,24.3c-0.6-1.5,0.5-3.4,1.8-4.4c0.4-0.3,0.8-0.6,1.2-0.8
		c1.3,0.8,2.4,1.7,2.6,3.4c0.2,1.5-0.7,2.9-2.1,3.4C26,26.3,24.3,25.7,23.7,24.3z"/>
</g>
</svg>
