<?xml version="1.0" encoding="utf-8"?>
<!-- Generator: Adobe Illustrator 27.8.1, SVG Export Plug-In . SVG Version: 6.00 Build 0)  -->
<svg version="1.1" id="Layer_1" xmlns="http://www.w3.org/2000/svg" xmlns:xlink="http://www.w3.org/1999/xlink" x="0px" y="0px"
	 viewBox="0 0 36 36" style="enable-background:new 0 0 36 36;" xml:space="preserve">
<style type="text/css">
	.st0{fill:#777878;}
	.st1{fill:url(#SVGID_1_);}
	.st2{clip-path:url(#SVGID_00000091699077679742997720000007795430728635209349_);}
	.st3{fill:#006897;}
	.st4{clip-path:url(#SVGID_00000008143731564314217600000002501401346474363021_);}
	.st5{fill:#E61F65;}
	.st6{clip-path:url(#SVGID_00000142163228349355588210000005999730168729197982_);}
	.st7{fill:#4BB072;}
	.st8{clip-path:url(#SVGID_00000127008716140631166970000000853901886962496660_);}
</style>
<g>
	<path class="st0" d="M12.1,6.3C8.7,9,5.4,11.9,2.2,15c-2,2,1.1,5,3.1,3.1c1.8-1.8,3.7-3.5,5.7-5.2c-0.4,5.3-0.2,10.5,0.6,15.8
		c0.2,1.2,1.6,1.8,2.7,1.5c1.2-0.3,1.7-1.5,1.5-2.7c-0.9-6.3-0.9-12.8,0.1-19.1C16.1,6.2,13.9,5,12.1,6.3z"/>
	<path class="st0" d="M21.3,11.4c2.5,0.1,4.9,0.1,7.4,0.2c-0.9,2.1-1.8,4.3-2.7,6.4c-1.3,0-2.7,0.1-4,0.2c-1.1,0.1-2.2,0.9-2.2,2.2
		c0,1.1,1,2.3,2.2,2.2c0.7-0.1,1.4-0.1,2.1-0.1c-0.6,1.5-1.3,2.9-1.9,4.4c-0.5,1.1-0.3,2.3,0.8,3c0.9,0.5,2.5,0.3,3-0.8
		c1-2.2,1.9-4.4,2.9-6.7c1.1,0,2.3,0,3.4,0.1c1.1,0,2.2-1,2.2-2.2c-0.1-1.2-0.9-2.1-2.2-2.2c-0.5,0-1,0-1.5,0
		c1.1-2.6,2.2-5.3,3.3-7.9c0.6-1.4-0.8-2.7-2.1-2.7C28.4,7.2,24.9,7.1,21.3,7C18.6,7,18.6,11.3,21.3,11.4z"/>
</g>
</svg>
