<?xml version="1.0" encoding="utf-8"?>
<!-- Generator: Adobe Illustrator 27.8.1, SVG Export Plug-In . SVG Version: 6.00 Build 0)  -->
<svg version="1.1" id="Layer_1" xmlns="http://www.w3.org/2000/svg" xmlns:xlink="http://www.w3.org/1999/xlink" x="0px" y="0px"
	 viewBox="0 0 36 36" style="enable-background:new 0 0 36 36;" xml:space="preserve">
<style type="text/css">
	.st0{fill:#777878;}
	.st1{fill:url(#SVGID_1_);}
	.st2{clip-path:url(#SVGID_00000083784729175023920140000007045147632876519316_);}
	.st3{fill:#006897;}
	.st4{clip-path:url(#SVGID_00000159437203707895654840000005066761368600075400_);}
	.st5{fill:#E61F65;}
	.st6{clip-path:url(#SVGID_00000115491001416768947200000000110267910625008575_);}
	.st7{fill:#4BB072;}
	.st8{clip-path:url(#SVGID_00000127006003237319261750000012143000774880058796_);}
</style>
<g>
	<path class="st0" d="M13.5,15c0.3-0.5,0.5-1.1,0.7-1.7c0.5-2.4-0.2-4.7-2.3-6.1C10.1,6,7.7,6,5.8,7c-2,1.1-3.7,3.5-2.9,5.8
		c0.4,1.1,1.5,1.8,2.7,1.5c1.1-0.3,1.9-1.6,1.5-2.7c0,0,0-0.1,0-0.1c0-0.1,0.1-0.1,0.2-0.3c0.3-0.3,0.7-0.6,0.9-0.7
		c0.7-0.2,1.2-0.1,1.6,0.3c0,0,0.2,0.3,0.2,0.4c0,0,0,0.2,0,0.3c0,0.4-0.1,0.8-0.2,1.1c-0.5,1.1-1.5,1.9-2.4,2.7
		c-0.7,0.6-0.8,1.8-0.3,2.6c0.4,0.8,1.6,1.3,2.4,1c1.5-0.6,3-0.3,3.7,1.2c0,0,0.2,0.7,0.2,0.7c0,0.2,0,0.5,0,0.7c0,0.1,0,0.2,0,0.3
		c0,0,0,0.2-0.1,0.2c-0.1,0.5-0.2,0.6-0.4,1.1c-0.1,0.2-0.2,0.4-0.3,0.5c0,0.1-0.1,0.1-0.1,0.2c0,0,0,0-0.1,0.1
		c-0.1,0.1-0.3,0.3-0.4,0.4c-0.1,0.1-0.2,0.2-0.2,0.2c-0.3,0.2-0.5,0.3-0.8,0.5c-0.1,0-0.1,0.1-0.2,0.1c-0.2,0-0.3,0.1-0.5,0.1
		c-0.2,0-0.3,0.1-0.5,0.1c0.4-0.1,0.1,0-0.1,0c-0.3,0-0.6,0-0.9,0c0,0-0.1,0-0.1,0c-0.1,0-0.3-0.1-0.4-0.1c-0.3-0.1-0.6-0.2-1-0.3
		c-0.1,0-0.3-0.1-0.4-0.1c-0.1,0-0.1-0.1-0.2-0.1c-0.5-0.3-1-0.5-1.5-0.8c0,0,0,0,0,0c-0.1-0.1-0.2-0.1-0.2-0.2c0,0-0.1-0.1-0.1-0.1
		c-1.5-2.2-5.1-0.1-3.7,2.3c0.7,1.2,2.1,2.1,3.3,2.6c1.8,0.8,3.7,1.3,5.6,1.2c2.3-0.2,4.4-1.2,5.8-3.1c1.9-2.4,2.5-5.5,1.2-8.3
		C16.4,16.8,15.1,15.6,13.5,15z M6.6,24.8C6.6,24.8,6.5,24.7,6.6,24.8L6.6,24.8z"/>
	<path class="st0" d="M29.8,6.9c-1.7-1.1-3.8-1.3-5.6-0.4c-1.8,0.9-3.1,2.8-3.9,4.6c-1.6,3.6-1.8,7.8-0.8,11.6
		c0.5,1.9,1.3,4,2.8,5.3c1.5,1.4,3.5,2.2,5.6,1.9c5.5-0.6,7.4-6.5,7.3-11.4C35,14.5,33.5,9.4,29.8,6.9z M26.9,10.2
		C26.8,10.2,26.8,10.2,26.9,10.2L26.9,10.2z M26.7,10.2C26.8,10.2,26.8,10.2,26.7,10.2L26.7,10.2z M30.7,21.2
		c-0.1,0.4-0.2,0.8-0.3,1.2c-0.1,0.2-0.1,0.4-0.2,0.6c0,0-0.2,0.5-0.2,0.6c-0.1,0.3-0.3,0.5-0.4,0.8c-0.1,0.2-0.1,0.2-0.4,0.5
		c-0.1,0.1-0.2,0.2-0.3,0.3c0,0-0.1,0-0.1,0.1c0,0-0.1,0-0.1,0.1c-0.1,0.1-0.2,0.1-0.4,0.2c-0.1,0-0.1,0.1-0.1,0.1c0,0,0,0-0.1,0
		c-0.2,0.1-0.3,0.1-0.5,0.2c0,0-0.1,0-0.1,0c-0.2,0-0.5,0-0.7,0c-0.1,0-0.1,0-0.1,0c-0.2-0.1-0.4-0.1-0.5-0.2c0,0-0.4-0.2-0.7-0.4
		c-0.9-0.7-1.4-1.9-1.7-3.1c-0.7-2.5-0.7-5.3,0-7.8c0.3-1.2,0.7-2.2,1.7-3.2c0.2-0.2,0.5-0.5,0.6-0.6c0,0,0.2-0.1,0.2-0.1
		c0.1,0,0.2-0.1,0.2-0.1c0.1,0,0.1,0,0.2,0c0.1,0,0.1,0,0.2,0c0,0,0,0,0,0c0.1,0,0.2,0.1,0.2,0.1c0,0,0,0,0,0
		c0.1,0.1,0.2,0.1,0.3,0.2c0.1,0,0.1,0,0.1,0.1c0,0,0.1,0.1,0.1,0.1c0.3,0.3,0.5,0.5,0.8,0.8c-0.1-0.1-0.2-0.3,0.1,0.1
		c0.1,0.2,0.3,0.4,0.4,0.6c0.2,0.4,0.4,0.7,0.6,1.1c0.8,1.7,1.3,3.5,1.3,5.4C30.9,19.5,30.9,20.3,30.7,21.2z"/>
</g>
</svg>
