<?xml version="1.0" encoding="utf-8"?>
<!-- Generator: Adobe Illustrator 27.8.1, SVG Export Plug-In . SVG Version: 6.00 Build 0)  -->
<svg version="1.1" id="Layer_1" xmlns="http://www.w3.org/2000/svg" xmlns:xlink="http://www.w3.org/1999/xlink" x="0px" y="0px"
	 viewBox="0 0 36 36" style="enable-background:new 0 0 36 36;" xml:space="preserve">
<style type="text/css">
	.st0{fill:#777878;}
	.st1{fill:url(#SVGID_1_);}
	.st2{clip-path:url(#SVGID_00000093860986458146501210000004665178796651028097_);}
	.st3{fill:#006897;}
	.st4{clip-path:url(#SVGID_00000162318196114004656200000004780122354801984668_);}
	.st5{fill:#E61F65;}
	.st6{clip-path:url(#SVGID_00000032624077316404764830000014508208948667308448_);}
	.st7{fill:#4BB072;}
	.st8{clip-path:url(#SVGID_00000043418446195178991580000002018524841558299070_);}
</style>
<g>
	<path class="st0" d="M6.4,7.5c-1.5,1.2-2.3,2.8-3,4.5c-0.4,1.1,0.5,2.4,1.5,2.7c1.2,0.3,2.2-0.4,2.7-1.5c0.4-1,1-2.2,2-2.6
		c1-0.4,2.1,0.5,2.7,1.4c1.3,1.8-0.9,4.8-2,6.2c0.2-0.2-0.3,0.4-0.4,0.5c-0.2,0.2-0.3,0.4-0.5,0.6c-0.4,0.5-0.9,1-1.3,1.5
		c-0.8,0.8-1.5,1.7-2.3,2.5C4.9,24.1,4,25,3,25.9c-1.4,1.3-0.3,3.7,1.5,3.7c4.2-0.1,8.4-0.1,12.6-0.2c2.8,0,2.8-4.4,0-4.3
		c-2.4,0-4.9,0.1-7.3,0.1c1.2-1.3,2.3-2.5,3.4-3.9c1.8-2.2,3.4-4.7,3.7-7.5c0.3-3.3-2.1-6.5-5.2-7.4C9.9,5.8,7.9,6.4,6.4,7.5z"/>
	<path class="st0" d="M26.6,30.3c4.8-0.4,7.9-5.1,6.7-9.6c-0.5-1.8-1.6-3.3-3-4.4c0.4-0.3,0.7-0.7,1.1-1c0.1-0.1,0.2-0.3,0.3-0.5
		c1.2-1.8,1.4-4,0.1-5.9c-1.1-1.8-3.2-3.2-5.3-3.1c-4.5,0-8.2,4.8-5.5,9c0.5,0.7,1.1,1.3,1.7,1.9c-1.5,1.3-2.8,2.9-3.3,4.9
		C18.3,26,21.8,30.6,26.6,30.3z M27.2,25.8c-1.3,0.5-3-0.1-3.5-1.5c-0.6-1.5,0.5-3.4,1.8-4.4c0.4-0.3,0.8-0.6,1.2-0.8
		c1.3,0.8,2.4,1.7,2.6,3.4C29.4,23.9,28.6,25.3,27.2,25.8z M24.8,10.8c0.4-0.4,1.2-0.8,1.6-0.8c0.2,0,0.3,0,0.7,0.2
		c0.4,0.2,0.7,0.4,0.9,0.8c0.2,0.3,0.3,0.5,0.4,0.8c0,0,0,0.1,0,0.2c0,0-0.1,0.2-0.1,0.2c-0.6,0.7-1.3,1.3-2,1.8
		c-0.7-0.4-1.3-1-1.7-1.7c-0.1-0.3-0.2-0.7-0.2-0.8C24.4,11.3,24.5,11,24.8,10.8z"/>
</g>
</svg>
