<?xml version="1.0" encoding="utf-8"?>
<!-- Generator: Adobe Illustrator 27.8.1, SVG Export Plug-In . SVG Version: 6.00 Build 0)  -->
<svg version="1.1" id="Layer_1" xmlns="http://www.w3.org/2000/svg" xmlns:xlink="http://www.w3.org/1999/xlink" x="0px" y="0px"
	 viewBox="0 0 36 36" style="enable-background:new 0 0 36 36;" xml:space="preserve">
<style type="text/css">
	.st0{fill:#777878;}
	.st1{fill:url(#SVGID_1_);}
	.st2{clip-path:url(#SVGID_00000057852237633177696360000002466315372128607647_);}
	.st3{fill:#006897;}
	.st4{clip-path:url(#SVGID_00000067213660234468122970000008318167730132936863_);}
	.st5{fill:#E61F65;}
	.st6{clip-path:url(#SVGID_00000059290277017003993190000006407353078706808718_);}
	.st7{fill:#4BB072;}
	.st8{clip-path:url(#SVGID_00000114038935372179083460000010381284990794470843_);}
</style>
<g>
	<path class="st0" d="M14.3,15c0.3-0.5,0.5-1.1,0.7-1.7c0.5-2.4-0.2-4.7-2.3-6.1C10.8,5.9,8.5,6,6.6,7c-2,1.1-3.7,3.5-2.9,5.8
		c0.4,1.1,1.5,1.8,2.7,1.5c1.1-0.3,1.9-1.6,1.5-2.7c0,0,0-0.1,0-0.1c0-0.1,0.1-0.1,0.2-0.3c0.3-0.3,0.7-0.6,0.9-0.7
		c0.7-0.2,1.2-0.1,1.6,0.3c0,0,0.2,0.3,0.2,0.4c0,0,0,0.2,0,0.3c0,0.4-0.1,0.8-0.2,1.1c-0.5,1.1-1.5,1.9-2.4,2.7
		c-0.7,0.6-0.8,1.8-0.3,2.6c0.4,0.8,1.6,1.3,2.4,1c1.5-0.6,3-0.3,3.7,1.2c0,0,0.2,0.7,0.2,0.7c0,0.2,0,0.5,0,0.7c0,0.1,0,0.2,0,0.3
		c0,0,0,0.2-0.1,0.2c-0.1,0.5-0.2,0.6-0.4,1.1c-0.1,0.2-0.2,0.4-0.3,0.5c0,0.1-0.1,0.1-0.1,0.2c0,0,0,0-0.1,0.1
		c-0.1,0.1-0.3,0.3-0.4,0.4c-0.1,0.1-0.2,0.2-0.2,0.2c-0.3,0.2-0.5,0.3-0.8,0.5c-0.1,0-0.1,0.1-0.2,0.1c-0.2,0-0.3,0.1-0.5,0.1
		c-0.2,0-0.3,0.1-0.5,0.1c0.4-0.1,0.1,0-0.1,0c-0.3,0-0.6,0-0.9,0c0,0-0.1,0-0.1,0c-0.1,0-0.3-0.1-0.4-0.1c-0.3-0.1-0.6-0.2-1-0.3
		c-0.1,0-0.3-0.1-0.4-0.1c-0.1,0-0.1-0.1-0.2-0.1c-0.5-0.3-1-0.5-1.5-0.8c0,0,0,0,0,0c-0.1-0.1-0.2-0.1-0.2-0.2c0,0-0.1-0.1-0.1-0.1
		c-1.5-2.2-5.1-0.1-3.7,2.3c0.7,1.2,2.1,2.1,3.3,2.6c1.8,0.8,3.7,1.3,5.6,1.2c2.3-0.2,4.4-1.2,5.8-3.1c1.9-2.4,2.5-5.5,1.2-8.3
		C17.2,16.7,15.8,15.6,14.3,15z M7.4,24.8C7.3,24.7,7.3,24.7,7.4,24.8L7.4,24.8z"/>
	<path class="st0" d="M32.3,17.8c-0.5,0-1,0-1.5,0c1.1-2.6,2.2-5.3,3.3-7.9c0.6-1.4-0.8-2.7-2.1-2.7C28.4,7,24.9,6.9,21.4,6.8
		c-2.8-0.1-2.8,4.3,0,4.3c2.5,0.1,4.9,0.1,7.4,0.2c-0.9,2.1-1.8,4.3-2.7,6.4c-1.3,0-2.7,0.1-4,0.2c-1.1,0.1-2.2,0.9-2.2,2.2
		c0,1.1,1,2.3,2.2,2.2c0.7-0.1,1.4-0.1,2.1-0.1c-0.6,1.5-1.3,2.9-1.9,4.4c-0.5,1.1-0.3,2.3,0.8,3c0.9,0.5,2.5,0.3,3-0.8
		c1-2.2,1.9-4.4,2.9-6.7c1.1,0,2.3,0,3.4,0.1c1.1,0,2.2-1,2.2-2.2C34.4,18.8,33.5,17.8,32.3,17.8z"/>
</g>
</svg>
