<?xml version="1.0" encoding="utf-8"?>
<!-- Generator: Adobe Illustrator 27.8.1, SVG Export Plug-In . SVG Version: 6.00 Build 0)  -->
<svg version="1.1" id="Layer_1" xmlns="http://www.w3.org/2000/svg" xmlns:xlink="http://www.w3.org/1999/xlink" x="0px" y="0px"
	 viewBox="0 0 36 36" style="enable-background:new 0 0 36 36;" xml:space="preserve">
<style type="text/css">
	.st0{fill:#777878;}
	.st1{fill:url(#SVGID_1_);}
	.st2{clip-path:url(#SVGID_00000001661387759202192290000015214442482897840301_);}
	.st3{fill:#006897;}
	.st4{clip-path:url(#SVGID_00000041290739779592109140000014643890805086983573_);}
	.st5{fill:#E61F65;}
	.st6{clip-path:url(#SVGID_00000124133729886554132790000001718714342715961481_);}
	.st7{fill:#4BB072;}
	.st8{clip-path:url(#SVGID_00000078007990853501332600000004146831051669920144_);}
</style>
<g>
	<path class="st0" d="M14.7,15.1c0.3-0.5,0.5-1.1,0.7-1.7c0.5-2.4-0.2-4.7-2.3-6.1C11.2,6,8.8,6.1,6.9,7.1C5,8.2,3.2,10.6,4,12.9
		c0.4,1.1,1.5,1.8,2.7,1.5c1.1-0.3,1.9-1.6,1.5-2.7c0,0,0-0.1,0-0.1c0-0.1,0.1-0.1,0.2-0.3c0.3-0.3,0.7-0.6,0.9-0.7
		c0.7-0.2,1.2-0.1,1.6,0.3c0,0,0.2,0.3,0.2,0.4c0,0,0,0.2,0,0.3c0,0.4-0.1,0.8-0.2,1.1c-0.5,1.1-1.5,1.9-2.4,2.7
		c-0.7,0.6-0.8,1.8-0.3,2.6c0.4,0.8,1.6,1.3,2.4,1c1.5-0.6,3-0.3,3.7,1.2c0,0,0.2,0.7,0.2,0.7c0,0.2,0,0.5,0,0.7c0,0.1,0,0.2,0,0.3
		c0,0,0,0.2-0.1,0.2c-0.1,0.5-0.2,0.6-0.4,1.1c-0.1,0.2-0.2,0.4-0.3,0.5c0,0.1-0.1,0.1-0.1,0.2c0,0,0,0-0.1,0.1
		c-0.1,0.1-0.3,0.3-0.4,0.4c-0.1,0.1-0.2,0.2-0.2,0.2c-0.3,0.2-0.5,0.3-0.8,0.5c-0.1,0-0.1,0.1-0.2,0.1c-0.2,0-0.3,0.1-0.5,0.1
		c-0.2,0-0.3,0.1-0.5,0.1c0.4-0.1,0.1,0-0.1,0c-0.3,0-0.6,0-0.9,0c0,0-0.1,0-0.1,0c-0.1,0-0.3-0.1-0.4-0.1c-0.3-0.1-0.6-0.2-1-0.3
		C8.3,25.1,8.1,25,8,25c-0.1,0-0.1-0.1-0.2-0.1c-0.5-0.3-1-0.5-1.5-0.8c0,0,0,0,0,0c-0.1-0.1-0.2-0.1-0.2-0.2c0,0-0.1-0.1-0.1-0.1
		c-1.5-2.2-5.1-0.1-3.7,2.3C3,27.2,4.3,28,5.6,28.6c1.8,0.8,3.7,1.3,5.6,1.2c2.3-0.2,4.4-1.2,5.8-3.1c1.9-2.4,2.5-5.5,1.2-8.3
		C17.6,16.8,16.2,15.7,14.7,15.1z M7.8,24.9C7.7,24.8,7.7,24.8,7.8,24.9L7.8,24.9z"/>
	<path class="st0" d="M26.4,5.8c-3.4-0.4-6.9,2-7.5,5.5c-0.4,2.2,0.2,4.7,1.9,6.3c2,1.9,4.8,2,7.4,1.8c0.6,0,1.1-0.3,1.5-0.7
		c0,0.1,0,0.1,0,0.2c-0.1,1.4-0.2,3-0.8,4.3c-0.4,1-1.2,2-2.2,2.5c-0.9,0.4-1.9,0.3-2.6-0.4c-2-2-5,1.1-3.1,3.1
		c3.1,3.1,8,1.9,10.5-1.3c1.3-1.8,1.9-3.9,2.2-6c0.3-2.3,0.3-4.6,0-6.9C33.2,10.2,30.7,6.3,26.4,5.8z M24.1,14.7
		c-0.8-0.5-1-1.4-1-2.3c0-0.7,0.4-1.3,0.9-1.7c0.6-0.5,1.2-0.6,2-0.6c0.1,0,0.2,0,0.2,0c0,0,0,0,0.2,0c0.1,0,0.4,0.1,0.4,0.1
		c0.5,0.2,0.9,0.5,1.3,0.9c0.8,0.9,1.3,2.1,1.5,3.2c0.1,0.4,0.1,0.8,0.2,1.3c-0.4-0.4-0.9-0.7-1.5-0.6
		C26.9,15.2,25.3,15.4,24.1,14.7z"/>
</g>
</svg>
