<?xml version="1.0" encoding="utf-8"?>
<!-- Generator: Adobe Illustrator 27.8.1, SVG Export Plug-In . SVG Version: 6.00 Build 0)  -->
<svg version="1.1" id="Layer_1" xmlns="http://www.w3.org/2000/svg" xmlns:xlink="http://www.w3.org/1999/xlink" x="0px" y="0px"
	 viewBox="0 0 36 36" style="enable-background:new 0 0 36 36;" xml:space="preserve">
<style type="text/css">
	.st0{fill:#777878;}
	.st1{fill:url(#SVGID_1_);}
	.st2{clip-path:url(#SVGID_00000046337449194921436390000014155713211579676584_);}
	.st3{fill:#006897;}
	.st4{clip-path:url(#SVGID_00000173161316783951964180000014007274598270094257_);}
	.st5{fill:#E61F65;}
	.st6{clip-path:url(#SVGID_00000147207978031071896690000012508806459256605323_);}
	.st7{fill:#4BB072;}
	.st8{clip-path:url(#SVGID_00000016796134963985369080000014780686981307838082_);}
</style>
<g>
	<path class="st0" d="M29.9,6.3C26.5,9,23.2,11.9,20,15c-2,2,1.1,5,3.1,3.1c1.8-1.8,3.7-3.5,5.7-5.2c-0.4,5.3-0.2,10.5,0.6,15.8
		c0.2,1.2,1.6,1.8,2.7,1.5c1.2-0.3,1.7-1.5,1.5-2.7c-0.9-6.3-0.9-12.8,0.1-19.1C33.9,6.2,31.7,4.9,29.9,6.3z"/>
	<path class="st0" d="M15.2,15.5c0.3-0.5,0.5-1.1,0.7-1.7c0.5-2.4-0.2-4.7-2.3-6.1c-1.8-1.2-4.2-1.2-6.1-0.1c-2,1.1-3.7,3.5-2.9,5.8
		c0.4,1.1,1.5,1.8,2.7,1.5c1.1-0.3,1.9-1.6,1.5-2.7c0,0,0-0.1,0-0.1c0-0.1,0.1-0.1,0.2-0.3c0.3-0.3,0.7-0.6,0.9-0.7
		c0.7-0.2,1.2-0.1,1.6,0.3c0,0,0.2,0.3,0.2,0.4c0,0,0,0.2,0,0.3c0,0.4-0.1,0.8-0.2,1.1C11,14.3,10,15.2,9.1,16
		c-0.7,0.6-0.8,1.8-0.3,2.6c0.4,0.8,1.6,1.3,2.4,1c1.5-0.6,3-0.3,3.7,1.2c0,0,0.2,0.7,0.2,0.7c0,0.2,0,0.5,0,0.7c0,0.1,0,0.2,0,0.3
		c0,0,0,0.2-0.1,0.2c-0.1,0.5-0.2,0.6-0.4,1.1c-0.1,0.2-0.2,0.4-0.3,0.5c0,0.1-0.1,0.1-0.1,0.2c0,0,0,0-0.1,0.1
		c-0.1,0.1-0.3,0.3-0.4,0.4c-0.1,0.1-0.2,0.2-0.2,0.2c-0.3,0.2-0.5,0.3-0.8,0.5c-0.1,0-0.1,0.1-0.2,0.1c-0.2,0-0.3,0.1-0.5,0.1
		c-0.2,0-0.3,0.1-0.5,0.1c0.4-0.1,0.1,0-0.1,0c-0.3,0-0.6,0-0.9,0c0,0-0.1,0-0.1,0c-0.1,0-0.3-0.1-0.4-0.1c-0.3-0.1-0.6-0.2-1-0.3
		c-0.1,0-0.3-0.1-0.4-0.1c-0.1,0-0.1-0.1-0.2-0.1c-0.5-0.3-1-0.5-1.5-0.8c0,0,0,0,0,0c-0.1-0.1-0.2-0.1-0.2-0.2c0,0-0.1-0.1-0.1-0.1
		C5,21.9,1.3,24,2.8,26.4c0.7,1.2,2.1,2.1,3.3,2.6c1.8,0.8,3.7,1.3,5.6,1.2c2.3-0.2,4.4-1.2,5.8-3.1c1.9-2.4,2.5-5.5,1.2-8.3
		C18.1,17.3,16.7,16.1,15.2,15.5z M8.3,25.3C8.2,25.3,8.1,25.2,8.3,25.3L8.3,25.3z"/>
</g>
</svg>
