<?xml version="1.0" encoding="utf-8"?>
<!-- Generator: Adobe Illustrator 27.8.1, SVG Export Plug-In . SVG Version: 6.00 Build 0)  -->
<svg version="1.1" id="Layer_1" xmlns="http://www.w3.org/2000/svg" xmlns:xlink="http://www.w3.org/1999/xlink" x="0px" y="0px"
	 viewBox="0 0 36 36" style="enable-background:new 0 0 36 36;" xml:space="preserve">
<style type="text/css">
	.st0{fill:#777878;}
	.st1{fill:url(#SVGID_1_);}
	.st2{clip-path:url(#SVGID_00000177470583349675317330000014371219244873782413_);}
	.st3{fill:#006897;}
	.st4{clip-path:url(#SVGID_00000042014277801570480300000004546784348265194116_);}
	.st5{fill:#E61F65;}
	.st6{clip-path:url(#SVGID_00000056396847317743067180000013034507385967277749_);}
	.st7{fill:#4BB072;}
	.st8{clip-path:url(#SVGID_00000051384411216044964030000016794128144186529410_);}
</style>
<g>
	<path class="st0" d="M28.5,19.6C28.6,19.7,28.6,19.9,28.5,19.6C28.6,19.7,28.6,19.7,28.5,19.6C28.6,19.7,28.6,19.7,28.5,19.6z"/>
	<path class="st0" d="M24.2,14.2c0-0.5,0-1-0.1-1.5c0-0.6,0-1.3-0.1-1.9c0.1,0,0.1,0,0.2,0c0.8,0,1.6,0.1,2.3,0.1
		c1.5,0.1,3,0.2,4.5,0.3c1.2,0.1,2.2-1.1,2.2-2.2c0-1.3-1-2.1-2.2-2.2c-1.6-0.1-3.2-0.3-4.9-0.4c-1.6-0.1-3.4-0.5-4.9-0.2
		C20.6,6.6,20,7.3,19.9,8c-0.4,1.4-0.1,3.1,0,4.5c0,1.3,0.1,2.6,0.1,3.9c0,1.1,1,2.2,2.2,2.2c1,0,2,0,3.1,0.1c0.1,0,0.3,0,0.4,0
		c0,0,0.1,0,0.1,0c0,0,0,0,0,0c0.3,0,0.6,0.1,0.9,0.2c0.2,0.1,0.5,0.1,0.7,0.2c0.1,0,0.3,0.1,0.4,0.1c0,0,0.3,0.1,0.3,0.1
		c0.1,0.1,0.3,0.2,0.4,0.2c0,0,0.1,0.1,0.1,0.1c0,0,0,0,0,0c0,0,0,0,0,0.1c0,0,0,0,0,0c0,0,0,0,0,0c0,0,0,0,0,0
		c0.1,0.3,0.2,0.6,0.3,0.9c0.1,0.2,0.1,0.4,0.1,0.6c0-0.1,0,0.3,0.1,0.5c0,0.2,0,0.4,0,0.6c0,0,0,0,0,0c0,0.1,0,0.1,0,0.2
		c0,0.2-0.1,0.3-0.1,0.5c0,0.1-0.1,0.1-0.1,0.2c-0.1,0.1-0.1,0.2-0.2,0.3c-0.1,0.1-0.1,0.1-0.2,0.2c-0.1,0.1-0.3,0.2-0.4,0.4
		c0.1-0.1,0.1-0.1,0.1-0.1c0,0-0.1,0.1-0.2,0.2c-0.3,0.2-0.6,0.3-0.9,0.5c0,0,0,0,0,0c0,0-0.1,0-0.1,0c-0.2,0.1-0.3,0.1-0.5,0.2
		C26,25,25.6,25,25.2,25.1c-0.2,0-0.4,0.1-0.5,0.1c0,0,0,0,0,0c0,0,0,0,0,0c-0.4,0-0.7,0.1-1.1,0.1c-0.3,0-0.7,0-1,0
		c-0.1,0-0.3,0-0.4,0c0,0,0,0,0,0c0,0,0,0-0.1,0c0,0,0,0,0,0c-0.3,0-0.3,0-0.2,0c0,0-0.1,0-0.1,0c-0.5-0.3-1.2-0.5-1.8-0.3
		c-0.5,0.1-0.9,0.4-1.1,0.8c-0.3-0.3-0.8-0.5-1.4-0.5c-2.4,0-4.9,0.1-7.3,0.1c1.2-1.3,2.3-2.5,3.4-3.9c1.8-2.2,3.4-4.7,3.7-7.5
		c0.3-3.3-2.1-6.5-5.2-7.4c-1.8-0.6-3.8,0-5.3,1.2c-1.5,1.2-2.3,2.8-3,4.5c-0.4,1.1,0.5,2.4,1.5,2.7c1.2,0.3,2.2-0.4,2.7-1.5
		c0.4-1,1-2.2,2-2.6c1-0.4,2.1,0.5,2.7,1.4c1.3,1.8-0.9,4.8-2,6.2c0.2-0.2-0.3,0.4-0.4,0.5c-0.2,0.2-0.3,0.4-0.5,0.6
		c-0.4,0.5-0.9,1-1.3,1.5c-0.8,0.8-1.5,1.7-2.3,2.5c-0.9,0.9-1.8,1.9-2.8,2.8c-1.4,1.3-0.3,3.7,1.5,3.7c4.2-0.1,8.4-0.1,12.6-0.2
		c0.8,0,1.3-0.4,1.7-0.8c0.9,0.8,2.6,0.9,3.6,1c1.8,0.1,3.8-0.2,5.5-0.9c2.2-0.8,4-2.3,4.9-4.5c0.9-2.4,0.4-6-1.5-7.8
		C29.7,14.7,26.8,14.3,24.2,14.2z M29,22.3C29,22.5,29,22.6,29,22.3L29,22.3z"/>
	<path class="st0" d="M28.1,24C28.2,23.9,28.2,23.9,28.1,24L28.1,24z"/>
	<path class="st0" d="M22.1,25.3c-0.1,0-0.2-0.1-0.2-0.1C22,25.3,22,25.3,22.1,25.3C22.1,25.3,22.1,25.3,22.1,25.3z"/>
</g>
</svg>
