<?xml version="1.0" encoding="utf-8"?>
<!-- Generator: Adobe Illustrator 27.8.1, SVG Export Plug-In . SVG Version: 6.00 Build 0)  -->
<svg version="1.1" id="Layer_1" xmlns="http://www.w3.org/2000/svg" xmlns:xlink="http://www.w3.org/1999/xlink" x="0px" y="0px"
	 viewBox="0 0 36 36" style="enable-background:new 0 0 36 36;" xml:space="preserve">
<style type="text/css">
	.st0{fill:#777878;}
	.st1{fill:url(#SVGID_1_);}
	.st2{clip-path:url(#SVGID_00000024720176389888085300000008806928333935157672_);}
	.st3{fill:#006897;}
	.st4{clip-path:url(#SVGID_00000116918378915386013110000013496915370592503194_);}
	.st5{fill:#E61F65;}
	.st6{clip-path:url(#SVGID_00000129896239085738931820000009005335615023222436_);}
	.st7{fill:#4BB072;}
	.st8{clip-path:url(#SVGID_00000146484867548958000270000012297004237489774769_);}
</style>
<g>
	<path class="st0" d="M5.2,18.3c1.8-1.8,3.7-3.5,5.7-5.2c-0.4,5.3-0.2,10.5,0.6,15.8c0.2,1.2,1.6,1.8,2.7,1.5
		c1.2-0.3,1.7-1.5,1.5-2.7c-0.9-6.3-0.9-12.8,0.1-19.1C16,6.4,13.8,5.1,12,6.5c-3.5,2.7-6.8,5.6-9.9,8.7C0.2,17.2,3.2,20.3,5.2,18.3
		z"/>
	<path class="st0" d="M29.1,6.5c-1.7-1.1-3.8-1.3-5.6-0.4c-1.8,0.9-3.1,2.8-3.9,4.6c-1.6,3.6-1.8,7.8-0.8,11.6
		c0.5,1.9,1.3,4,2.8,5.3c1.5,1.4,3.5,2.2,5.6,1.9c5.5-0.6,7.4-6.5,7.3-11.4C34.3,14.1,32.8,9,29.1,6.5z M26.2,9.9
		C26,9.8,26.1,9.8,26.2,9.9L26.2,9.9z M26,9.9C26.1,9.9,26.1,9.9,26,9.9L26,9.9z M30,20.8c-0.1,0.4-0.2,0.8-0.3,1.2
		c-0.1,0.2-0.1,0.4-0.2,0.6c0,0-0.2,0.5-0.2,0.6c-0.1,0.3-0.3,0.5-0.4,0.8c-0.1,0.2-0.1,0.2-0.4,0.5c-0.1,0.1-0.2,0.2-0.3,0.3
		c0,0-0.1,0-0.1,0.1c0,0-0.1,0-0.1,0.1c-0.1,0.1-0.2,0.1-0.4,0.2c-0.1,0-0.1,0.1-0.1,0.1c0,0,0,0-0.1,0c-0.2,0.1-0.3,0.1-0.5,0.2
		c0,0-0.1,0-0.1,0c-0.2,0-0.5,0-0.7,0c-0.1,0-0.1,0-0.1,0c-0.2-0.1-0.4-0.1-0.5-0.2c0,0-0.4-0.2-0.7-0.4c-0.9-0.7-1.4-1.9-1.7-3.1
		c-0.7-2.5-0.7-5.3,0-7.8c0.3-1.2,0.7-2.2,1.7-3.2c0.2-0.2,0.5-0.5,0.6-0.6c0,0,0.2-0.1,0.2-0.1c0.1,0,0.2-0.1,0.2-0.1
		c0.1,0,0.1,0,0.2,0c0.1,0,0.1,0,0.2,0c0,0,0,0,0,0c0.1,0,0.2,0.1,0.2,0.1c0,0,0,0,0,0c0.1,0.1,0.2,0.1,0.3,0.2c0.1,0,0.1,0,0.1,0.1
		c0,0,0.1,0.1,0.1,0.1c0.3,0.3,0.5,0.5,0.8,0.8c-0.1-0.1-0.2-0.3,0.1,0.1c0.1,0.2,0.3,0.4,0.4,0.6c0.2,0.4,0.4,0.7,0.6,1.1
		c0.8,1.7,1.3,3.5,1.3,5.4C30.2,19.1,30.2,20,30,20.8z"/>
</g>
</svg>
