<?xml version="1.0" encoding="utf-8"?>
<!-- Generator: Adobe Illustrator 27.8.1, SVG Export Plug-In . SVG Version: 6.00 Build 0)  -->
<svg version="1.1" id="Layer_1" xmlns="http://www.w3.org/2000/svg" xmlns:xlink="http://www.w3.org/1999/xlink" x="0px" y="0px"
	 viewBox="0 0 36 36" style="enable-background:new 0 0 36 36;" xml:space="preserve">
<style type="text/css">
	.st0{fill:#777878;}
	.st1{fill:url(#SVGID_1_);}
	.st2{clip-path:url(#SVGID_00000180352784283696836120000003208266100770429577_);}
	.st3{fill:#006897;}
	.st4{clip-path:url(#SVGID_00000150798739266371338490000002703824767326520247_);}
	.st5{fill:#E61F65;}
	.st6{clip-path:url(#SVGID_00000164494365077223908190000002389072933347148930_);}
	.st7{fill:#4BB072;}
	.st8{clip-path:url(#SVGID_00000024707299996149619340000014917185998377943948_);}
</style>
<path class="st0" d="M12.5,10.9c2.5,0.1,4.9,0.1,7.4,0.2c-0.9,2.1-1.8,4.3-2.7,6.4c-1.3,0-2.7,0.1-4,0.2c-1.1,0.1-2.2,0.9-2.2,2.2
	c0,1.1,1,2.3,2.2,2.2c0.7-0.1,1.4-0.1,2.1-0.1c-0.6,1.5-1.3,2.9-1.9,4.4c-0.5,1.1-0.3,2.3,0.8,3c0.9,0.5,2.5,0.3,3-0.8
	c1-2.2,1.9-4.4,2.9-6.7c1.1,0,2.3,0,3.4,0.1c1.1,0,2.2-1,2.2-2.2c-0.1-1.2-0.9-2.1-2.2-2.2c-0.5,0-1,0-1.5,0
	c1.1-2.6,2.2-5.3,3.3-7.9c0.6-1.4-0.8-2.7-2.1-2.7C19.6,6.7,16,6.6,12.5,6.5C9.7,6.5,9.7,10.8,12.5,10.9z"/>
</svg>
