<?xml version="1.0" encoding="utf-8"?>
<!-- Generator: Adobe Illustrator 27.8.1, SVG Export Plug-In . SVG Version: 6.00 Build 0)  -->
<svg version="1.1" id="Layer_1" xmlns="http://www.w3.org/2000/svg" xmlns:xlink="http://www.w3.org/1999/xlink" x="0px" y="0px"
	 viewBox="0 0 36 36" style="enable-background:new 0 0 36 36;" xml:space="preserve">
<style type="text/css">
	.st0{fill:#777878;}
	.st1{fill:url(#SVGID_1_);}
	.st2{clip-path:url(#SVGID_00000048470943949108563140000006691920497511433876_);}
	.st3{fill:#006897;}
	.st4{clip-path:url(#SVGID_00000104672558771073139520000017141902699500075946_);}
	.st5{fill:#E61F65;}
	.st6{clip-path:url(#SVGID_00000055684904729272541130000009571671148320871841_);}
	.st7{fill:#4BB072;}
	.st8{clip-path:url(#SVGID_00000147905548976140615910000016480109105615663765_);}
</style>
<g>
	<path class="st0" d="M14.7,18.7c0.1-1.9,0.3-3.8,0.5-5.6c0.1-1.2-1.1-2.2-2.2-2.2c-1.2,0-2.1,1-2.2,2.2c-0.2,1.9-0.3,3.7-0.5,5.6
		c-1.7,0-3.4,0-5,0c0.9-3.4,1.9-6.7,3-10c0.4-1.1-0.4-2.4-1.5-2.7C5.6,5.7,4.6,6.3,4.2,7.5c-1.4,4.2-2.7,8.5-3.7,12.8
		c-0.3,1.1,0.3,2.4,1.5,2.7c0.3,0.1,0.6,0.1,0.9,0c0.1,0,0.2,0,0.3,0c2.3,0,4.6,0,6.9,0c-0.1,1.7-0.1,3.3-0.1,5c0,1.2,1,2.2,2.2,2.2
		c1.2,0,2.2-1,2.2-2.2c0-1.7,0-3.3,0.1-5c0,0,0,0,0,0c1.1,0,2.2-1,2.2-2.2C16.6,19.7,15.8,18.8,14.7,18.7z"/>
	<path class="st0" d="M30.2,7c-1.7-1.1-3.8-1.3-5.6-0.4c-1.8,0.9-3.1,2.8-3.9,4.6c-1.6,3.6-1.8,7.8-0.8,11.6c0.5,1.9,1.3,4,2.8,5.3
		c1.5,1.4,3.5,2.2,5.6,1.9c5.5-0.6,7.4-6.5,7.3-11.4C35.4,14.5,33.9,9.4,30.2,7z M27.3,10.3C27.1,10.3,27.2,10.2,27.3,10.3
		L27.3,10.3z M27.1,10.3C27.2,10.3,27.2,10.3,27.1,10.3L27.1,10.3z M31.1,21.2c-0.1,0.4-0.2,0.8-0.3,1.2c-0.1,0.2-0.1,0.4-0.2,0.6
		c0,0-0.2,0.5-0.2,0.6c-0.1,0.3-0.3,0.5-0.4,0.8c-0.1,0.2-0.1,0.2-0.4,0.5c-0.1,0.1-0.2,0.2-0.3,0.3c0,0-0.1,0-0.1,0.1
		c0,0-0.1,0-0.1,0.1c-0.1,0.1-0.2,0.1-0.4,0.2c-0.1,0-0.1,0.1-0.1,0.1c0,0,0,0-0.1,0c-0.2,0.1-0.3,0.1-0.5,0.2c0,0-0.1,0-0.1,0
		c-0.2,0-0.5,0-0.7,0c-0.1,0-0.1,0-0.1,0c-0.2-0.1-0.4-0.1-0.5-0.2c0,0-0.4-0.2-0.7-0.4c-0.9-0.7-1.4-1.9-1.7-3.1
		c-0.7-2.5-0.7-5.3,0-7.8c0.3-1.2,0.7-2.2,1.7-3.2c0.2-0.2,0.5-0.5,0.6-0.6c0,0,0.2-0.1,0.2-0.1c0.1,0,0.2-0.1,0.2-0.1
		c0.1,0,0.1,0,0.2,0c0.1,0,0.1,0,0.2,0c0,0,0,0,0,0c0.1,0,0.2,0.1,0.2,0.1c0,0,0,0,0,0c0.1,0.1,0.2,0.1,0.3,0.2c0.1,0,0.1,0,0.1,0.1
		c0,0,0.1,0.1,0.1,0.1c0.3,0.3,0.5,0.5,0.8,0.8c-0.1-0.1-0.2-0.3,0.1,0.1c0.1,0.2,0.3,0.4,0.4,0.6c0.2,0.4,0.4,0.7,0.6,1.1
		c0.8,1.7,1.3,3.5,1.3,5.4C31.3,19.6,31.3,20.4,31.1,21.2z"/>
</g>
</svg>
