<?xml version="1.0" encoding="utf-8"?>
<!-- Generator: Adobe Illustrator 27.8.1, SVG Export Plug-In . SVG Version: 6.00 Build 0)  -->
<svg version="1.1" id="Layer_1" xmlns="http://www.w3.org/2000/svg" xmlns:xlink="http://www.w3.org/1999/xlink" x="0px" y="0px"
	 viewBox="0 0 36 36" style="enable-background:new 0 0 36 36;" xml:space="preserve">
<style type="text/css">
	.st0{fill:#777878;}
	.st1{fill:url(#SVGID_1_);}
	.st2{clip-path:url(#SVGID_00000112590179367731573280000009022298735596380862_);}
	.st3{fill:#006897;}
	.st4{clip-path:url(#SVGID_00000038405496723850685140000013777425906600724128_);}
	.st5{fill:#E61F65;}
	.st6{clip-path:url(#SVGID_00000148648902924327951170000016265691333504558480_);}
	.st7{fill:#4BB072;}
	.st8{clip-path:url(#SVGID_00000134208200955846876360000012859892271670523798_);}
</style>
<path class="st0" d="M24.1,28.4c3.1-3.2,2.4-8.1-1.1-10.8c-1.8-1.4-4.2-1.9-6.5-1.7c-0.5,0.1-1,0.1-1.5,0.2c1.1-2.8,3.4-5,5.9-6.6
	c2.3-1.5,0.2-5.3-2.2-3.7c-3.6,2.4-6.7,5.6-8.1,9.7c-1.4,4.1-0.8,8.9,2.1,12.2C15.7,30.9,21,31.6,24.1,28.4z M16.7,20.3
	c1.2-0.2,2.5,0,3.5,0.7c1.6,1,2.1,3.2,0.6,4.6c-1.7,1.5-4.3,0.3-5.4-1.4c-0.6-0.9-1-2-1.1-3c0.1,0,0.1-0.1,0.1-0.1
	c0.1,0,0.2-0.1,0.3-0.1c-0.1,0.1,0.4-0.1,0.6-0.2C15.8,20.5,16.3,20.4,16.7,20.3z"/>
</svg>
