<?xml version="1.0" encoding="utf-8"?>
<!-- Generator: Adobe Illustrator 27.8.1, SVG Export Plug-In . SVG Version: 6.00 Build 0)  -->
<svg version="1.1" id="Layer_1" xmlns="http://www.w3.org/2000/svg" xmlns:xlink="http://www.w3.org/1999/xlink" x="0px" y="0px"
	 viewBox="0 0 36 36" style="enable-background:new 0 0 36 36;" xml:space="preserve">
<style type="text/css">
	.st0{fill:#777878;}
	.st1{fill:url(#SVGID_1_);}
	.st2{clip-path:url(#SVGID_00000131356445584136435960000012077573301802419080_);}
	.st3{fill:#006897;}
	.st4{clip-path:url(#SVGID_00000039105023817920649780000012616475825110500009_);}
	.st5{fill:#E61F65;}
	.st6{clip-path:url(#SVGID_00000063613789636733280560000009177603097722020488_);}
	.st7{fill:#4BB072;}
	.st8{clip-path:url(#SVGID_00000029004260599115590180000003379927534280634764_);}
</style>
<g>
	<path class="st0" d="M14.7,15c0.3-0.5,0.5-1.1,0.7-1.7c0.5-2.4-0.2-4.7-2.3-6.1C11.3,6,8.9,6,7,7c-2,1.1-3.7,3.5-2.9,5.8
		c0.4,1.1,1.5,1.8,2.7,1.5c1.1-0.3,1.9-1.6,1.5-2.7c0,0,0-0.1,0-0.1c0-0.1,0.1-0.1,0.2-0.3c0.3-0.3,0.7-0.6,0.9-0.7
		c0.7-0.2,1.2-0.1,1.6,0.3c0,0,0.2,0.3,0.2,0.4c0,0,0,0.2,0,0.3c0,0.4-0.1,0.8-0.2,1.1c-0.5,1.1-1.5,1.9-2.4,2.7
		c-0.7,0.6-0.8,1.8-0.3,2.6c0.4,0.8,1.6,1.3,2.4,1c1.5-0.6,3-0.3,3.7,1.2c0,0,0.2,0.7,0.2,0.7c0,0.2,0,0.5,0,0.7c0,0.1,0,0.2,0,0.3
		c0,0,0,0.2-0.1,0.2c-0.1,0.5-0.2,0.6-0.4,1.1c-0.1,0.2-0.2,0.4-0.3,0.5c0,0.1-0.1,0.1-0.1,0.2c0,0,0,0-0.1,0.1
		c-0.1,0.1-0.3,0.3-0.4,0.4c-0.1,0.1-0.2,0.2-0.2,0.2c-0.3,0.2-0.5,0.3-0.8,0.5c-0.1,0-0.1,0.1-0.2,0.1c-0.2,0-0.3,0.1-0.5,0.1
		c-0.2,0-0.3,0.1-0.5,0.1c0.4-0.1,0.1,0-0.1,0c-0.3,0-0.6,0-0.9,0c0,0-0.1,0-0.1,0c-0.1,0-0.3-0.1-0.4-0.1c-0.3-0.1-0.6-0.2-1-0.3
		c-0.1,0-0.3-0.1-0.4-0.1c-0.1,0-0.1-0.1-0.2-0.1c-0.5-0.3-1-0.5-1.5-0.8c0,0,0,0,0,0c-0.1-0.1-0.2-0.1-0.2-0.2c0,0-0.1-0.1-0.1-0.1
		c-1.5-2.2-5.1-0.1-3.7,2.3c0.7,1.2,2.1,2.1,3.3,2.6c1.8,0.8,3.7,1.3,5.6,1.2c2.3-0.2,4.4-1.2,5.8-3.1c1.9-2.4,2.5-5.5,1.2-8.3
		C17.6,16.8,16.3,15.6,14.7,15z M7.8,24.8C7.8,24.8,7.7,24.7,7.8,24.8L7.8,24.8z"/>
	<path class="st0" d="M24.8,14.1c0-0.5,0-1-0.1-1.5c0-0.6,0-1.3-0.1-1.9c0.1,0,0.1,0,0.2,0c0.8,0,1.6,0.1,2.3,0.1
		c1.5,0.1,3,0.2,4.5,0.3c1.2,0.1,2.2-1.1,2.2-2.2c0-1.3-1-2.1-2.2-2.2c-1.6-0.1-3.2-0.3-4.9-0.4c-1.6-0.1-3.4-0.5-4.9-0.2
		c-0.7,0.1-1.3,0.8-1.5,1.5c-0.4,1.4-0.1,3.1,0,4.5c0,1.3,0.1,2.6,0.1,3.9c0,1.1,1,2.2,2.2,2.2c1,0,2,0,3.1,0.1c0.1,0,0.3,0,0.4,0
		c0,0,0.1,0,0.1,0c0,0,0,0,0,0c0.3,0,0.6,0.1,0.9,0.2c0.2,0.1,0.5,0.1,0.7,0.2c0.1,0,0.3,0.1,0.4,0.1c0,0,0.3,0.1,0.3,0.1
		c0.1,0.1,0.3,0.2,0.4,0.2c0,0,0.1,0.1,0.1,0.1c0,0,0,0,0,0c0,0,0,0,0,0.1c0,0,0,0,0,0c0,0,0,0,0,0c0,0,0,0,0,0
		c0.1,0.3,0.2,0.6,0.3,0.9c0.1,0.2,0.1,0.4,0.1,0.6c0-0.1,0,0.3,0.1,0.5c0,0.2,0,0.4,0,0.6c0,0,0,0,0,0c0,0.1,0,0.1,0,0.2
		c0,0.2-0.1,0.3-0.1,0.5c0,0.1-0.1,0.1-0.1,0.2c-0.1,0.1-0.1,0.2-0.2,0.3c-0.1,0.1-0.1,0.1-0.2,0.2c-0.1,0.1-0.3,0.2-0.4,0.4
		c0.1-0.1,0.1-0.1,0.1-0.1c0,0-0.1,0.1-0.2,0.2c-0.3,0.2-0.6,0.3-0.9,0.5c0,0,0,0,0,0c0,0-0.1,0-0.1,0c-0.2,0.1-0.3,0.1-0.5,0.2
		c-0.4,0.1-0.7,0.2-1.1,0.3c-0.2,0-0.4,0.1-0.5,0.1c0,0,0,0,0,0c0,0,0,0,0,0c-0.4,0-0.7,0.1-1.1,0.1c-0.3,0-0.7,0-1,0
		c-0.1,0-0.3,0-0.4,0c0,0,0,0,0,0c0,0,0,0-0.1,0c0,0,0,0,0,0c-0.3,0-0.3,0-0.2,0c0,0-0.1,0-0.1,0c-0.5-0.3-1.2-0.5-1.8-0.3
		c-1.2,0.3-1.7,1.5-1.5,2.7c0.3,1.8,2.8,2,4.2,2.1c1.8,0.1,3.8-0.2,5.5-0.9c2.2-0.8,4-2.3,4.9-4.5c0.9-2.4,0.4-6-1.5-7.8
		C30.3,14.7,27.4,14.2,24.8,14.1z M29.7,22.3C29.6,22.4,29.6,22.6,29.7,22.3L29.7,22.3z"/>
	<path class="st0" d="M22.7,25.2c-0.1,0-0.2-0.1-0.2-0.1C22.6,25.2,22.6,25.2,22.7,25.2C22.7,25.2,22.7,25.2,22.7,25.2z"/>
</g>
</svg>
