<?xml version="1.0" encoding="utf-8"?>
<!-- Generator: Adobe Illustrator 27.8.1, SVG Export Plug-In . SVG Version: 6.00 Build 0)  -->
<svg version="1.1" id="Layer_1" xmlns="http://www.w3.org/2000/svg" xmlns:xlink="http://www.w3.org/1999/xlink" x="0px" y="0px"
	 viewBox="0 0 36 36" style="enable-background:new 0 0 36 36;" xml:space="preserve">
<style type="text/css">
	.st0{fill:#777878;}
	.st1{fill:url(#SVGID_1_);}
	.st2{clip-path:url(#SVGID_00000001637398506171620370000013898671157329399989_);}
	.st3{fill:#006897;}
	.st4{clip-path:url(#SVGID_00000112592169601255173690000015284887870499646626_);}
	.st5{fill:#E61F65;}
	.st6{clip-path:url(#SVGID_00000120557505864249816920000001873474012356623003_);}
	.st7{fill:#4BB072;}
	.st8{clip-path:url(#SVGID_00000004520827554856463050000007370746807205158800_);}
</style>
<g>
	<path class="st0" d="M32.6,25.2c-2.4,0-4.9,0.1-7.3,0.1c1.2-1.3,2.3-2.5,3.4-3.9c1.8-2.2,3.4-4.7,3.7-7.5c0.3-3.3-2.1-6.5-5.2-7.4
		c-1.8-0.6-3.8,0-5.3,1.2c-1.5,1.2-2.3,2.8-3,4.5c-0.4,1.1,0.5,2.4,1.5,2.7c1.2,0.3,2.2-0.4,2.7-1.5c0.4-1,1-2.2,2-2.6
		c1-0.4,2.1,0.5,2.7,1.4c1.3,1.8-0.9,4.8-2,6.2c0.2-0.2-0.3,0.4-0.4,0.5c-0.2,0.2-0.3,0.4-0.5,0.6c-0.4,0.5-0.9,1-1.3,1.5
		c-0.8,0.8-1.5,1.7-2.3,2.5c-0.9,0.9-1.8,1.9-2.8,2.8c-0.2,0.2-0.3,0.4-0.4,0.6c-0.2-0.8-0.9-1.4-2-1.4c-2.4,0-4.9,0.1-7.3,0.1
		c1.2-1.3,2.3-2.5,3.4-3.9c1.8-2.2,3.4-4.7,3.7-7.5c0.3-3.3-2.1-6.5-5.2-7.4c-1.8-0.6-3.8,0-5.3,1.2c-1.5,1.2-2.3,2.8-3,4.5
		c-0.4,1.1,0.5,2.4,1.5,2.7C5,15.2,6,14.4,6.4,13.3c0.4-1,1-2.2,2-2.6c1-0.4,2.1,0.5,2.7,1.4c1.3,1.8-0.9,4.8-2,6.2
		c0.2-0.2-0.3,0.4-0.4,0.5c-0.2,0.2-0.3,0.4-0.5,0.6c-0.4,0.5-0.9,1-1.3,1.5c-0.8,0.8-1.5,1.7-2.3,2.5c-0.9,0.9-1.8,1.9-2.8,2.8
		c-1.4,1.3-0.3,3.7,1.5,3.7c4.2-0.1,8.4-0.1,12.6-0.2c1,0,1.6-0.6,1.9-1.3c0.3,0.8,1,1.5,2,1.5c4.2-0.1,8.4-0.1,12.6-0.2
		C35.4,29.5,35.4,25.2,32.6,25.2z"/>
</g>
</svg>
