<?xml version="1.0" encoding="utf-8"?>
<!-- Generator: Adobe Illustrator 27.8.1, SVG Export Plug-In . SVG Version: 6.00 Build 0)  -->
<svg version="1.1" id="Layer_1" xmlns="http://www.w3.org/2000/svg" xmlns:xlink="http://www.w3.org/1999/xlink" x="0px" y="0px"
	 viewBox="0 0 36 36" style="enable-background:new 0 0 36 36;" xml:space="preserve">
<style type="text/css">
	.st0{fill:#777878;}
	.st1{fill:url(#SVGID_1_);}
	.st2{clip-path:url(#SVGID_00000030483239765023831290000011869882435835470780_);}
	.st3{fill:#006897;}
	.st4{clip-path:url(#SVGID_00000108310057743320495200000013160759610501485727_);}
	.st5{fill:#E61F65;}
	.st6{clip-path:url(#SVGID_00000123415629770054938110000003735157039001414794_);}
	.st7{fill:#4BB072;}
	.st8{clip-path:url(#SVGID_00000054985262148284863660000007031759814444123293_);}
</style>
<g>
	<path class="st0" d="M11.9,28.7c0.2,1.2,1.6,1.8,2.7,1.5c1.2-0.3,1.7-1.5,1.5-2.7c-0.9-6.3-0.9-12.8,0.1-19.1
		c0.3-2.2-1.9-3.5-3.6-2.1C9,9,5.7,11.9,2.6,15c-2,2,1.1,5,3.1,3.1c1.8-1.8,3.7-3.5,5.7-5.2C11,18.1,11.1,23.4,11.9,28.7z"/>
	<path class="st0" d="M28.7,24.5C28.8,24.4,28.8,24.4,28.7,24.5L28.7,24.5z"/>
	<path class="st0" d="M23.3,30.2c1.8,0.1,3.8-0.2,5.5-0.9c2.2-0.8,4-2.3,4.9-4.5c0.9-2.4,0.4-6-1.5-7.8c-1.8-1.7-4.7-2.2-7.3-2.3
		c0-0.5,0-1-0.1-1.5c0-0.6,0-1.3-0.1-1.9c0.1,0,0.1,0,0.2,0c0.8,0,1.6,0.1,2.3,0.1c1.5,0.1,3,0.2,4.5,0.3c1.2,0.1,2.2-1.1,2.2-2.2
		c0-1.3-1-2.1-2.2-2.2c-1.6-0.1-3.2-0.3-4.9-0.4C25.3,7,23.5,6.7,22,7c-0.7,0.1-1.3,0.8-1.5,1.5c-0.4,1.4-0.1,3.1,0,4.5
		c0,1.3,0.1,2.6,0.1,3.9c0,1.1,1,2.2,2.2,2.2c1,0,2,0,3.1,0.1c0.1,0,0.3,0,0.4,0c0,0,0.1,0,0.1,0c0,0,0,0,0,0c0.3,0,0.6,0.1,0.9,0.2
		c0.2,0.1,0.5,0.1,0.7,0.2c0.1,0,0.3,0.1,0.4,0.1c0,0,0.3,0.1,0.3,0.1c0.1,0.1,0.3,0.2,0.4,0.2c0,0,0.1,0.1,0.1,0.1c0,0,0,0,0,0
		c0,0,0,0,0,0.1c0,0,0,0,0,0c0,0,0,0,0,0c0,0,0,0,0,0c0.1,0.3,0.2,0.6,0.3,0.9c0.1,0.2,0.1,0.4,0.1,0.6c0-0.1,0,0.3,0.1,0.5
		c0,0.2,0,0.4,0,0.6c0,0,0,0,0,0c0,0.1,0,0.1,0,0.2c0,0.2-0.1,0.3-0.1,0.5c0,0.1-0.1,0.1-0.1,0.2c-0.1,0.1-0.1,0.2-0.2,0.3
		c-0.1,0.1-0.1,0.1-0.2,0.2c-0.1,0.1-0.3,0.2-0.4,0.4c0.1-0.1,0.1-0.1,0.1-0.1c0,0-0.1,0.1-0.2,0.2c-0.3,0.2-0.6,0.3-0.9,0.5
		c0,0,0,0,0,0c0,0-0.1,0-0.1,0c-0.2,0.1-0.3,0.1-0.5,0.2c-0.4,0.1-0.7,0.2-1.1,0.3c-0.2,0-0.4,0.1-0.5,0.1c0,0,0,0,0,0c0,0,0,0,0,0
		c-0.4,0-0.7,0.1-1.1,0.1c-0.3,0-0.7,0-1,0c-0.1,0-0.3,0-0.4,0c0,0,0,0,0,0c0,0,0,0-0.1,0c0,0,0,0,0,0c-0.3,0-0.3,0-0.2,0
		c0,0-0.1,0-0.1,0c-0.5-0.3-1.2-0.5-1.8-0.3c-1.2,0.3-1.7,1.5-1.5,2.7C19.3,29.9,21.9,30.1,23.3,30.2z M29.7,22.8
		C29.7,23,29.6,23.2,29.7,22.8L29.7,22.8z"/>
	<path class="st0" d="M29.2,20.2C29.2,20.2,29.2,20.4,29.2,20.2C29.2,20.2,29.2,20.2,29.2,20.2C29.2,20.2,29.2,20.2,29.2,20.2z"/>
	<path class="st0" d="M22.7,25.8c-0.1,0-0.2-0.1-0.2-0.1C22.6,25.8,22.6,25.8,22.7,25.8C22.7,25.8,22.7,25.8,22.7,25.8z"/>
</g>
</svg>
