<?xml version="1.0" encoding="utf-8"?>
<!-- Generator: Adobe Illustrator 27.8.1, SVG Export Plug-In . SVG Version: 6.00 Build 0)  -->
<svg version="1.1" id="Layer_1" xmlns="http://www.w3.org/2000/svg" xmlns:xlink="http://www.w3.org/1999/xlink" x="0px" y="0px"
	 viewBox="0 0 36 36" style="enable-background:new 0 0 36 36;" xml:space="preserve">
<style type="text/css">
	.st0{fill:#777878;}
	.st1{fill:url(#SVGID_1_);}
	.st2{clip-path:url(#SVGID_00000148657877322703859770000014641439768252698812_);}
	.st3{fill:#006897;}
	.st4{clip-path:url(#SVGID_00000070108397651256806190000008684943153422238395_);}
	.st5{fill:#E61F65;}
	.st6{clip-path:url(#SVGID_00000055695942360443266880000003702765885602543008_);}
	.st7{fill:#4BB072;}
	.st8{clip-path:url(#SVGID_00000086692161295258155740000008852909456526625967_);}
</style>
<g>
	<path class="st0" d="M13.8,15.4c0.3-0.5,0.5-1.1,0.7-1.7c0.5-2.4-0.2-4.7-2.3-6.1C10.4,6.4,8,6.5,6.1,7.5c-2,1.1-3.7,3.5-2.9,5.8
		c0.4,1.1,1.5,1.8,2.7,1.5c1.1-0.3,1.9-1.6,1.5-2.7c0,0,0-0.1,0-0.1c0-0.1,0.1-0.1,0.2-0.3c0.3-0.3,0.7-0.6,0.9-0.7
		c0.7-0.2,1.2-0.1,1.6,0.3c0,0,0.2,0.3,0.2,0.4c0,0,0,0.2,0,0.3c0,0.4-0.1,0.8-0.2,1.1c-0.5,1.1-1.5,1.9-2.4,2.7
		c-0.7,0.6-0.8,1.8-0.3,2.6c0.4,0.8,1.6,1.3,2.4,1c1.5-0.6,3-0.3,3.7,1.2c0,0,0.2,0.7,0.2,0.7c0,0.2,0,0.5,0,0.7c0,0.1,0,0.2,0,0.3
		c0,0,0,0.2-0.1,0.2c-0.1,0.5-0.2,0.6-0.4,1.1c-0.1,0.2-0.2,0.4-0.3,0.5c0,0.1-0.1,0.1-0.1,0.2c0,0,0,0-0.1,0.1
		c-0.1,0.1-0.3,0.3-0.4,0.4c-0.1,0.1-0.2,0.2-0.2,0.2c-0.3,0.2-0.5,0.3-0.8,0.5c-0.1,0-0.1,0.1-0.2,0.1c-0.2,0-0.3,0.1-0.5,0.1
		c-0.2,0-0.3,0.1-0.5,0.1c0.4-0.1,0.1,0-0.1,0c-0.3,0-0.6,0-0.9,0c0,0-0.1,0-0.1,0c-0.1,0-0.3-0.1-0.4-0.1c-0.3-0.1-0.6-0.2-1-0.3
		c-0.1,0-0.3-0.1-0.4-0.1c-0.1,0-0.1-0.1-0.2-0.1c-0.5-0.3-1-0.5-1.5-0.8c0,0,0,0,0,0c-0.1-0.1-0.2-0.1-0.2-0.2c0,0-0.1-0.1-0.1-0.1
		C3.7,21.8,0,24,1.4,26.3c0.7,1.2,2.1,2.1,3.3,2.6c1.8,0.8,3.7,1.3,5.6,1.2c2.3-0.2,4.4-1.2,5.8-3.1c1.9-2.4,2.5-5.5,1.2-8.3
		C16.7,17.2,15.4,16.1,13.8,15.4z M7,25.3C6.9,25.2,6.8,25.2,7,25.3L7,25.3z"/>
	<path class="st0" d="M32.9,18.6c0.1-1.9,0.3-3.8,0.5-5.6c0.1-1.2-1.1-2.2-2.2-2.2c-1.2,0-2.1,1-2.2,2.2c-0.2,1.9-0.3,3.7-0.5,5.6
		c-1.7,0-3.4,0-5,0c0.9-3.4,1.9-6.7,3-10c0.4-1.1-0.4-2.4-1.5-2.7c-1.2-0.3-2.3,0.4-2.7,1.5c-1.4,4.2-2.7,8.5-3.7,12.8
		c-0.3,1.1,0.3,2.4,1.5,2.7c0.3,0.1,0.6,0.1,0.9,0c0.1,0,0.2,0,0.3,0c2.3,0,4.6,0,6.9,0c-0.1,1.7-0.1,3.3-0.1,5c0,1.2,1,2.2,2.2,2.2
		c1.2,0,2.2-1,2.2-2.2c0-1.7,0-3.3,0.1-5c0,0,0,0,0,0c1.1,0,2.2-1,2.2-2.2C34.8,19.6,34,18.7,32.9,18.6z"/>
</g>
</svg>
