<?xml version="1.0" encoding="utf-8"?>
<!-- Generator: Adobe Illustrator 27.8.1, SVG Export Plug-In . SVG Version: 6.00 Build 0)  -->
<svg version="1.1" id="Layer_1" xmlns="http://www.w3.org/2000/svg" xmlns:xlink="http://www.w3.org/1999/xlink" x="0px" y="0px"
	 viewBox="0 0 36 36" style="enable-background:new 0 0 36 36;" xml:space="preserve">
<style type="text/css">
	.st0{fill:#777878;}
	.st1{fill:url(#SVGID_1_);}
	.st2{clip-path:url(#SVGID_00000078019706188986176350000008581559164469729711_);}
	.st3{fill:#006897;}
	.st4{clip-path:url(#SVGID_00000058565500336590929040000005644536849926983047_);}
	.st5{fill:#E61F65;}
	.st6{clip-path:url(#SVGID_00000037664018672027785530000014830161362124870552_);}
	.st7{fill:#4BB072;}
	.st8{clip-path:url(#SVGID_00000019679765279882795170000000764604982059895992_);}
</style>
<path class="st0" d="M29.9,15c0.3-0.5,0.5-1.1,0.7-1.7c0.5-2.4-0.2-4.7-2.3-6.1C26.4,6,24,6,22.1,7c-2,1.1-3.7,3.5-2.9,5.8
	c0.4,1.1,1.5,1.8,2.7,1.5c1.1-0.3,1.9-1.6,1.5-2.7c0,0,0-0.1,0-0.1c0-0.1,0.1-0.1,0.2-0.3c0.3-0.3,0.7-0.6,0.9-0.7
	c0.7-0.2,1.2-0.1,1.6,0.3c0,0,0.2,0.3,0.2,0.4c0,0,0,0.2,0,0.3c0,0.4-0.1,0.8-0.2,1.1c-0.5,1.1-1.5,1.9-2.4,2.7
	c-0.7,0.6-0.8,1.8-0.3,2.6c0.4,0.8,1.6,1.3,2.4,1c1.5-0.6,3-0.3,3.7,1.2c0,0,0.2,0.7,0.2,0.7c0,0.2,0,0.5,0,0.7c0,0.1,0,0.2,0,0.3
	c0,0,0,0.2-0.1,0.2c-0.1,0.5-0.2,0.6-0.4,1.1c-0.1,0.2-0.2,0.4-0.3,0.5c0,0.1-0.1,0.1-0.1,0.2c0,0,0,0-0.1,0.1
	c-0.1,0.1-0.3,0.3-0.4,0.4c-0.1,0.1-0.2,0.2-0.2,0.2c-0.3,0.2-0.5,0.3-0.8,0.5c-0.1,0-0.1,0.1-0.2,0.1c-0.2,0-0.3,0.1-0.5,0.1
	c-0.2,0-0.3,0.1-0.5,0.1c0.4-0.1,0.1,0-0.1,0c-0.3,0-0.6,0-0.9,0c0,0-0.1,0-0.1,0c-0.1,0-0.3-0.1-0.4-0.1c-0.3-0.1-0.6-0.2-1-0.3
	c-0.1,0-0.3-0.1-0.4-0.1c-0.1,0-0.1-0.1-0.2-0.1c-0.5-0.3-1-0.5-1.5-0.8c0,0,0,0,0,0c-0.1-0.1-0.2-0.1-0.2-0.2c0,0-0.1-0.1-0.1-0.1
	c-1.3-2-4.5-0.4-3.9,1.6c-0.2,0-0.4-0.1-0.6-0.1c-2.4,0-4.9,0.1-7.3,0.1c1.2-1.3,2.3-2.5,3.4-3.9c1.8-2.2,3.4-4.7,3.7-7.5
	c0.3-3.3-2.1-6.5-5.2-7.4c-1.8-0.6-3.8,0-5.3,1.2c-1.5,1.2-2.3,2.8-3,4.5c-0.4,1.1,0.5,2.4,1.5,2.7c1.2,0.3,2.2-0.4,2.7-1.5
	c0.4-1,1-2.2,2-2.6c1-0.4,2.1,0.5,2.7,1.4c1.3,1.8-0.9,4.8-2,6.2c0.2-0.2-0.3,0.4-0.4,0.5c-0.2,0.2-0.3,0.4-0.5,0.6
	c-0.4,0.5-0.9,1-1.3,1.5c-0.8,0.8-1.5,1.7-2.3,2.5c-0.9,0.9-1.8,1.9-2.8,2.8c-1.4,1.3-0.3,3.7,1.5,3.7c4.2-0.1,8.4-0.1,12.6-0.2
	c1.4,0,2.1-1.2,2.1-2.3c0.6,0.5,1.4,1,2.1,1.3c1.8,0.8,3.7,1.3,5.6,1.2c2.3-0.2,4.4-1.2,5.8-3.1c1.9-2.4,2.5-5.5,1.2-8.3
	C32.8,16.8,31.4,15.6,29.9,15z M23,24.8C22.9,24.8,22.9,24.7,23,24.8L23,24.8z M28.9,24C28.9,23.9,28.9,23.9,28.9,24L28.9,24z"/>
</svg>
