<?xml version="1.0" encoding="utf-8"?>
<!-- Generator: Adobe Illustrator 27.8.1, SVG Export Plug-In . SVG Version: 6.00 Build 0)  -->
<svg version="1.1" id="Layer_1" xmlns="http://www.w3.org/2000/svg" xmlns:xlink="http://www.w3.org/1999/xlink" x="0px" y="0px"
	 viewBox="0 0 36 36" style="enable-background:new 0 0 36 36;" xml:space="preserve">
<style type="text/css">
	.st0{fill:#777878;}
	.st1{fill:url(#SVGID_1_);}
	.st2{clip-path:url(#SVGID_00000088829815471222806360000015835413759637741714_);}
	.st3{fill:#006897;}
	.st4{clip-path:url(#SVGID_00000152237314167526766180000005775212121079200923_);}
	.st5{fill:#E61F65;}
	.st6{clip-path:url(#SVGID_00000121965735863086674590000010377565708454163329_);}
	.st7{fill:#4BB072;}
	.st8{clip-path:url(#SVGID_00000111169714113347211040000008140138099759793568_);}
</style>
<g>
	<path class="st0" d="M9.4,18.7c-0.2,0.2-0.3,0.4-0.5,0.6c-0.4,0.5-0.9,1-1.3,1.5c-0.8,0.8-1.5,1.7-2.3,2.5
		c-0.9,0.9-1.8,1.9-2.8,2.8c-1.4,1.3-0.3,3.7,1.5,3.7c4.2-0.1,8.4-0.1,12.6-0.2c2.8,0,2.8-4.4,0-4.3c-2.4,0-4.9,0.1-7.3,0.1
		c1.2-1.3,2.3-2.5,3.4-3.9c1.8-2.2,3.4-4.7,3.7-7.5c0.3-3.3-2.1-6.5-5.2-7.4c-1.8-0.6-3.8,0-5.3,1.2c-1.5,1.2-2.3,2.8-3,4.5
		c-0.4,1.1,0.5,2.4,1.5,2.7c1.2,0.3,2.2-0.4,2.7-1.5c0.4-1,1-2.2,2-2.6c1-0.4,2.1,0.5,2.7,1.4c1.3,1.8-0.9,4.8-2,6.2
		C10,18.1,9.5,18.7,9.4,18.7z"/>
	<path class="st0" d="M32.1,18.7c0.1-1.9,0.3-3.8,0.5-5.6c0.1-1.2-1.1-2.2-2.2-2.2c-1.2,0-2.1,1-2.2,2.2c-0.2,1.9-0.3,3.7-0.5,5.6
		c-1.7,0-3.4,0-5,0c0.9-3.4,1.9-6.7,3-10c0.4-1.1-0.4-2.4-1.5-2.7c-1.2-0.3-2.3,0.4-2.7,1.5c-1.4,4.2-2.7,8.5-3.7,12.8
		c-0.3,1.1,0.3,2.4,1.5,2.7c0.3,0.1,0.6,0.1,0.9,0c0.1,0,0.2,0,0.3,0c2.3,0,4.6,0,6.9,0c-0.1,1.7-0.1,3.3-0.1,5c0,1.2,1,2.2,2.2,2.2
		c1.2,0,2.2-1,2.2-2.2c0-1.7,0-3.3,0.1-5c0,0,0,0,0,0c1.1,0,2.2-1,2.2-2.2C34,19.7,33.2,18.8,32.1,18.7z"/>
</g>
</svg>
