<?xml version="1.0" encoding="utf-8"?>
<!-- Generator: Adobe Illustrator 27.8.1, SVG Export Plug-In . SVG Version: 6.00 Build 0)  -->
<svg version="1.1" id="Layer_1" xmlns="http://www.w3.org/2000/svg" xmlns:xlink="http://www.w3.org/1999/xlink" x="0px" y="0px"
	 viewBox="0 0 36 36" style="enable-background:new 0 0 36 36;" xml:space="preserve">
<style type="text/css">
	.st0{fill:#777878;}
	.st1{fill:url(#SVGID_1_);}
	.st2{clip-path:url(#SVGID_00000134970845340257710630000016595147706344478345_);}
	.st3{fill:#006897;}
	.st4{clip-path:url(#SVGID_00000116941695882031450160000001139345030283869083_);}
	.st5{fill:#E61F65;}
	.st6{clip-path:url(#SVGID_00000163053324394897585440000013701943008327112094_);}
	.st7{fill:#4BB072;}
	.st8{clip-path:url(#SVGID_00000054231179857173703710000010341530834903437245_);}
</style>
<g>
	<path class="st0" d="M29.7,6.3C26.3,9,23,11.9,19.8,15c-2,2,1.1,5,3.1,3.1c1.8-1.8,3.7-3.5,5.7-5.2c-0.4,5.3-0.2,10.5,0.6,15.8
		c0.2,1.2,1.6,1.8,2.7,1.5c1.2-0.3,1.7-1.5,1.5-2.7c-0.9-6.3-0.9-12.8,0.1-19.1C33.7,6.2,31.5,5,29.7,6.3z"/>
	<path class="st0" d="M17.4,25.7c-2.4,0-4.9,0.1-7.3,0.1c1.2-1.3,2.3-2.5,3.4-3.9c1.8-2.2,3.4-4.7,3.7-7.5C17.5,11.2,15,8,12,7
		c-1.8-0.6-3.8,0-5.3,1.2c-1.5,1.2-2.3,2.8-3,4.5c-0.4,1.1,0.5,2.4,1.5,2.7c1.2,0.3,2.2-0.4,2.7-1.5c0.4-1,1-2.2,2-2.6
		c1-0.4,2.1,0.5,2.7,1.4c1.3,1.8-0.9,4.8-2,6.2c0.2-0.2-0.3,0.4-0.4,0.5c-0.2,0.2-0.3,0.4-0.5,0.6c-0.4,0.5-0.9,1-1.3,1.5
		C7.6,22.1,6.8,23,6,23.8c-0.9,0.9-1.8,1.9-2.8,2.8c-1.4,1.3-0.3,3.7,1.5,3.7c4.2-0.1,8.4-0.1,12.6-0.2C20.2,30,20.2,25.7,17.4,25.7
		z"/>
</g>
<path class="st0" d="M7.9,35.8C7.9,35.7,7.9,35.7,7.9,35.8L7.9,35.8z"/>
<path class="st0" d="M8.3,31.4C8.3,31.5,8.4,31.7,8.3,31.4C8.3,31.5,8.3,31.5,8.3,31.4C8.3,31.5,8.3,31.5,8.3,31.4z"/>
</svg>
