<?xml version="1.0" encoding="utf-8"?>
<!-- Generator: Adobe Illustrator 27.8.1, SVG Export Plug-In . SVG Version: 6.00 Build 0)  -->
<svg version="1.1" id="Layer_1" xmlns="http://www.w3.org/2000/svg" xmlns:xlink="http://www.w3.org/1999/xlink" x="0px" y="0px"
	 viewBox="0 0 36 36" style="enable-background:new 0 0 36 36;" xml:space="preserve">
<style type="text/css">
	.st0{fill:#777878;}
	.st1{fill:url(#SVGID_1_);}
	.st2{clip-path:url(#SVGID_00000083807498944917089930000004047183562569402790_);}
	.st3{fill:#006897;}
	.st4{clip-path:url(#SVGID_00000043416273086259157930000012504082158002306183_);}
	.st5{fill:#E61F65;}
	.st6{clip-path:url(#SVGID_00000165919361550246432890000009156481432239070900_);}
	.st7{fill:#4BB072;}
	.st8{clip-path:url(#SVGID_00000175325118325239798950000016234225438913072562_);}
</style>
<g>
	<path class="st0" d="M15.5,27.5c-0.9-6.3-0.9-12.8,0.1-19.1c0.3-2.2-1.9-3.5-3.6-2.1C8.5,9,5.2,11.9,2.1,15c-2,2,1.1,5,3.1,3.1
		c1.8-1.8,3.7-3.5,5.7-5.2c-0.4,5.3-0.2,10.5,0.6,15.8c0.2,1.2,1.6,1.8,2.7,1.5C15.2,29.8,15.7,28.7,15.5,27.5z"/>
	<path class="st0" d="M19.8,29.7c4.2-0.1,8.4-0.1,12.6-0.2c2.8,0,2.8-4.4,0-4.3c-2.4,0-4.9,0.1-7.3,0.1c1.2-1.3,2.3-2.5,3.4-3.9
		c1.8-2.2,3.4-4.7,3.7-7.5c0.3-3.3-2.1-6.5-5.2-7.4c-1.8-0.6-3.8,0-5.3,1.2c-1.5,1.2-2.3,2.8-3,4.5c-0.4,1.1,0.5,2.4,1.5,2.7
		c1.2,0.3,2.2-0.4,2.7-1.5c0.4-1,1-2.2,2-2.6c1-0.4,2.1,0.5,2.7,1.4c1.3,1.8-0.9,4.8-2,6.2c0.2-0.2-0.3,0.4-0.4,0.5
		c-0.2,0.2-0.3,0.4-0.5,0.6c-0.4,0.5-0.9,1-1.3,1.5c-0.8,0.8-1.5,1.7-2.3,2.5c-0.9,0.9-1.8,1.9-2.8,2.8C17,27.3,18,29.7,19.8,29.7z"
		/>
</g>
</svg>
