<?xml version="1.0" encoding="utf-8"?>
<!-- Generator: Adobe Illustrator 27.8.1, SVG Export Plug-In . SVG Version: 6.00 Build 0)  -->
<svg version="1.1" id="Layer_1" xmlns="http://www.w3.org/2000/svg" xmlns:xlink="http://www.w3.org/1999/xlink" x="0px" y="0px"
	 viewBox="0 0 36 36" style="enable-background:new 0 0 36 36;" xml:space="preserve">
<style type="text/css">
	.st0{fill:#777878;}
	.st1{fill:url(#SVGID_1_);}
	.st2{clip-path:url(#SVGID_00000004514263296112082120000000045242685370917770_);}
	.st3{fill:#006897;}
	.st4{clip-path:url(#SVGID_00000005232709986402392530000016567930733318086301_);}
	.st5{fill:#E61F65;}
	.st6{clip-path:url(#SVGID_00000062905689001731522220000013606094079284264093_);}
	.st7{fill:#4BB072;}
	.st8{clip-path:url(#SVGID_00000158717652927953897310000001748010680983662239_);}
</style>
<path class="st0" d="M14.8,29.6c1.8,0.1,3.8-0.2,5.5-0.9c2.2-0.8,4-2.3,4.9-4.5c0.9-2.4,0.4-6-1.5-7.8c-1.8-1.7-4.7-2.2-7.3-2.3
	c0-0.5,0-1-0.1-1.5c0-0.6,0-1.3-0.1-1.9c0.1,0,0.1,0,0.2,0c0.8,0,1.6,0.1,2.3,0.1c1.5,0.1,3,0.2,4.5,0.3c1.2,0.1,2.2-1.1,2.2-2.2
	c0-1.3-1-2.1-2.2-2.2c-1.6-0.1-3.2-0.3-4.9-0.4c-1.6-0.1-3.4-0.5-4.9-0.2c-0.7,0.1-1.3,0.8-1.5,1.5c-0.4,1.4-0.1,3.1,0,4.5
	c0,1.3,0.1,2.6,0.1,3.9c0,1.1,1,2.2,2.2,2.2c1,0,2,0,3.1,0.1c0.1,0,0.3,0,0.4,0c0,0,0.1,0,0.1,0c0,0,0,0,0,0c0.3,0,0.6,0.1,0.9,0.2
	c0.2,0.1,0.5,0.1,0.7,0.2c0.1,0,0.3,0.1,0.4,0.1c0,0,0.3,0.1,0.3,0.1c0.1,0.1,0.3,0.2,0.4,0.2c0,0,0.1,0.1,0.1,0.1c0,0,0,0,0,0
	c0,0,0,0,0,0.1c0,0,0,0,0,0c0,0,0,0,0,0c0,0,0,0,0,0c0.1,0.3,0.2,0.6,0.3,0.9c0.1,0.2,0.1,0.4,0.1,0.6c0-0.1,0,0.3,0.1,0.5
	c0,0.2,0,0.4,0,0.6c0,0,0,0,0,0c0,0.1,0,0.1,0,0.2c0,0.2-0.1,0.3-0.1,0.5c0,0.1-0.1,0.1-0.1,0.2c-0.1,0.1-0.1,0.2-0.2,0.3
	c-0.1,0.1-0.1,0.1-0.2,0.2c-0.1,0.1-0.3,0.2-0.4,0.4c0.1-0.1,0.1-0.1,0.1-0.1c0,0-0.1,0.1-0.2,0.2c-0.3,0.2-0.6,0.3-0.9,0.5
	c0,0,0,0,0,0c0,0-0.1,0-0.1,0c-0.2,0.1-0.3,0.1-0.5,0.2c-0.4,0.1-0.7,0.2-1.1,0.3c-0.2,0-0.4,0.1-0.5,0.1c0,0,0,0,0,0c0,0,0,0,0,0
	c-0.4,0-0.7,0.1-1.1,0.1c-0.3,0-0.7,0-1,0c-0.1,0-0.3,0-0.4,0c0,0,0,0,0,0c0,0,0,0-0.1,0c0,0,0,0,0,0c-0.3,0-0.3,0-0.2,0
	c0,0-0.1,0-0.1,0c-0.5-0.3-1.2-0.5-1.8-0.3c-1.2,0.3-1.7,1.5-1.5,2.7C10.8,29.4,13.4,29.6,14.8,29.6z M21.1,22.3
	C21.1,22.5,21.1,22.6,21.1,22.3L21.1,22.3z"/>
</svg>
