<?xml version="1.0" encoding="utf-8"?>
<!-- Generator: Adobe Illustrator 27.8.1, SVG Export Plug-In . SVG Version: 6.00 Build 0)  -->
<svg version="1.1" id="Layer_1" xmlns="http://www.w3.org/2000/svg" xmlns:xlink="http://www.w3.org/1999/xlink" x="0px" y="0px"
	 viewBox="0 0 36 36" style="enable-background:new 0 0 36 36;" xml:space="preserve">
<style type="text/css">
	.st0{fill:#777878;}
	.st1{fill:url(#SVGID_1_);}
	.st2{clip-path:url(#SVGID_00000137101546878776745810000014901732417298301593_);}
	.st3{fill:#006897;}
	.st4{clip-path:url(#SVGID_00000134936429053101965500000005454542808838265523_);}
	.st5{fill:#E61F65;}
	.st6{clip-path:url(#SVGID_00000080922706180665850020000001939208466959998856_);}
	.st7{fill:#4BB072;}
	.st8{clip-path:url(#SVGID_00000163772623596266803260000001132136955193595547_);}
</style>
<g>
	<path class="st0" d="M10.8,28.7c0.2,1.2,1.6,1.8,2.7,1.5c1.2-0.3,1.7-1.5,1.5-2.7c-0.9-6.3-0.9-12.8,0.1-19.1
		c0.3-2.2-1.9-3.5-3.6-2.1C7.9,9,4.6,11.9,1.5,15c-2,2,1.1,5,3.1,3.1c1.8-1.8,3.7-3.5,5.7-5.2C9.9,18.1,10,23.4,10.8,28.7z"/>
	<path class="st0" d="M21.8,28.5c1.8,0.8,3.7,1.3,5.6,1.2c2.3-0.2,4.4-1.2,5.8-3.1c1.9-2.4,2.5-5.5,1.2-8.3
		c-0.7-1.5-2.1-2.7-3.6-3.3c0.3-0.5,0.5-1.1,0.7-1.7c0.5-2.4-0.2-4.7-2.3-6.1C27.4,5.9,25,6,23.1,7c-2,1.1-3.7,3.5-2.9,5.8
		c0.4,1.1,1.5,1.8,2.7,1.5c1.1-0.3,1.9-1.6,1.5-2.7c0,0,0-0.1,0-0.1c0-0.1,0.1-0.1,0.2-0.3c0.3-0.3,0.7-0.6,0.9-0.7
		c0.7-0.2,1.2-0.1,1.6,0.3c0,0,0.2,0.3,0.2,0.4c0,0,0,0.2,0,0.3c0,0.4-0.1,0.8-0.2,1.1c-0.5,1.1-1.5,1.9-2.4,2.7
		c-0.7,0.6-0.8,1.8-0.3,2.6c0.4,0.8,1.6,1.3,2.4,1c1.5-0.6,3-0.3,3.7,1.2c0,0,0.2,0.7,0.2,0.7c0,0.2,0,0.5,0,0.7c0,0.1,0,0.2,0,0.3
		c0,0,0,0.2-0.1,0.2c-0.1,0.5-0.2,0.6-0.4,1.1c-0.1,0.2-0.2,0.4-0.3,0.5c0,0.1-0.1,0.1-0.1,0.2c0,0,0,0-0.1,0.1
		c-0.1,0.1-0.3,0.3-0.4,0.4c-0.1,0.1-0.2,0.2-0.2,0.2c-0.3,0.2-0.5,0.3-0.8,0.5c-0.1,0-0.1,0.1-0.2,0.1c-0.2,0-0.3,0.1-0.5,0.1
		c-0.2,0-0.3,0.1-0.5,0.1c0.4-0.1,0.1,0-0.1,0c-0.3,0-0.6,0-0.9,0c0,0-0.1,0-0.1,0c-0.1,0-0.3-0.1-0.5-0.1c-0.3-0.1-0.6-0.2-1-0.3
		c-0.1,0-0.3-0.1-0.4-0.1c-0.1,0-0.1-0.1-0.2-0.1c-0.5-0.3-1-0.5-1.5-0.8c0,0,0,0,0,0c-0.1-0.1-0.2-0.1-0.2-0.2c0,0-0.1-0.1-0.1-0.1
		c-1.5-2.2-5.1-0.1-3.7,2.3C19.2,27.1,20.5,27.9,21.8,28.5z M24,24.8C23.9,24.7,23.8,24.7,24,24.8L24,24.8z"/>
</g>
</svg>
