<?xml version="1.0" encoding="utf-8"?>
<!-- Generator: Adobe Illustrator 27.8.1, SVG Export Plug-In . SVG Version: 6.00 Build 0)  -->
<svg version="1.1" id="Layer_1" xmlns="http://www.w3.org/2000/svg" xmlns:xlink="http://www.w3.org/1999/xlink" x="0px" y="0px"
	 viewBox="0 0 36 36" style="enable-background:new 0 0 36 36;" xml:space="preserve">
<style type="text/css">
	.st0{fill:#777878;}
	.st1{fill:url(#SVGID_1_);}
	.st2{clip-path:url(#SVGID_00000062173589056169934010000010485822978957104028_);}
	.st3{fill:#006897;}
	.st4{clip-path:url(#SVGID_00000003820380061081347890000015431485387669882551_);}
	.st5{fill:#E61F65;}
	.st6{clip-path:url(#SVGID_00000062156756438772141120000010851148499337217713_);}
	.st7{fill:#4BB072;}
	.st8{clip-path:url(#SVGID_00000116222508600774094700000014601682188612023713_);}
</style>
<g>
	<path class="st0" d="M16.6,25.1c-2.4,0-4.9,0.1-7.3,0.1c1.2-1.3,2.3-2.5,3.4-3.9c1.8-2.2,3.4-4.7,3.7-7.5c0.3-3.3-2.1-6.5-5.2-7.4
		c-1.8-0.6-3.8,0-5.3,1.2c-1.5,1.2-2.3,2.8-3,4.5c-0.4,1.1,0.5,2.4,1.5,2.7c1.2,0.3,2.2-0.4,2.7-1.5c0.4-1,1-2.2,2-2.6
		c1-0.4,2.1,0.5,2.7,1.4c1.3,1.8-0.9,4.8-2,6.2c0.2-0.2-0.3,0.4-0.4,0.5C9.2,18.8,9,19,8.9,19.2c-0.4,0.5-0.9,1-1.3,1.5
		c-0.8,0.8-1.5,1.7-2.3,2.5c-0.9,0.9-1.8,1.9-2.8,2.8c-1.4,1.3-0.3,3.7,1.5,3.7c4.2-0.1,8.4-0.1,12.6-0.2
		C19.4,29.4,19.4,25,16.6,25.1z"/>
	<path class="st0" d="M28.3,19.4c0.6,0,1.1-0.3,1.5-0.7c0,0.1,0,0.1,0,0.2c-0.1,1.4-0.2,3-0.8,4.3c-0.4,1-1.2,2-2.2,2.5
		c-0.9,0.4-1.9,0.3-2.6-0.4c-2-2-5,1.1-3.1,3.1c3.1,3.1,8,1.9,10.5-1.3c1.3-1.8,1.9-3.9,2.2-6c0.3-2.3,0.3-4.6,0-6.9
		c-0.6-3.9-3.2-7.8-7.4-8.3c-3.4-0.4-6.9,2-7.5,5.5c-0.4,2.2,0.2,4.7,1.9,6.3C22.9,19.5,25.7,19.6,28.3,19.4z M24.1,10.7
		c0.6-0.5,1.2-0.6,2-0.6c0.1,0,0.2,0,0.2,0c0,0,0,0,0.2,0c0.1,0,0.4,0.1,0.4,0.1c0.5,0.2,0.9,0.5,1.3,0.9c0.8,0.9,1.3,2.1,1.5,3.2
		c0.1,0.4,0.1,0.8,0.2,1.3c-0.4-0.4-0.9-0.7-1.5-0.6c-1.3,0.1-2.9,0.4-4-0.4c-0.8-0.5-1-1.4-1-2.3C23.3,11.7,23.6,11.1,24.1,10.7z"
		/>
</g>
</svg>
