<svg xmlns="http://www.w3.org/2000/svg" xmlns:xlink="http://www.w3.org/1999/xlink" width="648.763" height="148.718" viewBox="0 0 648.763 148.718">
  <defs>
    <clipPath id="clip-path">
      <rect id="Rectangle_29" data-name="Rectangle 29" width="527.794" height="69.376" fill="none"/>
    </clipPath>
    <clipPath id="clip-path-2">
      <rect id="Rectangle_30" data-name="Rectangle 30" width="648.763" height="53.389" fill="none"/>
    </clipPath>
  </defs>
  <g id="Group_395" data-name="Group 395" transform="translate(-846.43 -138)">
    <g id="Group_92" data-name="Group 92" transform="translate(906.92 138)">
      <g id="Group_91" data-name="Group 91" transform="translate(0 0)" clip-path="url(#clip-path)">
        <path id="Path_78" data-name="Path 78" d="M5.423,59.823C-.72,58.62,2.5,49.452,1.462,44.923.719,36.119-.288,27.307.077,18.457c.051-2.034.062-4.435,1.6-5.981,3.849-3.5,8.773.774,7.132,5.315-.621,10.588,1.272,21.081,1.5,31.645.175,3.967,1,10.887-4.888,10.387" transform="translate(0 5.034)"/>
        <path id="Path_79" data-name="Path 79" d="M7.63,40.286c-5.4-1.541-3.148-9.718,2.288-8.3a2.319,2.319,0,0,0,1.66-.067c3.3-1.459,6.517-4.222,7.491-7.8.521-2.458-.687-5.575-3.464-5.666q.139.011.274.017l.28.059A10.311,10.311,0,0,0,8.687,20.47c-1.229,2.257-4.013,3.554-6.352,2.117-5.014-3.278-.107-9.247,3.9-10.841,5.063-2.36,11.735-3.081,16.446.436,12.76,9.762-.942,31.268-15.053,28.1" transform="translate(0.094 4.39)"/>
        <path id="Path_80" data-name="Path 80" d="M27.4,43.941c-12.011-6.653-3.167-31.046,10.087-28.816C53.7,21.634,45.571,52.849,27.4,43.941m6.435-6.949,0-.1a3.551,3.551,0,0,0,1.5-.818l-.181.157-.244.162c3.867-3.161,3.517-9.226.32-12.723a12.588,12.588,0,0,0-4.793,10.883l-.07-.035a3.238,3.238,0,0,0,3.472,2.475" transform="translate(9.775 6.739)"/>
        <path id="Path_81" data-name="Path 81" d="M45.329,42.943c-2.2-2.8-1.172-6.913-1.908-10.251-.706-8.537-.339-17.113-.458-25.673a4.3,4.3,0,1,1,8.591,0c.045,7.506-.077,15.025.212,22.525.264,3.472.618,6.929.8,10.4.184,3.658-4.782,5.666-7.233,3" transform="translate(19.328 1.224)"/>
        <path id="Path_82" data-name="Path 82" d="M58.1,39.313c.249-7.4-.294-14.861.47-22.229.386-3.426,5.014-5.06,7.374-2.481a4.508,4.508,0,0,1,1.1,4.511c-.357,6.729-.128,13.469-.351,20.2-.1,5.6-8.551,5.62-8.6,0" transform="translate(26.14 6)"/>
        <path id="Path_83" data-name="Path 83" d="M84.448,46.453c-15.138-.676-19.792-17.367-9.634-27.593,5.657-7.708,17.075-8.337,19.8,2.072.708,4.972-6.479,6.838-8.3,2.21-.644-2.386-2.259-1.258-3.554-.086-9.289,8.492-4.564,16.708,7.506,14.935a4.236,4.236,0,0,1,4.219,4.213c-.18,5.215-6.381,4.3-10.04,4.248" transform="translate(31.221 5.89)"/>
        <path id="Path_84" data-name="Path 84" d="M107.466,62.907c-5.391-.835-4.276-8.994,1.132-8.279,8.086-.65,6.274-13.653,6.543-19.544C110.891,42.019,98.78,50.654,94.02,39.6c-1.946-7.233.668-15.069,3.211-21.867,3.52-9.736,14.423-1.93,7.66,4.229-1.656,4.515-3.051,9.368-2.882,14.212,5.365-3.143,8.031-9.21,11.953-13.791a5.064,5.064,0,0,1,8.156.832c1.664,3.346,1.235,7.352,1.467,10.981.074,4.973.261,10.03-.674,14.935-1.319,7.123-7.313,15.561-15.444,13.774" transform="translate(41.993 5.908)"/>
        <path id="Path_85" data-name="Path 85" d="M140.146,55.408c-13.221-6-5.092-20.015,1.5-27.967C131.5,16.4,132.748,1.867,149.773.964c7.458-.445,12.833,7.313,10.529,14.249-1.309,4.743-4.812,8.446-7.79,12.217,2.691,3.381,5.357,6.793,8.27,9.987,5.749-5.33,9.208-12.423,12.195-19.553a4.273,4.273,0,1,1,7.871,3.33c-3.325,8.144-7.5,16.1-13.927,22.247a24.7,24.7,0,0,0,5.159,3.425c10.262.154,4.408,17.835-11.88,2.236-5.67,3.9-12.847,8.621-20.053,6.307m4.076-7.98c3.644-.489,6.849-2.569,9.881-4.522-2.489-2.672-4.721-5.581-6.991-8.435-2.1,3.545-6.614,7.552-5.08,11.983l-.122-.239a1.275,1.275,0,0,0-.128-.254,2.12,2.12,0,0,0,2.44,1.467m2.906-26.921c3.423-3.522,9.7-13.414-.391-10.528-5.852,1.534-1.966,7.48.391,10.528" transform="translate(59.861 0.425)"/>
        <path id="Path_86" data-name="Path 86" d="M193.656,64.551c-6.066-1.087-2.791-10.42-3.6-14.861-.02-7.66-.025-15.319.09-22.978.863-4.816-2.431-15.46,4.622-15.988a4.458,4.458,0,0,1,4.284,5.38c-.377,11.248-.332,22.519-.393,33.778-.613,4.766,2.434,14.79-5,14.668" transform="translate(85.423 4.824)"/>
        <path id="Path_87" data-name="Path 87" d="M192.124,34.9c-2.221-7.329,9.121-6.2,11.545-11.242.877-3.143-2.078-7.858-5.553-7.362-2.1,4.8-9.534,2.175-8.116-2.888,2.587-7.726,13.062-7.065,17.835-1.795,6.026,5.7,6.4,16.366-1.053,21.029-3.889,2.068-11.69,8.176-14.658,2.259" transform="translate(85.396 3.433)"/>
        <path id="Path_88" data-name="Path 88" d="M214.548,45.881c-6.287-6.819-2.906-23.481-1.512-32.062,1.7-4.524,1.55-14.892,8.467-13.727a4.424,4.424,0,0,1,3.036,5.351c-3.784,10.441-5.728,21.9-4.448,32.995a4.363,4.363,0,0,1,3.587,4.232c-.006,4.54-6.085,5.357-9.13,3.211" transform="translate(94.865 0)"/>
        <path id="Path_89" data-name="Path 89" d="M229.539,45.89c-9.472-1.714.261-23.83,1.531-30C232.2,10.306,237.7,3.7,243.58,8.069c6.224,5.454,8.118,14.373,9.674,22.173.761,4.774,2.249,15.783-5.686,13.667-3.749-1.511-2.078-5.494-2.4-8.538A48.021,48.021,0,0,0,239.9,16.893c-2.434,7.451-4.795,14.853-5.765,22.437,1.677,2.94-1.143,7.217-4.6,6.561" transform="translate(101.419 2.991)"/>
        <path id="Path_90" data-name="Path 90" d="M231.77,30.258a4.384,4.384,0,0,1-3.716-4.893c.606-4.094,5.472-4.383,8.734-4.685,4.147-.023,11.69-2.2,12.057,3.983-.26,5.726-7.158,4.138-11.077,4.629-2.112-.106-3.931,1.074-6,.966" transform="translate(102.576 9.128)"/>
        <path id="Path_91" data-name="Path 91" d="M250.969,45.743c-3.755-3.612-.161-10.248-.271-14.861,1.158-4.56-.191-15.06,4.418-17.1,6.52-2.363,10.545,10.23,13.806,14.378.16-3.538.2-7.109.584-10.629.809-5.55,9.189-4.424,8.524,1.167-.6,6.35-.109,12.814-1.095,19.108-.534,4.083-5.352,7.178-8.885,4.31-3.833-3.472-5.66-8.5-8.444-12.763-.432,4.2-1.121,8.373-1.648,12.565a4.349,4.349,0,0,1-6.988,3.829" transform="translate(112.132 6.066)"/>
        <path id="Path_92" data-name="Path 92" d="M276.555,49.031a4.384,4.384,0,0,1-3-5.467c.55-3.275.735-6.617,1.041-9.92,1.215-5.431-.332-25.1,9.515-19.857,4.885,5,5.585,12.949,10.461,18.135a84.5,84.5,0,0,0,.883-15.415c-.21-3.615,4.757-5.6,7.171-2.969,2.737,4.1.757,10.071.871,14.766-1.26,19.927-12.09,17.335-19.928,2.228-1.27,5.019,1.163,20.2-7.019,18.5" transform="translate(122.978 5.548)"/>
        <path id="Path_93" data-name="Path 93" d="M301.034,39.182c.184-7.542-.035-15.1.023-22.643.064-5.676,8.634-5.684,8.7,0-.1,7.541.183,15.108-.177,22.643a4.273,4.273,0,0,1-8.546,0" transform="translate(135.426 5.524)"/>
        <path id="Path_94" data-name="Path 94" d="M316.189,44c-3.661-8.183-.209-17.584,1.485-25.893.56-3.33,3.343-6.923,7.033-5.228,3.242,1.622,4.01,5.646,5.347,8.711a28.435,28.435,0,0,0,6.037,10.361c.944-4.724,2.93-9.861,1.873-14.648-1.077-7.7,11.49-8.348,8.4,6.524-2.465,21.441-11.2,25.6-22.274,5.34-.548,3.294-1.118,6.68-.534,10.006,1.166,2.218.909,5.038-1.425,6.385A4.384,4.384,0,0,1,316.189,44" transform="translate(141.516 5.376)"/>
        <path id="Path_95" data-name="Path 95" d="M355.533,48.919c-21.974-4.383-9.987-46.564,8.982-41.349a4.347,4.347,0,1,1-2.311,8.382,2.54,2.54,0,0,0-2.643.291c-8.692,6.134-12.13,29.569,4.2,23.959a2.662,2.662,0,0,0,1.013-1.019,19.221,19.221,0,0,0-2.755-2.717c-3.865-3.857,1.992-9.729,5.923-5.926,12.675,9.476-.177,22.045-12.408,18.379" transform="translate(154.628 3.205)"/>
      </g>
    </g>
    <g id="Group_94" data-name="Group 94" transform="translate(846.43 233.328)">
      <g id="Group_93" data-name="Group 93" transform="translate(0 0)" clip-path="url(#clip-path-2)">
        <path id="Path_96" data-name="Path 96" d="M9.222,42.671C-.08,31.574,1.8,10.1,15.763,3.646,25.678-.4,39.311,3.416,44.431,13.174c15.244,23.61-15.672,48.26-35.208,29.5" transform="translate(2.435 1.434)" fill="#4ab070"/>
        <path id="Path_97" data-name="Path 97" d="M42.029,35.138c-1.222-4.5-.863-9.063-.909-13.624.306-3.923.185-8.7,3.578-11.345,3.964-2.816,8.825.411,10.835,4.1.989-2.463,2.51-5.4,5.391-5.882,8.194-.877,8.825,12.348,9.94,18.072.491,4.382-5.942,5.257-6.652.909a60.886,60.886,0,0,0-2.3-10.8c-1.812,4.089-1.341,8.638-1.832,12.939-.644,2.8-4.846,3.374-6.175.8-1.693-4.834-1.732-10.23-5.371-14.127-1.035,5.092-.724,10.4-.3,15.521a4.291,4.291,0,0,1,.068,3.433,3.429,3.429,0,0,1-6.268,0" transform="translate(28.758 5.835)"/>
        <path id="Path_98" data-name="Path 98" d="M62.1,35.077c-.916-7.05.212-14.308,2.024-21.133.838-3.511,2.862-8.576,7.363-7.064,2.04.605,3.426,2.556,4.462,4.29A69.15,69.15,0,0,1,80.9,23.253c.836,3.406,4.236,9.878-1.01,11.128a3.381,3.381,0,0,1-3.778-2.869,69.486,69.486,0,0,0-5.4-15.946C69.133,21.64,68.1,27.906,68.841,34.154a3.318,3.318,0,0,1-3.42,3.817A3.264,3.264,0,0,1,62.1,35.077" transform="translate(43.222 4.621)"/>
        <path id="Path_99" data-name="Path 99" d="M63.726,23.347c-2.5-1.341-2.012-5.51.8-6.134,3.664-.2,10.9-4.662,12.567.352A3.383,3.383,0,0,1,74.753,21.7c-2.808.671-5.609,1.4-8.439,1.985a4.468,4.468,0,0,1-.928.1,3.2,3.2,0,0,1-1.661-.439" transform="translate(43.45 10.629)"/>
        <path id="Path_100" data-name="Path 100" d="M78.614,35.873c-.1-7.171-.665-14.321-.617-21.492,0-2.927-.034-5.862.172-8.777A3.992,3.992,0,0,1,80.506,1.64c3.287-1.513,6.268,3.068,4.356,5.736-.4,9.5.325,19,.425,28.5a3.337,3.337,0,0,1-6.673,0" transform="translate(54.568 0.938)"/>
        <path id="Path_101" data-name="Path 101" d="M80.429,31.47a3.419,3.419,0,0,1-2.371-4.176A48.831,48.831,0,0,1,79.9,22.161c.685-1.572,1.455-3.107,2.284-4.613.644-1.169,1.341-2.291,2.092-3.4a33.247,33.247,0,0,1,2.488-3.068,28.768,28.768,0,0,1,3.892-3.566A3.382,3.382,0,1,1,94.8,12.867c-.384.3-.756.61-1.129.916-.6.551-1.181,1.115-1.752,1.693A37.892,37.892,0,0,0,89.5,18.531c-.717,1.115-1.348,2.264-1.985,3.418-.85,1.747-1.627,3.486-2.317,5.3-.194.617-.4,1.227-.585,1.851a3.493,3.493,0,0,1-3.294,2.49,3.449,3.449,0,0,1-.889-.119" transform="translate(54.519 4.77)"/>
        <path id="Path_102" data-name="Path 102" d="M92.538,21.564c2.1,1.567,5.06,3.692,2.961,6.547a3.343,3.343,0,0,1-4.654.59A56.3,56.3,0,0,1,84.04,22.54c-.105-.119-.219-.238-.325-.359-2.364-2.648-4.183-5.5-3.539-7.521a2.364,2.364,0,0,1,.444-.824l.007-.014a4.884,4.884,0,0,1,2.762-1.48H83.4c1.885-.025,2.908,1.474,3.413,3.047.133.192.272.379.411.557a39.377,39.377,0,0,0,5.311,5.617" transform="translate(56.004 8.635)"/>
        <path id="Path_103" data-name="Path 103" d="M93.576,28.077c-.71-5.35-.5-10.742-.763-16.119C91.04,8.133,96.8,5.1,98.9,8.8c1.78,5.857.238,12.329,1.314,18.371a3.294,3.294,0,0,1-3.379,3.765,3.21,3.21,0,0,1-3.26-2.855" transform="translate(64.702 4.983)"/>
        <path id="Path_104" data-name="Path 104" d="M102.87,32.868c-2.271-1.241-1.839-3.831-.7-5.65,1.3-5.437.843-11.393,2.655-16.638,6.088-6.474,10.026,7.74,12.37,11.592a85.342,85.342,0,0,0,.014-10.086,3.8,3.8,0,0,1,.624-2.854c1.593-2.245,5.59-1.249,5.809,1.553.219,6.029.969,12.487-1.275,18.224A5.015,5.015,0,0,1,119.33,31.8c-5.59,1.208-7.337-6.182-9.542-9.912-.61,3.545-.5,11.42-4.919,11.42a5.311,5.311,0,0,1-2-.439" transform="translate(70.832 5.596)"/>
        <path id="Path_105" data-name="Path 105" d="M124.871,38.483c-10.237-3.333-9.428-14.189-5.723-22.308,2.317-4.847,4.846-12.343,10.922-13.1a5.2,5.2,0,0,1,4.128,2.2c2.264,2.662-1.149,6.792-4.156,5.113-4.144,5.3-13.026,23.2.219,21.982,1.713-.464,4.985-2.849,3.1-4.64-2.94-3.141,1.553-7.609,4.628-4.628,6.89,6.912-1.389,16.094-9.428,16.094a9.619,9.619,0,0,1-3.692-.717" transform="translate(81.588 2.152)"/>
        <path id="Path_106" data-name="Path 106" d="M125.887,20.68c-2.789-1.016-2.922-5.332-.112-6.426a10.94,10.94,0,0,1,3.916-.466,3.4,3.4,0,0,1,3.381,3.381c.012,2.356-2.2,3.6-4.343,3.418a3.2,3.2,0,0,1-1.467.345,4.141,4.141,0,0,1-1.375-.252" transform="translate(86.567 9.645)"/>
        <path id="Path_107" data-name="Path 107" d="M145.705,34.519c.325-8.485-.4-17.017.054-25.488,1.186-5.152,8.033-2.828,6.659,2.058-.187,7.808.26,15.628.019,23.43a3.419,3.419,0,0,1-3.367,3.365,3.38,3.38,0,0,1-3.365-3.365" transform="translate(101.87 4.284)"/>
        <path id="Path_108" data-name="Path 108" d="M143.562,22.023a3.41,3.41,0,0,1-1.215-4.628c.916-1.553,2.849-2.065,4.462-2.582,3.306-1.037,6.693-1.807,10.038-2.723,4.276-1.055,6.01,5.213,1.786,6.488-3.817,1.088-7.761,1.853-11.459,3.313a3.452,3.452,0,0,1-1.933.591,3.242,3.242,0,0,1-1.679-.459" transform="translate(99.279 8.375)"/>
        <path id="Path_109" data-name="Path 109" d="M156.567,33.865c-.338-6.029-.306-12.09-.3-18.125.333-2.716-.75-5.869.678-8.306,1.825-2.582,6.148-1.049,6.081,2.072.112,8.119-.114,16.24.245,24.359a3.214,3.214,0,0,1-3.333,3.306,3.26,3.26,0,0,1-3.372-3.306" transform="translate(109.274 4.287)"/>
        <path id="Path_110" data-name="Path 110" d="M167.839,32.022a24.809,24.809,0,0,1-.916-5.531c-.046-.8-.053-1.6-.034-2.4-8.843,8.61-13.67-2.782-6.386-3.671a19.115,19.115,0,0,0,6.618-7.609c.756-1.321.923-2.995,2.019-4.089A3.414,3.414,0,0,1,174.9,11.58c-.4,3.4-.882,6.778-1.188,10.191-.139,2.842-.306,5.729.539,8.485a3.277,3.277,0,0,1-3.328,4.149,3.112,3.112,0,0,1-3.08-2.383" transform="translate(109.813 5.426)"/>
        <path id="Path_111" data-name="Path 111" d="M179.4,36.644c-8.976-1.448-9.673-12.163-8.107-19.367.665-2.721.6-7.256,4.13-7.793a3.4,3.4,0,0,1,3.374,5.051c-.891,4.343-2.291,9.256-.731,13.565,1.513,3.783,5.145.829,7.3-.7,3.466-2.577,7.482,2.6,4.055,5.25-2.7,1.873-5.709,4.043-9.115,4.043a7.165,7.165,0,0,1-.909-.053" transform="translate(119.384 6.607)"/>
        <path id="Path_112" data-name="Path 112" d="M175.283,21.754c-3.433,0-4.528-5.06-1.334-6.426,3.5-.685,7.246-.571,10.776-1.448a3.378,3.378,0,0,1,.916,6.693,59.124,59.124,0,0,1-10.252,1.181Z" transform="translate(120.373 9.679)"/>
        <path id="Path_113" data-name="Path 113" d="M172.145,14.63a3.426,3.426,0,0,1,2.888-3.8l.007-.007c-.146.032-.292.059-.439.092,4.091-1.049,8.087-2.5,12.144-3.71a3.389,3.389,0,0,1,4.142,2.351,3.423,3.423,0,0,1-2.349,4.149c-3.061.957-6.115,1.932-9.176,2.869a10.618,10.618,0,0,1-3.811.889,3.138,3.138,0,0,1-3.406-2.835" transform="translate(120.419 4.947)"/>
        <path id="Path_114" data-name="Path 114" d="M206.07,35.659c-13.046-1.734-11.014-19.978-2.291-25.947a7.422,7.422,0,0,1,5.67-1.36c3.28.544,7.011,5.026,3.685,7.761a3.484,3.484,0,0,1-5.092-1.049c-3.452,2.25-6.187,9.2-3.552,12.827,1.4,1.334,3.406,1.307,5.279,1.275.352,0,.7-.007,1.042,0a3.361,3.361,0,0,1,3.333,3.333c-.1,2.808-2.364,3.379-4.727,3.379-1.176,0-2.378-.139-3.347-.219" transform="translate(137.663 5.759)"/>
        <path id="Path_115" data-name="Path 115" d="M211.4,33.474c-2.33-6.931.962-14.413,3.466-20.873,1.195-3.155,4.987-5.245,8.053-3.253,6.168,4.581,6.805,13.424,8.333,20.421.491,4.409-6,5.3-6.7.916-.875-5.019-1.773-9.7-4.009-14.221-1.441,4.548-3.9,9.554-2.881,14.367a3.417,3.417,0,0,1-3.267,4.708,3.2,3.2,0,0,1-2.995-2.065" transform="translate(147.347 5.994)"/>
        <path id="Path_116" data-name="Path 116" d="M214.387,17.257c3.034-1.142,6.42-1.042,9.606-1.547a3.364,3.364,0,1,1,.916,6.666c-3.107.231-6.194.916-9.275,1.129-3.066-.338-4-4.781-1.248-6.248" transform="translate(148.851 10.975)"/>
        <path id="Path_117" data-name="Path 117" d="M232.791,37.44c-3.087-.5-6.705-4.064-3.931-6.984,1.622-1.647,3.885-.977,5.359.425l-.02-.02a3.043,3.043,0,0,0,1.222-.107c-.153.027-.292.054-.439.087a2.655,2.655,0,0,0,.532-.2c-.977-5.026-5.067-8.944-5.791-14.082C228.01,6.289,246.66,2.291,247.576,13.439a3.421,3.421,0,1,1-6.819.252,2.6,2.6,0,0,0-1.195-.252l.279.02a4.452,4.452,0,0,0-3.445,1.593l.087-.014a1.663,1.663,0,0,0-.027.982,1.512,1.512,0,0,1-.032-.172c-.007-.066-.014-.139-.014-.206,1.115,4.713,4.907,8.519,5.663,13.378,1.208,4.734-3.008,8.638-7.477,8.638a7.591,7.591,0,0,1-1.805-.219" transform="translate(159.428 4.723)"/>
        <path id="Path_118" data-name="Path 118" d="M249.254,34.62c-4.023-1.01-5.67-5.43-5.962-9.181-.219-5.345-.544-16.028,6.506-16.784a3.407,3.407,0,0,1,1.288,6.539,21.838,21.838,0,0,0-.836,11.054c.233,3.817,4.674,1.322,6.844.651a3.373,3.373,0,0,1,4.37,1.773c1.718,4.375-5.226,6.221-9.7,6.221a9.707,9.707,0,0,1-2.51-.272" transform="translate(170.158 6.055)"/>
        <path id="Path_119" data-name="Path 119" d="M245.324,15.037c1.375-1.72,3.79-1.627,5.782-1.78,2.145-.167,4.276-.4,6.414-.67,4.421-.486,5.311,6.008.916,6.712-3.632.457-7.317.731-10.908,1.208a3.446,3.446,0,0,1-2.2-5.471" transform="translate(171.148 8.789)"/>
        <path id="Path_120" data-name="Path 120" d="M245.734,15.068C241.751,7.9,257.287,7.034,261.47,5.228c4.309-1.076,6.061,5.245,1.805,6.54-4.037,1.188-8.226,1.972-12.149,3.484a4.21,4.21,0,0,1-2.776,1.1,3.21,3.21,0,0,1-2.616-1.288" transform="translate(171.474 3.572)"/>
        <path id="Path_121" data-name="Path 121" d="M279.973,38.959c-8.512-2.271-8.265-14.342-8.525-21.465-.105-3.712.6-7.761,3.97-9.906,2.816-1.72,9-3.845,9.974.843a3.362,3.362,0,0,1-2.849,3.751c-1.407.185-2.949.325-3.984,1.4.06-.053.119-.105.185-.158.007-.007.014-.014.133-.121-1.433,2.769-.411,6.387-.491,9.435.372,3.253.552,6.952,2.782,9.54a3.4,3.4,0,0,1-.7,6.714,4.071,4.071,0,0,1-.491-.034" transform="translate(189.91 3.907)"/>
        <path id="Path_122" data-name="Path 122" d="M273.579,18.327c1.168-3.233,5.424-3.114,8.174-4.2,4.322-1.088,6.068,5.245,1.805,6.547-2.431.452-4.706,1.825-7.164,1.926a3.422,3.422,0,0,1-2.815-4.27" transform="translate(191.327 9.794)"/>
        <path id="Path_123" data-name="Path 123" d="M291.665,33.046c-18.283-2.325,2.2-33.894,9-19.354,7.237,6.154,1.594,19.473-7.521,19.473a9.654,9.654,0,0,1-1.482-.119m1.236-6.62.126-.007c3.214-.112,4.861-3.943,3.977-6.792.027.073.06.153.087.226a.771.771,0,0,0,.059.185c-.167-.816-.85-1.348-1.208-2.051a3.334,3.334,0,0,1-.843-.631c-1.786,1.48-6.9,9.243-2.2,9.069" transform="translate(198.88 6.912)"/>
        <path id="Path_124" data-name="Path 124" d="M289.183,19.607c.133.007.265.007.391.007a.981.981,0,0,0-.144.007c-.087-.007-.167-.007-.246-.014" transform="translate(202.325 13.718)"/>
        <path id="Path_125" data-name="Path 125" d="M301.261,37.14c-4.156-1.355-1.521-5.6-1.62-8.644a78.932,78.932,0,0,1,1.567-12.535c.71-2.815.557-7.548,4.434-7.642a3.435,3.435,0,0,1,3.075,4.88c-.651,2.849-1.222,5.57-1.64,8.439-1.195,3.9.61,15.582-4.98,15.582a4.844,4.844,0,0,1-.836-.08" transform="translate(209.129 5.819)"/>
        <path id="Path_126" data-name="Path 126" d="M316.145,34.353c-3.632-3.831-17.216-5.35-13.259-12.528,2.444-2.908,9.275-3.34,8.651-8.24-.7-1.088-2.417,1.268-3.075,1.78a9.688,9.688,0,0,0-1.426,2.159A3.379,3.379,0,0,1,302.66,19.3c-4.149-2.033-.85-6.707,1.361-8.957,2.643-2.988,7.191-5.2,10.856-2.709,6.433,4.356,2.8,13.67-3.148,16.619a45.427,45.427,0,0,1,8.48,4.832c2.781,2.165.67,5.976-2.072,5.976a3.288,3.288,0,0,1-1.992-.7" transform="translate(210.366 4.582)"/>
        <path id="Path_127" data-name="Path 127" d="M335.35,39.026a3.421,3.421,0,0,1-3.393-3.4c.146-6.44,1.421-12.814,2.145-19.214.717-2.874-.212-6.625,2.063-8.85C339.884,5,342.2,9.628,343.3,12.57c1.713,4.083,3.233,8.245,5.118,12.243.08-5.259-.224-10.517-.418-15.776.073-4.315,6.44-4.334,6.586,0-.046,8.061,1.907,16.745-.8,24.494a4.448,4.448,0,0,1-6.394,2.038c-3.724-3.326-5.119-8.711-7.269-13.12-.491,3.865-1.016,7.728-1.341,11.612.252,2.3-.731,4.966-3.406,4.966Z" transform="translate(232.252 4.053)"/>
        <path id="Path_128" data-name="Path 128" d="M375.191,38.5c-4.288-.683-3.393-7.1.9-6.552a6.691,6.691,0,0,0,4.84-.274c2.995-1.892-10.211-10.483-10.643-14.28C367.031,8.566,380.7-.9,387.691,5.584c2.131,2.3,4.032,7.562-.078,8.823-2.862.777-4.123-1.786-4.795-4.076-2.41-.578-6.392,2.131-6.241,4.693,2.325,3.851,6.394,6.289,9.124,9.834,6.04,7.169.231,14.068-7.285,14.068a12.454,12.454,0,0,1-3.226-.425" transform="translate(258.723 2.406)"/>
        <path id="Path_129" data-name="Path 129" d="M12.113,27.071c.087-4.847.265-9.707.658-14.547.418-4.261,6.739-4.016,6.778.274-.359,4.747-.591,9.506-.665,14.274a3.386,3.386,0,0,1-6.771,0" transform="translate(8.475 6.612)"/>
        <path id="Path_130" data-name="Path 130" d="M24.75,53.316A26.607,26.607,0,0,1,6.984,44.692,27.7,27.7,0,0,1,1.5,35.5,26.689,26.689,0,0,1,6.28,9.465,27.211,27.211,0,0,1,20.654.622,4.026,4.026,0,0,1,21.49.515c.372-.073.751-.139,1.123-.2A25.813,25.813,0,0,1,28.35.057,27.316,27.316,0,0,1,39.012,3a26.628,26.628,0,0,1,9.933,8.877A26.994,26.994,0,0,1,53.3,29.429a26.356,26.356,0,0,1-2.988,9.8,27.577,27.577,0,0,1-6.771,8.219,26.519,26.519,0,0,1-16.823,5.942c-.658,0-1.316-.025-1.966-.073m.8-46.633c-.87.073-1.739.178-2.6.331a2.743,2.743,0,0,1-.484.16c-.8.192-1.587.432-2.371.69q-1.206.459-2.369,1.016c-.651.345-1.282.71-1.907,1.1a27.076,27.076,0,0,0-2.376,1.82c-.591.551-1.149,1.122-1.7,1.713-.571.683-1.1,1.38-1.606,2.111-.473.743-.909,1.5-1.322,2.283-.318.7-.6,1.4-.875,2.1-.267.809-.5,1.633-.7,2.463a28.943,28.943,0,0,0-.406,2.935c-.039.882-.032,1.766.007,2.655.073.8.18,1.606.313,2.41.2.909.439,1.8.724,2.682q.439,1.216,1,2.39c.377.731.784,1.434,1.227,2.131.5.717,1.023,1.414,1.587,2.085q.877.966,1.832,1.853c.717.6,1.46,1.161,2.23,1.7.632.4,1.27.763,1.919,1.115.79.379,1.594.724,2.41,1.042.843.272,1.688.5,2.543.71a28.528,28.528,0,0,0,2.83.386q1.3.048,2.609,0c.875-.08,1.739-.2,2.6-.345a27.753,27.753,0,0,0,2.808-.79c.77-.3,1.528-.617,2.271-.976.744-.4,1.474-.824,2.184-1.282.644-.459,1.263-.943,1.873-1.441a27.931,27.931,0,0,0,2.024-2.038c.479-.571.93-1.149,1.361-1.759.5-.777.976-1.567,1.4-2.385.359-.756.685-1.513.97-2.289q.428-1.305.729-2.636a26.715,26.715,0,0,0,.365-2.808A23.92,23.92,0,0,0,46.64,25.3c-.073-.875-.192-1.746-.352-2.616-.206-.9-.45-1.8-.736-2.682a25.4,25.4,0,0,0-1.037-2.41q-.6-1.135-1.3-2.211-.7-.976-1.475-1.892a24.618,24.618,0,0,0-1.865-1.88c-.644-.551-1.309-1.067-2.006-1.553a24.938,24.938,0,0,0-2.264-1.327A23.346,23.346,0,0,0,33.428,7.8a25.177,25.177,0,0,0-2.6-.736,24.09,24.09,0,0,0-2.849-.386c-.388-.019-.772-.027-1.157-.027-.422,0-.843.01-1.266.027" transform="translate(0 0)"/>
        <path id="Path_131" data-name="Path 131" d="M357.1,38.492a2.934,2.934,0,0,1-1.122-.535,3.391,3.391,0,0,1-4.781-3.049c.073-4.686.107-9.362.265-14.049.134-4.57.343-9.149.207-13.726a3.421,3.421,0,0,1,.034-3.353,3.381,3.381,0,0,1,3.722-2.272c2.621.34,3.224,3.092,3.042,5.325.06,3.457-.034,6.9-.155,10.353,9.355-9.149,18.322,1.186,14.661,11.6-2.21,6.2-9.119,11.559-15.875,9.7m2.821-6.267c5.017-.537,8.76-6.724,6.452-11.321-.452-.991-1.557-.365-2.227.048-3.438,2.578-5.111,6.884-5.893,10.985.624.044,1.224.294,1.854.308l-.187-.019" transform="translate(245.71 1.023)"/>
      </g>
    </g>
  </g>
</svg>
