<svg xmlns="http://www.w3.org/2000/svg" xmlns:xlink="http://www.w3.org/1999/xlink" width="317.584" height="41.745" viewBox="0 0 317.584 41.745">
  <defs>
    <clipPath id="clip-path">
      <rect id="Rectangle_29" data-name="Rectangle 29" width="317.584" height="41.745" fill="none"/>
    </clipPath>
  </defs>
  <g id="Group_92" data-name="Group 92" transform="translate(0)">
    <g id="Group_91" data-name="Group 91" transform="translate(0 0)" clip-path="url(#clip-path)">
      <path id="Path_78" data-name="Path 78" d="M3.263,40.454c-3.7-.724-1.761-6.24-2.383-8.966A127.2,127.2,0,0,1,.046,15.563c.031-1.224.038-2.669.961-3.6,2.316-2.106,5.279.466,4.291,3.2-.373,6.371.765,12.685.906,19.041.106,2.387.6,6.551-2.941,6.25" transform="translate(0 -1.428)"/>
      <path id="Path_79" data-name="Path 79" d="M4.674,28.128C1.423,27.2,2.78,22.28,6.051,23.135a1.4,1.4,0,0,0,1-.04A7.813,7.813,0,0,0,11.557,18.4c.313-1.479-.414-3.354-2.084-3.409l.165.01.168.036A6.2,6.2,0,0,0,5.31,16.2a2.767,2.767,0,0,1-3.822,1.274c-3.017-1.973-.065-5.564,2.348-6.523,3.046-1.42,7.061-1.854,9.9.263,7.678,5.874-.567,18.815-9.057,16.91" transform="translate(-0.027 -1.245)"/>
      <path id="Path_80" data-name="Path 80" d="M25.138,32.407c-7.227-4-1.905-18.681,6.069-17.339,9.76,3.917,4.867,22.7-6.069,17.339m3.872-4.181,0-.061a2.136,2.136,0,0,0,.9-.492l-.109.094-.147.1c2.327-1.9,2.116-5.551.193-7.655a7.575,7.575,0,0,0-2.884,6.548l-.042-.021a1.948,1.948,0,0,0,2.089,1.489" transform="translate(-2.772 -1.911)"/>
      <path id="Path_81" data-name="Path 81" d="M44.387,26.924c-1.321-1.687-.7-4.16-1.148-6.168-.425-5.137-.2-10.3-.276-15.448a2.585,2.585,0,1,1,5.169,0c.027,4.517-.046,9.041.127,13.554.159,2.089.372,4.169.48,6.259a2.567,2.567,0,0,1-4.352,1.8" transform="translate(-5.481 -0.347)"/>
      <path id="Path_82" data-name="Path 82" d="M58.105,28.967c.15-4.453-.177-8.942.283-13.376A2.634,2.634,0,0,1,62.825,14.1a2.712,2.712,0,0,1,.665,2.714c-.215,4.049-.077,8.1-.211,12.155-.059,3.37-5.146,3.381-5.173,0" transform="translate(-7.413 -1.702)"/>
      <path id="Path_83" data-name="Path 83" d="M78.455,33.166c-9.109-.407-11.909-10.45-5.8-16.6,3.4-4.638,10.274-5.016,11.914,1.247a2.609,2.609,0,0,1-4.992,1.33c-.387-1.436-1.359-.757-2.138-.051-5.59,5.11-2.746,10.054,4.517,8.987A2.549,2.549,0,0,1,84.5,30.61c-.108,3.138-3.84,2.585-6.041,2.556" transform="translate(-8.854 -1.67)"/>
      <path id="Path_84" data-name="Path 84" d="M101.841,43.083c-3.244-.5-2.573-5.412.681-4.981,4.865-.391,3.775-8.216,3.937-11.76C103.9,30.514,96.615,35.71,93.75,29.06c-1.171-4.352.4-9.067,1.932-13.158,2.118-5.858,8.679-1.161,4.609,2.545A22.97,22.97,0,0,0,98.557,27c3.228-1.891,4.832-5.542,7.192-8.3a3.047,3.047,0,0,1,4.907.5c1,2.014.743,4.424.883,6.608a44.45,44.45,0,0,1-.406,8.987c-.794,4.286-4.4,9.364-9.293,8.288" transform="translate(-11.909 -1.676)"/>
      <path id="Path_85" data-name="Path 85" d="M137.325,33.716c-7.956-3.609-3.064-12.044.9-16.828C132.12,10.245,132.873,1.5,143.117.956c4.488-.268,7.722,4.4,6.335,8.574-.788,2.854-2.9,5.082-4.688,7.351,1.619,2.034,3.224,4.087,4.976,6.009,3.459-3.207,5.541-7.475,7.338-11.765a2.571,2.571,0,1,1,4.736,2c-2,4.9-4.516,9.688-8.38,13.386a14.86,14.86,0,0,0,3.1,2.061c6.175.092,2.652,10.732-7.149,1.345-3.412,2.347-7.73,5.187-12.066,3.8m2.452-4.8a15.11,15.11,0,0,0,5.946-2.721c-1.5-1.608-2.841-3.358-4.207-5.076-1.264,2.133-3.98,4.544-3.057,7.211l-.073-.144a.766.766,0,0,0-.077-.153,1.275,1.275,0,0,0,1.468.883m1.748-16.2c2.06-2.119,5.836-8.072-.236-6.335-3.521.923-1.183,4.5.236,6.335" transform="translate(-16.976 -0.121)"/>
      <path id="Path_86" data-name="Path 86" d="M192.153,43.112c-3.65-.654-1.679-6.27-2.167-8.942-.012-4.609-.015-9.218.054-13.826.519-2.9-1.463-9.3,2.781-9.62a2.682,2.682,0,0,1,2.578,3.238c-.227,6.768-.2,13.55-.236,20.325-.369,2.868,1.465,8.9-3.01,8.826" transform="translate(-24.226 -1.368)"/>
      <path id="Path_87" data-name="Path 87" d="M191.207,24.042c-1.337-4.41,5.488-3.728,6.947-6.765.528-1.891-1.25-4.728-3.341-4.43-1.262,2.887-5.737,1.309-4.884-1.738,1.556-4.649,7.86-4.251,10.732-1.08,3.626,3.429,3.853,9.848-.633,12.654-2.34,1.244-7.034,4.92-8.82,1.359" transform="translate(-24.218 -0.974)"/>
      <path id="Path_88" data-name="Path 88" d="M213.083,27.608c-3.783-4.1-1.748-14.129-.91-19.293,1.021-2.722.933-8.961,5.095-8.26a2.662,2.662,0,0,1,1.827,3.22,44.117,44.117,0,0,0-2.677,19.854,2.625,2.625,0,0,1,2.158,2.547c0,2.732-3.662,3.224-5.494,1.932" transform="translate(-26.904 0)"/>
      <path id="Path_89" data-name="Path 89" d="M227.906,30.261c-5.7-1.031.157-14.339.921-18.051.678-3.361,3.989-7.338,7.527-4.707,3.745,3.282,4.885,8.648,5.821,13.342.458,2.873,1.353,9.5-3.422,8.223-2.256-.909-1.25-3.306-1.444-5.138a28.9,28.9,0,0,0-3.169-11.118,74.312,74.312,0,0,0-3.469,13.5,2.761,2.761,0,0,1-2.766,3.948" transform="translate(-28.762 -0.848)"/>
      <path id="Path_90" data-name="Path 90" d="M230.272,26.288a2.638,2.638,0,0,1-2.236-2.944c.365-2.464,3.292-2.637,5.255-2.819,2.5-.014,7.034-1.323,7.255,2.4-.156,3.445-4.307,2.49-6.665,2.786-1.271-.064-2.365.646-3.609.581" transform="translate(-29.09 -2.589)"/>
      <path id="Path_91" data-name="Path 91" d="M250.285,32.9c-2.26-2.173-.1-6.166-.163-8.942.7-2.744-.115-9.062,2.658-10.292,3.923-1.422,6.345,6.156,8.307,8.652.1-2.129.12-4.277.352-6.4.487-3.34,5.529-2.662,5.129.7-.362,3.821-.065,7.71-.659,11.5-.321,2.457-3.22,4.319-5.346,2.594-2.307-2.089-3.406-5.115-5.081-7.68-.26,2.529-.674,5.038-.992,7.56a2.617,2.617,0,0,1-4.205,2.3" transform="translate(-31.801 -1.721)"/>
      <path id="Path_92" data-name="Path 92" d="M275.283,34.415a2.638,2.638,0,0,1-1.8-3.29c.331-1.971.442-3.982.626-5.969.731-3.268-.2-15.1,5.726-11.949,2.939,3.01,3.361,7.792,6.295,10.912a50.848,50.848,0,0,0,.531-9.276,2.548,2.548,0,0,1,4.315-1.787c1.647,2.465.455,6.06.524,8.885-.758,11.99-7.275,10.431-11.991,1.341-.764,3.02.7,12.157-4.223,11.132" transform="translate(-34.876 -1.573)"/>
      <path id="Path_93" data-name="Path 93" d="M301.033,28.468c.111-4.538-.021-9.086.014-13.625.038-3.416,5.2-3.42,5.234,0-.058,4.537.11,9.091-.106,13.625a2.571,2.571,0,0,1-5.142,0" transform="translate(-38.407 -1.567)"/>
      <path id="Path_94" data-name="Path 94" d="M315.543,31.233c-2.2-4.924-.126-10.581.893-15.58.337-2,2.012-4.166,4.232-3.146,1.951.976,2.413,3.4,3.217,5.241a17.11,17.11,0,0,0,3.633,6.234c.568-2.842,1.763-5.933,1.127-8.814-.648-4.633,6.914-5.023,5.057,3.926-1.483,12.9-6.739,15.4-13.4,3.213a17.909,17.909,0,0,0-.321,6.021,2.787,2.787,0,0,1-.858,3.842,2.638,2.638,0,0,1-3.579-.937" transform="translate(-40.134 -1.525)"/>
      <path id="Path_95" data-name="Path 95" d="M350.826,32.273c-13.222-2.637-6.009-28.019,5.4-24.88a2.616,2.616,0,1,1-1.391,5.043,1.528,1.528,0,0,0-1.59.175c-5.23,3.691-7.3,17.792,2.526,14.417a1.6,1.6,0,0,0,.61-.613,11.565,11.565,0,0,0-1.658-1.635c-2.326-2.321,1.2-5.854,3.564-3.566,7.627,5.7-.106,13.265-7.466,11.059" transform="translate(-43.852 -0.909)"/>
    </g>
  </g>
</svg>
