<svg xmlns="http://www.w3.org/2000/svg" xmlns:xlink="http://www.w3.org/1999/xlink" width="1059.748" height="160.052" viewBox="0 0 1059.748 160.052">
  <defs>
    <clipPath id="clip-path">
      <rect id="Rectangle_57" data-name="Rectangle 57" width="53.251" height="53.214" fill="none"/>
    </clipPath>
    <clipPath id="clip-path-2">
      <rect id="Rectangle_59" data-name="Rectangle 59" width="983.208" height="67.724" fill="none"/>
    </clipPath>
    <clipPath id="clip-path-3">
      <rect id="Rectangle_29" data-name="Rectangle 29" width="527.794" height="69.376" fill="none"/>
    </clipPath>
  </defs>
  <g id="Group_396" data-name="Group 396" transform="translate(-659 -138)">
    <g id="Group_114" data-name="Group 114" transform="translate(-57.46)">
      <g id="Group_111" data-name="Group 111" transform="translate(716.46 233.329)">
        <g id="Group_107" data-name="Group 107" transform="translate(0 0)" clip-path="url(#clip-path)">
          <path id="Path_162" data-name="Path 162" d="M13.421,45.58a10.163,10.163,0,0,1-3.6-4.24,13.4,13.4,0,0,1-.98-3.334C-1.5,32.072,5.505,14.31,12.4,8.021c3.269-2.56,7.929-5.209,12.139-4.841a8.763,8.763,0,0,1,7.9,1.83c9.972.711,13.016,12.939,12.776,21.144.039,12.618-20.73,26.757-31.8,19.425" transform="translate(2.215 1.8)" fill="#4ab070"/>
          <path id="Path_163" data-name="Path 163" d="M11.456,25.181c2.088-3.287,5.312-5.944,6.58-9.7a7.691,7.691,0,0,0-2.788.625,3.239,3.239,0,0,1-6.31-.94c-.087-5.54,8.8-7.4,12.8-5.173,6.4,4.542.258,12.372-3.35,16.681a18.264,18.264,0,0,0,7.092-.221A3.23,3.23,0,0,1,29.1,29.206c.315,4.5-5.616,4.031-8.7,4.133-.136.006-.276.008-.418.008-4.379,0-11.253-2.91-8.528-8.166" transform="translate(5.498 5.585)"/>
          <path id="Path_164" data-name="Path 164" d="M16.613,51.263A26.547,26.547,0,0,1,3.792,40.311,27.012,27.012,0,0,1,.223,23.018,26.7,26.7,0,0,1,16.633,1.838a3.749,3.749,0,0,1,.63-.189A27.2,27.2,0,0,1,28.74.071,26.529,26.529,0,0,1,44.349,6.8a26.033,26.033,0,0,1,5.558,6.953A28.288,28.288,0,0,1,52.872,22.3a26.455,26.455,0,0,1-3.5,18.138,26.978,26.978,0,0,1-6.081,6.914,27.425,27.425,0,0,1-8.436,4.556,25.188,25.188,0,0,1-8.089,1.305,27.687,27.687,0,0,1-10.151-1.949M25.295,6.33a26.078,26.078,0,0,0-2.625.36,26.012,26.012,0,0,0-2.757.749c-.1.039-.208.082-.315.121a3.543,3.543,0,0,1-.455.233c-.51.215-1.009.443-1.507.682q-1.211.635-2.36,1.383c-.707.5-1.383,1.027-2.038,1.589-.636.586-1.249,1.2-1.83,1.843-.543.643-1.047,1.305-1.533,1.993-.473.725-.9,1.47-1.305,2.234-.4.825-.751,1.678-1.068,2.536a27.093,27.093,0,0,0-.7,2.625c-.152.846-.265,1.7-.341,2.562-.039.84-.045,1.678-.013,2.518A26.753,26.753,0,0,0,6.8,30.52c.189.871.417,1.722.688,2.566a26.617,26.617,0,0,0,1.09,2.587c.4.77.846,1.52,1.32,2.247.467.662.953,1.305,1.476,1.924a26.452,26.452,0,0,0,1.924,1.93c.662.562,1.344,1.085,2.051,1.584.745.48,1.507.927,2.3,1.337.788.378,1.6.712,2.416,1.009.851.278,1.7.5,2.568.7a25.687,25.687,0,0,0,2.605.354,27.836,27.836,0,0,0,2.82,0c.871-.082,1.722-.189,2.581-.347.9-.208,1.785-.441,2.662-.725.858-.315,1.691-.675,2.518-1.066.782-.417,1.539-.864,2.277-1.35.656-.473,1.287-.959,1.9-1.476.68-.632,1.331-1.281,1.961-1.975.493-.6.959-1.211,1.413-1.841a26.414,26.414,0,0,0,1.363-2.31c.391-.8.732-1.615,1.048-2.449a27.263,27.263,0,0,0,.745-2.718c.157-.858.276-1.723.352-2.6.045-.895.057-1.8.013-2.692a26.352,26.352,0,0,0-.36-2.733q-.283-1.267-.68-2.505c-.31-.851-.657-1.678-1.042-2.492a26.312,26.312,0,0,0-1.387-2.36c-.5-.712-1.022-1.394-1.591-2.056-.6-.649-1.224-1.274-1.709-1.717q-.947-.812-1.962-1.539c-.714-.467-1.446-.895-2.2-1.3a28.531,28.531,0,0,0-2.676-1.135c-.858-.271-1.722-.506-2.6-.7-.845-.152-1.691-.258-2.542-.334-.473-.029-.946-.04-1.421-.04s-.948.011-1.425.034" transform="translate(0 0)"/>
        </g>
      </g>
      <g id="Group_113" data-name="Group 113" transform="translate(793 230.329)">
        <g id="Group_112" data-name="Group 112" transform="translate(0 0)" clip-path="url(#clip-path-2)">
          <path id="Path_169" data-name="Path 169" d="M9.919,39.706C-3.774,37.323-2.095,17.279,7.7,11.042a8.126,8.126,0,0,1,12.006,2.936c1.867,3.3,2.346,10.895-3.079,10.522a3.724,3.724,0,0,1-3.144-4.141c.625-4.435-1.692-4.264-3.882-1.106-2.726,3.99-4.334,12.682,2.218,13.557,4.134,1.264,2.884,7.033-.882,7.033a4.008,4.008,0,0,1-1.02-.136" transform="translate(0 7.973)"/>
          <path id="Path_170" data-name="Path 170" d="M17.24,40.134C9.847,38.455,10.615,30.108,12.6,24.5c1.773-5.168,4.637-12.6,10.952-13,3.208.072,5.326,2.828,6.862,5.341a4.006,4.006,0,0,1,.222,5.346c1.148,7.443-3.087,18.128-11.418,18.135a10.523,10.523,0,0,1-1.981-.195M18.6,32.893a1.151,1.151,0,0,0,.6.158c4.894-1.657,4.815-8.87,3.561-13.026-2.427,3.753-4.336,8.347-4.156,12.868" transform="translate(9.415 9.634)"/>
          <path id="Path_171" data-name="Path 171" d="M26.414,41.174C24.5,30.064,24.5,18.072,27.468,7.2a3.712,3.712,0,0,1,6.6.494,3.435,3.435,0,0,1-.187,3.188,114.688,114.688,0,0,0-1.455,15.53,68.71,68.71,0,0,0,.9,12.444,3.759,3.759,0,0,1-2.447,4.852,3.322,3.322,0,0,1-.919.121,3.612,3.612,0,0,1-3.546-2.655" transform="translate(21.004 4.532)"/>
          <path id="Path_172" data-name="Path 172" d="M33.313,38.6A88,88,0,0,1,31.95,15.144c.38-3.257-.151-6.831,1.163-9.882a3.718,3.718,0,0,1,6.574.459c.717,1.543-.2,3.052-.151,4.622-.674,9.129-.941,18.271.889,27.279A3.517,3.517,0,0,1,36.8,41.641,3.433,3.433,0,0,1,33.313,38.6" transform="translate(26.541 2.924)"/>
          <path id="Path_173" data-name="Path 173" d="M41.278,37.231a2.477,2.477,0,0,1-.1-.5,4.488,4.488,0,0,1,.022-.97h-.015l-.028.417c.208-7.242-.617-14.755,1.815-21.723,1.091-3.4,4.694-6.2,8.325-4.867,7.013,3.094,9.631,15.94,10.751,22.923.494,4.771-6.509,5.741-7.242.99a44.86,44.86,0,0,0-5.139-16c-1.751,6.258-.889,12.853-1.205,19.262a3.512,3.512,0,0,1-3.625,3.129,3.585,3.585,0,0,1-3.559-2.655" transform="translate(34.458 7.744)"/>
          <path id="Path_174" data-name="Path 174" d="M43.894,25.143a3.713,3.713,0,0,1-1.314-5.016c1.02-1.859,3.316-2.039,5.188-2.376,3.287-.481,8.477-2.677,9.374,2.159a3.723,3.723,0,0,1-3.136,4.134c-2.218.417-4.457.812-6.682,1.242a3.807,3.807,0,0,1-1.593.345,3.608,3.608,0,0,1-1.837-.489" transform="translate(35.25 14.097)"/>
          <path id="Path_175" data-name="Path 175" d="M59.319,40.81c-5.6-6.087-4.183-15.545-4.033-23.18.323-3.733.647-10.865,6.05-9.732,2.526-2.642,7.327-.7,10.241.452,6.9,3.079,8.268,12.172,1.178,15.888,6.236,7.457.366,18.6-7.608,18.6a9.912,9.912,0,0,1-5.828-2.03m4.171-6.632c.173.553.487,1.314,1.141,1.393a4.011,4.011,0,0,0,2.7-1.435c2.4-3.573-1.257-7.564-4.953-7.952a28.949,28.949,0,0,0,1.113,7.994m-.4-19.951c-.266,1.486-.423,2.978-.546,4.479a10.389,10.389,0,0,0,2.741.243,9.72,9.72,0,0,0,4.227-1.255c-.072.05-.151.1-.23.158a.557.557,0,0,0-.158.107c1.321-.7,1.442-1.45.287-2.425-1.714-1.479-4.068-1.529-6.193-1.845-.042.18-.092.358-.129.538" transform="translate(46.063 5.507)"/>
          <path id="Path_176" data-name="Path 176" d="M75.574,34.631c-6.272-2.455-6.831-10.176-4.233-15.567,2.045-4.435,5.934-10.614,11.619-9.322,3.393,1.126,5.618,5.124,6.028,8.5,1.665,7.206-2.1,17.116-9.688,17.116a10.529,10.529,0,0,1-3.726-.731M79.041,28.1l.015-.086c3.724-.847,3.6-7.873,1.966-10.535-1.981,2-6.408,9.359-1.981,10.621" transform="translate(58.507 8.012)"/>
          <path id="Path_177" data-name="Path 177" d="M83.193,37.438a226.174,226.174,0,0,1,1.479-24.15c-1.027-6.379,8.117-6.171,7.342.353-.768,7.915-1.536,15.831-1.573,23.8A3.524,3.524,0,0,1,86.8,41a3.485,3.485,0,0,1-3.61-3.566" transform="translate(69.65 7.22)"/>
          <path id="Path_178" data-name="Path 178" d="M100.328,35.739c-3.279-1.729-6.717-3.087-10.063-4.665-1.507-.733-2.884-1.716-3.287-3.43-.889-3.81,3.482-5.1,5.971-6.783,2.613-1.047,3.6-6.329-.366-4.966l.044-.136c-2.3,2.627-1.837,7.966-6.956,6.373-4.507-2.24-.924-8.023,1.143-10.865a8.829,8.829,0,0,1,6.337-2.943c10.349-.287,12.379,13.041,4.378,18.157,2.949,1.672,9.135,2.756,7.47,7.364a3.772,3.772,0,0,1-3.344,2.21,2.918,2.918,0,0,1-1.328-.316" transform="translate(69.91 6.966)"/>
          <path id="Path_179" data-name="Path 179" d="M99.4,36.122a3.866,3.866,0,0,1-1.02-3.265c.158-3.46.331-6.9.7-10.334.775-4.494.919-10.3,5.247-12.954,9.508-4.514,13.118,9.423,15.071,16.14.911,3.166,2.82,8.7-1.924,9.574a3.676,3.676,0,0,1-4.119-3.136c-1.148-5.418-2.462-11.132-5.556-15.8-1.6,4.946-1.758,10.243-2.023,15.394-.059,1.514.042,3.259-1.185,4.378a3.951,3.951,0,0,1-2.662,1.047A3.533,3.533,0,0,1,99.4,36.122" transform="translate(82.328 7.273)"/>
          <path id="Path_180" data-name="Path 180" d="M101.127,23.68a3.727,3.727,0,0,1,1.119-6.072,21.121,21.121,0,0,1,5.032-.731c3.114-.287,8.11-1.859,8.848,2.583.445,4.27-4.183,4.329-7.241,4.615a12.035,12.035,0,0,0-2.657.294,12.8,12.8,0,0,1-2.4.309,3.77,3.77,0,0,1-2.706-1" transform="translate(83.73 13.709)"/>
          <path id="Path_181" data-name="Path 181" d="M115.357,39.488a221.554,221.554,0,0,1-.2-33.673c.8-4.758,7.836-3.8,7.283,1a247.167,247.167,0,0,0,.158,32.675,3.621,3.621,0,0,1-7.241,0" transform="translate(95.954 2.256)"/>
          <path id="Path_182" data-name="Path 182" d="M113.568,19.528a3.688,3.688,0,0,1-1.321-5.016c.955-1.7,2.943-2.153,4.758-2.225,4.126-.195,8.268-.316,12.387-.625,4.736-.5,5.627,6.574.941,7.233-4.615.553-9.431.136-13.945,1a3.551,3.551,0,0,1-.954.129,3.654,3.654,0,0,1-1.867-.5" transform="translate(93.545 9.744)"/>
          <path id="Path_183" data-name="Path 183" d="M164.035,18.188c.121-.015.244-.037.366-.057-.114.02-.23.042-.344.057Z" transform="translate(137.336 15.181)"/>
          <path id="Path_184" data-name="Path 184" d="M183.729,27.726c.051-4.42.123-8.848.029-13.276-.553-2.57.309-5.971,3.423-6.087,8.742-4.428,19.227,5.183,18.187,14.275-.647,7.816-8.391,18.723-16.737,18.918-6.351-1.062-4.707-9.115-4.9-13.831M191.1,14.507c.015.961.015,1.916.015,2.877,0,1.916,0,3.84-.022,5.763-.05,3.381-.173,6.761-.079,10.134,5.519-3.832,10.838-13.428,3.4-17.985a6.2,6.2,0,0,0-2.771-.847,2.21,2.21,0,0,0-.538.057" transform="translate(153.718 6.071)"/>
          <path id="Path_185" data-name="Path 185" d="M198.923,34.669a197.28,197.28,0,0,1-.711-20.5c-.43-7.213,9.581-6.23,7.307.388-.215,6.544.237,13.09.6,19.62A3.617,3.617,0,0,1,203,37.763c-.143.013-.294.028-.439.028a3.6,3.6,0,0,1-3.638-3.121" transform="translate(165.902 7.676)"/>
          <path id="Path_186" data-name="Path 186" d="M213.7,41.319c-3.329-.61-8.411-3.825-5.692-7.621a3.7,3.7,0,0,1,5.124-.654,4.966,4.966,0,0,0,2.054,1.119l-.029.029a3.889,3.889,0,0,0,1.823-.467c-1.328-7.09-8.841-13.133-6.215-20.827a10.007,10.007,0,0,1,11.383-6.265,7.979,7.979,0,0,1,6.063,8.742,3.709,3.709,0,0,1-3.674,3.674c-2.906-.022-3.845-2.67-3.766-5.146V13.9a2.483,2.483,0,0,0-3.252,2.462c1.156,5.368,5.418,9.682,6.48,15.128,1.659,5.642-3.265,10-8.525,10.006a9.35,9.35,0,0,1-1.773-.173" transform="translate(173.504 5.345)"/>
          <path id="Path_187" data-name="Path 187" d="M226.467,36.243c-10.908-6.265-3.178-24.422,6.9-27.257a6.7,6.7,0,0,1,6.8,2.519c1.716,2.793,5.4,7.307,1.464,9.848-4.027,2.08-5.484-2.326-7.077-5.074A13.487,13.487,0,0,0,228.484,27.8c1.156,4.035,6.645,3.223,9.917,3.079a3.651,3.651,0,0,1,4.047,3.079c.388,3.3-2.771,4.391-6.445,4.391s-7.851-1.082-9.537-2.109" transform="translate(185.165 7.394)"/>
          <path id="Path_188" data-name="Path 188" d="M236.822,30.106a75.848,75.848,0,0,1,1.257-15.078c.279-2.232.983-4.981,3.63-5.282a3.716,3.716,0,0,1,4.141,3.144c-.768,5.684-2.017,11.4-1.736,17.217a3.646,3.646,0,0,1-7.292,0" transform="translate(198.27 8.133)"/>
          <path id="Path_189" data-name="Path 189" d="M247.641,48.271q.485-18.461.573-36.938a3.664,3.664,0,0,1,7.329,0c.007,6.056-.094,12.113-.215,18.163-.123,6.259-.209,12.524-.459,18.775a3.614,3.614,0,0,1-7.228,0" transform="translate(207.332 6.424)"/>
          <path id="Path_190" data-name="Path 190" d="M252.96,30.626c-1.716-4.722,4.615-5.339,7.055-7.873,2.067-1.766,3.423-4.6,2.475-7.292a2.732,2.732,0,0,0-2.059-2.1c-2.591-.073-3.674,2.1-4.678,4.284-1.2,2.591-2.3,5.188-5.714,3.983-6.136-2.8,2.491-14.441,7.084-15.086,11.194-3.489,16.656,11.547,10.033,19.153-1.681,2.269-7.22,7.048-11.038,7.048a3.241,3.241,0,0,1-3.158-2.116" transform="translate(207.559 5.045)"/>
          <path id="Path_191" data-name="Path 191" d="M263.33,34.594c-.9-9.8,1.679-19.42,2.282-29.137.136-4.78,7.206-4.79,7.292,0-.437,9.745-3.144,19.333-2.4,29.137a3.433,3.433,0,0,1-3.559,3.531,3.5,3.5,0,0,1-3.617-3.531" transform="translate(220.312 1.565)"/>
          <path id="Path_192" data-name="Path 192" d="M272.717,32.2c.187-6.316.538-12.631.158-18.947-2.39-3.889,3.215-8.088,6.164-4.406,1.214,1.45,1.148,3.566,1.235,5.346.294,6.008-.028,12.006-.294,18.007a3.533,3.533,0,0,1-3.652,3.573,3.488,3.488,0,0,1-3.61-3.573" transform="translate(227.977 6.216)"/>
          <path id="Path_193" data-name="Path 193" d="M280.1,35.185c-1.472-7.988,1.205-16,3.84-23.454.81-4.018,5.231-6.495,7.628-2.225,2.146,5.828,1.586,13.507,6.7,17.849,2.2-4.112,2.074-9.465,2.554-13.715-.1-2.655.195-5.855,3.575-5.942a3.534,3.534,0,0,1,3.5,3.5,68.994,68.994,0,0,1-2.032,16.37c-4.248,12.625-15.335,6-18-3.739a24.959,24.959,0,0,0-.5,10.356,3.666,3.666,0,0,1-7.263,1" transform="translate(234.158 6.091)"/>
          <path id="Path_194" data-name="Path 194" d="M306.108,38.014c-9.53-1.242-8.626-12.616-6.954-19.657,1.156-3.581.316-10.779,5.677-10.478,3.186.4,3.853,4.384,2.534,6.789a106.091,106.091,0,0,0-1.975,11.49c-1.134,7.981,5.642,3.682,9.4,1.45a3.6,3.6,0,1,1,3.63,6.208c-3.48,2.01-7.285,4.235-11.4,4.235-.3,0-.61-.015-.911-.037" transform="translate(249.575 6.591)"/>
          <path id="Path_195" data-name="Path 195" d="M302.66,21.469c-4.45-.783-4.033-6.675-.072-7.952,2.835-1.17,6.043-1.1,9.043-1.694a3.705,3.705,0,0,1,4.134,3.144c.373,5.311-6.337,4.119-9.761,5.161a3.717,3.717,0,0,1-2.842,1.378,3.768,3.768,0,0,1-.5-.037" transform="translate(250.726 9.867)"/>
          <path id="Path_196" data-name="Path 196" d="M300.165,15.387C296.992,8.8,306.279,6.94,310.916,6.2c3.121-.61,5.411,3.474,3.393,5.863-1.845,2.074-5.08,1.565-7.492,2.6a3.557,3.557,0,0,1-3.546,2.506,3.409,3.409,0,0,1-3.107-1.78" transform="translate(250.766 5.141)"/>
          <path id="Path_197" data-name="Path 197" d="M322.319,37.792c-3.38-.4-8.986-2.59-6.746-6.86a3.669,3.669,0,0,1,4.966-1.3c.978.544,2.168,1.176,3.287.867-2.561-6.517-10.018-13.471-5.346-20.733,3.445-5.3,12.782-7.263,16.313-1.04,2.067,3.445,1.657,11.72-3.939,10.628a3.723,3.723,0,0,1-2.57-4.521c.18-.832.818-2.805-.617-2.684a4.233,4.233,0,0,0-3.3,2.045c.143,6.546,8.124,11.411,6.6,18.38-.926,3.294-4.27,5.289-7.593,5.289a7.358,7.358,0,0,1-1.047-.072" transform="translate(263.778 4.065)"/>
          <path id="Path_198" data-name="Path 198" d="M373.81,44.941a50.057,50.057,0,0,1-9.408-5.411c-6.065,5.662-19.844,8.986-22.987-1.235-.509-6.416,4.141-12.049,7.529-17.116-3.294-4.729-5.038-11.534-1.148-16.429,2.67-3.371,8.053-5.253,12.021-3.164,7.514,4.808,3.845,15.034-1.608,19.98,1.988,2.662,3.961,5.361,6.157,7.865,3.072-3.316,4.013-7.816,4.859-12.107a3.663,3.663,0,1,1,7.062,1.946c-1.027,5.447-2.592,10.952-6.46,15.12,2.87,2.684,10.549,3.346,8.8,8.6a3.827,3.827,0,0,1-3.437,2.26,3.09,3.09,0,0,1-1.378-.309m-25.176-8.159a4.867,4.867,0,0,0,3.171.832,14.655,14.655,0,0,0,7.171-3.2c-1.968-2.2-3.776-4.551-5.534-6.919a33.205,33.205,0,0,0-4.808,9.287m5.339-21.508c1.672-1.9,3.711-4.63,2.333-7.213a3.932,3.932,0,0,0-1.508.323c-.015.007-.028.022-.042.029a3.393,3.393,0,0,0-1.716,1.766l-.042.215a.756.756,0,0,0-.044.237c.015-.079.029-.158.051-.237l.042-.123c-.481,1.7.2,3.467.926,5" transform="translate(285.812 0.597)"/>
          <path id="Path_199" data-name="Path 199" d="M160.79,36.819c-.072.029-.136.05-.208.079.064-.029.136-.05.208-.079" transform="translate(134.445 30.827)"/>
          <path id="Path_200" data-name="Path 200" d="M376.351,38.65c-6.6-2.383-4.011-11.843-4.378-17.3.524-3.832-.775-9.258,2.183-12.186a3.945,3.945,0,0,1,5.245.516c11-.042,14.9,7.729,11.655,17.6-2.074,5.109-7.312,11.49-13.291,11.49a7.883,7.883,0,0,1-1.415-.121m2.921-15.108c-.064,2.4-.114,4.808-.022,7.2,3.926-2.647,6.761-7.658,5.045-12.387-1.156-1.264-3.257-.963-4.808-1.486-.107,2.225-.165,4.45-.215,6.675" transform="translate(311.26 7.026)"/>
          <path id="Path_201" data-name="Path 201" d="M387.695,32.987c-4.141-3.494-3.114-9.374-2.361-14.11.717-2.877.775-6.445,3.092-8.562a3.723,3.723,0,0,1,5.907,2.469,3.916,3.916,0,0,1-.637,2.583,48.208,48.208,0,0,0-1.63,8.569c-.022,1.314-.509,3.309.99,3.9,2.9.933,5.519-1.3,7.865-2.7a3.674,3.674,0,0,1,5,1.3,3.719,3.719,0,0,1-1.314,5c-2.978,2.124-6.833,3.9-10.522,3.9a9.375,9.375,0,0,1-6.394-2.361" transform="translate(322.036 7.995)"/>
          <path id="Path_202" data-name="Path 202" d="M385.1,18.468c.215-5.885,11.1-5.376,15.394-6.574,4.779-.568,5.749,6.487,1,7.277-3.4.617-6.855.983-10.176,1.931a3.3,3.3,0,0,1-2.425,1.025,3.712,3.712,0,0,1-3.79-3.66" transform="translate(322.415 9.932)"/>
          <path id="Path_203" data-name="Path 203" d="M387.91,18.1c-5.26-4.04,1.924-8.92,6-9.833,3.042-.976,7.922-3.3,9.293,1.106a3.718,3.718,0,0,1-2.568,4.521,49.321,49.321,0,0,0-7.1,2.418,1.892,1.892,0,0,0-.59.467,3.688,3.688,0,0,1-3.2,1.81,3.62,3.62,0,0,1-1.83-.489" transform="translate(323.219 5.673)"/>
          <path id="Path_204" data-name="Path 204" d="M402.54,49.43c-4.277-.941-2.964-4.586-2.546-7.744.279-4.714.042-9.443.235-14.167.151-5.038.632-10.048.647-15.078a3.677,3.677,0,1,1,7.285-1c.114,8.628-.941,17.261-.74,25.909-.465,3.832.941,12.093-4.606,12.093-.094,0-.18,0-.274-.007" transform="translate(334.453 6.917)"/>
          <path id="Path_205" data-name="Path 205" d="M401.956,28.9c-.926-3.983,3.042-4.643,5.929-5.418,1.936-.746,4.06-1.881,4.88-3.9a7.674,7.674,0,0,0-.74-5.109c-1.075-3-3.939.222-4.67,1.872a3.724,3.724,0,0,1-4.817,1.953c-6.552-3.753,3.151-12.754,8.06-12.51,9.9.279,12.9,15.71,5.477,21.242-2.01,1.615-6.8,4.457-10.314,4.457a3.632,3.632,0,0,1-3.8-2.583" transform="translate(335.176 4.836)"/>
          <path id="Path_206" data-name="Path 206" d="M416.67,36.858C414.3,28.691,414.653,15.844,420.9,9.45,434.2-.467,438.322,24.269,436.973,33.119c-.819,4.751-7.845,3.781-7.277-1a30.707,30.707,0,0,0-3.381-17.547,2.2,2.2,0,0,0-.316.18c-3.99,5.045-3.709,13.177-2.561,19.24a3.653,3.653,0,0,1-3.5,5.074,3.523,3.523,0,0,1-3.265-2.21" transform="translate(347.718 5.982)"/>
          <path id="Path_207" data-name="Path 207" d="M418.072,22.828a3.73,3.73,0,0,1-.667-5.153c3.774-3.968,10.233-2.692,15.214-3.415,4.815.064,4.83,7.184,0,7.342a88.342,88.342,0,0,0-9.2.825,7.157,7.157,0,0,1-3.329,1.141,3.087,3.087,0,0,1-2.017-.739" transform="translate(348.85 11.939)"/>
          <path id="Path_208" data-name="Path 208" d="M433.888,37.823a3.857,3.857,0,0,1-3.087-4.687c.353-7.715,1.069-14.6,1.867-22.153.746-4.751,7.786-3.812,7.285,1-.538,5.49-1.148,10.965-1.543,16.449-.358,3.344.647,9.416-4.055,9.416-.151,0-.309-.007-.467-.022" transform="translate(360.627 6.581)"/>
          <path id="Path_209" data-name="Path 209" d="M448.244,37.095c-5.067-3.079-19.449-6.373-14.138-14.569,2.8-2.813,8.13-2.877,9.681-6.961,0-3.4-4.191-1.077-5.124.669-2.941,3.774-8.677-.639-5.813-4.487C445.926-3.6,460.912,18.09,442.4,26.229c3.144,1.6,6.423,2.9,9.517,4.593,3.452,2.109,1.42,6.774-1.83,6.774a3.811,3.811,0,0,1-1.845-.5" transform="translate(361.744 5.35)"/>
          <path id="Path_210" data-name="Path 210" d="M451.186,43.76c-5.311-.99-2.218-8.776-2.692-12.581.215-7.887.086-15.782.7-23.654-.022-2.561,1.112-5.87,4.176-5.776a3.7,3.7,0,0,1,3.237,5.383c-.818,8.878-.452,17.338-.889,26.181-.5,3.551.976,10.456-4.185,10.456-.114,0-.237,0-.351-.007" transform="translate(375.1 1.462)"/>
          <path id="Path_211" data-name="Path 211" d="M444.711,16.509c.481-5.648,7.564-5.411,13.083-5.181,1.586.064,3.05.136,4.183.064a3.652,3.652,0,1,1,0,7.3,79.048,79.048,0,0,0-10.821.187,3.318,3.318,0,0,1-2.655,1.262,3.683,3.683,0,0,1-3.79-3.638" transform="translate(372.326 9.408)"/>
          <path id="Path_212" data-name="Path 212" d="M459.218,34.644c-1.457-7.2-.559-20.726,5.01-25.988,3.954-3.1,8.8.274,10.2,4.385,5.4-8.475,14.733-6.559,15.328,3.746a71.972,71.972,0,0,1,.1,12.631c-.252,3.151-4.736,4.284-6.531,1.744a4.184,4.184,0,0,1-.7-3.164c.138-4.578.388-8.4-.617-12.559a15.6,15.6,0,0,0-3.917,12.122,5.5,5.5,0,0,1-.094,3.43,3.7,3.7,0,0,1-6.768,0c-1.119-4.83-1.665-9.9-3.43-14.612-1.521,5.339-2.455,10.851-1.5,16.313a3.644,3.644,0,0,1-3.654,4.613,3.484,3.484,0,0,1-3.43-2.662" transform="translate(383.954 6.237)"/>
          <path id="Path_213" data-name="Path 213" d="M484.27,35.563c-9.989-5.117-6.394-18.387-2.692-26.561a3.705,3.705,0,0,1,5.03-1.321c2.671,1.543,1.731,4.494.617,6.724-1.01,4.464-4.959,12.69,1.128,14.915-.1-.015-.195-.037-.288-.059s-.193-.064-.186-.035a7.5,7.5,0,0,0,5.482-.884c4.2-2.282,7.751,3.812,3.674,6.287a16.12,16.12,0,0,1-7.621,2.052,11.924,11.924,0,0,1-5.146-1.119" transform="translate(400.018 6.022)"/>
          <path id="Path_214" data-name="Path 214" d="M480.549,18.778c-3.287-3.954,1-7.327,5.067-7.27a29.578,29.578,0,0,0,3.008-.173c3.66-.329,7.952-.66,8.288,3.581-.329,3.934-3.917,3.84-7.32,3.748a16.111,16.111,0,0,0-3.968.2,3.737,3.737,0,0,1-2.534.968,3.478,3.478,0,0,1-2.541-1.055" transform="translate(401.356 9.343)"/>
          <path id="Path_215" data-name="Path 215" d="M480.28,11.513c0-4.084,4.83-4.551,7.895-4.966,3.731-.057,10.836-2.534,11.3,3.107-.3,5.684-9.085,3.144-12.94,4.543a3.71,3.71,0,0,1-2.49.933,3.627,3.627,0,0,1-3.761-3.618" transform="translate(402.106 4.988)"/>
          <path id="Path_216" data-name="Path 216" d="M495.5,35.621a3.737,3.737,0,0,1-2.556-4.714,106.185,106.185,0,0,1,1.666-14.828c.674-3.494,1.126-9.91,6.315-8.152,5.067,3.279,4.22,10.829,8.095,15.192a94.233,94.233,0,0,0-.265-9.552c-.661-2.741.689-6.287,4.025-5.85a3.667,3.667,0,0,1,3.1,4.02,89.12,89.12,0,0,1,.437,12.15c-.108,15.308-10.836,9.381-15.473-.072-.9,3.79,1,11.885-4.356,11.885a6.162,6.162,0,0,1-.99-.079" transform="translate(412.555 6.386)"/>
          <path id="Path_217" data-name="Path 217" d="M512.81,41.3a4.075,4.075,0,0,1-.625-4.665c-.415-5.85-1.672-11.389-1.235-17.246a79.624,79.624,0,0,1,2.657-16.7,3.673,3.673,0,0,1,7.083,1.953,61.99,61.99,0,0,0-1.981,10.334c-1.622,8.381,1.22,16.708.516,25.054a3.609,3.609,0,0,1-3.6,2.647A3.411,3.411,0,0,1,512.81,41.3" transform="translate(427.709 0.001)"/>
          <path id="Path_218" data-name="Path 218" d="M509.557,15.746a3.675,3.675,0,0,1,0-5.131c4.371-3.788,10.65-1.407,15.839-1.385,4.736.165,4.736,7.156,0,7.22-3.645-.051-7.3-1.034-10.937-.489a3.5,3.5,0,0,1-2.3.832,3.692,3.692,0,0,1-2.6-1.047" transform="translate(425.744 7.093)"/>
          <path id="Path_219" data-name="Path 219" d="M528.96,39.2c-3.388-.832-7.248-5.5-3.739-8.389a3.669,3.669,0,0,1,5.117.652c.531,1.2,2.045.926,3.079.6,3.9-1.536-3.351-8.683-4.356-10.994-6.087-7.551-2.642-17.318,7.233-18.115,3.99-.156,6.934,2.778,8.06,6.4a3.719,3.719,0,0,1-1.96,4.823c-2.978,1.22-4.779-1.343-5.662-3.825a3.57,3.57,0,0,0-3.465,2.361l-.057-.193c1.37,6.416,8.253,10.707,8.719,17.59.645,5.626-4.781,9.537-10.013,9.537a9.752,9.752,0,0,1-2.956-.445" transform="translate(438.572 2.474)"/>
          <path id="Path_220" data-name="Path 220" d="M128.324,31.932c0-5.971.344-11.927.516-17.891a3.724,3.724,0,0,1,3.18-3.64,3.817,3.817,0,0,1,4.126,4.65c-.266,5.627-.775,11.248-.84,16.881a3.492,3.492,0,0,1-6.983,0" transform="translate(107.437 8.679)"/>
          <path id="Path_221" data-name="Path 221" d="M137.872,35.245a5.37,5.37,0,0,1-.961-1.027,3.711,3.711,0,0,1,.243-4.771c.676-3.976,1-8,1.479-11.993.151-1.679.445-3.487,2.052-4.384,4.966-2.635,8.685,7.055,12.058,9.68a37.194,37.194,0,0,0-.518-7.312c-.739-2.06-.072-4.566,2.24-5.183,6.186-.954,4.909,8.268,5.455,12.194.667,15.466-7.944,11.606-14.8,2.425-.39,3.509-.6,11.165-4.678,11.167a5.393,5.393,0,0,1-2.57-.8" transform="translate(113.995 8.529)"/>
          <path id="Path_222" data-name="Path 222" d="M161.213,39.814C148.77,34.137,154.963,7.855,167.995,7c3.417.086,9.5,1.679,7.8,6.25-1.874,3.862-5.131,1.413-8.117,1.069-5.267,2.4-8.96,15.168-3.834,18.979a7.961,7.961,0,0,0,8.211-1.288A2.256,2.256,0,0,0,170.98,29.9a3.557,3.557,0,0,1-.6-4.9c4.464-4.643,9.826,3.776,8.771,8.132-1.062,5.35-6.684,7.786-12.036,7.786a15.462,15.462,0,0,1-5.9-1.1" transform="translate(129.314 5.864)"/>
        </g>
      </g>
    </g>
    <g id="Group_92" data-name="Group 92" transform="translate(906.92 138)">
      <g id="Group_91" data-name="Group 91" transform="translate(0 0)" clip-path="url(#clip-path-3)">
        <path id="Path_78" data-name="Path 78" d="M5.423,59.823C-.72,58.62,2.5,49.452,1.462,44.923.719,36.119-.288,27.307.077,18.457c.051-2.034.062-4.435,1.6-5.981,3.849-3.5,8.773.774,7.132,5.315-.621,10.588,1.272,21.081,1.5,31.645.175,3.967,1,10.887-4.888,10.387" transform="translate(0 5.034)"/>
        <path id="Path_79" data-name="Path 79" d="M7.63,40.286c-5.4-1.541-3.148-9.718,2.288-8.3a2.319,2.319,0,0,0,1.66-.067c3.3-1.459,6.517-4.222,7.491-7.8.521-2.458-.687-5.575-3.464-5.666q.139.011.274.017l.28.059A10.311,10.311,0,0,0,8.687,20.47c-1.229,2.257-4.013,3.554-6.352,2.117-5.014-3.278-.107-9.247,3.9-10.841,5.063-2.36,11.735-3.081,16.446.436,12.76,9.762-.942,31.268-15.053,28.1" transform="translate(0.094 4.39)"/>
        <path id="Path_80" data-name="Path 80" d="M27.4,43.941c-12.011-6.653-3.167-31.046,10.087-28.816C53.7,21.634,45.571,52.849,27.4,43.941m6.435-6.949,0-.1a3.551,3.551,0,0,0,1.5-.818l-.181.157-.244.162c3.867-3.161,3.517-9.226.32-12.723a12.588,12.588,0,0,0-4.793,10.883l-.07-.035a3.238,3.238,0,0,0,3.472,2.475" transform="translate(9.775 6.739)"/>
        <path id="Path_81" data-name="Path 81" d="M45.329,42.943c-2.2-2.8-1.172-6.913-1.908-10.251-.706-8.537-.339-17.113-.458-25.673a4.3,4.3,0,1,1,8.591,0c.045,7.506-.077,15.025.212,22.525.264,3.472.618,6.929.8,10.4.184,3.658-4.782,5.666-7.233,3" transform="translate(19.328 1.224)"/>
        <path id="Path_82" data-name="Path 82" d="M58.1,39.313c.249-7.4-.294-14.861.47-22.229.386-3.426,5.014-5.06,7.374-2.481a4.508,4.508,0,0,1,1.1,4.511c-.357,6.729-.128,13.469-.351,20.2-.1,5.6-8.551,5.62-8.6,0" transform="translate(26.14 6)"/>
        <path id="Path_83" data-name="Path 83" d="M84.448,46.453c-15.138-.676-19.792-17.367-9.634-27.593,5.657-7.708,17.075-8.337,19.8,2.072.708,4.972-6.479,6.838-8.3,2.21-.644-2.386-2.259-1.258-3.554-.086-9.289,8.492-4.564,16.708,7.506,14.935a4.236,4.236,0,0,1,4.219,4.213c-.18,5.215-6.381,4.3-10.04,4.248" transform="translate(31.221 5.89)"/>
        <path id="Path_84" data-name="Path 84" d="M107.466,62.907c-5.391-.835-4.276-8.994,1.132-8.279,8.086-.65,6.274-13.653,6.543-19.544C110.891,42.019,98.78,50.654,94.02,39.6c-1.946-7.233.668-15.069,3.211-21.867,3.52-9.736,14.423-1.93,7.66,4.229-1.656,4.515-3.051,9.368-2.882,14.212,5.365-3.143,8.031-9.21,11.953-13.791a5.064,5.064,0,0,1,8.156.832c1.664,3.346,1.235,7.352,1.467,10.981.074,4.973.261,10.03-.674,14.935-1.319,7.123-7.313,15.561-15.444,13.774" transform="translate(41.993 5.908)"/>
        <path id="Path_85" data-name="Path 85" d="M140.146,55.408c-13.221-6-5.092-20.015,1.5-27.967C131.5,16.4,132.748,1.867,149.773.964c7.458-.445,12.833,7.313,10.529,14.249-1.309,4.743-4.812,8.446-7.79,12.217,2.691,3.381,5.357,6.793,8.27,9.987,5.749-5.33,9.208-12.423,12.195-19.553a4.273,4.273,0,1,1,7.871,3.33c-3.325,8.144-7.5,16.1-13.927,22.247a24.7,24.7,0,0,0,5.159,3.425c10.262.154,4.408,17.835-11.88,2.236-5.67,3.9-12.847,8.621-20.053,6.307m4.076-7.98c3.644-.489,6.849-2.569,9.881-4.522-2.489-2.672-4.721-5.581-6.991-8.435-2.1,3.545-6.614,7.552-5.08,11.983l-.122-.239a1.275,1.275,0,0,0-.128-.254,2.12,2.12,0,0,0,2.44,1.467m2.906-26.921c3.423-3.522,9.7-13.414-.391-10.528-5.852,1.534-1.966,7.48.391,10.528" transform="translate(59.861 0.425)"/>
        <path id="Path_86" data-name="Path 86" d="M193.656,64.551c-6.066-1.087-2.791-10.42-3.6-14.861-.02-7.66-.025-15.319.09-22.978.863-4.816-2.431-15.46,4.622-15.988a4.458,4.458,0,0,1,4.284,5.38c-.377,11.248-.332,22.519-.393,33.778-.613,4.766,2.434,14.79-5,14.668" transform="translate(85.423 4.824)"/>
        <path id="Path_87" data-name="Path 87" d="M192.124,34.9c-2.221-7.329,9.121-6.2,11.545-11.242.877-3.143-2.078-7.858-5.553-7.362-2.1,4.8-9.534,2.175-8.116-2.888,2.587-7.726,13.062-7.065,17.835-1.795,6.026,5.7,6.4,16.366-1.053,21.029-3.889,2.068-11.69,8.176-14.658,2.259" transform="translate(85.396 3.433)"/>
        <path id="Path_88" data-name="Path 88" d="M214.548,45.881c-6.287-6.819-2.906-23.481-1.512-32.062,1.7-4.524,1.55-14.892,8.467-13.727a4.424,4.424,0,0,1,3.036,5.351c-3.784,10.441-5.728,21.9-4.448,32.995a4.363,4.363,0,0,1,3.587,4.232c-.006,4.54-6.085,5.357-9.13,3.211" transform="translate(94.865 0)"/>
        <path id="Path_89" data-name="Path 89" d="M229.539,45.89c-9.472-1.714.261-23.83,1.531-30C232.2,10.306,237.7,3.7,243.58,8.069c6.224,5.454,8.118,14.373,9.674,22.173.761,4.774,2.249,15.783-5.686,13.667-3.749-1.511-2.078-5.494-2.4-8.538A48.021,48.021,0,0,0,239.9,16.893c-2.434,7.451-4.795,14.853-5.765,22.437,1.677,2.94-1.143,7.217-4.6,6.561" transform="translate(101.419 2.991)"/>
        <path id="Path_90" data-name="Path 90" d="M231.77,30.258a4.384,4.384,0,0,1-3.716-4.893c.606-4.094,5.472-4.383,8.734-4.685,4.147-.023,11.69-2.2,12.057,3.983-.26,5.726-7.158,4.138-11.077,4.629-2.112-.106-3.931,1.074-6,.966" transform="translate(102.576 9.128)"/>
        <path id="Path_91" data-name="Path 91" d="M250.969,45.743c-3.755-3.612-.161-10.248-.271-14.861,1.158-4.56-.191-15.06,4.418-17.1,6.52-2.363,10.545,10.23,13.806,14.378.16-3.538.2-7.109.584-10.629.809-5.55,9.189-4.424,8.524,1.167-.6,6.35-.109,12.814-1.095,19.108-.534,4.083-5.352,7.178-8.885,4.31-3.833-3.472-5.66-8.5-8.444-12.763-.432,4.2-1.121,8.373-1.648,12.565a4.349,4.349,0,0,1-6.988,3.829" transform="translate(112.132 6.066)"/>
        <path id="Path_92" data-name="Path 92" d="M276.555,49.031a4.384,4.384,0,0,1-3-5.467c.55-3.275.735-6.617,1.041-9.92,1.215-5.431-.332-25.1,9.515-19.857,4.885,5,5.585,12.949,10.461,18.135a84.5,84.5,0,0,0,.883-15.415c-.21-3.615,4.757-5.6,7.171-2.969,2.737,4.1.757,10.071.871,14.766-1.26,19.927-12.09,17.335-19.928,2.228-1.27,5.019,1.163,20.2-7.019,18.5" transform="translate(122.978 5.548)"/>
        <path id="Path_93" data-name="Path 93" d="M301.034,39.182c.184-7.542-.035-15.1.023-22.643.064-5.676,8.634-5.684,8.7,0-.1,7.541.183,15.108-.177,22.643a4.273,4.273,0,0,1-8.546,0" transform="translate(135.426 5.524)"/>
        <path id="Path_94" data-name="Path 94" d="M316.189,44c-3.661-8.183-.209-17.584,1.485-25.893.56-3.33,3.343-6.923,7.033-5.228,3.242,1.622,4.01,5.646,5.347,8.711a28.435,28.435,0,0,0,6.037,10.361c.944-4.724,2.93-9.861,1.873-14.648-1.077-7.7,11.49-8.348,8.4,6.524-2.465,21.441-11.2,25.6-22.274,5.34-.548,3.294-1.118,6.68-.534,10.006,1.166,2.218.909,5.038-1.425,6.385A4.384,4.384,0,0,1,316.189,44" transform="translate(141.516 5.376)"/>
        <path id="Path_95" data-name="Path 95" d="M355.533,48.919c-21.974-4.383-9.987-46.564,8.982-41.349a4.347,4.347,0,1,1-2.311,8.382,2.54,2.54,0,0,0-2.643.291c-8.692,6.134-12.13,29.569,4.2,23.959a2.662,2.662,0,0,0,1.013-1.019,19.221,19.221,0,0,0-2.755-2.717c-3.865-3.857,1.992-9.729,5.923-5.926,12.675,9.476-.177,22.045-12.408,18.379" transform="translate(154.628 3.205)"/>
      </g>
    </g>
  </g>
</svg>
