<svg xmlns="http://www.w3.org/2000/svg" xmlns:xlink="http://www.w3.org/1999/xlink" width="672.021" height="173.677" viewBox="0 0 672.021 173.677">
  <defs>
    <clipPath id="clip-path">
      <rect id="Rectangle_29" data-name="Rectangle 29" width="527.794" height="69.376" fill="none"/>
    </clipPath>
    <clipPath id="clip-path-2">
      <rect id="Rectangle_58" data-name="Rectangle 58" width="52.939" height="55.41" fill="none"/>
    </clipPath>
    <clipPath id="clip-path-3">
      <rect id="Rectangle_60" data-name="Rectangle 60" width="649.021" height="63.57" fill="none"/>
    </clipPath>
  </defs>
  <g id="Group_397" data-name="Group 397" transform="translate(-820 -138)">
    <g id="Group_92" data-name="Group 92" transform="translate(906.92 138)">
      <g id="Group_91" data-name="Group 91" transform="translate(0 0)" clip-path="url(#clip-path)">
        <path id="Path_78" data-name="Path 78" d="M5.423,59.823C-.72,58.62,2.5,49.452,1.462,44.923.719,36.119-.288,27.307.077,18.457c.051-2.034.062-4.435,1.6-5.981,3.849-3.5,8.773.774,7.132,5.315-.621,10.588,1.272,21.081,1.5,31.645.175,3.967,1,10.887-4.888,10.387" transform="translate(0 5.034)"/>
        <path id="Path_79" data-name="Path 79" d="M7.63,40.286c-5.4-1.541-3.148-9.718,2.288-8.3a2.319,2.319,0,0,0,1.66-.067c3.3-1.459,6.517-4.222,7.491-7.8.521-2.458-.687-5.575-3.464-5.666q.139.011.274.017l.28.059A10.311,10.311,0,0,0,8.687,20.47c-1.229,2.257-4.013,3.554-6.352,2.117-5.014-3.278-.107-9.247,3.9-10.841,5.063-2.36,11.735-3.081,16.446.436,12.76,9.762-.942,31.268-15.053,28.1" transform="translate(0.094 4.39)"/>
        <path id="Path_80" data-name="Path 80" d="M27.4,43.941c-12.011-6.653-3.167-31.046,10.087-28.816C53.7,21.634,45.571,52.849,27.4,43.941m6.435-6.949,0-.1a3.551,3.551,0,0,0,1.5-.818l-.181.157-.244.162c3.867-3.161,3.517-9.226.32-12.723a12.588,12.588,0,0,0-4.793,10.883l-.07-.035a3.238,3.238,0,0,0,3.472,2.475" transform="translate(9.775 6.739)"/>
        <path id="Path_81" data-name="Path 81" d="M45.329,42.943c-2.2-2.8-1.172-6.913-1.908-10.251-.706-8.537-.339-17.113-.458-25.673a4.3,4.3,0,1,1,8.591,0c.045,7.506-.077,15.025.212,22.525.264,3.472.618,6.929.8,10.4.184,3.658-4.782,5.666-7.233,3" transform="translate(19.328 1.224)"/>
        <path id="Path_82" data-name="Path 82" d="M58.1,39.313c.249-7.4-.294-14.861.47-22.229.386-3.426,5.014-5.06,7.374-2.481a4.508,4.508,0,0,1,1.1,4.511c-.357,6.729-.128,13.469-.351,20.2-.1,5.6-8.551,5.62-8.6,0" transform="translate(26.14 6)"/>
        <path id="Path_83" data-name="Path 83" d="M84.448,46.453c-15.138-.676-19.792-17.367-9.634-27.593,5.657-7.708,17.075-8.337,19.8,2.072.708,4.972-6.479,6.838-8.3,2.21-.644-2.386-2.259-1.258-3.554-.086-9.289,8.492-4.564,16.708,7.506,14.935a4.236,4.236,0,0,1,4.219,4.213c-.18,5.215-6.381,4.3-10.04,4.248" transform="translate(31.221 5.89)"/>
        <path id="Path_84" data-name="Path 84" d="M107.466,62.907c-5.391-.835-4.276-8.994,1.132-8.279,8.086-.65,6.274-13.653,6.543-19.544C110.891,42.019,98.78,50.654,94.02,39.6c-1.946-7.233.668-15.069,3.211-21.867,3.52-9.736,14.423-1.93,7.66,4.229-1.656,4.515-3.051,9.368-2.882,14.212,5.365-3.143,8.031-9.21,11.953-13.791a5.064,5.064,0,0,1,8.156.832c1.664,3.346,1.235,7.352,1.467,10.981.074,4.973.261,10.03-.674,14.935-1.319,7.123-7.313,15.561-15.444,13.774" transform="translate(41.993 5.908)"/>
        <path id="Path_85" data-name="Path 85" d="M140.146,55.408c-13.221-6-5.092-20.015,1.5-27.967C131.5,16.4,132.748,1.867,149.773.964c7.458-.445,12.833,7.313,10.529,14.249-1.309,4.743-4.812,8.446-7.79,12.217,2.691,3.381,5.357,6.793,8.27,9.987,5.749-5.33,9.208-12.423,12.195-19.553a4.273,4.273,0,1,1,7.871,3.33c-3.325,8.144-7.5,16.1-13.927,22.247a24.7,24.7,0,0,0,5.159,3.425c10.262.154,4.408,17.835-11.88,2.236-5.67,3.9-12.847,8.621-20.053,6.307m4.076-7.98c3.644-.489,6.849-2.569,9.881-4.522-2.489-2.672-4.721-5.581-6.991-8.435-2.1,3.545-6.614,7.552-5.08,11.983l-.122-.239a1.275,1.275,0,0,0-.128-.254,2.12,2.12,0,0,0,2.44,1.467m2.906-26.921c3.423-3.522,9.7-13.414-.391-10.528-5.852,1.534-1.966,7.48.391,10.528" transform="translate(59.861 0.425)"/>
        <path id="Path_86" data-name="Path 86" d="M193.656,64.551c-6.066-1.087-2.791-10.42-3.6-14.861-.02-7.66-.025-15.319.09-22.978.863-4.816-2.431-15.46,4.622-15.988a4.458,4.458,0,0,1,4.284,5.38c-.377,11.248-.332,22.519-.393,33.778-.613,4.766,2.434,14.79-5,14.668" transform="translate(85.423 4.824)"/>
        <path id="Path_87" data-name="Path 87" d="M192.124,34.9c-2.221-7.329,9.121-6.2,11.545-11.242.877-3.143-2.078-7.858-5.553-7.362-2.1,4.8-9.534,2.175-8.116-2.888,2.587-7.726,13.062-7.065,17.835-1.795,6.026,5.7,6.4,16.366-1.053,21.029-3.889,2.068-11.69,8.176-14.658,2.259" transform="translate(85.396 3.433)"/>
        <path id="Path_88" data-name="Path 88" d="M214.548,45.881c-6.287-6.819-2.906-23.481-1.512-32.062,1.7-4.524,1.55-14.892,8.467-13.727a4.424,4.424,0,0,1,3.036,5.351c-3.784,10.441-5.728,21.9-4.448,32.995a4.363,4.363,0,0,1,3.587,4.232c-.006,4.54-6.085,5.357-9.13,3.211" transform="translate(94.865 0)"/>
        <path id="Path_89" data-name="Path 89" d="M229.539,45.89c-9.472-1.714.261-23.83,1.531-30C232.2,10.306,237.7,3.7,243.58,8.069c6.224,5.454,8.118,14.373,9.674,22.173.761,4.774,2.249,15.783-5.686,13.667-3.749-1.511-2.078-5.494-2.4-8.538A48.021,48.021,0,0,0,239.9,16.893c-2.434,7.451-4.795,14.853-5.765,22.437,1.677,2.94-1.143,7.217-4.6,6.561" transform="translate(101.419 2.991)"/>
        <path id="Path_90" data-name="Path 90" d="M231.77,30.258a4.384,4.384,0,0,1-3.716-4.893c.606-4.094,5.472-4.383,8.734-4.685,4.147-.023,11.69-2.2,12.057,3.983-.26,5.726-7.158,4.138-11.077,4.629-2.112-.106-3.931,1.074-6,.966" transform="translate(102.576 9.128)"/>
        <path id="Path_91" data-name="Path 91" d="M250.969,45.743c-3.755-3.612-.161-10.248-.271-14.861,1.158-4.56-.191-15.06,4.418-17.1,6.52-2.363,10.545,10.23,13.806,14.378.16-3.538.2-7.109.584-10.629.809-5.55,9.189-4.424,8.524,1.167-.6,6.35-.109,12.814-1.095,19.108-.534,4.083-5.352,7.178-8.885,4.31-3.833-3.472-5.66-8.5-8.444-12.763-.432,4.2-1.121,8.373-1.648,12.565a4.349,4.349,0,0,1-6.988,3.829" transform="translate(112.132 6.066)"/>
        <path id="Path_92" data-name="Path 92" d="M276.555,49.031a4.384,4.384,0,0,1-3-5.467c.55-3.275.735-6.617,1.041-9.92,1.215-5.431-.332-25.1,9.515-19.857,4.885,5,5.585,12.949,10.461,18.135a84.5,84.5,0,0,0,.883-15.415c-.21-3.615,4.757-5.6,7.171-2.969,2.737,4.1.757,10.071.871,14.766-1.26,19.927-12.09,17.335-19.928,2.228-1.27,5.019,1.163,20.2-7.019,18.5" transform="translate(122.978 5.548)"/>
        <path id="Path_93" data-name="Path 93" d="M301.034,39.182c.184-7.542-.035-15.1.023-22.643.064-5.676,8.634-5.684,8.7,0-.1,7.541.183,15.108-.177,22.643a4.273,4.273,0,0,1-8.546,0" transform="translate(135.426 5.524)"/>
        <path id="Path_94" data-name="Path 94" d="M316.189,44c-3.661-8.183-.209-17.584,1.485-25.893.56-3.33,3.343-6.923,7.033-5.228,3.242,1.622,4.01,5.646,5.347,8.711a28.435,28.435,0,0,0,6.037,10.361c.944-4.724,2.93-9.861,1.873-14.648-1.077-7.7,11.49-8.348,8.4,6.524-2.465,21.441-11.2,25.6-22.274,5.34-.548,3.294-1.118,6.68-.534,10.006,1.166,2.218.909,5.038-1.425,6.385A4.384,4.384,0,0,1,316.189,44" transform="translate(141.516 5.376)"/>
        <path id="Path_95" data-name="Path 95" d="M355.533,48.919c-21.974-4.383-9.987-46.564,8.982-41.349a4.347,4.347,0,1,1-2.311,8.382,2.54,2.54,0,0,0-2.643.291c-8.692,6.134-12.13,29.569,4.2,23.959a2.662,2.662,0,0,0,1.013-1.019,19.221,19.221,0,0,0-2.755-2.717c-3.865-3.857,1.992-9.729,5.923-5.926,12.675,9.476-.177,22.045-12.408,18.379" transform="translate(154.628 3.205)"/>
      </g>
    </g>
    <g id="Group_120" data-name="Group 120" transform="translate(820 248.106)">
      <g id="Group_109" data-name="Group 109" transform="translate(0 0)" clip-path="url(#clip-path-2)">
        <path id="Path_165" data-name="Path 165" d="M14.739,43.208c-14.3-5.9-16.261-26.569-4.181-35.876A17.516,17.516,0,0,1,26.263,3.95a15.886,15.886,0,0,1,10.318.984c8.755,4.588,11.8,16.922,9.928,26.047C43.346,44.4,25.834,53.438,14.739,43.208" transform="translate(1.352 1.726)" fill="#4ab070"/>
        <path id="Path_166" data-name="Path 166" d="M18.433,37.709l-.018-.42V34.251c.059,1.166.118,2.327.167,3.492l-.149-.035" transform="translate(9.498 17.666)"/>
        <path id="Path_167" data-name="Path 167" d="M15.96,34.643C15,32.4,16.908,30.7,18.887,30.066c2.131-1.2,4.415-2.492,5.808-4.564-.083-.024-.167-.042-.25-.065.076.012.147.029.226.047.011,0,.017.006.029.006l0-.006c0,.006,0,.006.012,0a8.231,8.231,0,0,0-2.559-.065c-.446.036-.888.071-1.326.071a3.142,3.142,0,0,1-2.707-4.647c1.529-2.3,3.777-4.472,4.253-7.3-2.919.261-4.976,2.872-7.793,3.162a3.029,3.029,0,0,1-.758-5.963,21.925,21.925,0,0,1,3.965-2.137c9.133-4.168,13.5,3.351,8.593,11.049,6.838,2.025,4.973,9.38.171,12.648-1.925,1.257-5.223,4.141-7.84,4.141a2.988,2.988,0,0,1-2.748-1.8" transform="translate(5.955 3.825)"/>
        <path id="Path_168" data-name="Path 168" d="M11.946,48.607A27.128,27.128,0,0,1,5.017,42,26.552,26.552,0,0,1,.926,33.49,27.092,27.092,0,0,1,2.087,16.047,26.258,26.258,0,0,1,10.548,5.235,27.29,27.29,0,0,1,22.188.25a2.651,2.651,0,0,1,.888-.006A24.361,24.361,0,0,1,26.635,0a26.5,26.5,0,0,1,21.3,10.953,26.462,26.462,0,0,1-9.6,39.2,27.78,27.78,0,0,1-8.42,2.577,24.334,24.334,0,0,1-3.476.243,26.253,26.253,0,0,1-14.494-4.37m13.3-42.691c-.55.041-1.1.106-1.646.183A3.279,3.279,0,0,1,23,6.26l-.218.035a30.029,30.029,0,0,0-2.919.776,26.874,26.874,0,0,0-2.681,1.137c-.764.408-1.505.846-2.227,1.32-.646.462-1.267.935-1.872,1.445-.656.593-1.278,1.208-1.883,1.854a27.6,27.6,0,0,0-1.764,2.29c-.432.676-.835,1.363-1.214,2.072q-.621,1.289-1.119,2.63c-.273.858-.509,1.717-.7,2.594-.159.894-.283,1.793-.361,2.7-.041.929-.041,1.866.006,2.8.089.9.214,1.805.379,2.706Q6.7,31.826,7.072,33c.326.9.687,1.777,1.094,2.634.379.717.788,1.416,1.22,2.108.521.746,1.066,1.469,1.4,1.883q.959,1.085,2.007,2.061c.652.562,1.326,1.094,2.031,1.6a28.953,28.953,0,0,0,2.522,1.487c.835.4,1.681.746,2.547,1.066.811.255,1.622.473,2.445.662.953.177,1.9.3,2.866.385.852.036,1.7.036,2.557,0a28.807,28.807,0,0,0,2.948-.4c.8-.183,1.6-.4,2.381-.65.888-.326,1.752-.687,2.606-1.1.781-.408,1.526-.852,2.268-1.326.662-.473,1.308-.959,1.936-1.479A28.707,28.707,0,0,0,41.952,39.9q.853-1.021,1.617-2.115c.438-.687.846-1.385,1.225-2.107a27.57,27.57,0,0,0,1.114-2.624c.267-.84.509-1.687.7-2.551.159-.882.29-1.758.373-2.647.053-.959.053-1.913.012-2.872q-.116-1.262-.338-2.516a26.176,26.176,0,0,0-.729-2.683,25.927,25.927,0,0,0-1.119-2.659Q44.235,16.038,43.57,15a28.119,28.119,0,0,0-1.752-2.243c-.558-.6-1.126-1.185-1.73-1.73a24.076,24.076,0,0,0-2.131-1.658c-.717-.461-1.451-.894-2.208-1.284a24.692,24.692,0,0,0-2.571-1.09,25.755,25.755,0,0,0-2.5-.681,26.8,26.8,0,0,0-2.83-.391q-.7-.034-1.4-.035-.6,0-1.208.029" transform="translate(0 0)"/>
      </g>
    </g>
    <g id="Group_119" data-name="Group 119" transform="translate(843 248.106)">
      <g id="Group_118" data-name="Group 118" transform="translate(0 0)" clip-path="url(#clip-path-3)">
        <path id="Path_223" data-name="Path 223" d="M.022,36.37,0,35.859v-3.7c.072,1.418.144,2.831.2,4.249L.022,36.37" transform="translate(0 27.157)"/>
        <path id="Path_224" data-name="Path 224" d="M35.363,56.553C31.8,55.177,33.8,50.638,33.727,48.1c.253-6.217-.079-12.457-.323-18.674-.225-5.793-.513-11.592-.585-17.393-.374-2.355,1.1-4.869,3.674-4.849a3.757,3.757,0,0,1,3.689,4.071c.059,7.256.454,14.525.721,21.773.144,5.3.446,10.627.087,15.923-.072,3.1-.505,7.888-4,7.888a5.165,5.165,0,0,1-1.629-.288" transform="translate(27.664 6.067)"/>
        <path id="Path_225" data-name="Path 225" d="M37.069,30.56c-.965-2.248.555-4.438,2.695-5.174,3.019-1.562,6.463-4.157,6.406-7.9.013.1.02.2.028.31a.45.45,0,0,0,.007.2,6.622,6.622,0,0,0-1.564-4.229,2.02,2.02,0,0,0-2.593-.419c.03-.022.079-.05.144-.1a2.253,2.253,0,0,0-1.3,2.082c-.741,4.777-7.824,3.812-7.313-1,1-9.676,14-11.78,18.243-3.084a13.107,13.107,0,0,1-.59,13.813c-1.651,2.521-7.033,7.665-10.9,7.665a3.452,3.452,0,0,1-3.257-2.162" transform="translate(28.327 4.863)"/>
        <path id="Path_226" data-name="Path 226" d="M53.769,34.6C38.2,32.017,51.825-1.983,63.568,9.926c2.982.146,3.573,3.307,3.912,5.721,1.5,7.824-3.1,19.1-11.9,19.1a11.277,11.277,0,0,1-1.809-.151m.714-7.571-.094.03a5.6,5.6,0,0,0,1.16.481l-.022-.087c3.545-.692,4.683-5.179,4.856-8.313-1.549-.706-1.844-2.494-2.32-3.971-2.313,2.523-5.114,8.589-3.58,11.859" transform="translate(39.494 6.252)"/>
        <path id="Path_227" data-name="Path 227" d="M66.83,38.956c-3.342-.778-8.927-4.006-6.145-8a3.663,3.663,0,0,1,5.094-.655c.612.54,1.455,1.029,2.038,1.463a5.288,5.288,0,0,0,.8.144C67.94,25.26,64.4,18.754,66.066,11.989,67.355,5.7,75.843,3.315,80.05,8.236c3.421,3.141,2.695,12.557-3.408,10.648a3.738,3.738,0,0,1-1.966-4.834.919.919,0,0,0-.094-.872c-1.743-1.108-1.736,2.226-1.678,3.294.813,7.651,7.975,22.579-4.266,22.579-.561,0-1.158-.03-1.807-.094" transform="translate(50.606 4.729)"/>
        <path id="Path_228" data-name="Path 228" d="M78.589,34.387c-4.6-.714-2.737-6.168-2.645-9.034.253-4.187.505-8.386.389-12.581A3.764,3.764,0,0,1,80.9,8.112c4.6,1.346,2.385,9.467,2.637,13.163C82.811,25.158,84.633,34.4,78.971,34.4c-.122,0-.245-.007-.382-.015" transform="translate(63.745 6.735)"/>
        <path id="Path_229" data-name="Path 229" d="M87.01,39.218c.151-11.9-2.329-23.119-1.413-34.828,2-5.821,10.008-1.2,7.068,3.667.266,10.736,1.614,20.563,1.643,31.161a3.649,3.649,0,1,1-7.3,0" transform="translate(72.105 1.413)"/>
        <path id="Path_230" data-name="Path 230" d="M83.908,18.854c-1.656-4.5,3.711-5.446,6.773-6.52,3.947-.756,11.2-6.051,13.3-.339,1.066,4.373-4.165,4.886-7.125,5.944-2.682.944-5.238,1.807-7.846,2.752a3.387,3.387,0,0,1-1.643.419,3.741,3.741,0,0,1-3.458-2.256" transform="translate(70.589 7.915)"/>
        <path id="Path_231" data-name="Path 231" d="M98.425,30.691c-.245-6.852-1.059-13.58-1.376-20.425a3.681,3.681,0,0,1,7.363,0c.28,4.7.54,8.407.915,12.889-.035,3.711,2.342,10.749-3.242,11.2a3.687,3.687,0,0,1-3.659-3.659" transform="translate(81.942 5.56)"/>
        <path id="Path_232" data-name="Path 232" d="M111.147,35.795C96.861,30.708,113.5-7.052,124.3,10.852c3.047,1.629,1.723,5.692,1.837,8.51.173,6.981-4.113,17.046-11.657,17.046a9.752,9.752,0,0,1-3.329-.612m1.78-9.539a5.111,5.111,0,0,0,.208,2.025,1.405,1.405,0,0,0,1.232.843c4.6-2,4.294-8.451,4.6-12.732a18.249,18.249,0,0,1-1.411-2.477c-3.034,3.313-4.207,7.96-4.626,12.341" transform="translate(89.177 5.124)"/>
        <path id="Path_233" data-name="Path 233" d="M119,34.232c-1.11-5.231,1.217-11.188,1.557-16.542.454-3.962.979-11.347,6.845-8.163,3.761,4.05,4.77,10.131,8.667,14.222a60.179,60.179,0,0,0,1.361-12.442c.1-4.626,6.946-4.631,7.053,0-.338,6.217-.186,13.163-3.429,18.66-5.022,6.284-11.312-1.879-13.9-6.426-.332,3.091-1.3,6.2-.994,9.294a3.636,3.636,0,0,1-3.783,3.646A3.537,3.537,0,0,1,119,34.232" transform="translate(100.233 6.615)"/>
        <path id="Path_234" data-name="Path 234" d="M136.466,29.627c-.166-5.952-.181-11.909-.5-17.846-.5-4.834,6.564-5.778,7.306-1,.419,6.269.29,12.573.505,18.848a3.656,3.656,0,1,1-7.313,0" transform="translate(114.789 6.45)"/>
        <path id="Path_235" data-name="Path 235" d="M143.394,34.327c-1.881-6.361-.2-13.04,1.6-19.23.692-4.244,3.976-7.781,7.839-4.1,2.566,4.438,2.66,10.043,5.605,14.373a76.131,76.131,0,0,0,1.11-14.338,3.686,3.686,0,0,1,3-4.41c6.188-.194,3.761,8.409,3.868,12.306-.33,3.82-.6,7.826-1.988,11.42-4.624,8.927-11.917.915-14.207-5.216a15.16,15.16,0,0,0,.3,7.226,3.641,3.641,0,0,1-3.659,4.624,3.532,3.532,0,0,1-3.458-2.658" transform="translate(120.383 5.59)"/>
        <path id="Path_236" data-name="Path 236" d="M165.521,41.317c-7.7-4.554-7.046-14.683-4.792-22.17,2.1-6.959,5.937-16.786,14.432-17.031,4.279-.007,10.137,6.2,5.323,9.489a3.733,3.733,0,0,1-2.839.374c-1.7-.411-1.916-1.658-2.968-2.529-5.548,2.874-11.031,19.718-6.621,24.776,1.333,1.455,3.53,2.328,5.382,1.42-.087.042-.166.087-.253.129-.007,0-.015,0-.159.079,2.933-1.239,4.229-5.662,1.7-7.9a3.555,3.555,0,0,1,.634-4.958c3.429-2.484,6.433,1.824,7.363,4.792,2.219,7.881-3.954,15.353-11.181,15.353a11.153,11.153,0,0,1-6.024-1.822" transform="translate(134.444 1.786)"/>
        <path id="Path_237" data-name="Path 237" d="M186.07,40.04c-3.314-1.413-1.981-5.151-1.3-7.809.741-4.058,1.2-8.141,1.643-12.241,1.022-4.331-.389-17.1,7.147-14.1,1.6.858,2.435,2.739,3.1,4.331,1.909,4.589,3.639,9.316,6.549,13.387.151-4.683.151-9.366.173-14.049.122-4.712,7.06-4.727,7.175,0-.072,5.922.245,11.894-.387,17.8-.231,1.953-.815,4.15-2.444,5.411-6.555,4.12-11.513-6.787-14.113-11.356a110.928,110.928,0,0,1-2.3,15.174,3.961,3.961,0,0,1-3.825,3.746,3.564,3.564,0,0,1-1.413-.3" transform="translate(155.3 4.59)"/>
        <path id="Path_238" data-name="Path 238" d="M225.589,36.613a3.622,3.622,0,1,1,.987-7.176,6.438,6.438,0,0,0,2.6-.136c-5.144-9.049-11.087-19.7.491-26.766,4.294-2.628,10.281.094,10.555,5.253.079,2.2.481,4.936-1.11,6.693-2.125,2.313-6.478.575-6.3-2.608.057-.915.122-1.83.109-2.752-6.455,4.4.618,11.793,2.68,16.786,3.394,6.572-2.01,10.865-8.042,10.865a12.131,12.131,0,0,1-1.973-.159" transform="translate(187.841 1.281)"/>
        <path id="Path_239" data-name="Path 239" d="M247.954,28.289a185.706,185.706,0,0,1-.31-20.814,3.689,3.689,0,0,1,7.378,0,191.13,191.13,0,0,0,.273,20.814,3.52,3.52,0,0,1-3.652,3.6,3.568,3.568,0,0,1-3.689-3.6" transform="translate(208.965 3.24)"/>
        <path id="Path_240" data-name="Path 240" d="M255.105,29.489a50.586,50.586,0,0,1,1.47-18.7c.345-3.709,3.56-6.728,6.944-3.86,3.25,4.631,3.222,11.706,8.394,15.006,1.276-3.86,1.1-7.628,1.024-11.52-.468-2.363.072-5.31,2.918-5.684a3.594,3.594,0,0,1,4.021,3.054c.208,6.629,1.621,17.442-5.2,21.168-5.236,1.894-10.006-3.04-12.457-7.169-.7,3.6,2.2,9.834-2.96,10.858a3.613,3.613,0,0,1-.483.03,3.7,3.7,0,0,1-3.667-3.185" transform="translate(215.126 3.971)"/>
        <path id="Path_241" data-name="Path 241" d="M284.807,48.978a3.726,3.726,0,0,1-3.084-4.417,336.783,336.783,0,0,0-.042-35.871c.065-4.8,7.2-4.849,7.37,0a302.041,302.041,0,0,1-.151,37.183,3.643,3.643,0,0,1-3.646,3.135,4.389,4.389,0,0,1-.446-.03" transform="translate(237.831 4.28)"/>
        <path id="Path_242" data-name="Path 242" d="M286.588,26.544c-1.909-3.726,1.736-5.238,4.388-6.787,2.558-1.476,4.668-5.079,2.536-7.722-2.464.865-3.79,3.486-5.389,5.4-2.955,3.768-8.711-.657-5.813-4.489,2.551-3.349,5.345-7.313,9.775-8.119,9.928-1.522,12.372,12.866,6.046,18.436-1.938,1.772-5.5,5.02-8.473,5.02a3.564,3.564,0,0,1-3.069-1.736" transform="translate(237.708 3.977)"/>
        <path id="Path_243" data-name="Path 243" d="M300.37,29.813c-10.152-2.578-5.994-16.2-.173-21.29,4.655-4.46,10.808-3.235,11.867,3.53.36,2.422,1.931,5.4.166,7.551.186,5.439-4.36,10.483-9.705,10.483a8.584,8.584,0,0,1-2.154-.275m2.846-7.132-.072-.072c3.027-1.369,1.346-5.015.893-7.407-.987,1.333-4.626,8.3-.821,7.479" transform="translate(248.421 4.973)"/>
        <path id="Path_244" data-name="Path 244" d="M307.939,31.674c-.042-9.078.771-18.134.88-27.212-.743-3.2,3.372-5.836,5.9-3.674,2.42,2.082,1.232,5.612,1.368,8.4-.28,7.492-.85,14.986-.9,22.485a3.625,3.625,0,0,1-7.249,0" transform="translate(260.017 -0.001)"/>
        <path id="Path_245" data-name="Path 245" d="M315.829,27.023c-1.426-5.821-.151-11.872.042-17.745.173-4.819,7.278-4.819,7.35,0-.129,5.67-1.341,10.432-.374,15.806a3.629,3.629,0,0,1-3.639,4.569,3.434,3.434,0,0,1-3.379-2.63" transform="translate(266.118 4.781)"/>
        <path id="Path_246" data-name="Path 246" d="M335.811,32.735c-4.921-.54-11.225-2.2-11.822-8.032A26.186,26.186,0,0,1,332.4,5.754c5.441-3.912,9.814,1.262,10.851,6.527a3.711,3.711,0,0,1-2.571,4.539c-2.746.771-4.526-1.614-5.022-4.013C333.4,16.057,331.5,20.013,331.3,24c1.542,1.153,3.667,1.131,5.5,1.512,4.532.749,3.8,7.248-.468,7.248a4.346,4.346,0,0,1-.526-.03" transform="translate(273.571 3.7)"/>
        <path id="Path_247" data-name="Path 247" d="M344.667,45.657c-4.661-.159-4.661-7.033,0-7.1,10.152,1.765,12.507-9.192,11.326-17.038-8.287,8.768-21.255,10.533-17.026-5.489.972-3.336,1.19-7.674,4.273-9.807a3.8,3.8,0,0,1,5.612,3.48,3.705,3.705,0,0,1-1.3,2.789,50.512,50.512,0,0,0-1.909,7.831,33.636,33.636,0,0,0,6.988-5.548c1.809-2.018,4.705-3.912,7.313-2.119,3.609,2.6,3.084,7.9,3.458,11.867.959,10.246-5.561,21.327-16.26,21.327a16.5,16.5,0,0,1-2.479-.188" transform="translate(285.522 4.826)"/>
        <path id="Path_248" data-name="Path 248" d="M208.84,40c-5.1.3-4.574-6.258-4.01-9.713-.089-8.943-1.092-17.924-.885-26.841.769-3.318,5.7-3.587,6.953-.456.859,5.345.343,11.02.8,16.489,6.227-4.441,16.965-2.667,17.164,6.293.2,7.52-6.881,12.5-13.481,14.266-2.082.409-4.688,1.424-6.546-.039m3.314-6.631c3.611-.942,8.235-2.612,9.338-6.577.216-.92-.009-2.213-1.136-2.313-4.873-.6-8.934,4.178-8.2,8.89" transform="translate(172.184 0.671)"/>
      </g>
    </g>
  </g>
</svg>
