<svg xmlns="http://www.w3.org/2000/svg" width="31.5" height="31.5" viewBox="0 0 31.5 31.5">
  <path id="Icon_awesome-researchgate" data-name="Icon awesome-researchgate" d="M0,2.25v31.5H31.5V2.25ZM18.436,25.763a3.351,3.351,0,0,1-3.516-1,29.312,29.312,0,0,1-2.967-4.472c-.626,0-1.034,0-1.5-.042v3.263c0,1.652.422,1.491,1.814,1.68v.57c-.485-.021-1.624-.056-2.5-.056-.921,0-1.835.042-2.363.056v-.57c1.09-.2,1.547-.091,1.547-1.68V15.82c0-1.589-.45-1.477-1.547-1.68v-.57c1.814.07,3.734-.042,4.985-.042,2.229,0,3.93,1.012,3.93,3.206a3.6,3.6,0,0,1-2.756,3.34,23.45,23.45,0,0,0,2.967,4.141,2.84,2.84,0,0,0,1.913,1.034Zm1.61-9.492a2.091,2.091,0,0,1-2.264-2.264V11.742A2.185,2.185,0,0,1,20.173,9.6a2.045,2.045,0,0,1,2.138,1.259l-.752.506a1.56,1.56,0,0,0-1.385-.879,1.45,1.45,0,0,0-1.385,1.385V13.76c0,.942.464,1.638,1.259,1.638.991,0,1.512-.766,1.512-1.884H20.3v-.752h2.138C22.437,14.2,22.767,16.27,20.046,16.27Zm-8.191,3.143c-.661,0-.956-.021-1.406-.056v-4.9c.45-.042,1.055-.042,1.582-.042a2.3,2.3,0,0,1,2.616,2.426,2.511,2.511,0,0,1-2.791,2.573Z" transform="translate(0 -2.25)" fill="#fff"/>
</svg>
