<svg id="Group_399" data-name="Group 399" xmlns="http://www.w3.org/2000/svg" xmlns:xlink="http://www.w3.org/1999/xlink" width="259.584" height="37.018" viewBox="0 0 259.584 37.018">
  <defs>
    <clipPath id="clip-path">
      <rect id="Rectangle_97" data-name="Rectangle 97" width="259.585" height="37.018" fill="none"/>
    </clipPath>
  </defs>
  <g id="Group_398" data-name="Group 398" transform="translate(0 0)" clip-path="url(#clip-path)">
    <path id="Path_1725" data-name="Path 1725" d="M4.287,27.784A7.571,7.571,0,0,1,.381,24.432c-1.7-2.879,2.725-5.478,4.435-2.592a2.7,2.7,0,0,0,3.916.82c.907-1.225.027-3.119-.878-4.142C5.293,15.69.381,14.1.267,9.685.283,3.656,7.439-2.508,13.147,1.044c2.332,1.5,4.756,6.616,1.1,7.915a2.623,2.623,0,0,1-3.189-1.813c-.223-.645-.257-1.6-.982-1.883-2.072-.588-5.5,2.96-4.26,4.854C9.282,13.064,14,15.663,14.231,20.783c.69,4.38-3.146,7.568-7.134,7.568a7.138,7.138,0,0,1-2.81-.567" transform="translate(0 0)"/>
    <path id="Path_1726" data-name="Path 1726" d="M33.092,9.8c2.063-.013,2.96,2.336,3.342,4.047.665,5.5-3.017,12.719-8.972,13.3C15.05,26.771,23.337.544,33.092,9.8M27.334,21.978c2.6-1.02,3.97-4.287,4.057-6.94a2.542,2.542,0,0,1-1.029-.628c-.453-.459-.9-.921-1.367-1.37-1.891,1.539-3.956,7.274-1.661,8.938" transform="translate(-2.882 -1.063)"/>
    <path id="Path_1727" data-name="Path 1727" d="M46.912,27.07C35.044,22.878,46.642.472,55.377,11c2.022,2.718-2.019,5.83-4.1,3.17-.246-.28-.49-.87-.928-.749-2.5,1.523-5.043,6.417-2.144,8.628,1.708,1.127,3.743-.1,5.475-.588,3.075-1.236,5.02,3.375,1.974,4.671a18.581,18.581,0,0,1-6.059,1.446,7.024,7.024,0,0,1-2.68-.5" transform="translate(-5.688 -1.116)"/>
    <path id="Path_1728" data-name="Path 1728" d="M65.5,24.321a2.65,2.65,0,0,1-.746-1.8,84.375,84.375,0,0,1,.209-12.661,2.594,2.594,0,0,1,4.59-1.225c1.212,2.389-.1,5.637.193,8.3-.03,1.87.017,3.723.094,5.59a2.549,2.549,0,0,1-2.629,2.528,2.3,2.3,0,0,1-1.712-.729" transform="translate(-8.779 -1.04)"/>
    <path id="Path_1729" data-name="Path 1729" d="M79.72,26.425c-1.273-5.529-.037-11.736,2.167-16.907C88.9-.974,95.676,18.928,94.38,24.67c-.483,3.338-5.586,2.626-5.114-.7.48-3.959-1.418-7.949-3.085-11.456A26.271,26.271,0,0,0,84.749,25.6a2.59,2.59,0,0,1-2.686,2.376,2.438,2.438,0,0,1-2.343-1.549" transform="translate(-10.764 -0.885)"/>
    <path id="Path_1730" data-name="Path 1730" d="M80.043,21.456c-.041-1.937,1.911-2.815,3.584-2.92a69.692,69.692,0,0,0,7.163-1.441c3.267-.847,4.627,4.071,1.377,4.992a80.41,80.41,0,0,1-8.344,1.664,2.331,2.331,0,0,1-1.148.3,2.635,2.635,0,0,1-2.632-2.594" transform="translate(-10.877 -2.31)"/>
    <path id="Path_1731" data-name="Path 1731" d="M102.564,23.534a133.309,133.309,0,0,1-.405-19.773c.048-3.352,5.128-3.368,5.154,0a147.6,147.6,0,0,0,.321,19.773,2.535,2.535,0,0,1-5.07,0" transform="translate(-13.858 -0.169)"/>
    <path id="Path_1732" data-name="Path 1732" d="M134.375,25.25c-.733-4.556-.368-9.167-.588-13.751a2.615,2.615,0,0,1,4.682-2.272c1.377,4.9,0,10.288,1.027,15.321a2.518,2.518,0,0,1-2.617,2.882,2.44,2.44,0,0,1-2.5-2.18" transform="translate(-18.156 -1.081)"/>
    <path id="Path_1733" data-name="Path 1733" d="M148.641,28.741c-4.938-.871-1.732-14.018,0-17.043,3.467-5.353,8.806-1.408,10.008,3.463,5.073-10.136,12.644-7.6,12.567,3.4.122,1.951.162,3.9.186,5.86-.034,3.342-5.087,3.352-5.137,0-.122-3.338-.017-6.75-.855-10-2.231,2.093-2.977,5.222-3.689,8.087-.345,1.466-.568,3.247-2.171,3.851-2.427.982-3.787-1.505-4.054-3.564-.766-2.676-1.327-5.472-2.643-7.945a24.966,24.966,0,0,0-1.526,9.745c.677,1.962-.168,4.17-2.372,4.17-.1,0-.207-.005-.315-.015" transform="translate(-19.842 -1.193)"/>
    <path id="Path_1734" data-name="Path 1734" d="M184.518,35.68c-.425-8.239-.712-16.469-.395-24.721.041-3.369,5.141-3.382,5.171,0-.31,8.252-.023,16.479.3,24.721a2.541,2.541,0,0,1-5.08,0" transform="translate(-25.003 -1.145)"/>
    <path id="Path_1735" data-name="Path 1735" d="M187.994,22.232c-.855-3.8,4.626-3.035,5.8-5.778-.031.06-.061.118-.091.179s-.079.114-.116.172a3.3,3.3,0,0,0,.531-1.485c-.007.064-.01.125-.015.189a1.009,1.009,0,0,0-.009.162,4.047,4.047,0,0,0-.236-1.941c-.341-1.04-1.554-.007-2.094.287-2.015,3.038-6.534.219-4.424-2.832,2.3-2.916,7.265-4.5,10.045-1.377,2.87,3.176,2.318,8.543-.82,11.348-1.382,1.132-3.99,2.913-6.044,2.913a2.539,2.539,0,0,1-2.522-1.836" transform="translate(-25.383 -1.101)"/>
    <path id="Path_1736" data-name="Path 1736" d="M211.731,29.225c-4.19-.742-1.62-14.791-.774-17.893.963-5.357,7.053-7.875,10.752-3.352,3.561,4.186,6.818,13.549,4.336,18.723-1.758,2.872-6.146.307-4.458-2.606.424-4.276-1.122-10.5-4.583-13.325-1.254.911-1.162,2.9-1.624,4.286a42.562,42.562,0,0,0-.639,9.988c.946,1.845-.281,4.272-2.309,4.272a2.736,2.736,0,0,1-.7-.093" transform="translate(-28.456 -0.766)"/>
    <path id="Path_1737" data-name="Path 1737" d="M212.225,24.183a2.607,2.607,0,0,1-.466-3.632c2.775-3.247,7.689-2.464,11.531-2.96a2.607,2.607,0,0,1,1.829,4.418c-2.326,1.57-5.6.557-8.246,1.364a2.826,2.826,0,0,0-1.013.344,2.677,2.677,0,0,1-2.077,1,2.53,2.53,0,0,1-1.558-.531" transform="translate(-28.704 -2.39)"/>
    <path id="Path_1738" data-name="Path 1738" d="M245.1,29.713c-5.556.037-13.215-2.153-12.59-9.056a13.022,13.022,0,0,1,5.684-9.924c2.208-1.505,5.488-1.7,7.551.156,1.657,1.394,2.477,4.5.044,5.553a2.65,2.65,0,0,1-3.524-1.682c-3,.32-4.694,4.225-4.6,6.984.979,3.093,5.487,2.545,8.119,2.957,3.125.4,2.644,5.039-.289,5.039a3.018,3.018,0,0,1-.4-.027" transform="translate(-31.592 -1.298)"/>
    <path id="Path_1739" data-name="Path 1739" d="M259.809,29a96.279,96.279,0,0,1,1.549-19.786c.989-3.382,6.038-1.756,4.951,1.593-.553,3.487-.914,7-1.215,10.518-.142,2.4-.239,4.793-.2,7.075a2.646,2.646,0,0,1-.513,1.819,2.361,2.361,0,0,1-1.968.971,2.505,2.505,0,0,1-2.6-2.19" transform="translate(-35.3 -0.999)"/>
    <path id="Path_1740" data-name="Path 1740" d="M254.117,10.8A2.613,2.613,0,0,1,256.7,8.212a130.309,130.309,0,0,1,15.233-1.492,2.588,2.588,0,0,1,1.82,4.384c-1.04.874-2.424.871-3.784.868a12.182,12.182,0,0,0-1.917.1c-3.814.172-7.564.962-11.345,1.316a2.613,2.613,0,0,1-2.589-2.589" transform="translate(-34.533 -0.913)"/>
    <path id="Path_1741" data-name="Path 1741" d="M286.669,29.673c-2.413-.253-6.555-1.806-4.949-4.887,1.084-1.884,3.176-1.209,4.713-.358a6.46,6.46,0,0,0,3.436-.074c-1.778-3.7-5.016-6.835-5.549-11.058-.76-5.161,5.218-7.929,9.593-6.909a4.734,4.734,0,0,1,3.754,3.247c.526,2.345-.223,6.5-3.437,5.734-1.783-.455-2.178-2.407-1.661-3.963-.982-.027-2.362.065-3.044.811l-.034-.1c.259,4.344,4.56,7.335,5.566,11.52,1.05,4.2-3.382,6.141-7.013,6.141a9.132,9.132,0,0,1-1.375-.1" transform="translate(-38.235 -0.839)"/>
  </g>
</svg>
