<svg xmlns="http://www.w3.org/2000/svg" xmlns:xlink="http://www.w3.org/1999/xlink" width="803.716" height="140.696" viewBox="0 0 803.716 140.696">
  <defs>
    <clipPath id="clip-path">
      <rect id="Rectangle_97" data-name="Rectangle 97" width="428.192" height="61.063" fill="none"/>
    </clipPath>
    <clipPath id="clip-path-2">
      <rect id="Rectangle_99" data-name="Rectangle 99" width="803.716" height="59.213" fill="none"/>
    </clipPath>
  </defs>
  <g id="Group_405" data-name="Group 405" transform="translate(-782.142 -180)">
    <g id="Group_399" data-name="Group 399" transform="translate(974.018 180)">
      <g id="Group_398" data-name="Group 398" transform="translate(0 0)" clip-path="url(#clip-path)">
        <path id="Path_1725" data-name="Path 1725" d="M7.071,45.83A12.488,12.488,0,0,1,.629,40.3c-2.8-4.749,4.494-9.037,7.316-4.276a4.459,4.459,0,0,0,6.46,1.353c1.5-2.021.044-5.144-1.448-6.832C8.73,25.881.629,23.252.44,15.976.468,6.031,12.271-4.136,21.687,1.722c3.847,2.472,7.845,10.913,1.82,13.056a4.326,4.326,0,0,1-5.261-2.99c-.368-1.063-.423-2.633-1.621-3.106-3.418-.969-9.07,4.882-7.027,8.006,5.713,4.861,13.5,9.148,13.876,17.593,1.137,7.225-5.19,12.483-11.768,12.483a11.774,11.774,0,0,1-4.635-.935" transform="translate(0 0)"/>
        <path id="Path_1726" data-name="Path 1726" d="M40.811,11.083c3.4-.021,4.883,3.853,5.512,6.676,1.1,9.075-4.977,20.98-14.8,21.942-20.473-.623-6.8-43.886,9.288-28.619m-9.5,20.089C35.594,29.49,37.861,24.1,38,19.725a4.193,4.193,0,0,1-1.7-1.036c-.747-.757-1.487-1.519-2.255-2.261-3.119,2.539-6.525,12-2.74,14.744" transform="translate(9.021 3.327)"/>
        <path id="Path_1727" data-name="Path 1727" d="M50.2,39.319C30.62,32.4,49.752-4.555,64.161,12.8c3.335,4.483-3.33,9.617-6.77,5.228-.406-.462-.808-1.435-1.531-1.236-4.121,2.511-8.318,10.585-3.536,14.232,2.818,1.859,6.175-.172,9.031-.969,5.073-2.038,8.28,5.567,3.257,7.706-3.183,1.139-6.6,2.385-9.995,2.385a11.587,11.587,0,0,1-4.42-.831" transform="translate(17.804 3.493)"/>
        <path id="Path_1728" data-name="Path 1728" d="M66.078,35.145a4.37,4.37,0,0,1-1.23-2.968,139.179,139.179,0,0,1,.345-20.884c.312-3.642,5.479-4.967,7.572-2.021,2,3.941-.167,9.3.318,13.685-.05,3.084.029,6.142.155,9.221A4.2,4.2,0,0,1,68.9,36.348a3.787,3.787,0,0,1-2.824-1.2" transform="translate(27.479 3.257)"/>
        <path id="Path_1729" data-name="Path 1729" d="M80.054,39.358c-2.1-9.12-.061-19.359,3.575-27.889C95.2-5.836,106.373,26.991,104.235,36.463c-.8,5.506-9.215,4.332-8.435-1.159.791-6.531-2.339-13.112-5.089-18.9a43.335,43.335,0,0,0-2.362,21.587,4.272,4.272,0,0,1-4.43,3.92,4.021,4.021,0,0,1-3.866-2.556" transform="translate(33.692 2.77)"/>
        <path id="Path_1730" data-name="Path 1730" d="M80.043,24.352c-.067-3.2,3.151-4.644,5.912-4.816a114.958,114.958,0,0,0,11.816-2.378c5.389-1.4,7.633,6.715,2.271,8.234a132.639,132.639,0,0,1-13.763,2.745,3.845,3.845,0,0,1-1.894.493,4.346,4.346,0,0,1-4.342-4.279" transform="translate(34.047 7.23)"/>
        <path id="Path_1731" data-name="Path 1731" d="M102.944,38.014A219.9,219.9,0,0,1,102.276,5.4c.078-5.529,8.458-5.556,8.5,0a243.469,243.469,0,0,0,.529,32.617,4.182,4.182,0,0,1-8.363,0" transform="translate(43.378 0.528)"/>
        <path id="Path_1732" data-name="Path 1732" d="M134.874,36.485c-1.209-7.516-.607-15.122-.969-22.683-1.809-4.861,5.079-8.234,7.723-3.747,2.272,8.079.006,16.97,1.693,25.273A4.153,4.153,0,0,1,139,40.081a4.024,4.024,0,0,1-4.129-3.6" transform="translate(56.832 3.382)"/>
        <path id="Path_1733" data-name="Path 1733" d="M150.351,41.706c-8.146-1.437-2.856-23.124,0-28.113,5.719-8.83,14.526-2.322,16.509,5.713,8.368-16.72,20.857-12.539,20.729,5.6.2,3.218.267,6.436.306,9.665-.056,5.512-8.391,5.529-8.474,0-.2-5.506-.029-11.135-1.41-16.5-3.68,3.452-4.91,8.613-6.085,13.34-.569,2.417-.936,5.357-3.581,6.353-4,1.621-6.247-2.483-6.686-5.88-1.264-4.414-2.189-9.025-4.36-13.106a41.182,41.182,0,0,0-2.517,16.074c1.117,3.236-.277,6.879-3.913,6.879-.168,0-.341-.009-.519-.024" transform="translate(62.107 3.735)"/>
        <path id="Path_1734" data-name="Path 1734" d="M184.862,53.382c-.7-13.591-1.174-27.166-.651-40.778.067-5.558,8.48-5.579,8.529,0-.512,13.612-.039,27.182.5,40.778a4.191,4.191,0,0,1-8.38,0" transform="translate(78.263 3.585)"/>
        <path id="Path_1735" data-name="Path 1735" d="M188.778,31.409c-1.41-6.269,7.631-5.006,9.56-9.531-.051.1-.1.194-.15.3s-.13.188-.191.284a5.439,5.439,0,0,0,.875-2.45c-.011.105-.017.207-.024.312a1.663,1.663,0,0,0-.016.267,6.675,6.675,0,0,0-.389-3.2c-.563-1.715-2.563-.011-3.454.473-3.324,5.012-10.779.362-7.3-4.671,3.8-4.811,11.983-7.416,16.57-2.272,4.734,5.24,3.824,14.093-1.353,18.719-2.279,1.867-6.582,4.8-9.97,4.8a4.188,4.188,0,0,1-4.161-3.029" transform="translate(79.453 3.446)"/>
        <path id="Path_1736" data-name="Path 1736" d="M213.245,44.547c-6.912-1.224-2.673-24.4-1.277-29.515C213.556,6.2,223.6,2.042,229.7,9.5c5.874,6.9,11.246,22.35,7.152,30.885-2.9,4.738-10.137.506-7.353-4.3.7-7.054-1.85-17.315-7.56-21.981-2.068,1.5-1.917,4.788-2.678,7.07a70.208,70.208,0,0,0-1.055,16.476c1.561,3.043-.463,7.047-3.809,7.047a4.513,4.513,0,0,1-1.156-.154" transform="translate(89.072 2.398)"/>
        <path id="Path_1737" data-name="Path 1737" d="M212.876,28.467a4.3,4.3,0,0,1-.768-5.991c4.577-5.357,12.683-4.065,19.02-4.883,3.686-.211,5.7,4.833,3.017,7.288-3.837,2.59-9.238.919-13.6,2.251a4.662,4.662,0,0,0-1.671.567,4.416,4.416,0,0,1-3.427,1.643,4.174,4.174,0,0,1-2.57-.875" transform="translate(89.848 7.481)"/>
        <path id="Path_1738" data-name="Path 1738" d="M253.3,42.81c-9.165.061-21.8-3.552-20.768-14.938.54-6.487,3.824-12.84,9.376-16.37,3.642-2.483,9.053-2.807,12.455.257,2.734,2.3,4.087,7.428.073,9.159a4.371,4.371,0,0,1-5.813-2.774c-4.956.527-7.743,6.969-7.586,11.52,1.615,5.1,9.051,4.2,13.393,4.878,5.154.661,4.362,8.313-.476,8.313a4.979,4.979,0,0,1-.654-.044" transform="translate(98.887 4.062)"/>
        <path id="Path_1739" data-name="Path 1739" d="M259.84,43.066A158.816,158.816,0,0,1,262.4,10.428c1.632-5.579,9.96-2.9,8.167,2.627-.912,5.751-1.508,11.548-2,17.35-.234,3.954-.395,7.907-.334,11.671a4.365,4.365,0,0,1-.847,3,3.9,3.9,0,0,1-3.247,1.6,4.132,4.132,0,0,1-4.292-3.612" transform="translate(110.494 3.126)"/>
        <path id="Path_1740" data-name="Path 1740" d="M254.117,13.448a4.31,4.31,0,0,1,4.259-4.265A214.949,214.949,0,0,1,283.5,6.722c3.653-.205,5.663,4.789,3,7.232-1.715,1.442-4,1.437-6.242,1.431a20.094,20.094,0,0,0-3.163.162c-6.292.284-12.478,1.586-18.714,2.171a4.311,4.311,0,0,1-4.27-4.27" transform="translate(108.093 2.857)"/>
        <path id="Path_1741" data-name="Path 1741" d="M290.118,44.934c-3.981-.418-10.813-2.979-8.163-8.062,1.787-3.107,5.24-1.994,7.774-.59a10.655,10.655,0,0,0,5.667-.123c-2.933-6.108-8.274-11.275-9.154-18.24-1.253-8.514,8.608-13.079,15.824-11.4,2.8.617,5.473,2.454,6.192,5.357.868,3.868-.368,10.729-5.669,9.459-2.941-.751-3.592-3.97-2.74-6.537-1.621-.044-3.9.107-5.022,1.337l-.056-.172c.428,7.165,7.522,12.1,9.181,19,1.732,6.929-5.579,10.13-11.568,10.13a15.065,15.065,0,0,1-2.268-.164" transform="translate(119.681 2.627)"/>
      </g>
    </g>
    <g id="Group_404" data-name="Group 404" transform="translate(782.142 261.483)">
      <g id="Group_403" data-name="Group 403" transform="translate(0 0)" clip-path="url(#clip-path-2)">
        <path id="Path_1799" data-name="Path 1799" d="M26.768,34.205c-4.159-.349-13.07.6-12.371-5.7,1.891-4.343,7.5-7.144,7.613-12.344a4.64,4.64,0,0,0-2.03.454c-1.009,4.772-7.613,2.933-6.942-1.621.277-2.062,2.123-3.618,3.916-4.416C20.8,8.567,26.405,9.021,28.211,13.5c1.945,4.971-1.416,10.112-4.441,13.881,2.683.027,6.255-.138,6.366,3.454a3.406,3.406,0,0,1-3.354,3.368Z" transform="translate(8.929 6.486)"/>
        <path id="Path_1800" data-name="Path 1800" d="M20.756,57.867A29.618,29.618,0,0,1,.073,31.932,30,30,0,0,1,4.6,13.6,31.463,31.463,0,0,1,10.619,6.74a30.034,30.034,0,0,1,7.593-4.613A28.767,28.767,0,0,1,22.752.619,3.54,3.54,0,0,1,24.017.533,29.564,29.564,0,0,1,59.142,27.094a30.089,30.089,0,0,1-4.449,18.3A29.853,29.853,0,0,1,39.461,57.538a29.184,29.184,0,0,1-9.8,1.674,29.963,29.963,0,0,1-8.9-1.345M28.335,6.425c-.982.073-1.964.177-2.939.343a3.073,3.073,0,0,1-.85.356c-.764.191-1.522.429-2.274.672-1.014.383-2.01.791-2.985,1.265-.837.435-1.655.9-2.452,1.424q-1.2.84-2.315,1.787-1.055.949-2.023,2a31.824,31.824,0,0,0-2,2.578c-.515.8-1,1.615-1.431,2.458-.415.876-.8,1.76-1.134,2.663q-.5,1.531-.85,3.091A29.985,29.985,0,0,0,6.677,28.1a29.936,29.936,0,0,0,0,3.064c.079,1.016.218,2.011.395,3.005a28.339,28.339,0,0,0,.839,3.052c.336.9.71,1.792,1.132,2.663.469.909.982,1.78,1.537,2.637.651.921,1.343,1.805,1.812,2.339a30.482,30.482,0,0,0,2.175,2.156c.731.612,1.483,1.186,2.268,1.733q1.215.792,2.49,1.463a28.6,28.6,0,0,0,2.867,1.213,28.664,28.664,0,0,0,2.987.81,29.713,29.713,0,0,0,3.052.41q1.481.068,2.965,0c1.029-.086,2.043-.218,3.059-.4.982-.218,1.944-.474,2.9-.785.975-.356,1.924-.751,2.867-1.2.9-.467,1.778-.982,2.636-1.535.785-.553,1.535-1.134,2.268-1.746.732-.665,1.424-1.352,2.1-2.082a30.6,30.6,0,0,0,1.925-2.472,29.178,29.178,0,0,0,1.529-2.642,29.869,29.869,0,0,0,1.193-2.894A27.269,27.269,0,0,0,52.438,34a29.2,29.2,0,0,0,.383-2.927,31.373,31.373,0,0,0-.013-3.236,28.182,28.182,0,0,0-.415-2.953c-.224-.994-.488-1.976-.8-2.946-.349-.942-.737-1.864-1.173-2.767a24.571,24.571,0,0,0-1.424-2.44,27.985,27.985,0,0,0-1.951-2.538c-.646-.705-1.318-1.377-2.023-2.016-.719-.619-1.463-1.206-2.234-1.753a28.971,28.971,0,0,0-2.69-1.588A27.7,27.7,0,0,0,37.135,7.6c-.93-.3-1.866-.547-2.821-.758a25.978,25.978,0,0,0-3.1-.422c-.5-.027-1-.039-1.49-.039-.461,0-.93.012-1.39.039" transform="translate(0 0.001)"/>
        <path id="Path_1801" data-name="Path 1801" d="M46.374,35.781c-.184-8.364.066-16.794-.388-25.119.488-3.545,5.681-3.921,6.591-.435.969,8.418.066,17.059.488,25.554a3.346,3.346,0,0,1-6.69,0" transform="translate(31.606 5.361)"/>
        <path id="Path_1802" data-name="Path 1802" d="M61.116,35.057a28.381,28.381,0,0,1-1.595-6.341,29.939,29.939,0,0,1-.245-4.554c-3.375,1.891-11.566,7.409-12.589.574.073-3.645,4.488-3.427,6.842-5.01,2.558-1.417,5.352-3.1,6.359-6A23.987,23.987,0,0,1,60.8,9.056a3.393,3.393,0,0,1,5.489-1.075c1.517,1.444,1.049,3.559.68,5.372-.989,4.2-.923,8.593-.975,12.9-.39,3.474,3.638,8.5-.553,10.559a3.168,3.168,0,0,1-1.254.25,3.294,3.294,0,0,1-3.071-2" transform="translate(32.089 4.819)"/>
        <path id="Path_1803" data-name="Path 1803" d="M68.068,33.132c-12.714-3.737.9-33.338,9.979-19.615,4.8.58,4.046,7.33,2.978,10.73-1.416,4.608-5.6,9.262-10.539,9.262a8.051,8.051,0,0,1-2.418-.376m2.517-6.268c2.821-.744,4.2-4.087,4.554-6.742a3.528,3.528,0,0,1-1.871-1.483c-.263-.435-.535-.871-.8-1.3-1.411,1.238-4.647,9.009-1.885,9.53" transform="translate(43.23 6.812)"/>
        <path id="Path_1804" data-name="Path 1804" d="M80.579,34.8c-5.352-3.481-3.935-10.908-3.42-16.347.461-2.563.526-5.457,2-7.7a3.581,3.581,0,0,1,5.47-.553,3.381,3.381,0,0,1,.014,4.765c-.8,4.488-2.037,9.491-.719,13.941,4.615-2.524,5.821-8.3,7.509-12.84,1.127-3.921,7.065-2.708,6.538,1.345-.31,2.966-.871,5.458.243,8.18.975,1.925,3.882,2.873,5.266.962,1.458-2.207,1.655-5.035,1.535-7.618-.447-2.855-4.547-5.57-1.277-8.246,3.645-2.511,6.182,2.531,7.21,5.384a17.558,17.558,0,0,1,.218,8.146c-.975,9.835-12.5,13.716-18.263,5.248C90.96,32.49,87.428,35.66,83.75,35.66a6.283,6.283,0,0,1-3.17-.857" transform="translate(52.647 6.31)"/>
        <path id="Path_1805" data-name="Path 1805" d="M112.26,35.948c-.093-9.115-.184-18.238-.086-27.353A3.447,3.447,0,0,1,115.1,5.248c2.6-.435,4.343,2.307,3.8,4.652-.073,4.345-.02,8.695-.013,13.031.059,4.343-.079,8.681.02,13.018a3.322,3.322,0,0,1-6.645,0" transform="translate(77.069 3.575)"/>
        <path id="Path_1806" data-name="Path 1806" d="M109.072,19.363c.165-5.266,11.7-5.912,15.766-7.019,4.336-.521,5.226,5.879.9,6.6a61.038,61.038,0,0,0-10.967,2.794,3.009,3.009,0,0,1-2.241.962,3.383,3.383,0,0,1-3.461-3.341" transform="translate(74.964 8.464)"/>
        <path id="Path_1807" data-name="Path 1807" d="M131.9,34.41c-16.59-2.636.027-34.991,8.686-21.236a3.315,3.315,0,0,1,2.585,1.951c4.007,7.448-1.5,19.331-10.321,19.331a9.1,9.1,0,0,1-.95-.046m1.338-6.459c3.322-.81,5.1-5.048,4.746-8.219a3.492,3.492,0,0,1-2.327-1.6c-.186-.31-.37-.626-.555-.943-1.917,1.767-6.307,10.1-1.864,10.763" transform="translate(85.789 6.723)"/>
        <path id="Path_1808" data-name="Path 1808" d="M25.525,50.042a29.708,29.708,0,0,1-3.052-.408,29.089,29.089,0,0,1-2.987-.81,29,29,0,0,1-2.867-1.213q-1.276-.673-2.49-1.463c-.785-.547-1.537-1.12-2.268-1.735a30.457,30.457,0,0,1-2.175-2.155c-.469-.533-1.161-1.417-1.812-2.34-.555-.855-1.068-1.726-1.537-2.636-.422-.871-.8-1.76-1.132-2.663a28.446,28.446,0,0,1-.839-3.052c-.177-1-.316-1.991-.395-3.005a29.969,29.969,0,0,1,0-3.066,29.952,29.952,0,0,1,.408-3.037c.231-1.043.515-2.07.85-3.091.336-.9.719-1.787,1.134-2.663.435-.844.916-1.662,1.431-2.46a31.507,31.507,0,0,1,2-2.577q.969-1.048,2.025-2,1.116-.949,2.313-1.787A28.3,28.3,0,0,1,16.58,6.462c.975-.474,1.971-.882,2.985-1.265.753-.243,1.51-.481,2.274-.672a3.052,3.052,0,0,0,.85-.356c.975-.165,1.957-.27,2.939-.343.467-.027.93-.04,1.4-.04q.742,0,1.483.04a25.978,25.978,0,0,1,3.1.422c.955.211,1.891.461,2.821.758a28.039,28.039,0,0,1,2.96,1.232,29.367,29.367,0,0,1,2.69,1.589c.771.547,1.515,1.134,2.234,1.753.705.639,1.377,1.311,2.023,2.016a27.989,27.989,0,0,1,1.951,2.538,24.718,24.718,0,0,1,1.424,2.438c.435.9.823,1.826,1.173,2.769.317.969.58,1.951.8,2.946A28.12,28.12,0,0,1,50.1,25.24a31.37,31.37,0,0,1,.014,3.236,29.162,29.162,0,0,1-.383,2.926,27.055,27.055,0,0,1-.771,2.887,29.7,29.7,0,0,1-1.193,2.894,29.21,29.21,0,0,1-1.529,2.644A30.52,30.52,0,0,1,44.314,42.3c-.672.731-1.363,1.416-2.1,2.082-.732.612-1.483,1.193-2.268,1.746-.857.553-1.733,1.068-2.636,1.535-.943.449-1.891.844-2.867,1.2-.957.31-1.918.567-2.9.785-1.016.177-2.03.31-3.059.395q-.742.04-1.483.04c-.494,0-.987-.014-1.481-.04m2.708-30c-.111,5.2-5.722,8-7.613,12.344-.7,6.3,8.212,5.352,12.371,5.7H33a3.406,3.406,0,0,0,3.354-3.368c-.111-3.592-3.683-3.427-6.366-3.454,3.025-3.769,6.386-8.911,4.443-13.88-1.807-4.481-7.409-4.937-11.258-2.927-1.794.8-3.638,2.354-3.915,4.417-.673,4.554,5.931,6.393,6.94,1.621a5.2,5.2,0,0,1,1.846-.462c.059,0,.125.007.184.007" transform="translate(2.702 2.602)" fill="#4ab070"/>
        <path id="Path_1809" data-name="Path 1809" d="M153.183,35.875c.125-8.16-1.628-17.011,1.853-24.677,4.713-7.475,11.566-.515,13.735,5.18,1.549-4.606,7.271-7.269,11.165-3.69,4.114,3.658,4.871,9.623,5.221,14.809a3.507,3.507,0,0,1-.665,2.492c-1.628,2.3-5.722,1.272-5.946-1.583-.349-3.592-.408-7.691-2.887-10.546-2.261,3.506-1.951,8.357-1.839,12.273.469,4.284-5.72,5.214-6.591,1.265a57.221,57.221,0,0,0-6.709-15.925c-1.814,6.795-.238,13.973-.739,20.842a3.148,3.148,0,0,1-3.216,2.411,3.215,3.215,0,0,1-3.381-2.853" transform="translate(105.055 5.458)"/>
        <path id="Path_1810" data-name="Path 1810" d="M178.846,36c-7.743-3.474-2.372-21.989,2.96-25.99,3.64-2.642,7.309.12,8.128,4.021a3.363,3.363,0,0,1,1.9,2.565,31.834,31.834,0,0,1,.329,7.559c-.29,5.5-4.588,12.471-10.328,12.471A7.749,7.749,0,0,1,178.846,36m2.987-6.071c3.177-1.37,3.783-5.463,3.79-8.555a2.852,2.852,0,0,1-.653-1.036c-.277-.8-.56-1.6-.837-2.4-1.568,3.822-2.755,7.988-2.3,12" transform="translate(120.257 6.161)"/>
        <path id="Path_1811" data-name="Path 1811" d="M186.752,34.841c.118-6.3,2.037-12.562,3.645-18.626.771-4.139,5.629-5.048,7.758-1.384,2.347,3.835,3.1,8.587,6.1,12.041a128.647,128.647,0,0,0,.283-16.029,3.22,3.22,0,1,1,6.44,0c.073,6.427.488,12.992-.766,19.325-3.769,10.375-13.043.218-14.993-5.938a67.195,67.195,0,0,0-1.873,11.047,3.384,3.384,0,0,1-6.591-.435" transform="translate(128.356 5.237)"/>
        <path id="Path_1812" data-name="Path 1812" d="M206,29.679c-.052-5.062.37-10.117.25-15.172-2.089-3.572,3.052-7.112,5.656-3.844,1.49,1.918.989,4.574,1.075,6.842-.079,4.06-.29,8.121-.3,12.174a3.342,3.342,0,0,1-6.683,0" transform="translate(141.425 6.44)"/>
        <path id="Path_1813" data-name="Path 1813" d="M215.439,37.2c-1.311-9.591-.646-19.819.1-29.211-.078-2.526.206-5.59,3.422-5.669a3.4,3.4,0,0,1,3.361,3.361c-.467,10.514-1.7,21-.3,31.519a3.155,3.155,0,0,1-3.275,3.243,3.2,3.2,0,0,1-3.316-3.243" transform="translate(147.559 1.597)"/>
        <path id="Path_1814" data-name="Path 1814" d="M214.107,12.661a10.682,10.682,0,0,1,3.908-.8c3.54-.329,7.08-.658,10.618-1.014a3.31,3.31,0,1,1,.9,6.559c-4.871.343-9.795,1.211-14.632,1.343a3.351,3.351,0,0,1-.791-6.083" transform="translate(146.043 7.44)"/>
        <path id="Path_1815" data-name="Path 1815" d="M230.921,32.406c-13.274-5.109,6.341-37.273,12.925-19.569,2.043,1.259,2.037,4.132,2.274,6.294.415,6.611-4.91,14.047-11.521,14.054a9.334,9.334,0,0,1-3.678-.778m3.744-5.933c.111-.014.224-.027.218-.007,3.216-.672,4.6-4.357,4.574-7.33a3.4,3.4,0,0,1-1.4-1.9c-.192-.678-.39-1.357-.594-2.03-1.568,1.4-7.046,11.258-2.8,11.264" transform="translate(155.614 5.202)"/>
        <path id="Path_1816" data-name="Path 1816" d="M243.59,38.239a3.26,3.26,0,0,1-2.776-3.658c.778-4.007,1.181-8.067,1.814-12.095.692-4.443,1.733-8.845,2.695-13.228a3.219,3.219,0,0,1,3.942-2.234c4.647,1.542.726,8.357.567,11.8-1.141,5.511-1.588,11.106-2.577,16.642a3.333,3.333,0,0,1-3.2,2.809,3.546,3.546,0,0,1-.461-.034" transform="translate(165.479 4.753)"/>
        <path id="Path_1817" data-name="Path 1817" d="M261.268,36.24a81.879,81.879,0,0,0-10.137-5.872c-3.051-1.141-6.763-4.114-4.713-7.679,2.361-3.368,8.3-4.488,8.325-9.346a.777.777,0,0,0-.673-.692.545.545,0,0,1-.1-.007c-.093-.02-.184-.034-.277-.054a1.136,1.136,0,0,1,.164.047.322.322,0,0,0,.079.007l.2.039a5.394,5.394,0,0,0-4.3,1.47c-2.248,2.42-1.206,8.008-6.064,7.006-4.47-1.547-1.642-7.183-.093-10.038a11.856,11.856,0,0,1,11.357-5.075c10.269,2.1,6.432,14.818-.633,18.628A86.853,86.853,0,0,1,264.563,30.6a3.31,3.31,0,0,1,1.173,4.47,3.4,3.4,0,0,1-2.887,1.627,2.857,2.857,0,0,1-1.581-.461" transform="translate(165.887 4.077)"/>
        <path id="Path_1818" data-name="Path 1818" d="M277.964,42.654c-2.538-1.9-7.024-6.047-3.552-9.049a3.37,3.37,0,0,1,4.692.606c1.245,1.746,2.914,4.017,5.352,3.263-.145.025-.289.059-.435.084.157-.039.314-.083.471-.127a5.692,5.692,0,0,0,.688-.327l-.186.051a1.968,1.968,0,0,0,.457-1.25l-.015.262a.566.566,0,0,0-.012.2c.456-8.976-13.061-11.106-10.75-22.382,1.51-8.372,16.363-10.919,17.9-1.331A4.693,4.693,0,0,1,290,17.7a3.4,3.4,0,0,1-4.416-4.429c-2.911-.516-5.379,1.745-4.023,4.7,1.031,2.6,3.559,4.2,5.386,6.219a16.437,16.437,0,0,1,5.175,9.952c1.411,8.124-7.654,12.942-14.158,8.516" transform="translate(187.733 4.471)"/>
        <path id="Path_1819" data-name="Path 1819" d="M291.452,36.291c-5.865-2.19-6.248-9.022-4.456-14.17,1.495-5.9,6.543-13.822,13.6-10.974,5.673,2.07,6.876,8.872,6.42,14.2-.908,6.879-8.5,13.809-15.567,10.94m3.557-6.024a7.27,7.27,0,0,0,5.325-5.516c.584-2.357-.567-4.534-1.272-6.7-3.122-4.136-8.847,11.583-5,12.063-.147-.025-.309-.137-.415-.138.04.015.079.03.12.044,0,0,.008.007,0,0a3.126,3.126,0,0,0,1.244.245" transform="translate(196.604 7.25)"/>
        <path id="Path_1820" data-name="Path 1820" d="M315.766,35.111c-15.079.226-19.028-11.519-9.346-22.2,5.14-5.877,12.852-2.382,12.338,5.266-.585,5.256-7.561,3.95-6.776-1.193-2.334,2.1-4.851,5.865-3.879,9.044,2.533,4.034,10.505.04,11,5.747a3.36,3.36,0,0,1-3.334,3.334" transform="translate(206.978 6.847)"/>
        <path id="Path_1821" data-name="Path 1821" d="M316.3,32.065c-.547-6.862-.629-14.185,1.168-20.833,2.028-3.51,7.547-.923,6.083,2.875a74.264,74.264,0,0,0-.646,17.055c.454,4.353-5.934,5.226-6.6.9" transform="translate(217.158 6.58)"/>
        <path id="Path_1822" data-name="Path 1822" d="M324.058,34.206c-.977-6.462.324-13.156,2.7-19.186,1.79-4.721,7.556-8.9,11.469-3.776a42.049,42.049,0,0,1,5.423,21.051c-.663,4.341-7.105,3.488-6.65-.909a45.374,45.374,0,0,0-3.422-14.848,29.247,29.247,0,0,0-2.833,16.753c.513,4.38-5.941,5.3-6.69.916" transform="translate(222.502 6.113)"/>
        <path id="Path_1823" data-name="Path 1823" d="M324.767,21.582c-.378-4.6,4.856-3.771,7.908-4.232,3.052-.245,8.052-2.352,8.865,2.116.4,4.367-4.966,4.029-7.949,4.574-3.007.132-8.06,1.79-8.825-2.458" transform="translate(223.201 11.437)"/>
        <path id="Path_1824" data-name="Path 1824" d="M339.986,32.043c-1.159-8-1.024-16.077-1.028-24.142.1-4.409,6.619-4.427,6.736,0,0,7.768-.147,15.525.889,23.241.444,4.35-5.933,5.222-6.6.9" transform="translate(232.966 3.153)"/>
        <path id="Path_1825" data-name="Path 1825" d="M355,31.426c.155-6.584.143-13.274,1.4-19.753.628-3.521,5.742-4.1,6.775-.515a156.458,156.458,0,0,0-1.456,20.268c-.116,4.39-6.619,4.412-6.717,0" transform="translate(243.991 6.004)"/>
        <path id="Path_1826" data-name="Path 1826" d="M363.914,33c-.445-5.973.717-20.8,8.253-21.738,2.814,0,4.784,2.4,5.739,4.812,2.875-5.862,10.439-8.443,13.962-1.687,2.151,3.6,4.08,21.677-3.164,20.01a3.371,3.371,0,0,1-2.34-4.119c.925-4.213,1.183-9.152-.69-13.124-3.572,3.1-4.041,8.371-4.3,12.813a3.405,3.405,0,0,1-5.043,2.458,4.206,4.206,0,0,1-1.885-3.3c-.71-2.985-1.313-6.014-2.212-8.948A29.956,29.956,0,0,0,370.663,33c-.078,4.419-6.616,4.434-6.749,0" transform="translate(250.063 7.125)"/>
        <path id="Path_1827" data-name="Path 1827" d="M388.058,46.744c-3.849-1.173-1.849-5.246-1.738-8.082.155-6.305.324-12.618.749-18.915.334-2.641-.175-5.644.969-8.1a3.416,3.416,0,0,1,6.289,1.306c.044,1.048-.4,2.841-.331,3.645-.283,4.738-.56,9.471-.744,14.21-.567,4.075,1.534,17.192-5.194,15.937" transform="translate(265.095 6.887)"/>
        <path id="Path_1828" data-name="Path 1828" d="M390.974,28.907c-.71-2.517,1.51-4.213,3.769-4.549a7.077,7.077,0,0,0,4.232-3.579l-.066.2a1.291,1.291,0,0,0-.073.216,4.962,4.962,0,0,0,.322-1.265c-.005.079-.012.157-.018.235a1.142,1.142,0,0,0-.014.226c.127-2.273-1-5.512-3.434-6.024l-.1.02q-.157.008-.309.025c.155-.007.3-.02.454-.027-.116.015-.229.032-.343.051s-.228.064-.2.035c-.051.024-.1.047-.148.073-.079.027-.157.056-.235.086.073-.027.145-.054.233-.083.061-.022.121-.042.182-.062a2.254,2.254,0,0,0-1.132.827c-1.186,5.44-8.261,4.36-6.869-1.083,2.873-9.009,14.2-8.337,17.42.1a11.032,11.032,0,0,1-1.073,11.793c-2.357,2.978-10.476,8.364-12.6,2.787" transform="translate(266.017 5.315)"/>
        <path id="Path_1829" data-name="Path 1829" d="M402.857,36c-1.471-8.131.422-17.126,3.916-24.545,2.431-4.217,8.421-7.043,11.514-1.918,2.327,3.791,2.914,8.325,4.046,12.557a50.63,50.63,0,0,1,1.853,9.457c-.1,4.411-6.607,4.426-6.736,0a113.033,113.033,0,0,0-4.3-17.372,7.99,7.99,0,0,0-1.6,2.948c-1.6,5.575-3.1,11.475-2.187,17.28.319,3.678-5.124,5.087-6.506,1.595" transform="translate(276.54 4.661)"/>
        <path id="Path_1830" data-name="Path 1830" d="M405.087,22.783c-4.419-4.574,2.924-7.883,6.986-7.554,3.125.022,8.632-1.47,8.865,3.177-.564,5.445-7.674,2.6-11.261,3.925l0,0a3.407,3.407,0,0,1-4.586.451" transform="translate(277.477 10.322)"/>
        <path id="Path_1831" data-name="Path 1831" d="M434.336,36.259c-8.236.51-17.842-3.5-17.1-13.129.334-6.419,5.175-13.159,11.818-14,4.318-.861,14.4,5.477,9.6,10.006-4.07,2.877-5.291-3.359-8.86-3.3-4.212.928-7.277,6.857-5.14,10.733l-.162-.243a.715.715,0,0,0-.076-.113c2.037,3.4,6.451,3.211,9.926,3.343,4.4.12,4.387,6.616,0,6.7" transform="translate(286.738 6.221)"/>
        <path id="Path_1832" data-name="Path 1832" d="M434.62,40.927a3.294,3.294,0,0,1,.152-2.877c.337-1.768.562-3.542.736-5.332.15-9.643.41-18.417,1.129-27.746a3.393,3.393,0,0,1,6.461-.882c.758,3.528-.466,8.025-.415,11.482-.572,8.347.422,16.949-1.7,25.1-1.026,2.819-5.19,3.11-6.366.256" transform="translate(298.538 1.42)"/>
        <path id="Path_1833" data-name="Path 1833" d="M431.147,13.652c.356-5.6,8.381-3.663,11.9-3.672,2.981.4,8.21-.727,8.4,3.613a3.353,3.353,0,0,1-3.327,3.329c-3.864-.159-7.735-.553-11.605-.442-2.229,1.325-5.389-.047-5.367-2.828" transform="translate(296.33 6.643)"/>
        <path id="Path_1834" data-name="Path 1834" d="M448.9,36.143c-4.006-1.841-1.476-7.817,2.61-6.189a7.1,7.1,0,0,0,4.168.005c-1.812-5.544-6.9-10.637-5.059-16.871,2-7.75,16.256-8.642,15.766.823-.135,4.557-6.866,4.355-6.749-.192a3.779,3.779,0,0,0-1.7.4l.125-.064c.089-.03.179-.061.268-.094-5.4,2.529,7.625,13.735,3.25,19.477-2.629,3.94-8.6,4.237-12.682,2.708" transform="translate(307.146 4.841)"/>
        <path id="Path_1835" data-name="Path 1835" d="M470.4,25.652c-4.073-1.316-2.158-5.906-.3-8.357,1.94-3.125,6.262-4.91,7-8.668l-.057.067c0-.189-.3-.383-.221-.412a7.818,7.818,0,0,0-5.057.285,3.4,3.4,0,0,1-6.189-2.617c.972-3.361,5-4.346,8.081-4.647,4.244-.6,9.209,1.478,9.992,6.078C484.794,13.264,479.528,16.9,476,20.7a6.6,6.6,0,0,0-1.454,2.6,3.432,3.432,0,0,1-4.146,2.354" transform="translate(319.909 0.827)"/>
        <path id="Path_1836" data-name="Path 1836" d="M467.982,26.319a3.342,3.342,0,1,1,3.341,3.341,3.375,3.375,0,0,1-3.341-3.341" transform="translate(321.646 15.793)"/>
      </g>
    </g>
  </g>
</svg>
