<svg xmlns="http://www.w3.org/2000/svg" xmlns:xlink="http://www.w3.org/1999/xlink" width="988.036" height="142.245" viewBox="0 0 988.036 142.245">
  <defs>
    <clipPath id="clip-path">
      <rect id="Rectangle_97" data-name="Rectangle 97" width="428.192" height="61.063" fill="none"/>
    </clipPath>
    <clipPath id="clip-path-2">
      <rect id="Rectangle_98" data-name="Rectangle 98" width="988.036" height="60.738" fill="none"/>
    </clipPath>
  </defs>
  <g id="Group_402" data-name="Group 402" transform="translate(-659 -180)">
    <g id="Group_399" data-name="Group 399" transform="translate(974.018 180)">
      <g id="Group_398" data-name="Group 398" transform="translate(0 0)" clip-path="url(#clip-path)">
        <path id="Path_1725" data-name="Path 1725" d="M7.071,45.83A12.488,12.488,0,0,1,.629,40.3c-2.8-4.749,4.494-9.037,7.316-4.276a4.459,4.459,0,0,0,6.46,1.353c1.5-2.021.044-5.144-1.448-6.832C8.73,25.881.629,23.252.44,15.976.468,6.031,12.271-4.136,21.687,1.722c3.847,2.472,7.845,10.913,1.82,13.056a4.326,4.326,0,0,1-5.261-2.99c-.368-1.063-.423-2.633-1.621-3.106-3.418-.969-9.07,4.882-7.027,8.006,5.713,4.861,13.5,9.148,13.876,17.593,1.137,7.225-5.19,12.483-11.768,12.483a11.774,11.774,0,0,1-4.635-.935" transform="translate(0 0)"/>
        <path id="Path_1726" data-name="Path 1726" d="M40.811,11.083c3.4-.021,4.883,3.853,5.512,6.676,1.1,9.075-4.977,20.98-14.8,21.942-20.473-.623-6.8-43.886,9.288-28.619m-9.5,20.089C35.594,29.49,37.861,24.1,38,19.725a4.193,4.193,0,0,1-1.7-1.036c-.747-.757-1.487-1.519-2.255-2.261-3.119,2.539-6.525,12-2.74,14.744" transform="translate(9.021 3.327)"/>
        <path id="Path_1727" data-name="Path 1727" d="M50.2,39.319C30.62,32.4,49.752-4.555,64.161,12.8c3.335,4.483-3.33,9.617-6.77,5.228-.406-.462-.808-1.435-1.531-1.236-4.121,2.511-8.318,10.585-3.536,14.232,2.818,1.859,6.175-.172,9.031-.969,5.073-2.038,8.28,5.567,3.257,7.706-3.183,1.139-6.6,2.385-9.995,2.385a11.587,11.587,0,0,1-4.42-.831" transform="translate(17.804 3.493)"/>
        <path id="Path_1728" data-name="Path 1728" d="M66.078,35.145a4.37,4.37,0,0,1-1.23-2.968,139.179,139.179,0,0,1,.345-20.884c.312-3.642,5.479-4.967,7.572-2.021,2,3.941-.167,9.3.318,13.685-.05,3.084.029,6.142.155,9.221A4.2,4.2,0,0,1,68.9,36.348a3.787,3.787,0,0,1-2.824-1.2" transform="translate(27.479 3.257)"/>
        <path id="Path_1729" data-name="Path 1729" d="M80.054,39.358c-2.1-9.12-.061-19.359,3.575-27.889C95.2-5.836,106.373,26.991,104.235,36.463c-.8,5.506-9.215,4.332-8.435-1.159.791-6.531-2.339-13.112-5.089-18.9a43.335,43.335,0,0,0-2.362,21.587,4.272,4.272,0,0,1-4.43,3.92,4.021,4.021,0,0,1-3.866-2.556" transform="translate(33.692 2.77)"/>
        <path id="Path_1730" data-name="Path 1730" d="M80.043,24.352c-.067-3.2,3.151-4.644,5.912-4.816a114.958,114.958,0,0,0,11.816-2.378c5.389-1.4,7.633,6.715,2.271,8.234a132.639,132.639,0,0,1-13.763,2.745,3.845,3.845,0,0,1-1.894.493,4.346,4.346,0,0,1-4.342-4.279" transform="translate(34.047 7.23)"/>
        <path id="Path_1731" data-name="Path 1731" d="M102.944,38.014A219.9,219.9,0,0,1,102.276,5.4c.078-5.529,8.458-5.556,8.5,0a243.469,243.469,0,0,0,.529,32.617,4.182,4.182,0,0,1-8.363,0" transform="translate(43.378 0.528)"/>
        <path id="Path_1732" data-name="Path 1732" d="M134.874,36.485c-1.209-7.516-.607-15.122-.969-22.683-1.809-4.861,5.079-8.234,7.723-3.747,2.272,8.079.006,16.97,1.693,25.273A4.153,4.153,0,0,1,139,40.081a4.024,4.024,0,0,1-4.129-3.6" transform="translate(56.832 3.382)"/>
        <path id="Path_1733" data-name="Path 1733" d="M150.351,41.706c-8.146-1.437-2.856-23.124,0-28.113,5.719-8.83,14.526-2.322,16.509,5.713,8.368-16.72,20.857-12.539,20.729,5.6.2,3.218.267,6.436.306,9.665-.056,5.512-8.391,5.529-8.474,0-.2-5.506-.029-11.135-1.41-16.5-3.68,3.452-4.91,8.613-6.085,13.34-.569,2.417-.936,5.357-3.581,6.353-4,1.621-6.247-2.483-6.686-5.88-1.264-4.414-2.189-9.025-4.36-13.106a41.182,41.182,0,0,0-2.517,16.074c1.117,3.236-.277,6.879-3.913,6.879-.168,0-.341-.009-.519-.024" transform="translate(62.107 3.735)"/>
        <path id="Path_1734" data-name="Path 1734" d="M184.862,53.382c-.7-13.591-1.174-27.166-.651-40.778.067-5.558,8.48-5.579,8.529,0-.512,13.612-.039,27.182.5,40.778a4.191,4.191,0,0,1-8.38,0" transform="translate(78.263 3.585)"/>
        <path id="Path_1735" data-name="Path 1735" d="M188.778,31.409c-1.41-6.269,7.631-5.006,9.56-9.531-.051.1-.1.194-.15.3s-.13.188-.191.284a5.439,5.439,0,0,0,.875-2.45c-.011.105-.017.207-.024.312a1.663,1.663,0,0,0-.016.267,6.675,6.675,0,0,0-.389-3.2c-.563-1.715-2.563-.011-3.454.473-3.324,5.012-10.779.362-7.3-4.671,3.8-4.811,11.983-7.416,16.57-2.272,4.734,5.24,3.824,14.093-1.353,18.719-2.279,1.867-6.582,4.8-9.97,4.8a4.188,4.188,0,0,1-4.161-3.029" transform="translate(79.453 3.446)"/>
        <path id="Path_1736" data-name="Path 1736" d="M213.245,44.547c-6.912-1.224-2.673-24.4-1.277-29.515C213.556,6.2,223.6,2.042,229.7,9.5c5.874,6.9,11.246,22.35,7.152,30.885-2.9,4.738-10.137.506-7.353-4.3.7-7.054-1.85-17.315-7.56-21.981-2.068,1.5-1.917,4.788-2.678,7.07a70.208,70.208,0,0,0-1.055,16.476c1.561,3.043-.463,7.047-3.809,7.047a4.513,4.513,0,0,1-1.156-.154" transform="translate(89.072 2.398)"/>
        <path id="Path_1737" data-name="Path 1737" d="M212.876,28.467a4.3,4.3,0,0,1-.768-5.991c4.577-5.357,12.683-4.065,19.02-4.883,3.686-.211,5.7,4.833,3.017,7.288-3.837,2.59-9.238.919-13.6,2.251a4.662,4.662,0,0,0-1.671.567,4.416,4.416,0,0,1-3.427,1.643,4.174,4.174,0,0,1-2.57-.875" transform="translate(89.848 7.481)"/>
        <path id="Path_1738" data-name="Path 1738" d="M253.3,42.81c-9.165.061-21.8-3.552-20.768-14.938.54-6.487,3.824-12.84,9.376-16.37,3.642-2.483,9.053-2.807,12.455.257,2.734,2.3,4.087,7.428.073,9.159a4.371,4.371,0,0,1-5.813-2.774c-4.956.527-7.743,6.969-7.586,11.52,1.615,5.1,9.051,4.2,13.393,4.878,5.154.661,4.362,8.313-.476,8.313a4.979,4.979,0,0,1-.654-.044" transform="translate(98.887 4.062)"/>
        <path id="Path_1739" data-name="Path 1739" d="M259.84,43.066A158.816,158.816,0,0,1,262.4,10.428c1.632-5.579,9.96-2.9,8.167,2.627-.912,5.751-1.508,11.548-2,17.35-.234,3.954-.395,7.907-.334,11.671a4.365,4.365,0,0,1-.847,3,3.9,3.9,0,0,1-3.247,1.6,4.132,4.132,0,0,1-4.292-3.612" transform="translate(110.494 3.126)"/>
        <path id="Path_1740" data-name="Path 1740" d="M254.117,13.448a4.31,4.31,0,0,1,4.259-4.265A214.949,214.949,0,0,1,283.5,6.722c3.653-.205,5.663,4.789,3,7.232-1.715,1.442-4,1.437-6.242,1.431a20.094,20.094,0,0,0-3.163.162c-6.292.284-12.478,1.586-18.714,2.171a4.311,4.311,0,0,1-4.27-4.27" transform="translate(108.093 2.857)"/>
        <path id="Path_1741" data-name="Path 1741" d="M290.118,44.934c-3.981-.418-10.813-2.979-8.163-8.062,1.787-3.107,5.24-1.994,7.774-.59a10.655,10.655,0,0,0,5.667-.123c-2.933-6.108-8.274-11.275-9.154-18.24-1.253-8.514,8.608-13.079,15.824-11.4,2.8.617,5.473,2.454,6.192,5.357.868,3.868-.368,10.729-5.669,9.459-2.941-.751-3.592-3.97-2.74-6.537-1.621-.044-3.9.107-5.022,1.337l-.056-.172c.428,7.165,7.522,12.1,9.181,19,1.732,6.929-5.579,10.13-11.568,10.13a15.065,15.065,0,0,1-2.268-.164" transform="translate(119.681 2.627)"/>
      </g>
    </g>
    <g id="Group_400" data-name="Group 400" transform="translate(8 -480.492)">
      <g id="Group_401" data-name="Group 401" transform="translate(651 742)">
        <g id="Group_400-2" data-name="Group 400" transform="translate(0 0)" clip-path="url(#clip-path-2)">
          <path id="Path_1742" data-name="Path 1742" d="M55.435,42.5c-6.938-2.7-6.346-11.573-5.7-17.7.848-4.212,1.054-14.606,6.513-15.068,3.287-.062,4.685,4.836,1.709,6.352a55.5,55.5,0,0,0-2.183,12.254c-.412,2.389.311,12.1,3.42,6.02,1.977-4.285,2.282-9.07,3.194-13.645a3.191,3.191,0,0,1,3.068-2.338c3.426.073,3.344,3.667,3.245,6.219.112,2.982.249,6.227,1.827,8.828.537.768,1.2.637,1.885.131,3.551-2.664,3.993-7.842,3.705-11.91a6.955,6.955,0,0,0-1.142-2.675,3.127,3.127,0,0,1,1.112-4.237c2.92-1.64,4.867,1.573,5.627,3.987,1.7,6.346.474,14.138-4.33,18.867-3.362,3.686-9.607,3.551-12.234-.91-1.275,3.118-4.287,6.173-7.729,6.173a5.911,5.911,0,0,1-1.985-.347" transform="translate(29.482 5.81)"/>
          <path id="Path_1743" data-name="Path 1743" d="M75.124,39.231a86.89,86.89,0,0,1-1.64-22.392c.343-2.995-.375-8.34,3.836-8.553a3.225,3.225,0,0,1,3.194,3.194,35.852,35.852,0,0,0-.624,4.891,84.855,84.855,0,0,0,1.324,21.175,3.133,3.133,0,0,1-3.151,3.967,2.978,2.978,0,0,1-2.939-2.282" transform="translate(43.82 4.948)"/>
          <path id="Path_1744" data-name="Path 1744" d="M87.672,36.55a54.257,54.257,0,0,1-1-9.283c-2.969,3.075-9.3,7.123-12.666,2.6-2.1-3.3,1.985-7.987,5.122-4.811,5.459-2.589,6.358-8.879,7.631-14.132A3.11,3.11,0,0,1,89.357,9c5.8-.243,3.1,8.828,3.538,12.472-.069,4.478-.275,9.034.7,13.445a3.051,3.051,0,0,1-3.081,3.848,2.864,2.864,0,0,1-2.84-2.214" transform="translate(43.849 5.37)"/>
          <path id="Path_1745" data-name="Path 1745" d="M91.7,39.752c-1.453-8.31.517-17.045,2.926-25.012,1.9-6.464,8.166-6.863,11.586-1.3a30.512,30.512,0,0,1,3.413,9.583,101.381,101.381,0,0,1,1.677,11.543c.481,2.477.363,6.152-2.963,6.2a3.205,3.205,0,0,1-3.138-3.626c-.743-6.887-1.086-14.306-4.485-20.489-2.166,6.775-3.731,14.4-2.859,21.407A3.144,3.144,0,0,1,94.7,42.058a3.067,3.067,0,0,1-3-2.306" transform="translate(54.467 5.706)"/>
          <path id="Path_1746" data-name="Path 1746" d="M91.763,26.414a3.213,3.213,0,0,1,1.7-4.186c4.637-1.535,9.4-2.621,14.039-4.173,4.036-1.037,5.7,4.91,1.7,6.144-4.274,1.391-9.083,2.608-13.245,3.911a3.515,3.515,0,0,1-1.22.219,3.153,3.153,0,0,1-2.966-1.915" transform="translate(54.657 10.709)"/>
          <path id="Path_1747" data-name="Path 1747" d="M109.793,40.686a116.768,116.768,0,0,1-.442-25.817c.779-3.463-1.429-11.105,4.017-10.83a3.2,3.2,0,0,1,2.752,3.237c-.494,11.068-2,22-.2,32.991a3.075,3.075,0,1,1-6.127.418" transform="translate(64.996 2.407)"/>
          <path id="Path_1748" data-name="Path 1748" d="M105.234,21.192c-1.354-3.669,2.776-4.772,5.541-5.116,4.21-.755,8.478-1.211,12.683-1.99,4.042-.494,4.886,5.509.848,6.17-4.972.893-10.051,1.367-14.942,2.645a2.735,2.735,0,0,1-1.155.249,3.3,3.3,0,0,1-2.976-1.958" transform="translate(62.685 8.394)"/>
          <path id="Path_1749" data-name="Path 1749" d="M142.386,41.334c-3.825-.455-10.025-9.671-5.034-11.873a3.223,3.223,0,0,1,4.18,1.7c.818,2.314,2.177,5.6,5.079,3.482-.113.073-.232.149-.343.224,2.514-3.493-6.433-10.687-6.483-15.085-1.024-5.565,5.771-12.516,11.206-9.259,3.126,1.866,3.967,8.971-.693,9.227a3.225,3.225,0,0,1-3.188-2.937,4.63,4.63,0,0,0-.962,1.271c-.286,1.436.981,2.677,1.6,3.875,1.866,2.69,3.832,5.378,4.892,8.5a8.162,8.162,0,0,1-7.783,11.227,9.16,9.16,0,0,1-2.474-.347" transform="translate(80.911 5.783)"/>
          <path id="Path_1750" data-name="Path 1750" d="M154.06,36.271c-11.711-3.911-2.239-26.671,8.511-22.835a6.54,6.54,0,0,1,2.838,2.383,3.2,3.2,0,0,1,1.634,1.99,33.242,33.242,0,0,1,.843,3.819c1.227,6.964-3.343,15.267-10.4,15.267a10.111,10.111,0,0,1-3.426-.625m3.495-5.727c2.589-.2,3.781-2.952,3.987-5.234a3.823,3.823,0,0,1-.387-3.289,4.937,4.937,0,0,0-1.116-2.7c-3.083.767-8.23,11.46-2.484,11.223" transform="translate(88.783 7.764)"/>
          <path id="Path_1751" data-name="Path 1751" d="M171.612,37.989c-11.23-1.7-10.332-16.895-2.851-22.579,3.768-2.813,8.952-1.46,12.222,1.479a3.189,3.189,0,0,1-4.405,4.611,5.9,5.9,0,0,0-2.763-1.267c-3.214.318-4.018,4.76-4.405,7.406-.43,6.052,7.138,4.328,10.768,3.13a3.172,3.172,0,1,1,1.685,6.116,36.5,36.5,0,0,1-7.81,1.358,11.322,11.322,0,0,1-2.441-.254" transform="translate(97.43 8.28)"/>
          <path id="Path_1752" data-name="Path 1752" d="M178.322,33.277c-.7-5.665.524-11.337.449-17.013.019-4.162,6.314-4.205,6.389,0,.131,5.414-1.16,10.942-.743,16.178a3.021,3.021,0,0,1-3.108,3.448,2.935,2.935,0,0,1-2.987-2.613" transform="translate(106.361 7.838)"/>
          <path id="Path_1753" data-name="Path 1753" d="M200.758,35.615a62.545,62.545,0,0,0-3.98-14.624,50.717,50.717,0,0,0-4.143,14.879,3.2,3.2,0,0,1-6.363-.436c.96-6.146,2.956-18.681,8.939-21.618,8.186-2.415,10.051,13.407,11.562,18.866.717,2.565.554,5.989-2.827,6.12a3.226,3.226,0,0,1-3.188-3.188" transform="translate(111.238 8.102)"/>
          <path id="Path_1754" data-name="Path 1754" d="M189.346,27.153a3.176,3.176,0,0,1-.013-4.5c1.185-1.3,3.113-.85,4.7-1.037,2.495-.224,6.263-.91,6.762,2.5a3.2,3.2,0,0,1-2.726,3.594,17.392,17.392,0,0,0-2.845.211,20.677,20.677,0,0,1-2.594.222,5.011,5.011,0,0,1-3.284-.989" transform="translate(112.513 12.784)"/>
          <path id="Path_1755" data-name="Path 1755" d="M203.7,37.764c-1.335-7.1-.992-14.355-.867-21.543.281-2.627-.331-6,1.715-8,2.065-1.735,5.56.23,5.042,2.913-.712,4.087-.494,8.273-.644,12.41a62.983,62.983,0,0,0,.792,13.394,2.972,2.972,0,0,1-3.071,3.413,2.909,2.909,0,0,1-2.968-2.589" transform="translate(121.049 4.519)"/>
          <path id="Path_1756" data-name="Path 1756" d="M221.819,34.935c.157-6.876-.225-13.894-.1-20.664a3.219,3.219,0,0,1,4.953-1.409c2.052,1.6,1.3,4.592,1.485,6.868.006,5.06-.1,10.139-.032,15.205a3.154,3.154,0,0,1-6.307,0" transform="translate(132.391 7.285)"/>
          <path id="Path_1757" data-name="Path 1757" d="M231.084,36.529c-4.929-1.447-1.061-12.44-.337-16.109,2-9.409,8.149-9.633,11.03-.53,2.389-5.9,9.615-10.107,12.634-2.246,1.429,4.205,1.037,8.722.83,13.076a3.16,3.16,0,1,1-6.32,0,43.255,43.255,0,0,0-.232-9.97c-2.707,3.45-2.875,7.849-3.431,11.966a3.218,3.218,0,0,1-5.7.369c-1.23-2.988-1.99-6.183-3.115-9.222a37.14,37.14,0,0,0-1.353,8.591,3.429,3.429,0,0,1-3.143,4.2,3.043,3.043,0,0,1-.862-.128" transform="translate(136.528 7.888)"/>
          <path id="Path_1758" data-name="Path 1758" d="M249.086,50.056c-.232-10.538.8-21.019,1.211-31.538.174-1.453-.406-2.945.168-4.336a3.224,3.224,0,0,1,5.2-1.017,4.106,4.106,0,0,1,1,3.1c.118,5.3-.517,11.33-.91,16.365-.438,5.8-.569,11.61-.537,17.432a3.067,3.067,0,0,1-6.133,0" transform="translate(148.729 7.319)"/>
          <path id="Path_1759" data-name="Path 1759" d="M251.251,32.517c-.942-5.041,6.026-3.793,8.479-6.483,2.432-1.516.086-7.8-2.385-7.692l.069-.144a3.324,3.324,0,0,0-.76,1.174,3.188,3.188,0,0,1-5.871-2.484c2.228-5.953,9.564-6.588,13.177-1.528,3.712,4.485,4.411,12.035-.743,15.723-2.308,1.9-5.284,2.763-8.1,3.63a2.835,2.835,0,0,1-.819.12,3.218,3.218,0,0,1-3.049-2.316" transform="translate(149.607 7.139)"/>
          <path id="Path_1760" data-name="Path 1760" d="M264.453,33.786c-.487-7.462.543-16.3,5.771-22,4.692-3.638,8.81,1.5,9.933,5.876,1.554,4.742,3.175,9.534,3.737,14.506a3.207,3.207,0,0,1-5.1,2.952,3.364,3.364,0,0,1-1.243-2.645A70.982,70.982,0,0,0,273.425,18a30.145,30.145,0,0,0-2.639,14.918,3.155,3.155,0,0,1-3.244,3.587,3.027,3.027,0,0,1-3.089-2.72" transform="translate(157.862 6.301)"/>
          <path id="Path_1761" data-name="Path 1761" d="M266.327,23.366c.232-4.186,5.4-4.287,8.548-4.811a3.218,3.218,0,0,1,3.594,2.733c.4,3.95-4.006,3.606-6.657,4.274a2.882,2.882,0,0,1-2.2.974,3.208,3.208,0,0,1-3.287-3.17" transform="translate(159.045 11.062)"/>
          <path id="Path_1762" data-name="Path 1762" d="M281.294,16.942c3.911-5.041,12.934-5.172,13.582,2.353.412,4.517-6.2,4.871-6.4.367a3.438,3.438,0,0,0-.593.107c-.038.018-.075.03-.112.05-.075.03-.15.056-.126.069.045-.019.081-.038.12-.056a1.514,1.514,0,0,1,.174-.062,6.951,6.951,0,0,0-3.744,7.146c1.449,3.239,6.021,2.65,9,2.91,4.18.113,4.167,6.3,0,6.371-.466.026-.928.038-1.38.038-11.846,0-18.871-8.668-10.53-19.292" transform="translate(165.808 7.983)"/>
          <path id="Path_1763" data-name="Path 1763" d="M293.319,37.686c-.294-6.756-.556-13.544-.219-20.308.693-3.375-1.61-10.257,3.388-10.631a3.225,3.225,0,0,1,3.194,3.194c-.217,9.246-.842,18.5-.105,27.745a3.13,3.13,0,0,1-6.258,0" transform="translate(174.939 4.029)"/>
          <path id="Path_1764" data-name="Path 1764" d="M289.905,18.847c.131-3.937,4.954-3.669,7.818-3.793a18.835,18.835,0,0,0,3.237-.088c3.231-.249,6.844-.5,7.149,3.132a3.185,3.185,0,0,1-3.156,3.158c-2.883.006-5.766.037-8.641.161-1.174-.069-2.091.524-3.239.6a3.2,3.2,0,0,1-3.169-3.169" transform="translate(173.125 8.861)"/>
          <path id="Path_1765" data-name="Path 1765" d="M311.33,38.512c-2.458-1.054-6.37-2.976-4.579-6.221a3.193,3.193,0,0,1,4.348-1.14c1.217.717,2.378,1.735,3.857,1.715-3.638-4.8-9.1-10.693-6.64-17.2,1.6-4.279,6.633-6.376,10.957-6.033a6.731,6.731,0,0,1,5.446,3.269c1.378,2.683.711,8.166-3.239,7.724a3.386,3.386,0,0,1-2.544-4.611c-12.515.7,2.508,12.391,3.3,17.481.315,3.959-3.571,5.686-7.216,5.686a9.818,9.818,0,0,1-3.69-.669" transform="translate(182.914 5.729)"/>
          <path id="Path_1766" data-name="Path 1766" d="M348.651,38.4c-12.44-1.853-12.721-18.423-4.13-25.074a6.505,6.505,0,0,1,8.142.236c2.027,1.7,4.523,4.948,1.771,7.151-2.664,1.866-4.36-.425-5.958-2.314-2.977,2.065-3.832,6.488-3.439,9.907.693,3.388,4.736,4.379,7.756,3.856a3.194,3.194,0,0,1,2.939,5.084,4.715,4.715,0,0,1-3.774,1.353c-1.129,0-2.292-.16-3.308-.2" transform="translate(202.212 7.171)"/>
          <path id="Path_1767" data-name="Path 1767" d="M353.945,35.794c-.58-3.544-.026-7.331.275-10.925.749-3.911,1.035-8.647,4.154-11.485,10.688-6.657,14.306,12.565,14.843,19.8-.08,4.18-6.263,4.2-6.382,0-.648-5.01-1.366-10.605-4.536-14.692-1.733,4.33-2.115,9.115-2.158,13.744-.013,1.292.15,2.765-.5,3.924a3.072,3.072,0,0,1-2.738,1.548,3.12,3.12,0,0,1-2.958-1.915" transform="translate(211.217 7.168)"/>
          <path id="Path_1768" data-name="Path 1768" d="M354.635,25.171c.243-4.686,8.654-4.736,12.153-5.777a3.208,3.208,0,0,1,3.6,2.733c.382,4.854-7,3.761-10.126,5.335a3.821,3.821,0,0,1-2.393.851,3.113,3.113,0,0,1-3.234-3.142" transform="translate(211.781 11.553)"/>
          <path id="Path_1769" data-name="Path 1769" d="M369.14,35.686c-1.816-4.923-.886-18.142,5.24-19.54,5.141-.088,7,7.666,9.914,10.992.762-3.388,1.8-7.056.712-10.468-.992-3.894,4.8-5.491,5.908-1.629,1.485,4.442.155,19.529-5.809,19.99-4.648-.062-7.25-7.363-9.714-10.656a16.485,16.485,0,0,0-.094,9.609,3.139,3.139,0,0,1-3.158,4,3.063,3.063,0,0,1-3-2.3" transform="translate(219.949 7.658)"/>
          <path id="Path_1770" data-name="Path 1770" d="M402.228,44.236c-2.913-.53-2.958-3.126-2.52-5.5.374-6.925.144-13.864.38-20.8.112-2.415,0-4.867.176-7.269a3.16,3.16,0,0,1,4.684-2.282c1.822,1.041,2.234,3.274,3.1,5.028,2.214,5.247,4.665,10.569,8.759,14.637.157-5.453.318-11.655.062-16.908.056-1.153-.556-2.171-.232-3.338a3.093,3.093,0,0,1,4.124-2c2.247.837,2.1,3.688,2.241,5.665.125,1.629.174,3.269.187,4.9.056,4.461.131,8.959-.163,13.42-.136,1.928-.473,4.156-1.909,5.584-2.14,2.2-5.24.8-6.968-1.179a39.8,39.8,0,0,1-7.849-9.845c-.069,4.6.062,9.208-.18,13.812.029,2.45-.4,6.1-3.388,6.1a3.746,3.746,0,0,1-.506-.032" transform="translate(238.577 3.343)"/>
          <path id="Path_1771" data-name="Path 1771" d="M424.088,40.712c-1.816-.792-4.418-.954-5.029-3.194a93.509,93.509,0,0,1-.548-19.327c-.013-2.758.779-5.7.105-8.361-.985-3.555,4.094-5.64,5.94-2.477.917,1.479.736,3.383.655,5.053-.163,2.928-.337,5.871-.5,8.8,7.831-6.033,15.149,1.953,13.464,10.263A12.091,12.091,0,0,1,426.527,41a10.468,10.468,0,0,1-2.439-.286M430.3,25.283c-3.988,1.03-4.454,5.921-4.879,9.351a3.132,3.132,0,0,0,1.335.182,5.868,5.868,0,0,0,4.6-8.928c-.038-.05-.081-.094-.12-.144s-.056-.081-.08-.081c.024.026.049.051.075.081l.016.027a1.5,1.5,0,0,0-1.083-.57Z" transform="translate(249.776 3.461)"/>
          <path id="Path_1772" data-name="Path 1772" d="M426.392,18.3a1.587,1.587,0,0,1,.12.179c-.043-.061-.081-.12-.12-.179" transform="translate(254.633 10.93)"/>
          <path id="Path_1773" data-name="Path 1773" d="M442.454,40.328c-2.576-1.3-6.745-4.448-3.943-7.475a3.208,3.208,0,0,1,4.486,0c.874.755,1.653,1.766,2.838,1.979-.075-.013-.155-.032-.236-.045a.346.346,0,0,0-.176-.037,6.536,6.536,0,0,0,1.043.161c1.273,0,2.825-.149,3.731-1.129C446.44,27.77,438.287,23.29,438.8,15.329c.468-7.112,10.144-11.449,15.272-6.114,2.5,2.433,2.758,9.064-1.934,8.7a3.219,3.219,0,0,1-2.726-3.6c.032-.268.107-.636-.112-.842a3.1,3.1,0,0,0-3.967,4.073c2.452,6.127,10.326,9.347,11.187,16.128-.08,4.964-4.98,7.555-9.631,7.555a10.818,10.818,0,0,1-4.439-.9" transform="translate(261.313 4.082)"/>
          <path id="Path_1774" data-name="Path 1774" d="M485.619,40.672c-11.449-4.867-9.209-24.295-.393-30.778a9.336,9.336,0,0,1,13.619,2.378,3.22,3.22,0,0,1-.58,4.478c-2.072,1.648-4.392-.037-5.521-1.846-3.364-2.3-6.451,2.64-7.462,5.384-1.623,4.418-2.177,16.427,5.24,14.387-.049.032-.1.069-.149.1a1.25,1.25,0,0,0-.188.131,3.951,3.951,0,0,0,1.56-4.761,3.227,3.227,0,0,1-1.766-4.212c1.442-3.287,5.71-1.821,7.125.736,3.822,6.306-1.177,14.793-7.92,14.793a8.65,8.65,0,0,1-3.565-.792" transform="translate(285.337 4.737)"/>
          <path id="Path_1775" data-name="Path 1775" d="M493.707,27.976c.3-4.641.88-10.687,4.542-13.919,4.4-2.346,7.218,4.9,3.094,6.764-.9,2.894-1.69,6.088-1.166,9.1,1.254,2.7,5.266,1.9,7.6,1.279A12.867,12.867,0,0,0,510.4,29.81a3.209,3.209,0,0,1,4.356,1.142c2.357,5.328-6.975,7.106-10.663,7.056-.131,0-.262.006-.393.006-5.622,0-10.4-4.178-10-10.038" transform="translate(294.817 8.118)"/>
          <path id="Path_1776" data-name="Path 1776" d="M498.125,18.482c3.388-.936,7.024-.636,10.487-1.172a3.193,3.193,0,1,1,.867,6.326c-3.368.4-6.782.449-10.125,1a3.212,3.212,0,0,1-1.23-6.152" transform="translate(296.32 10.324)"/>
          <path id="Path_1777" data-name="Path 1777" d="M497.24,19.843c-3.7-5.023,4.486-6.775,8.011-7.518,3.2-.374,8.915-3.325,9.951,1.453.425,3.544-3.587,3.769-6.121,4.242a41.805,41.805,0,0,0-7.548,2.022,3.1,3.1,0,0,1-2.019.725,3.21,3.21,0,0,1-2.274-.925" transform="translate(296.381 6.617)"/>
          <path id="Path_1778" data-name="Path 1778" d="M511.887,37.7c-.855-5.558-.212-11.367.2-16.976a13.438,13.438,0,0,1,.524-3.306,3.157,3.157,0,0,1,4.474-1.485c4.111,3.45,4.436,10.089,9.221,13.059,1.38-4.9.805-10.195.961-15.235a3.064,3.064,0,0,1,3.044-3.044c4.8.393,2.565,6.8,3.044,10.019-.161,3.787.244,7.9-1.546,11.367-3.707,6.844-10.944,1.953-13.907-2.881a44.257,44.257,0,0,0,.305,7.673,3.223,3.223,0,0,1-6.32.811" transform="translate(305.437 6.396)"/>
          <path id="Path_1779" data-name="Path 1779" d="M537.378,37.194c-8.091-.593-9.645-9.7-8.023-16.2.711-2.845.168-8.085,4.41-7.7,6.576,1.367-1.584,12.878,2.346,17.045,1.185,1.385,3.362.537,4.779-.056,2.078-1.247,4.716-3.413,6.738-.824,3.047,4.75-5.823,7.761-9.759,7.761-.174,0-.339-.006-.492-.018" transform="translate(315.777 7.921)"/>
          <path id="Path_1780" data-name="Path 1780" d="M529.815,21.528c-.281-4.76,5.833-3.662,8.965-4.049,2.733-.1,7.125-1.5,7.769,2.364.236,5.3-7.056,3.469-10.457,4.143-1.067.032-2.134.193-3.188.311a3.262,3.262,0,0,1-3.089-2.77" transform="translate(316.389 10.242)"/>
          <path id="Path_1781" data-name="Path 1781" d="M532,20.906a3.246,3.246,0,0,1-2.228-3.931c.444-1.941,2.634-2.845,4.306-3.407a96.586,96.586,0,0,1,10.281-2.426,3.319,3.319,0,0,1,2.451.324c3.121,2.115,1.286,6-2.145,6.1a55.924,55.924,0,0,0-9.415,2.383,3.358,3.358,0,0,1-2.444,1.064,3,3,0,0,1-.807-.109" transform="translate(316.314 6.597)"/>
          <path id="Path_1782" data-name="Path 1782" d="M546.474,38.555c-3.07-.455-2.789-3.65-2.452-5.953.187-3.137.367-6.282.567-9.42.169-2.433.324-4.867.53-7.3.081-1.335.182-2.739,1.191-3.725a3.211,3.211,0,0,1,4.843.374,3.246,3.246,0,0,1,.38,3.25C551.24,19.189,551,22.6,550.748,26c-.238,3.293-.425,6.595-.762,9.875a3.134,3.134,0,0,1-3.124,2.7,2.883,2.883,0,0,1-.388-.026" transform="translate(324.76 6.704)"/>
          <path id="Path_1783" data-name="Path 1783" d="M560.067,36.107c-4.9-1.024-16.077-2.632-13.046-9.888,2.016-3.22,8.491-3.52,8.909-7.75a2.04,2.04,0,0,0-2.539-1.648l.013,0a1.546,1.546,0,0,0,.193-.069,4.79,4.79,0,0,0-2.217,1.337c-.917,1.768-2.5,3.459-4.676,2.506-4.018-1.977-.792-6.676,1.84-8.379a8.739,8.739,0,0,1,10.3-.137c6.52,5.41,2.527,13.289-4.055,16.377,2.932,1.473,9.115.236,8.836,4.954a3.243,3.243,0,0,1-3.057,2.75,2.538,2.538,0,0,1-.5-.05" transform="translate(325.349 6.245)"/>
          <path id="Path_1784" data-name="Path 1784" d="M550.25,14.441c-.064.024-.121.046-.181.064a1.867,1.867,0,0,1,.181-.064" transform="translate(328.49 8.623)"/>
          <path id="Path_1785" data-name="Path 1785" d="M559.875,37.029c-2.832-6.925.762-14.431,3.843-20.658,1.217-2.458,3.688-4.978,6.67-4.124,4.1,1.318,5.453,6.708,6.67,10.051,1.241,3.868,2.658,7.786,2.995,11.861a3.316,3.316,0,0,1-.625,2.359,3.182,3.182,0,0,1-5.659-1.928,60.614,60.614,0,0,0-4.56-15.186c-2.1,4.585-5.141,10.006-3.444,15.135a3.211,3.211,0,0,1-3.079,4.419,3,3,0,0,1-2.811-1.929" transform="translate(333.732 7.212)"/>
          <path id="Path_1786" data-name="Path 1786" d="M563.46,26.913a3.233,3.233,0,0,1-2.23-3.924c.736-2.932,4.458-2.776,6.833-2.845a18.385,18.385,0,0,0,2.7-.131c2.952-.262,6.234-.53,6.478,3.051a3.244,3.244,0,0,1-3.194,3.188c-2.752.2-5.515.18-8.262.4a3.316,3.316,0,0,1-1.514.374,2.986,2.986,0,0,1-.811-.112" transform="translate(335.096 11.869)"/>
          <path id="Path_1787" data-name="Path 1787" d="M577.2,40.307c-.824-10.45-1.434-21.231.243-31.731a3.189,3.189,0,1,1,6.32.861,102.267,102.267,0,0,0-1.078,12.728c-.307,5.927.786,11.865.348,17.762a2.943,2.943,0,0,1-2.977,2.231,2.987,2.987,0,0,1-2.856-1.851" transform="translate(344.202 3.472)"/>
          <path id="Path_1788" data-name="Path 1788" d="M573.048,21.6c-2.583-7.293,11.1-6.058,15.31-6.333,4.092.081,4.1,6.152,0,6.251-3.426.088-6.944-.069-10.276.867a4.255,4.255,0,0,1-2.343.743,3,3,0,0,1-2.691-1.528" transform="translate(342.021 9.116)"/>
          <path id="Path_1789" data-name="Path 1789" d="M593.8,36.868a9.1,9.1,0,0,1-6.882-7.606c-.792-4.242,1.08-18.535,7.812-12.99a3.211,3.211,0,0,1-.455,4.381c-.942,2.813-1.846,6.3-.637,9.139-.073-.118-.142-.224-.223-.331a2.939,2.939,0,0,0,.436.593,3.475,3.475,0,0,0,.723.549l-.361-.18a5.332,5.332,0,0,0,2.2.636,6.769,6.769,0,0,0,3.4-.829c1.9-.831,3.674-1.666,5.234.685,1.961,4.482-4.063,6.277-8.43,6.277a10.678,10.678,0,0,1-2.819-.324" transform="translate(350.394 8.964)"/>
          <path id="Path_1790" data-name="Path 1790" d="M591.386,25.587a3.266,3.266,0,0,1-3.145-2.758c-.468-3.918,4.287-4.266,7.131-4.2a17.815,17.815,0,0,0,2.932-.088c3.038-.232,6.414-.468,6.689,3.119-.264,3.594-4.094,3.456-7.518,3.313a17.224,17.224,0,0,0-3.707.088,2.883,2.883,0,0,0-1.172.262,3.234,3.234,0,0,1-1.111.265c-.034,0-.066,0-.1,0" transform="translate(351.266 11.005)"/>
          <path id="Path_1791" data-name="Path 1791" d="M590.581,21.149a3.215,3.215,0,0,1-2.228-3.924c1.61-4.854,13.127-3.662,17.62-4.723,4.173-.455,5.009,5.678.867,6.326-4.418.612-8.922.687-13.29,1.584a3.169,3.169,0,0,1-2.15.85,3,3,0,0,1-.819-.113" transform="translate(351.273 7.451)"/>
          <path id="Path_1792" data-name="Path 1792" d="M614.55,25.425c-3.325-2.127-.225-5.459,1.3-7.674,1.461-2.308,3.121-4.753,3.308-7.542-.006-.094-.019-.193-.032-.287-.006-.032-.013-.056-.018-.081a9.043,9.043,0,0,0-5.442,2.1,3.321,3.321,0,0,1-4.435,2.321c-3.619-1.691-1.354-6.208,1.123-7.868,7.381-5.279,17.775-3.257,14.306,7.612-1.211,3.817-3.755,7-5.908,10.319a3.163,3.163,0,0,1-2.7,1.516,2.888,2.888,0,0,1-1.5-.412" transform="translate(362.691 2.147)"/>
          <path id="Path_1793" data-name="Path 1793" d="M610.214,24.3A3.188,3.188,0,1,1,613.4,27.49a3.213,3.213,0,0,1-3.186-3.188" transform="translate(364.407 12.608)"/>
          <path id="Path_1794" data-name="Path 1794" d="M16.742,34.809c.056-7.986-.337-16.047.206-23.994.9-3.538,6.363-2.8,6.277.872-.319,7.7-.12,15.418-.169,23.122a3.049,3.049,0,0,1-3.156,3.1,3.052,3.052,0,0,1-3.158-3.1" transform="translate(9.947 5.085)"/>
          <path id="Path_1795" data-name="Path 1795" d="M28.561,60.681a30.493,30.493,0,0,1-16.834-6.338A30.977,30.977,0,0,1,2.207,41.7,30.462,30.462,0,0,1,8.888,8.842,30.888,30.888,0,0,1,25.671.3c.743-.125,1.492-.225,2.239-.287a3.551,3.551,0,0,1,1.211.1,30.253,30.253,0,0,1,30.72,23.17A30.192,30.192,0,0,1,46.278,56.233a30.1,30.1,0,0,1-15.865,4.506q-.927,0-1.853-.057M29.6,6.141a2.789,2.789,0,0,1-.818.2c-.96.088-1.909.232-2.857.393a33.927,33.927,0,0,0-3.338.893c-.985.361-1.952.76-2.9,1.215a33.81,33.81,0,0,0-2.939,1.728c-.779.562-1.535,1.148-2.271,1.773-.8.73-1.552,1.49-2.278,2.289-.629.755-1.222,1.529-1.784,2.333-.537.837-1.035,1.691-1.5,2.571-.468.973-.893,1.971-1.267,2.995a30.187,30.187,0,0,0-.861,3.15,31.015,31.015,0,0,0-.431,3.308c-.037,1-.03,1.99.013,2.988.094,1.08.238,2.151.438,3.212q.316,1.461.773,2.9a29.606,29.606,0,0,0,1.3,3.113c.462.893.962,1.754,1.5,2.6q.879,1.265,1.878,2.445a29.814,29.814,0,0,0,2.134,2.153,28.387,28.387,0,0,0,2.544,1.971c.85.556,1.728,1.067,2.627,1.541.936.455,1.878.861,2.857,1.223a31.211,31.211,0,0,0,3.22.9c1,.182,1.99.319,2.995.412a31.266,31.266,0,0,0,3.143.026,32.229,32.229,0,0,0,3.514-.455c1.022-.232,2.02-.5,3.012-.824a32.981,32.981,0,0,0,3.207-1.366c.867-.468,1.7-.968,2.527-1.5.736-.511,1.447-1.061,2.14-1.634A31.562,31.562,0,0,0,48.588,46.3c.636-.755,1.235-1.529,1.8-2.333.586-.9,1.129-1.822,1.628-2.777.474-.992.906-2,1.279-3.031a30.229,30.229,0,0,0,.835-3.038c.2-1.067.35-2.134.444-3.22a29.949,29.949,0,0,0,.013-3.076,29.528,29.528,0,0,0-.438-3.3,29.7,29.7,0,0,0-.874-3.182c-.355-.968-.754-1.9-1.2-2.827a29.273,29.273,0,0,0-1.6-2.733,29.057,29.057,0,0,0-1.941-2.508,27.832,27.832,0,0,0-2.158-2.14c-.724-.624-1.473-1.2-2.252-1.754A30.148,30.148,0,0,0,41.287,8.7a29.611,29.611,0,0,0-3.119-1.3c-.954-.311-1.928-.573-2.757-.762a.962.962,0,0,1-.15-.03h-.019A29.439,29.439,0,0,0,32.2,6.184c-.612-.037-1.217-.056-1.829-.056-.256,0-.517.006-.773.013" transform="translate(0 0)"/>
          <path id="Path_1796" data-name="Path 1796" d="M74.755,10.852a5.681,5.681,0,0,0,1.161-1.741,3.125,3.125,0,0,1,4.41.818,5.575,5.575,0,0,0-1.041.58.824.824,0,0,0-.125-.013,17.344,17.344,0,0,0-4.431.438.305.305,0,0,0,.026-.081" transform="translate(44.627 5.084)"/>
          <path id="Path_1797" data-name="Path 1797" d="M84.677,8.4c.081,0,.163,0,.236.006l-.8.112c-.168.019-.331.045-.5.062a3.14,3.14,0,0,1,1.061-.18" transform="translate(49.934 5.015)"/>
          <path id="Path_1798" data-name="Path 1798" d="M26.263,52.152c-1-.094-2-.232-2.995-.412a31.216,31.216,0,0,1-3.22-.906c-.979-.361-1.921-.767-2.857-1.222-.9-.474-1.778-.985-2.626-1.541A29.008,29.008,0,0,1,12.02,46.1a30.144,30.144,0,0,1-2.134-2.153c-.668-.786-1.292-1.6-1.878-2.445-.543-.843-1.041-1.7-1.5-2.6a29.617,29.617,0,0,1-1.3-3.113c-.305-.955-.561-1.923-.773-2.9A32.3,32.3,0,0,1,4,29.684c-.045-1-.051-1.99-.013-2.988a30.578,30.578,0,0,1,.43-3.306,30.727,30.727,0,0,1,.861-3.151q.563-1.533,1.267-2.995.7-1.32,1.5-2.57c.561-.8,1.153-1.578,1.784-2.333.724-.8,1.479-1.56,2.278-2.29.736-.623,1.49-1.209,2.271-1.771a33.382,33.382,0,0,1,2.937-1.728c.949-.455,1.917-.854,2.9-1.217a34.248,34.248,0,0,1,3.338-.891c.947-.163,1.9-.307,2.857-.393a2.791,2.791,0,0,0,.816-.2c.257-.013.519-.013.775-.013.612,0,1.217.018,1.827.056a29.04,29.04,0,0,1,3.046.425h.018c.051.011.1.024.15.03.831.187,1.8.449,2.758.762a29.415,29.415,0,0,1,3.119,1.3,29.781,29.781,0,0,1,2.838,1.672c.779.549,1.528,1.129,2.252,1.754a27.834,27.834,0,0,1,2.159,2.139,29.4,29.4,0,0,1,1.941,2.509,29.784,29.784,0,0,1,1.6,2.733c.444.923.843,1.859,1.2,2.825a29.689,29.689,0,0,1,.872,3.182,29.557,29.557,0,0,1,.438,3.3A29.953,29.953,0,0,1,52.2,29.6a32.468,32.468,0,0,1-.442,3.218,31.01,31.01,0,0,1-.835,3.039c-.374,1.035-.807,2.04-1.279,3.031q-.75,1.433-1.629,2.776c-.562.8-1.161,1.578-1.8,2.333a30.992,30.992,0,0,1-2.415,2.389c-.692.575-1.4,1.123-2.14,1.636-.823.537-1.659,1.035-2.527,1.5A32.963,32.963,0,0,1,35.934,50.9c-.992.324-1.99.593-3.014.823a31.485,31.485,0,0,1-3.512.455q-.671.029-1.34.029c-.6,0-1.2-.018-1.8-.053M24.529,13.6c-.543,7.949-.15,16.009-.206,23.994a3.157,3.157,0,0,0,6.314,0c.05-7.7-.15-15.422.169-23.121A3.1,3.1,0,0,0,27.548,11.3a3,3,0,0,0-3.019,2.3" transform="translate(2.364 2.291)" fill="#4ab070"/>
        </g>
      </g>
    </g>
  </g>
</svg>
